<svg width="327" height="126" viewBox="0 0 327 126" fill="none" xmlns="http://www.w3.org/2000/svg">
<g opacity="0.2">
<path d="M311.072 101.65C315.856 102.553 319.245 104.866 319.245 107.574V110.742H293.902V107.574C293.902 104.866 297.292 102.553 302.075 101.65L306.574 109.158L311.072 101.65ZM300.238 88.5669H312.909V91.7349C312.909 93.4152 312.242 95.0268 311.054 96.215C309.865 97.4032 308.254 98.0707 306.574 98.0707C304.893 98.0707 303.282 97.4032 302.093 96.215C300.905 95.0268 300.238 93.4152 300.238 91.7349V88.5669ZM300.238 86.983L300.887 80.4887C300.927 80.0967 301.111 79.7334 301.404 79.4698C301.696 79.2062 302.077 79.0612 302.471 79.0632H310.692C311.5 79.0632 312.181 79.6809 312.26 80.4887L312.909 86.983H300.238ZM306.574 80.6471H304.99V82.2311H303.406V83.8151H304.99V85.399H306.574V83.8151H308.158V82.2311H306.574V80.6471Z" fill="#359CF6"/>
<path d="M15.6174 13.4125L15.7898 13.3978C15.8523 13.3911 15.912 13.3687 15.9634 13.3325L15.9622 13.3337C16.1272 13.9026 16.3291 14.501 16.5815 15.1277C16.9053 15.9477 17.2242 16.6212 17.5813 17.2713L17.532 17.1728C17.5025 17.621 17.4668 18.0815 17.42 18.5272C17.399 18.7901 17.3457 19.0494 17.2611 19.2992L17.2673 19.277C17.2525 19.2832 17.2316 21.8381 17.2316 21.8381C17.2325 22.6307 17.4998 23.4 17.9907 24.0224C18.4815 24.6447 19.1673 25.084 19.9379 25.2696L19.9625 25.2745C19.9962 25.1853 20.0563 25.1084 20.1349 25.0543C20.2135 25.0001 20.3067 24.9713 20.4021 24.9716H21.1089C21.2032 24.9729 21.2951 25.002 21.3731 25.0552C21.4511 25.1084 21.5116 25.1834 21.5472 25.2708L21.5484 25.2745C22.3254 25.0942 23.019 24.6572 23.517 24.0341C24.015 23.411 24.2883 22.6382 24.2929 21.8405C24.2929 21.8405 24.2498 19.2955 24.2276 19.2783C24.1531 19.0406 24.1028 18.796 24.0774 18.5481L24.0762 18.5297C24.0331 18.0815 24.0048 17.6321 23.9642 17.1753C24.2683 16.6261 24.5872 15.9539 24.8679 15.2607L24.9147 15.1301C25.1671 14.5034 25.3629 13.9063 25.534 13.3362C25.5847 13.372 25.6435 13.3944 25.7052 13.4014H25.7064L25.88 13.4162C26.0893 13.4384 26.274 13.266 26.2912 12.9988L26.4784 10.6212V10.6188C26.4783 10.5231 26.4434 10.4307 26.3802 10.3589C26.317 10.2871 26.2298 10.2407 26.1349 10.2285H26.1115C26.2771 8.99047 26.1755 7.73134 25.8135 6.53591L25.8295 6.5987C25.4822 5.82759 24.954 5.15163 24.2898 4.62819C23.6255 4.10475 22.8448 3.74929 22.0138 3.59195L21.9818 3.58703C21.5788 3.50714 21.1698 3.46102 20.7592 3.44913H20.7333C20.3037 3.4569 19.8757 3.50555 19.4553 3.59442L19.4996 3.58703C18.6693 3.74167 17.888 4.09271 17.221 4.61084C16.554 5.12898 16.0206 5.79917 15.6654 6.56546L15.6519 6.5987C15.2975 7.78986 15.203 9.04322 15.3748 10.274L15.3699 10.2285C15.2748 10.2388 15.1868 10.2838 15.1227 10.3549C15.0587 10.426 15.0231 10.5182 15.0227 10.6139V10.6225L15.2099 13.0001C15.2271 13.2734 15.4142 13.4384 15.6162 13.4162L15.6174 13.4125Z" fill="#359CF6"/>
<path d="M33.9459 29.1482C33.8597 25.4051 33.4854 24.558 33.2835 23.9842C33.2035 23.754 33.1382 22.1977 30.5673 21.188C28.9913 20.5675 26.9572 20.5552 25.2359 19.8275V21.8517C25.2346 22.8895 24.8722 23.8946 24.2108 24.6944C23.5494 25.4942 22.6302 26.0389 21.6111 26.235L21.5828 26.2399C21.5643 26.3491 21.5081 26.4484 21.424 26.5204C21.3398 26.5924 21.233 26.6326 21.1223 26.6339H21.1001V28.1607C21.1001 28.8771 21.3847 29.5643 21.8913 30.0709C22.3979 30.5775 23.0851 30.8621 23.8015 30.8621C24.518 30.8621 25.2051 30.5775 25.7117 30.0709C26.2183 29.5643 26.5029 28.8771 26.5029 28.1607V27.0944C26.1311 27.0399 25.7921 26.851 25.5501 26.5634C25.3081 26.2758 25.1799 25.9095 25.1898 25.5338C25.1996 25.1581 25.3468 24.7991 25.6035 24.5246C25.8602 24.25 26.2086 24.0791 26.5827 24.0441C26.9569 24.0091 27.331 24.1125 27.6341 24.3346C27.9373 24.5568 28.1485 24.8823 28.2278 25.2497C28.3072 25.617 28.2491 26.0007 28.0647 26.3282C27.8802 26.6556 27.5822 26.9041 27.2269 27.0267L27.2158 27.0304V28.2186C27.2158 29.1244 26.856 29.9932 26.2154 30.6337C25.5749 31.2742 24.7061 31.6341 23.8003 31.6341C22.8944 31.6341 22.0257 31.2742 21.3851 30.6337C20.7446 29.9932 20.3847 29.1244 20.3847 28.2186V28.157V28.1595V26.6191C20.2792 26.6122 20.1792 26.5697 20.101 26.4986C20.0227 26.4275 19.9708 26.332 19.9538 26.2276V26.2251C18.9338 26.0306 18.0131 25.4874 17.3495 24.6886C16.686 23.8898 16.3208 22.8852 16.3166 21.8468V19.8065C14.588 20.549 12.5416 20.5638 10.9569 21.1856C8.37868 22.194 8.31958 23.7466 8.24078 23.9805C8.04377 24.5568 7.66454 25.4002 7.57836 29.1457C7.56358 29.6382 7.57836 30.393 9.06326 31.0529C12.2966 32.3211 16.4619 32.7151 20.5682 32.9983H20.9622C25.0771 32.7176 29.2363 32.3248 32.4672 31.0529C33.9459 30.3967 33.9594 29.6456 33.9459 29.1482ZM15.8697 27.6214H14.3355V29.1617H13.2397V27.6263H11.7056V26.5305H13.2397V24.9963H14.3355V26.5305H15.8697V27.6214Z" fill="#359CF6"/>
<path d="M33.8821 108.823L31.673 98.3737C31.3574 97.2819 30.2529 96.3462 28.9905 96.3462H25.9925V94.4747C25.9925 92.9151 24.7302 91.6674 23.1523 91.6674H19.3653C17.7874 91.6674 16.525 92.9151 16.525 94.4747V96.3462H13.527C12.2647 96.3462 11.1601 97.2819 10.8446 98.3737L8.63548 108.823C8.3199 110.383 9.58223 111.942 11.3179 111.942H31.0418C32.9353 111.942 34.1977 110.383 33.8821 108.823ZM18.103 94.4747C18.103 93.8508 18.7341 93.227 19.3653 93.227H23.1523C23.7834 93.227 24.4146 93.8508 24.4146 94.4747V96.3462H18.103V94.4747ZM25.9925 105.704H22.8367V108.823H19.6809V105.704H16.525V102.585H19.6809V99.4654H22.8367V102.585H25.9925V105.704Z" fill="#359CF6"/>
<path d="M181.137 59.6513H174.802V65.9871H168.466V59.6513H162.13V53.3154H168.466V46.9796H174.802V53.3154H181.137" fill="#359CF6"/>
<path d="M128.219 23.4427H127.214V13.9389C127.214 13.4348 127.003 12.9513 126.626 12.5948C126.249 12.2384 125.738 12.0381 125.204 12.0381H118.169V4.43509C118.169 3.93098 117.958 3.44751 117.581 3.09105C117.204 2.73459 116.693 2.53433 116.159 2.53433H104.1C103.566 2.53433 103.055 2.73459 102.678 3.09105C102.301 3.44751 102.09 3.93098 102.09 4.43509V23.4427H101.085C100.818 23.4427 100.562 23.5428 100.374 23.721C100.185 23.8992 100.08 24.141 100.08 24.393C100.08 24.6451 100.185 24.8868 100.374 25.0651C100.562 25.2433 100.818 25.3434 101.085 25.3434H128.219C128.486 25.3434 128.742 25.2433 128.93 25.0651C129.119 24.8868 129.224 24.6451 129.224 24.393C129.224 24.141 129.119 23.8992 128.93 23.721C128.742 23.5428 128.486 23.4427 128.219 23.4427ZM113.145 23.4427H107.115V17.7404H113.145V23.4427ZM113.145 11.0877H111.135V12.9885C111.135 13.2406 111.029 13.4823 110.84 13.6605C110.652 13.8387 110.396 13.9389 110.13 13.9389C109.863 13.9389 109.607 13.8387 109.419 13.6605C109.23 13.4823 109.125 13.2406 109.125 12.9885V11.0877H107.115C106.848 11.0877 106.592 10.9876 106.404 10.8094C106.215 10.6311 106.11 10.3894 106.11 10.1374C106.11 9.8853 106.215 9.64357 106.404 9.46534C106.592 9.28711 106.848 9.18698 107.115 9.18698H109.125V7.28622C109.125 7.03417 109.23 6.79244 109.419 6.61421C109.607 6.43598 109.863 6.33585 110.13 6.33585C110.396 6.33585 110.652 6.43598 110.84 6.61421C111.029 6.79244 111.135 7.03417 111.135 7.28622V9.18698H113.145C113.411 9.18698 113.667 9.28711 113.855 9.46534C114.044 9.64357 114.149 9.8853 114.149 10.1374C114.149 10.3894 114.044 10.6311 113.855 10.8094C113.667 10.9876 113.411 11.0877 113.145 11.0877ZM125.204 23.4427H118.169V13.9389H125.204V23.4427Z" fill="#359CF6"/>
<path fill-rule="evenodd" clip-rule="evenodd" d="M217.997 5.0687V6.68786C217.997 7.74517 218.643 8.64543 219.546 8.97898V9.92619H218.771C218.566 9.92619 218.369 10.0115 218.224 10.1633C218.078 10.3151 217.997 10.5211 217.997 10.7358V15.5933C217.997 15.808 218.078 16.0139 218.224 16.1657C218.369 16.3175 218.566 16.4028 218.771 16.4028H221.869C222.074 16.4028 222.271 16.3175 222.416 16.1657C222.562 16.0139 222.643 15.808 222.643 15.5933V10.7358C222.643 10.5211 222.562 10.3151 222.416 10.1633C222.271 10.0115 222.074 9.92619 221.869 9.92619H221.094V9.1166H224.966V18.885H211.113C211.081 18.8854 211.05 18.8792 211.021 18.8667C210.992 18.8541 210.966 18.8356 210.944 18.8122L210.66 18.5126L210.946 18.2155C211.217 17.9321 211.433 17.5956 211.58 17.2252C211.726 16.8549 211.802 16.4579 211.802 16.0569C211.802 15.656 211.727 15.2589 211.58 14.8885C211.433 14.5181 211.218 14.1815 210.947 13.898L209.553 12.4407C209.282 12.157 208.96 11.9318 208.606 11.7782C208.252 11.6245 207.872 11.5452 207.489 11.545C207.105 11.5448 206.725 11.6236 206.371 11.7768C206.017 11.9301 205.694 12.1549 205.423 12.4383L204.878 13.0083C204.351 12.8511 203.793 12.8449 203.263 12.9903C202.733 13.1357 202.25 13.4274 201.864 13.8348C201.285 14.4463 200.96 15.272 200.96 16.1324C200.96 16.9929 201.285 17.8185 201.864 18.43L202.509 19.1093V27.737H200.186V29.3562H202.548C202.163 29.7501 201.9 30.2548 201.791 30.8061C201.682 31.3573 201.732 31.93 201.935 32.4511C202.139 32.9722 202.486 33.4182 202.933 33.7321C203.38 34.046 203.906 34.2136 204.445 34.2136C204.983 34.2136 205.509 34.046 205.956 33.7321C206.403 33.4182 206.751 32.9722 206.954 32.4511C207.158 31.93 207.208 31.3573 207.099 30.8061C206.99 30.2548 206.726 29.7501 206.342 29.3562H221.908C221.524 29.7501 221.26 30.2548 221.151 30.8061C221.042 31.3573 221.092 31.93 221.296 32.4511C221.499 32.9722 221.847 33.4182 222.294 33.7321C222.74 34.046 223.267 34.2136 223.805 34.2136C224.344 34.2136 224.87 34.046 225.317 33.7321C225.764 33.4182 226.111 32.9722 226.314 32.4511C226.518 31.93 226.568 31.3573 226.459 30.8061C226.35 30.2548 226.087 29.7501 225.702 29.3562H228.064V27.737H224.966V25.3082H225.017C226.701 25.3082 228.064 23.8704 228.064 22.0966C228.065 21.5289 227.922 20.9711 227.65 20.4798C227.378 19.9884 226.987 19.5812 226.515 19.2995V9.1166C226.515 8.68718 226.352 8.27534 226.061 7.97168C225.771 7.66803 225.377 7.49744 224.966 7.49744H220.32C220.115 7.49744 219.918 7.41215 219.772 7.26032C219.627 7.10849 219.546 6.90257 219.546 6.68786V5.0687H217.997ZM206.246 13.8672L209.568 17.3646L209.851 17.0699C209.979 16.9369 210.08 16.7789 210.148 16.6049C210.217 16.431 210.253 16.2446 210.253 16.0563C210.253 15.8681 210.217 15.6817 210.148 15.5077C210.08 15.3338 209.979 15.1758 209.851 15.0427L208.457 13.5855C208.33 13.4522 208.179 13.3465 208.013 13.2742C207.846 13.202 207.668 13.1648 207.488 13.1646C207.308 13.1645 207.13 13.2014 206.963 13.2734C206.797 13.3453 206.646 13.4508 206.518 13.5839L206.246 13.8672ZM223.418 27.737H204.058V20.739L208.143 25.0387C208.307 25.2111 208.528 25.3082 208.76 25.3082H223.418V27.737Z" fill="#359CF6"/>
<path fill-rule="evenodd" clip-rule="evenodd" d="M72.552 47.016C72.552 50.2011 70.0707 52.7816 67.0081 52.7816C63.9455 52.7816 61.4642 50.2011 61.4642 47.016C61.4642 43.8309 63.9455 41.2503 67.0081 41.2503C70.0707 41.2503 72.552 43.8309 72.552 47.016ZM56.7123 58.8767C56.7123 55.3712 63.5717 53.6053 67.0081 53.6053C69.1433 53.6053 72.5995 54.2872 74.9121 55.6438C73.4834 56.4204 72.2499 57.5348 71.3107 58.8974C70.3715 60.26 69.7529 61.8327 69.5044 63.4892H56.7123V58.8767ZM77.3039 56.8999C77.3039 56.6815 77.3873 56.472 77.5358 56.3175C77.6844 56.163 77.8858 56.0762 78.0959 56.0762H81.2638C81.4738 56.0762 81.6753 56.163 81.8238 56.3175C81.9723 56.472 82.0558 56.6815 82.0558 56.8999C82.0558 57.1184 81.9723 57.3279 81.8238 57.4823C81.6753 57.6368 81.4738 57.7236 81.2638 57.7236H80.4718V59.4285C81.3889 59.5666 82.258 59.9416 82.9998 60.5191L84.1038 59.3709L83.8718 59.1296C83.7275 58.9742 83.6477 58.7661 83.6495 58.5502C83.6513 58.3342 83.7346 58.1276 83.8814 57.9749C84.0283 57.8222 84.2269 57.7356 84.4346 57.7337C84.6422 57.7318 84.8423 57.8149 84.9916 57.9649L86.5756 59.6122C86.7199 59.7676 86.7997 59.9756 86.7979 60.1916C86.7961 60.4075 86.7128 60.6141 86.566 60.7668C86.4191 60.9196 86.2205 61.0062 86.0128 61.0081C85.8052 61.0099 85.6051 60.9269 85.4557 60.7769L85.2237 60.5355L84.1197 61.6837C84.675 62.4552 85.0355 63.3591 85.1683 64.3129H86.8077V63.4892C86.8077 63.2707 86.8911 63.0612 87.0396 62.9068C87.1881 62.7523 87.3896 62.6655 87.5996 62.6655C87.8097 62.6655 88.0111 62.7523 88.1597 62.9068C88.3082 63.0612 88.3916 63.2707 88.3916 63.4892V66.7838C88.3916 67.0023 88.3082 67.2118 88.1597 67.3663C88.0111 67.5207 87.8097 67.6075 87.5996 67.6075C87.3896 67.6075 87.1881 67.5207 87.0396 67.3663C86.8911 67.2118 86.8077 67.0023 86.8077 66.7838V65.9602H85.1683C85.0632 66.7156 84.815 67.4419 84.438 68.0968L86.0157 69.7375L86.2477 69.4962C86.3971 69.3461 86.5972 69.2631 86.8048 69.265C87.0125 69.2669 87.2111 69.3535 87.3579 69.5062C87.5048 69.6589 87.5881 69.8655 87.5899 70.0814C87.5917 70.2974 87.5119 70.5055 87.3676 70.6608L85.7836 72.3081C85.6343 72.4582 85.4342 72.5412 85.2265 72.5393C85.0189 72.5374 84.8202 72.4508 84.6734 72.2981C84.5266 72.1454 84.4433 71.9388 84.4415 71.7228C84.4397 71.5069 84.5195 71.2988 84.6638 71.1435L84.8958 70.9021L83.4322 69.3808C82.6097 70.1676 81.5778 70.6775 80.4718 70.8437V72.5495H81.2638C81.4738 72.5495 81.6753 72.6362 81.8238 72.7907C81.9723 72.9452 82.0558 73.1547 82.0558 73.3731C82.0558 73.5916 81.9723 73.8011 81.8238 73.9555C81.6753 74.11 81.4738 74.1968 81.2638 74.1968H78.0959C77.8858 74.1968 77.6844 74.11 77.5358 73.9555C77.3873 73.8011 77.3039 73.5916 77.3039 73.3731C77.3039 73.1547 77.3873 72.9452 77.5358 72.7907C77.6844 72.6362 77.8858 72.5495 78.0959 72.5495H78.8878V70.8445C77.9708 70.7064 77.1016 70.3315 76.3598 69.754L75.2558 70.9021L75.4879 71.1435C75.6321 71.2988 75.712 71.5069 75.7101 71.7228C75.7083 71.9388 75.6251 72.1454 75.4782 72.2981C75.3314 72.4508 75.1327 72.5374 74.9251 72.5393C74.7174 72.5412 74.5174 72.4582 74.368 72.3081L72.784 70.6608C72.6398 70.5055 72.5599 70.2974 72.5617 70.0814C72.5635 69.8655 72.6468 69.6589 72.7937 69.5062C72.9405 69.3535 73.1392 69.2669 73.3468 69.265C73.5545 69.2631 73.7545 69.3461 73.9039 69.4962L74.1359 69.7375L75.24 68.5893C74.6847 67.8178 74.3242 66.9139 74.1914 65.9602H72.552V66.7838C72.552 67.0023 72.4685 67.2118 72.32 67.3663C72.1715 67.5207 71.97 67.6075 71.76 67.6075C71.55 67.6075 71.3485 67.5207 71.2 67.3663C71.0515 67.2118 70.968 67.0023 70.968 66.7838V63.4892C70.968 63.2707 71.0515 63.0612 71.2 62.9068C71.3485 62.7523 71.55 62.6655 71.76 62.6655C71.97 62.6655 72.1715 62.7523 72.32 62.9068C72.4685 63.0612 72.552 63.2707 72.552 63.4892V64.3129H74.1914C74.3242 63.3591 74.6847 62.4552 75.24 61.6837L74.1359 60.5355L73.9039 60.7769C73.7545 60.9269 73.5545 61.0099 73.3468 61.0081C73.1392 61.0062 72.9405 60.9196 72.7937 60.7668C72.6468 60.6141 72.5635 60.4075 72.5617 60.1916C72.5599 59.9756 72.6398 59.7676 72.784 59.6122L74.368 57.9649C74.5174 57.8149 74.7174 57.7318 74.9251 57.7337C75.1327 57.7356 75.3314 57.8222 75.4782 57.9749C75.6251 58.1276 75.7083 58.3342 75.7101 58.5502C75.712 58.7661 75.6321 58.9742 75.4879 59.1296L75.2558 59.3709L76.3598 60.5191C77.1016 59.9416 77.9708 59.5666 78.8878 59.4285V57.7236H78.0959C77.8858 57.7236 77.6844 57.6368 77.5358 57.4823C77.3873 57.3279 77.3039 57.1184 77.3039 56.8999Z" fill="#359CF6"/>
<path d="M119.639 83.8052C119.639 83.5339 119.693 83.2652 119.796 83.0146C119.9 82.7639 120.053 82.5362 120.245 82.3445C120.437 82.1527 120.664 82.0007 120.915 81.8972C121.166 81.7936 121.435 81.7406 121.706 81.741C121.977 81.7406 122.246 81.7937 122.497 81.8973C122.748 82.0008 122.976 82.1528 123.168 82.3445C123.36 82.5363 123.512 82.7639 123.616 83.0146C123.72 83.2652 123.774 83.5339 123.774 83.8052C123.774 84.3535 123.556 84.8793 123.168 85.2669C122.781 85.6546 122.255 85.8724 121.707 85.8724C121.158 85.8724 120.633 85.6546 120.245 85.2669C119.857 84.8793 119.639 84.3535 119.639 83.8052ZM139.601 82.5409C140.51 82.5409 141.244 83.2535 141.252 84.1557L141.256 88.5152H124.667V82.5452L139.601 82.5409ZM122.757 88.5118C123.318 88.5118 123.774 88.0561 123.774 87.495C123.774 86.934 123.318 86.4783 122.757 86.4783H119.818C119.684 86.4782 119.552 86.5045 119.429 86.5555C119.305 86.6066 119.193 86.6815 119.099 86.776C119.005 86.8704 118.93 86.9825 118.879 87.1059C118.828 87.2293 118.802 87.3615 118.802 87.495C118.802 88.0561 119.254 88.5118 119.818 88.5118H122.757Z" fill="#359CF6"/>
<path d="M142.239 92.7992V97.3454H144.931V82.9284C144.932 82.7519 144.897 82.5771 144.83 82.414C144.762 82.2508 144.663 82.1026 144.539 81.9777C144.414 81.8528 144.266 81.7537 144.103 81.6861C143.94 81.6185 143.765 81.5836 143.589 81.5836C143.231 81.5831 142.889 81.7244 142.636 81.9766C142.383 82.2288 142.24 82.5711 142.239 82.9284V89.5451H118.069V80.2085C118.069 79.4662 117.421 78.8623 116.677 78.8623V78.8633C115.935 78.8633 115.351 79.4662 115.351 80.2081V97.3449H118.068V92.7987L142.239 92.7992ZM133.709 66.4593C134.57 66.4593 135.981 66.8215 136.766 67.6803L135.708 69.7119C135.472 69.4061 135.169 69.1585 134.823 68.9883C134.476 68.8181 134.095 68.7298 133.709 68.7302C132.905 68.7302 132.19 69.1055 131.728 69.6919L130.649 67.7252C131.557 66.8166 132.813 66.4588 133.709 66.4588V66.4593ZM133.404 68.5065H134.008V67.9026H134.612V67.3001H134.008V66.6967H133.404V67.3001H132.801V67.9026H133.404V68.5065Z" fill="#359CF6"/>
<path d="M135.646 71.3862C135.646 71.901 135.441 72.3947 135.077 72.7588C134.713 73.1228 134.22 73.3273 133.705 73.3273C133.19 73.3273 132.696 73.1228 132.332 72.7588C131.968 72.3947 131.764 71.901 131.764 71.3862C131.764 70.8713 131.968 70.3776 132.332 70.0136C132.696 69.6495 133.19 69.445 133.705 69.445C134.22 69.445 134.713 69.6495 135.077 70.0136C135.441 70.3776 135.646 70.8713 135.646 71.3862ZM131.838 73.8803C130.481 73.8876 129.695 74.9887 129.518 75.6107L127.865 81.0371H129.538L130.757 76.8736H131.624L130.409 81.0362H136.992L135.786 76.8736H136.653L137.903 81.0371H139.552L137.892 75.6107C137.716 74.9965 136.946 73.9164 135.619 73.8832L131.838 73.8803ZM119.469 75.1281C117.086 75.1281 115.15 73.1911 115.15 70.8086C115.15 68.4256 117.086 66.4881 119.469 66.4881C121.85 66.4881 123.789 68.426 123.789 70.8086C123.789 73.1911 121.85 75.1281 119.469 75.1281ZM119.467 74.0587C121.26 74.0587 122.72 72.6008 122.72 70.8076C122.72 69.0163 121.261 67.556 119.467 67.556C117.676 67.556 116.219 69.0158 116.219 70.8076C116.219 72.6013 117.676 74.0587 119.467 74.0587Z" fill="#359CF6"/>
<path d="M119.491 71.379C119.441 71.4018 119.387 71.4117 119.332 71.4076C119.278 71.4035 119.225 71.3856 119.179 71.3556C119.141 71.3307 119.108 71.2978 119.083 71.2591C119.058 71.2204 119.042 71.1769 119.035 71.1313L119.031 68.6206C119.034 68.5366 119.07 68.4572 119.13 68.3989C119.191 68.3407 119.272 68.3081 119.356 68.3081C119.44 68.3081 119.52 68.3407 119.581 68.3989C119.642 68.4572 119.677 68.5366 119.68 68.6206V70.5684L121.345 69.7841C121.423 69.7524 121.509 69.7515 121.587 69.7817C121.664 69.8119 121.727 69.8708 121.763 69.9462C121.798 70.0216 121.803 70.1078 121.777 70.1869C121.751 70.2659 121.695 70.3319 121.621 70.371L119.491 71.379Z" fill="#359CF6"/>
<path d="M222.21 72.8179C223.013 72.8838 223.809 72.6131 224.422 72.0653C225.035 71.5175 225.415 70.7372 225.48 69.8956C225.542 69.0534 225.283 68.2197 224.76 67.5774C224.236 66.935 223.491 66.5363 222.687 66.4687C221.884 66.4023 221.088 66.6731 220.475 67.2214C219.862 67.7698 219.482 68.5508 219.419 69.3928C219.387 69.8098 219.435 70.2292 219.558 70.6271C219.681 71.0249 219.878 71.3934 220.137 71.7115C220.397 72.0296 220.713 72.2911 221.069 72.481C221.424 72.671 221.812 72.7856 222.21 72.8185V72.8179ZM223.043 79.2012C223.512 79.2956 223.934 79.5585 224.237 79.9444C224.54 80.3303 224.705 80.8151 224.704 81.3149C224.704 81.8858 224.487 82.4332 224.102 82.8368C223.717 83.2405 223.194 83.4674 222.65 83.4677H215.993C215.779 83.4678 215.568 83.4127 215.38 83.3072C215.191 83.2017 215.029 83.0492 214.91 82.863C214.791 82.6768 214.717 82.4627 214.695 82.2395C214.674 82.0164 214.705 81.791 214.786 81.5834L215.505 79.823L223.521 73.8064H219.702C218.235 73.7637 217.204 74.2976 216.613 75.5083C216.213 76.3229 214.085 81.304 214.085 81.304C213.961 81.6307 213.915 81.9843 213.951 82.334C213.987 82.6837 214.104 83.0188 214.293 83.31C214.481 83.6012 214.734 83.8396 215.031 84.0043C215.328 84.169 215.658 84.255 215.994 84.2549H218.594L217.827 89.5393L213.792 101.759C213.629 102.277 213.668 102.842 213.903 103.329C214.137 103.816 214.546 104.186 215.04 104.357C215.535 104.528 216.074 104.486 216.538 104.241C217.003 103.995 217.356 103.567 217.519 103.049L222.159 89.2641C223.064 90.8048 224.865 93.5666 225.171 94.0883C225.242 94.9554 225.89 102.599 225.89 102.599C225.936 103.143 226.187 103.644 226.586 103.994C226.985 104.344 227.501 104.514 228.019 104.466C228.276 104.442 228.526 104.366 228.754 104.24C228.983 104.115 229.186 103.944 229.351 103.737C229.516 103.53 229.641 103.29 229.718 103.033C229.795 102.775 229.823 102.504 229.8 102.235L229.038 93.2383C229.012 92.9196 228.914 92.6119 228.752 92.3407L225.417 86.675L225.948 79.5643C225.948 79.5643 226.738 82.3779 226.796 82.5811C226.966 83.162 227.348 83.5788 227.74 83.9114C227.969 84.103 231.863 86.88 231.863 86.88C232.079 86.985 232.256 87.0771 232.489 87.0936C232.668 87.1088 232.849 87.0869 233.02 87.0289C233.191 86.971 233.35 86.8782 233.487 86.7558C233.624 86.6335 233.736 86.4841 233.818 86.3161C233.9 86.1481 233.949 85.9648 233.964 85.7768C233.981 85.537 233.941 85.2964 233.848 85.0768C233.754 84.8572 233.61 84.6655 233.428 84.5191C233.428 84.5191 229.548 81.7274 229.39 81.606C229.274 81.5087 229.186 81.38 229.135 81.2338L227.599 75.4381C227.35 74.5612 226.507 73.807 225.44 73.807H224.981L223.043 79.2012Z" fill="#359CF6"/>
<path fill-rule="evenodd" clip-rule="evenodd" d="M292.669 8.03681C292.571 7.93471 292.494 7.8132 292.441 7.67934C292.388 7.54548 292.361 7.40193 292.361 7.25705V6.13188C292.361 5.94037 292.325 5.75073 292.255 5.5738C292.185 5.39687 292.083 5.23611 291.954 5.10071L290.766 3.85675C290.375 3.44678 290.155 2.8908 290.155 2.3111C290.155 1.73139 290.375 1.17542 290.766 0.765439L290.886 0.640095C291.277 0.230243 291.808 0 292.361 0C292.915 0 293.445 0.230243 293.837 0.640095L295.024 1.88405C295.153 2.01949 295.307 2.12692 295.476 2.20019C295.645 2.27346 295.826 2.31115 296.008 2.3111H297.082C297.362 2.3111 297.63 2.42769 297.827 2.63393L303.941 9.03955C304.239 9.35221 304.476 9.72338 304.638 10.1319C304.799 10.5404 304.882 10.9782 304.882 11.4203C304.882 11.9268 305.074 12.4129 305.416 12.7714L316.157 24.0224C316.552 24.4516 316.771 25.0263 316.766 25.6228C316.761 26.2193 316.532 26.7898 316.13 27.2116C315.727 27.6333 315.182 27.8725 314.613 27.8777C314.044 27.8828 313.495 27.6535 313.085 27.2391L302.345 15.9874C302.176 15.8101 301.975 15.6695 301.754 15.5736C301.533 15.4777 301.296 15.4283 301.056 15.4284C300.634 15.4284 300.216 15.3413 299.826 15.172C299.436 15.0027 299.082 14.7545 298.783 14.4417L292.669 8.03681ZM292.361 3.03984C292.546 3.03984 292.723 2.96306 292.853 2.82639C292.984 2.68973 293.057 2.50437 293.057 2.3111C293.057 2.11782 292.984 1.93246 292.853 1.7958C292.723 1.65913 292.546 1.58236 292.361 1.58236C292.177 1.58236 292 1.65913 291.869 1.7958C291.739 1.93246 291.666 2.11782 291.666 2.3111C291.666 2.50437 291.739 2.68973 291.869 2.82639C292 2.96306 292.177 3.03984 292.361 3.03984ZM304.882 16.1572C305.067 16.1572 305.244 16.0804 305.374 15.9437C305.505 15.807 305.578 15.6217 305.578 15.4284C305.578 15.2351 305.505 15.0498 305.374 14.9131C305.244 14.7765 305.067 14.6997 304.882 14.6997C304.698 14.6997 304.521 14.7765 304.39 14.9131C304.26 15.0498 304.187 15.2351 304.187 15.4284C304.187 15.6217 304.26 15.807 304.39 15.9437C304.521 16.0804 304.698 16.1572 304.882 16.1572ZM307.665 17.6146C307.665 17.8079 307.591 17.9933 307.461 18.1299C307.33 18.2666 307.154 18.3434 306.969 18.3434C306.785 18.3434 306.608 18.2666 306.477 18.1299C306.347 17.9933 306.273 17.8079 306.273 17.6146C306.273 17.4214 306.347 17.236 306.477 17.0993C306.608 16.9627 306.785 16.8859 306.969 16.8859C307.154 16.8859 307.33 16.9627 307.461 17.0993C307.591 17.236 307.665 17.4214 307.665 17.6146ZM309.056 20.5296C309.24 20.5296 309.417 20.4528 309.548 20.3161C309.678 20.1795 309.751 19.9941 309.751 19.8009C309.751 19.6076 309.678 19.4222 309.548 19.2856C309.417 19.1489 309.24 19.0721 309.056 19.0721C308.871 19.0721 308.694 19.1489 308.564 19.2856C308.434 19.4222 308.36 19.6076 308.36 19.8009C308.36 19.9941 308.434 20.1795 308.564 20.3161C308.694 20.4528 308.871 20.5296 309.056 20.5296ZM311.838 21.9871C311.838 22.1803 311.765 22.3657 311.635 22.5024C311.504 22.639 311.327 22.7158 311.143 22.7158C310.958 22.7158 310.781 22.639 310.651 22.5024C310.52 22.3657 310.447 22.1803 310.447 21.9871C310.447 21.7938 310.52 21.6084 310.651 21.4718C310.781 21.3351 310.958 21.2583 311.143 21.2583C311.327 21.2583 311.504 21.3351 311.635 21.4718C311.765 21.6084 311.838 21.7938 311.838 21.9871ZM313.229 24.902C313.414 24.902 313.591 24.8253 313.721 24.6886C313.852 24.5519 313.925 24.3666 313.925 24.1733C313.925 23.98 313.852 23.7947 313.721 23.658C313.591 23.5213 313.414 23.4445 313.229 23.4445C313.045 23.4445 312.868 23.5213 312.738 23.658C312.607 23.7947 312.534 23.98 312.534 24.1733C312.534 24.3666 312.607 24.5519 312.738 24.6886C312.868 24.8253 313.045 24.902 313.229 24.902ZM296.043 5.01253L294.94 6.16832C294.809 6.30497 294.736 6.4903 294.736 6.68354C294.736 6.87677 294.809 7.06209 294.94 7.19875L300.217 12.727C300.347 12.8636 300.524 12.9403 300.709 12.9403C300.893 12.9403 301.07 12.8636 301.2 12.727L302.304 11.5712C302.434 11.4345 302.507 11.2492 302.507 11.056C302.507 10.8627 302.434 10.6774 302.304 10.5408L297.027 5.01253C296.896 4.87592 296.719 4.79917 296.535 4.79917C296.35 4.79917 296.174 4.87592 296.043 5.01253Z" fill="#359CF6"/>
<path d="M264.083 47.0793C264.083 43.8588 266.635 41.2503 269.785 41.2503C272.936 41.2503 275.488 43.8588 275.488 47.0793C275.488 50.2998 272.936 52.9083 269.785 52.9083C266.635 52.9083 264.083 50.2998 264.083 47.0793ZM276.913 70.3953H278.339C279.907 70.3953 281.19 69.0838 281.19 67.4808V60.5151C281.19 58.883 280.32 57.3821 278.895 56.6389C278.282 56.3183 277.626 56.0122 276.913 55.7354V70.3953ZM270.27 63.109L274.062 54.8464C272.736 54.5404 271.311 54.3656 269.785 54.3656C266.179 54.3656 263.071 55.3856 260.676 56.6389C259.98 57.0051 259.398 57.5612 258.992 58.2455C258.587 58.9297 258.376 59.7153 258.381 60.5151V70.3953H261.717C261.403 69.7395 261.232 68.9963 261.232 68.2094C261.232 65.3969 263.47 63.109 266.221 63.109H270.27ZM266.934 70.3953L268.944 66.0235H266.221C265.038 66.0235 264.083 66.9999 264.083 68.2094C264.083 69.4189 265.038 70.3953 266.221 70.3953H266.934Z" fill="#359CF6"/>
<path d="M34.1866 35.6879L56.7123 50.4171" stroke="#8DCAFF" stroke-dasharray="2 2"/>
<path d="M88.796 69.5878L110.505 80.9569" stroke="#8DCAFF" stroke-dasharray="2 2"/>
<path d="M19.2507 38.0151L21.1913 79.0631" stroke="#8DCAFF" stroke-dasharray="2 2"/>
<path d="M314.383 37.8128L310.118 67.0384" stroke="#8DCAFF" stroke-dasharray="2 2"/>
<path d="M127.755 31.2151L159.838 50.4171" stroke="#8DCAFF" stroke-dasharray="2 2"/>
<path d="M180.463 62.1529L210.255 81.3548" stroke="#8DCAFF" stroke-dasharray="2 2"/>
<path d="M108.185 28.6461L85.2686 51.5629" stroke="#8DCAFF" stroke-dasharray="2 2"/>
<path d="M56.6226 67.6047L33.7057 90.5216" stroke="#8DCAFF" stroke-dasharray="2 2"/>
<path d="M100.254 91.6674L37.2331 97.3675" stroke="#8DCAFF" stroke-dasharray="2 2"/>
<path d="M305.552 27.8778L283.589 50.4171" stroke="#8DCAFF" stroke-dasharray="2 2"/>
<path d="M230.598 38.2513L253.797 52.7088" stroke="#8DCAFF" stroke-dasharray="2 2"/>
<path d="M274.422 74.5934L295.784 88.7063" stroke="#8DCAFF" stroke-dasharray="2 2"/>
<path d="M213.701 37.8128L185.647 53.5309" stroke="#8DCAFF" stroke-dasharray="2 2"/>
<path d="M254.133 69.8964L237.151 81.3548" stroke="#8DCAFF" stroke-dasharray="2 2"/>
<path d="M163.243 61.8755L144.942 76.7715" stroke="#8DCAFF" stroke-dasharray="2 2"/>
<path d="M39.2553 20.2747L96.278 13.9389" stroke="#8DCAFF" stroke-dasharray="2 2"/>
<path d="M133.026 13.9389L193.85 22.8091" stroke="#8DCAFF" stroke-dasharray="2 2"/>
<path d="M234.4 21.9586L293.902 14.896" stroke="#8DCAFF" stroke-dasharray="2 2"/>
</g>
</svg>
