<svg width="29" height="31" viewBox="0 0 29 31" fill="none" xmlns="http://www.w3.org/2000/svg">
<path fill-rule="evenodd" clip-rule="evenodd" d="M16.2771 3.88081C17.1886 4.07314 18.0775 4.36029 18.9292 4.73755V5.80523C17.9727 5.34106 16.9604 5.00185 15.9173 4.79598C16.1702 4.56608 16.3064 4.22236 16.2771 3.88081ZM19.898 2.92944C19.9001 2.80308 19.9517 2.6826 20.0417 2.59387C20.1317 2.50515 20.2529 2.45527 20.3793 2.45496C20.5056 2.45464 20.6271 2.50391 20.7175 2.59218C20.808 2.68045 20.8602 2.80067 20.8629 2.92702L24.2083 2.91049C24.316 2.91 24.3707 3.03939 24.2954 3.11629L23.0363 4.40212C23.0141 4.42481 23.0017 4.4553 23.0018 4.48703C23.0018 4.51876 23.0143 4.54921 23.0366 4.57183L24.2952 5.84895C24.3706 5.92554 24.3165 6.05505 24.209 6.05505H20.8629V9.62362C20.8609 9.75027 20.8092 9.87104 20.7189 9.95989C20.6287 10.0487 20.5071 10.0985 20.3804 10.0985C20.2538 10.0985 20.1322 10.0487 20.0419 9.95989C19.9516 9.87104 19.8999 9.75027 19.8979 9.62362L19.898 2.92944ZM11.1876 18.6154H14.5337C14.6412 18.6154 14.6954 18.4859 14.6199 18.4093L13.3612 17.1322C13.339 17.1096 13.3265 17.0792 13.3264 17.0474C13.3264 17.0157 13.3387 16.9852 13.3609 16.9625L14.6201 15.6767C14.6954 15.5998 14.6406 15.4703 14.5329 15.4709L11.1875 15.4874C11.1872 15.3594 11.1361 15.2369 11.0454 15.1466C10.9547 15.0564 10.8318 15.0058 10.7039 15.0062C10.5759 15.0065 10.4533 15.0576 10.363 15.1483C10.2728 15.239 10.2223 15.3619 10.2226 15.4898V22.184C10.2246 22.3107 10.2763 22.4314 10.3666 22.5203C10.4569 22.6091 10.5784 22.6589 10.7051 22.6589C10.8318 22.6589 10.9533 22.6091 11.0436 22.5203C11.1339 22.4314 11.1856 22.3107 11.1876 22.184V18.6154ZM4.1627 7.84433H7.50876C7.61629 7.84433 7.67048 7.71482 7.59498 7.63823L6.33627 6.36112C6.314 6.3385 6.3015 6.30806 6.30144 6.27632C6.30138 6.24459 6.31378 6.21409 6.33597 6.1914L7.5951 4.90557C7.67042 4.82867 7.61563 4.69923 7.50798 4.69977L4.16258 4.71636C4.16226 4.5884 4.11112 4.46581 4.02041 4.37556C3.9297 4.28531 3.80686 4.23478 3.6789 4.2351C3.55094 4.23542 3.42835 4.28656 3.3381 4.37727C3.24785 4.46798 3.19732 4.59082 3.19764 4.71878V11.413C3.19965 11.5396 3.25137 11.6604 3.34163 11.7492C3.4319 11.8381 3.55348 11.8879 3.68014 11.8879C3.8068 11.8879 3.92838 11.8381 4.01865 11.7492C4.10892 11.6604 4.16063 11.5396 4.16264 11.413L4.1627 7.84433ZM11.8445 4.10363H15.1906C15.2981 4.10363 15.3523 3.97412 15.2768 3.89752L14.0182 2.62041C13.9959 2.5978 13.9834 2.56735 13.9833 2.53561C13.9833 2.50388 13.9957 2.47339 14.0179 2.4507L15.277 1.16486C15.3523 1.08797 15.2975 0.958518 15.1899 0.959063L11.8445 0.975653C11.8441 0.847694 11.793 0.725104 11.7023 0.634851C11.6116 0.544598 11.4887 0.494075 11.3608 0.494396C11.2328 0.494717 11.1102 0.545856 11.02 0.636564C10.9297 0.727271 10.8792 0.850116 10.8795 0.978074V7.67226C10.8815 7.7989 10.9333 7.91968 11.0235 8.00853C11.1138 8.09738 11.2354 8.14717 11.362 8.14717C11.4887 8.14717 11.6103 8.09738 11.7005 8.00853C11.7908 7.91968 11.8425 7.7989 11.8445 7.67226V4.10363ZM25.5045 12.5869H28.8506C28.9581 12.5869 29.0123 12.4574 28.9368 12.3808L27.6781 11.1037C27.6558 11.0811 27.6433 11.0506 27.6433 11.0189C27.6432 10.9872 27.6556 10.9567 27.6778 10.934L28.9369 9.64815C29.0122 9.57125 28.9574 9.4418 28.8498 9.44235L25.5044 9.45888C25.5027 9.33183 25.4509 9.21059 25.3604 9.12147C25.2698 9.03235 25.1478 8.98254 25.0207 8.98286C24.8937 8.98318 24.7719 9.0336 24.6818 9.12317C24.5917 9.21275 24.5405 9.33425 24.5394 9.4613V16.1554C24.5415 16.2821 24.5932 16.4028 24.6834 16.4917C24.7737 16.5805 24.8953 16.6303 25.0219 16.6303C25.1486 16.6303 25.2702 16.5805 25.3605 16.4917C25.4507 16.4028 25.5024 16.2821 25.5044 16.1554L25.5045 12.5869ZM22.4635 7.0238H21.8317V9.62362C21.8317 10.4248 21.1816 11.0749 20.3804 11.0749C19.6982 11.0749 19.1256 10.6034 18.9706 9.96868C18.9786 10.4572 19.0946 10.9133 19.1801 11.1039C19.3211 11.4182 22.0594 11.0293 22.3949 11.0424C23.9647 11.104 23.2404 12.8445 22.7833 12.9699C22.4178 13.07 19.9305 13.0288 18.9567 12.7127C18.5321 12.5748 17.8824 13.4467 17.9702 13.6355C18.5283 14.837 15.3212 16.2206 18.2196 18.121C20.1469 18.828 21.8768 17.2273 21.7936 21.1686C21.7718 22.2063 22.0431 22.67 21.6297 24.3337C21.4603 25.0151 22.2393 25.2736 23.0405 25.0884C22.8102 25.3619 22.5684 25.6253 22.3157 25.8781C20.0558 28.138 16.9337 29.5358 13.4852 29.5358C10.0366 29.5358 6.91456 28.138 4.65464 25.8781C2.39473 23.6182 0.996946 20.4961 0.996946 17.0476C0.996946 15.3645 1.33001 13.7593 1.93367 12.294C3.33085 15.7109 5.78844 16.4141 6.22953 16.869C6.63453 17.2866 7.21172 17.6065 7.22643 18.9253C7.2739 23.1631 9.19959 20.2378 10.0635 25.0816C10.8812 29.666 12.5444 28.2804 12.8785 25.5792C13.1654 23.2602 15.4462 22.8 15.6556 20.0407C15.6769 19.76 15.5555 19.488 15.3374 19.2305C15.1461 19.4432 14.8686 19.5843 14.5336 19.5843H12.1563V22.1841C12.1563 22.9852 11.5062 23.6353 10.705 23.6353C9.90388 23.6353 9.25378 22.9852 9.25378 22.1841V17.2584C8.5053 17.3137 8.42344 17.107 7.57355 15.7443C6.07689 13.3445 9.88244 14.7727 10.1846 13.2254C10.4338 11.9487 11.4178 11.7445 12.1067 11.3142C12.6579 10.9698 13.663 10.8654 14.4201 10.6617C15.0393 10.4951 15.0301 9.7871 15.1099 9.22928C15.285 8.0069 15.0212 7.82314 13.9475 7.6702C13.3937 7.59131 13.069 7.41778 12.8131 7.23087V7.67232C12.8131 8.47341 12.163 9.12357 11.3618 9.12357C10.5607 9.12357 9.9106 8.47348 9.9106 7.67232V6.77308C9.00627 6.95877 8.6448 7.00661 8.25579 6.92892L8.28479 6.95835C8.96171 7.64513 8.47291 8.8132 7.50858 8.8132H5.13127V11.413C5.13127 12.2142 4.48118 12.8643 3.68002 12.8643C2.87892 12.8643 2.22877 12.2142 2.22877 11.413V9.67018C0.837405 11.7887 0.0279541 14.3237 0.0279541 17.0476C0.0279541 20.7636 1.53418 24.1279 3.96943 26.5631C6.40469 28.9984 9.76892 30.5046 13.4849 30.5046C17.2009 30.5046 20.5652 28.9984 23.0004 26.5631C25.4357 24.1279 26.9419 20.7636 26.9419 17.0476C26.9419 15.8399 26.7826 14.6694 26.4842 13.5558H26.473V16.1556C26.473 16.9568 25.8229 17.6069 25.0218 17.6069C24.2206 17.6069 23.5705 16.9568 23.5705 16.1556V9.46148C23.5701 9.12236 23.6889 8.79389 23.9062 8.53354C23.465 7.99384 22.9826 7.48909 22.4635 7.0238ZM8.55495 4.52237C8.9985 4.34769 9.45109 4.1969 9.91078 4.07063V5.07849C9.2883 5.26418 8.68137 5.49847 8.09558 5.7792L8.28733 5.58339C8.58843 5.27587 8.65691 4.87354 8.55495 4.52237Z" fill="black"/>
</svg>
