<svg width="105" height="50" viewBox="0 0 105 50" fill="none" xmlns="http://www.w3.org/2000/svg">
<path d="M99.4457 16.25V25.625" stroke="#C7E5FF" stroke-linecap="round"/>
<path d="M104.133 20.9375L94.7582 20.9375" stroke="#C7E5FF" stroke-linecap="round"/>
<path d="M11.3873 33.75L4.7582 40.3791" stroke="#C7E5FF" stroke-linecap="round"/>
<path d="M11.3873 40.3792L4.7582 33.75" stroke="#C7E5FF" stroke-linecap="round"/>
<path d="M70.8736 19.475L49.7598 38.0806L28.646 19.475L47.9485 2.46544C48.9837 1.55323 50.5357 1.55323 51.5709 2.46544L70.8736 19.475Z" fill="#C7E5FF"/>
<path d="M65.6733 7.83895V38.0806H34.3832V7.83895C34.3832 6.81102 35.2165 5.97772 36.2444 5.97772H63.8121C64.84 5.97772 65.6733 6.81102 65.6733 7.83895Z" fill="white"/>
<path d="M70.8723 19.4731V45.2261C70.8723 45.9876 70.5891 46.6796 70.1154 47.2089C69.5767 47.8265 68.7734 48.2165 67.8819 48.2165H31.6346C31.212 48.2174 30.7941 48.1279 30.4089 47.9542C30.0237 47.7804 29.6801 47.5263 29.4011 47.2089C28.9275 46.6796 28.6442 45.9876 28.6442 45.2261V19.4731L44.929 33.8216L49.7582 38.0798L54.5874 33.8217L70.8723 19.4731Z" fill="#C7E5FF"/>
<path d="M70.1155 47.2089C69.5768 47.8265 68.7735 48.2165 67.882 48.2165H31.6346C31.212 48.2174 30.7941 48.1279 30.4089 47.9541C30.0237 47.7804 29.6801 47.5263 29.4011 47.2089L44.9291 33.8217L47.3205 31.7599C48.7135 30.5295 50.8031 30.5295 52.1961 31.7599L54.5875 33.8217L70.1155 47.2089Z" fill="white"/>
<path d="M49.1396 21.4698C52.4726 21.4698 55.1746 18.7678 55.1746 15.4348C55.1746 12.1017 52.4726 9.39972 49.1396 9.39972C45.8065 9.39972 43.1045 12.1017 43.1045 15.4348C43.1045 18.7678 45.8065 21.4698 49.1396 21.4698Z" fill="white"/>
<path d="M48.506 17.0966L46.6743 15.3248C46.162 14.8118 46.1623 13.9807 46.6749 13.4682C47.1881 12.955 48.0204 12.9554 48.5331 13.4691L49.5405 14.4166L54.1729 9.78427C54.6858 9.27137 55.5172 9.27137 56.0301 9.78427L56.0305 9.78466C56.5433 10.2974 56.5434 11.129 56.0305 11.6419L50.5757 17.0972C50.004 17.6687 49.0773 17.6685 48.506 17.0966Z" fill="#C7E5FF"/>
<path d="M55.7323 5.51348L51.878 2.11699C50.6702 1.05312 48.8491 1.05312 47.6417 2.11699L43.7874 5.51348H35.976C34.6936 5.51348 33.6504 6.55664 33.6504 7.83906V14.4463L28.3545 19.1131C28.2446 19.2015 28.1798 19.3546 28.1798 19.4732V45.2262C28.1798 47.1213 29.7235 48.681 31.6348 48.681H67.8819C69.8207 48.681 71.3368 47.0911 71.3368 45.2262C71.3368 45.1783 71.3342 19.4151 71.3353 19.4626C71.3322 19.333 71.2745 19.236 71.1791 19.1253C71.1773 19.1236 71.1755 19.122 71.1736 19.1204L65.8693 14.4463V7.83906C65.8693 6.55664 64.8261 5.51348 63.5437 5.51348H55.7323ZM48.2557 2.81396C49.1132 2.0585 50.4065 2.05801 51.264 2.81396L54.3274 5.51348H45.1922L48.2557 2.81396ZM33.6503 15.6843V23.2659L29.3486 19.4751L33.6503 15.6843ZM29.1084 45.2262V20.5015L44.2211 33.819L29.4749 46.5323C29.235 46.1389 29.1082 45.687 29.1084 45.2262ZM67.8818 47.7522H31.6347C31.1067 47.7522 30.5484 47.5746 30.0955 47.2234L47.6279 32.108C48.8418 31.0351 50.6736 31.0347 51.893 32.1116L69.4223 47.2247C68.9703 47.5775 68.4061 47.7522 67.8818 47.7522ZM65.8693 15.6843L70.1695 19.4736L65.8693 23.2631V15.6843ZM70.408 20.5043V45.2262C70.408 45.6899 70.2804 46.14 70.0413 46.5321L55.2969 33.8203L70.408 20.5043ZM64.9406 7.83906V24.0815L54.5854 33.2068L52.5034 31.4119C50.9381 30.0293 48.5776 30.0293 47.0171 31.4083L44.9312 33.2067L34.5789 24.0843V7.83906C34.5789 7.06885 35.2056 6.44219 35.9758 6.44219H63.5435C64.3139 6.44219 64.9406 7.06885 64.9406 7.83906ZM64.9505 4.07568V2.68291C64.9505 2.55976 64.9016 2.44164 64.8145 2.35456C64.7274 2.26748 64.6093 2.21855 64.4862 2.21855C64.363 2.21855 64.2449 2.26748 64.1578 2.35456C64.0707 2.44164 64.0218 2.55976 64.0218 2.68291V4.07578C64.0218 4.19894 64.0707 4.31704 64.1578 4.40412C64.2449 4.49119 64.3631 4.5401 64.4862 4.54009C64.6094 4.54008 64.7275 4.49114 64.8145 4.40405C64.9016 4.31695 64.9505 4.19884 64.9505 4.07568ZM67.092 3.57012L66.1071 4.55479C66.0639 4.5979 66.0297 4.64909 66.0064 4.70542C65.9831 4.76175 65.9711 4.82213 65.9711 4.88311C65.9711 4.94408 65.9831 5.00446 66.0064 5.06079C66.0297 5.11712 66.0639 5.16831 66.1071 5.21143C66.1502 5.25454 66.2014 5.28874 66.2577 5.31208C66.314 5.33541 66.3744 5.34742 66.4354 5.34742C66.4963 5.34742 66.5567 5.33541 66.6131 5.31208C66.6694 5.28874 66.7206 5.25454 66.7637 5.21143L67.7487 4.22676C67.7918 4.18364 67.826 4.13246 67.8493 4.07612C67.8726 4.01979 67.8847 3.95941 67.8847 3.89844C67.8847 3.83746 67.8726 3.77709 67.8493 3.72075C67.826 3.66442 67.7918 3.61323 67.7487 3.57012C67.7055 3.527 67.6544 3.4928 67.598 3.46947C67.5417 3.44613 67.4813 3.43412 67.4203 3.43412C67.3594 3.43412 67.299 3.44613 67.2426 3.46947C67.1863 3.4928 67.1351 3.527 67.092 3.57012ZM66.7784 6.83232C66.7784 6.95548 66.8274 7.07359 66.9144 7.16067C67.0015 7.24776 67.1196 7.29668 67.2428 7.29668H68.6357C68.7588 7.29668 68.8769 7.24776 68.964 7.16067C69.0511 7.07359 69.1 6.95548 69.1 6.83232C69.1 6.70917 69.0511 6.59106 68.964 6.50398C68.8769 6.41689 68.7588 6.36797 68.6357 6.36797H67.2428C67.1196 6.36799 67.0016 6.41693 66.9145 6.504C66.8274 6.59108 66.7785 6.70918 66.7784 6.83232Z" fill="#369BF5"/>
<path d="M49.1396 21.9342C52.7234 21.9342 55.639 19.0183 55.639 15.4346C55.639 14.619 55.4849 13.8398 55.2082 13.1206L56.3586 11.9701C57.0518 11.2769 57.0515 10.1492 56.3581 9.45585C55.687 8.78427 54.5159 8.78427 53.8443 9.45585L53.0462 10.254C51.958 9.42938 50.6072 8.93524 49.1396 8.93524C45.5559 8.93524 42.64 11.8508 42.64 15.4346C42.64 19.0183 45.556 21.9342 49.1396 21.9342ZM54.5011 10.1125C54.8268 9.7868 55.3645 9.77548 55.702 10.113C56.0331 10.444 56.0331 10.9825 55.702 11.3136L50.2473 16.7688C49.8569 17.1592 49.2248 17.159 48.8345 16.7686C48.8326 16.7666 48.8307 16.7648 48.8288 16.763L47.0029 14.997C46.6724 14.6659 46.6724 14.1274 47.0031 13.7967C47.327 13.4733 47.8605 13.4531 48.215 13.8075L49.2225 14.7551C49.3104 14.8377 49.427 14.8829 49.5477 14.881C49.6683 14.8791 49.7835 14.8304 49.8688 14.7451L54.5011 10.1125ZM49.1396 9.86405C50.351 9.86405 51.471 10.2551 52.3855 10.9148L49.5306 13.77L48.8619 13.141C48.1678 12.4454 47.0416 12.4447 46.3465 13.1398C45.6538 13.8325 45.6536 14.9598 46.3515 15.6586L48.1803 17.4275C48.9308 18.1757 50.1494 18.1802 50.9038 17.4253L54.4705 13.8583C54.6209 14.3589 54.7102 14.8854 54.7102 15.4346C54.7102 18.5063 52.2111 21.0055 49.1395 21.0055C46.0678 21.0055 43.5687 18.5064 43.5687 15.4346C43.5688 12.3631 46.0679 9.86405 49.1396 9.86405ZM58.0467 26.6602H42.0098C41.8866 26.6602 41.7685 26.7092 41.6814 26.7962C41.5943 26.8833 41.5454 27.0014 41.5454 27.1246C41.5454 27.2478 41.5943 27.3659 41.6814 27.4529C41.7685 27.54 41.8866 27.5889 42.0098 27.5889H58.0467C58.1698 27.5889 58.2879 27.54 58.375 27.4529C58.4621 27.3659 58.511 27.2478 58.511 27.1246C58.511 27.0014 58.4621 26.8833 58.375 26.7962C58.2879 26.7092 58.1698 26.6602 58.0467 26.6602ZM60.1417 23.8029H39.9146C39.7914 23.8029 39.6733 23.8518 39.5862 23.9389C39.4991 24.026 39.4502 24.1441 39.4502 24.2673C39.4502 24.3904 39.4991 24.5085 39.5862 24.5956C39.6733 24.6827 39.7914 24.7316 39.9146 24.7316H60.1417C60.2649 24.7316 60.383 24.6827 60.47 24.5956C60.5571 24.5085 60.6061 24.3904 60.6061 24.2673C60.6061 24.1441 60.5571 24.026 60.47 23.9389C60.383 23.8518 60.2649 23.8029 60.1417 23.8029Z" fill="#369BF5"/>
<path d="M95.3073 33.9897C95.9807 34.1444 96.2981 34.9192 95.9266 35.5019L93.333 39.5705C92.8972 40.2541 91.8717 40.1622 91.5644 39.4119L89.4555 34.2634C89.1482 33.5132 89.8146 32.7283 90.6047 32.9097L95.3073 33.9897Z" stroke="#C7E5FF"/>
<path d="M83.6332 22.3537C83.8084 22.5365 83.9077 22.779 83.9111 23.0322L83.9313 24.5361C83.9355 24.8495 83.7926 25.1467 83.5451 25.3391L82.775 25.9378C82.4936 26.1565 82.1172 26.209 81.7868 26.0755L80.6625 25.6215C80.4124 25.5205 80.2138 25.3228 80.1116 25.0733L79.4936 23.5645C79.3913 23.315 79.3942 23.0347 79.5016 22.7874L79.9843 21.6751C80.1262 21.3482 80.4313 21.1215 80.7852 21.08L81.7541 20.9664C82.0653 20.9299 82.3757 21.0414 82.5925 21.2677L83.6332 22.3537Z" stroke="#C7E5FF"/>
<path d="M19.8832 21.1037C20.0584 21.2865 20.1577 21.529 20.1611 21.7822L20.1813 23.2861C20.1855 23.5995 20.0426 23.8967 19.7951 24.0891L19.025 24.6878C18.7436 24.9065 18.3672 24.959 18.0368 24.8255L16.9125 24.3715C16.6624 24.2705 16.4638 24.0728 16.3616 23.8233L15.7436 22.3145C15.6413 22.065 15.6442 21.7847 15.7516 21.5374L16.2343 20.4251C16.3762 20.0982 16.6813 19.8715 17.0352 19.83L18.0041 19.7164C18.3153 19.6799 18.6257 19.7914 18.8425 20.0177L19.8832 21.1037Z" stroke="#C7E5FF"/>
<path d="M2.6389 17.7609C2.81409 17.9437 2.9134 18.1862 2.9168 18.4394L2.92218 18.84C2.92639 19.1534 2.78344 19.4506 2.53602 19.643L2.51085 19.6625C2.22951 19.8812 1.85304 19.9337 1.52262 19.8003L1.34213 19.7274C1.09209 19.6264 0.893426 19.4287 0.791213 19.1792L0.605109 18.7248C0.502896 18.4753 0.505796 18.1951 0.61315 17.9477L0.690646 17.7691C0.832511 17.4422 1.13761 17.2155 1.49154 17.174L1.52321 17.1703C1.83447 17.1338 2.14484 17.2454 2.36167 17.4716L2.6389 17.7609Z" stroke="#C7E5FF"/>
</svg>
