<svg width="30" height="30" viewBox="0 0 30 30" fill="none" xmlns="http://www.w3.org/2000/svg">
<path d="M0.2 25.3125V20.9376C0.201952 19.4165 0.807075 17.9583 1.88267 16.8827C2.95829 15.807 4.41659 15.2019 5.93775 15.2H16.5625C16.7581 15.2 16.9457 15.2777 17.084 15.416C17.2223 15.5543 17.3 15.7419 17.3 15.9375C17.3 16.1331 17.2223 16.3207 17.084 16.459C16.9457 16.5973 16.7581 16.675 16.5625 16.675H5.9375H5.93725C4.80726 16.6764 3.72395 17.1259 2.92492 17.9249C2.12589 18.7239 1.67639 19.8073 1.675 20.9373V20.9375V24.375V24.575H1.875H11.5625C11.7581 24.575 11.9457 24.6527 12.084 24.791C12.2223 24.9293 12.3 25.1169 12.3 25.3125C12.3 25.5081 12.2223 25.6957 12.084 25.834C11.9457 25.9723 11.7581 26.05 11.5625 26.05H0.9375C0.741903 26.05 0.554317 25.9723 0.416009 25.834C0.277701 25.6957 0.2 25.5081 0.2 25.3125ZM11.25 12.3C7.91421 12.3 5.2 9.58579 5.2 6.25C5.2 2.91421 7.91421 0.2 11.25 0.2C14.5858 0.2 17.3 2.91421 17.3 6.25C17.3 9.58579 14.5858 12.3 11.25 12.3ZM11.25 1.675C8.72704 1.675 6.675 3.72704 6.675 6.25C6.675 8.77296 8.72705 10.825 11.25 10.825C13.773 10.825 15.825 8.77296 15.825 6.25C15.825 3.72704 13.773 1.675 11.25 1.675ZM27.8125 29.8H17.1875C16.0917 29.8 15.2 28.9083 15.2 27.8125V22.1875C15.2 21.0917 16.0917 20.2 17.1875 20.2H27.8125C28.9083 20.2 29.8 21.0917 29.8 22.1875V27.8125C29.8 28.9083 28.9083 29.8 27.8125 29.8Z" fill="black" stroke="white" stroke-width="0.4"/>
</svg>
