<svg width="31" height="31" viewBox="0 0 31 31" fill="none" xmlns="http://www.w3.org/2000/svg">
<path d="M30.899 11.7655C30.7929 11.3024 30.4214 10.9503 30.0017 10.9116C29.2733 10.8248 28.9597 11.452 28.6558 12.108C28.0479 13.2948 25.8963 13.4154 24.6372 16.1025C24.4008 16.6139 24.1693 17.13 23.8557 17.0432C23.4794 16.9275 23.6723 16.2183 23.7882 15.8468C24.0873 14.9013 22.4663 13.1452 20.7296 15.7551C20.6717 15.842 20.4594 16.1797 20.3485 16.1893C20.3243 16.1845 20.2472 16.1025 20.2327 15.9964C20.1507 15.4319 20.8936 14.935 20.3002 13.9412C19.9046 13.2803 19.017 12.7738 18.0908 12.6773C16.7978 12.5567 15.2059 13.1066 13.31 12.7207C14.7813 10.5064 16.3107 7.79038 16.3107 6.08744C16.3107 2.7636 13.6091 0.0620003 10.2852 0.0620003C6.9614 0.0620003 4.25496 2.7636 4.25496 6.08744C4.25496 7.4865 5.29218 9.57052 6.47412 11.5002C5.2343 11.4954 3.70022 11.5051 2.60511 10.7862C2.44109 10.6801 2.22881 10.6849 2.06479 10.7959C1.90077 10.9069 1.82357 11.1046 1.86699 11.2976C2.33011 13.3382 0.274967 15.157 0.0772208 17.4775C-0.0289179 18.7173 0.414951 19.904 0.815287 20.8013C4.19707 28.3801 10.594 23.6814 13.064 29.0266C13.5175 30.0059 14.1494 30.9755 15.2976 30.937C16.0647 30.9129 16.6436 30.4401 16.7111 29.3691C16.7449 28.8095 16.7931 28.1052 21.6897 27.7241C22.4326 28.2065 22.9392 29.6827 24.0391 30.4063C25.7516 31.5304 28.048 30.2568 26.4849 27.0535C25.7469 25.5435 25.7854 25.1672 26.9915 23.8406C27.5366 23.2424 28.101 22.62 28.2264 21.7565C28.4677 20.0294 26.9962 19.0356 28.7523 18.0852C29.0514 17.9212 29.3939 17.7379 29.6592 17.4291C30.1464 16.8599 30.1898 16.2135 30.571 14.25C30.9762 12.1225 30.9762 12.1225 30.899 11.7655ZM10.2852 4.39413C11.2211 4.39413 11.9833 5.15151 11.9833 6.08738C11.9833 7.02326 11.2211 7.78554 10.2852 7.78554C9.34925 7.78554 8.58708 7.02332 8.58708 6.08738C8.58708 5.15145 9.34931 4.39413 10.2852 4.39413ZM29.6206 14.0667C29.0803 16.445 29.4181 16.6235 28.294 17.2362C25.8722 18.5484 27.445 20.3961 27.2712 21.6214C27.0928 22.8371 25.2113 23.7102 25.0376 25.3456C24.8881 26.8797 26.8081 28.7998 25.795 29.6682C24.3429 30.8983 22.9728 26.653 21.762 26.7495C14.5546 27.2947 16.0983 28.8336 15.6738 29.7405C15.5098 30.0975 14.7331 30.1313 14.1831 29.123C14.0963 28.9638 14.0191 28.7949 13.9419 28.6213C13.3967 27.4442 12.6491 25.8281 8.78967 25.0465C4.86757 24.2554 3.32865 24.072 1.69328 20.4056C1.34592 19.6193 0.950367 18.5821 1.04204 17.5594C1.19643 15.7358 2.85112 14.0521 2.89937 12.0115C4.20676 12.5132 5.65401 12.4698 7.08679 12.4602C8.44244 14.5346 9.79802 16.2327 9.90894 16.3726C10.0006 16.4836 10.1405 16.5511 10.2852 16.5511C10.4348 16.5511 10.5699 16.4836 10.6615 16.3726C10.7532 16.2568 11.665 15.1135 12.7311 13.5745C15.8427 14.3802 18.4623 12.7496 19.4705 14.4381C19.7648 14.9253 19.1521 15.2341 19.2775 16.1314C19.3451 16.6138 19.6973 17.0239 20.1266 17.13C21.4774 17.4484 21.6463 15.263 22.6014 15.3498C22.6834 15.3547 22.8522 15.5139 22.8715 15.5573C22.7606 15.9046 22.6255 16.334 22.6786 16.7875C22.8088 18.0032 24.1403 18.4759 24.9797 17.4677C25.2065 17.1927 25.3416 16.8791 25.5104 16.5125C26.6971 13.9846 28.7088 14.2306 29.6061 12.3589C29.6785 12.2142 29.8232 11.9102 29.8907 11.8668C30.0934 11.973 29.8522 12.8703 29.6206 14.0667Z" fill="black"/>
</svg>
