<svg width="105" height="105" viewBox="0 0 105 105" fill="none" xmlns="http://www.w3.org/2000/svg">
<g clip-path="url(#clip0_56_117)">
<path d="M10.0974 88.4533L9.17267 84.817C7.53305 84.1242 5.85554 83.5242 4.14814 83.0197L4.03141 84.7097L3.55804 82.8478C1.44055 82.2443 0 81.9788 0 81.9788C0 81.9788 1.94536 89.356 6.02696 94.9959L10.7824 95.8288L7.08803 96.36C7.60145 96.9759 8.15321 97.559 8.74004 98.1058C14.6769 103.6 21.2896 106.121 23.5097 103.736C25.7298 101.351 22.7168 94.9643 16.7799 89.4706C14.9394 87.7673 12.6274 86.4005 10.313 85.3244L10.0974 88.4533Z" fill="#F2F2F2"/>
<path d="M18.8919 84.5036L19.9856 80.9143C18.9413 79.4763 17.8164 78.0981 16.6164 76.7863L15.6404 78.1728L16.2003 76.335C14.7002 74.7277 13.6048 73.7581 13.6048 73.7581C13.6048 73.7581 11.4458 81.076 12.0154 88.0074L15.6545 91.1711L12.216 89.7218C12.3363 90.5137 12.5064 91.2974 12.7254 92.0681C14.9592 99.8311 19.313 105.397 22.4498 104.5C25.5867 103.602 26.3189 96.5819 24.0851 88.8189C23.3926 86.4123 22.1219 84.0506 20.6986 81.937L18.8919 84.5036Z" fill="#F2F2F2"/>
<path d="M73.2684 24.8746H72.6916V9.11916C72.6916 7.92161 72.455 6.7358 71.9954 5.62941C71.5357 4.52302 70.862 3.51773 70.0127 2.67094C69.1633 1.82415 68.155 1.15243 67.0453 0.694154C65.9356 0.235873 64.7463 0 63.5451 0H30.0642C27.6384 0 25.3119 0.960766 23.5967 2.67094C21.8814 4.38111 20.9177 6.70061 20.9177 9.11916V95.556C20.9177 96.7536 21.1543 97.9394 21.614 99.0458C22.0736 100.152 22.7473 101.157 23.5967 102.004C24.446 102.851 25.4543 103.523 26.564 103.981C27.6737 104.439 28.863 104.675 30.0642 104.675H63.5451C65.9709 104.675 68.2973 103.714 70.0126 102.004C71.7278 100.294 72.6915 97.9746 72.6915 95.556V36.0896H73.2683L73.2684 24.8746Z" fill="#E6E6E6"/>
<path d="M63.9142 2.37161H59.5442C59.7452 2.86291 59.8219 3.39595 59.7676 3.92377C59.7133 4.4516 59.5296 4.958 59.2327 5.39836C58.9359 5.83873 58.5349 6.19954 58.0652 6.44902C57.5955 6.69849 57.0715 6.82896 56.5393 6.82894H37.3585C36.8263 6.82892 36.3023 6.69841 35.8327 6.44892C35.363 6.19943 34.9621 5.83861 34.6653 5.39825C34.3685 4.95789 34.1848 4.4515 34.1305 3.9237C34.0762 3.3959 34.1529 2.86289 34.3539 2.37161H30.272C28.4605 2.37161 26.7231 3.0891 25.4421 4.36625C24.1612 5.64339 23.4415 7.37556 23.4415 9.18171V95.4931C23.4415 97.2992 24.1612 99.0314 25.4421 100.309C26.7231 101.586 28.4605 102.303 30.272 102.303H63.9142C65.7258 102.303 67.4632 101.586 68.7441 100.309C70.0251 99.0314 70.7447 97.2992 70.7447 95.4931V9.18157C70.7447 7.37545 70.025 5.64331 68.7441 4.36619C67.4631 3.08908 65.7258 2.37161 63.9142 2.37161Z" fill="white"/>
<path d="M42.8062 36.7537C42.8061 36.1503 42.9653 35.5576 43.268 35.0352C43.5707 34.5128 44.006 34.0791 44.5302 33.7777C44.0062 33.476 43.4119 33.3171 42.8068 33.317C42.2017 33.317 41.6073 33.4757 41.0833 33.7773C40.5593 34.0789 40.1241 34.5127 39.8216 35.0351C39.519 35.5576 39.3597 36.1502 39.3597 36.7534C39.3597 37.3567 39.519 37.9493 39.8216 38.4718C40.1241 38.9942 40.5593 39.428 41.0833 39.7296C41.6073 40.0312 42.2017 40.1899 42.8068 40.1898C43.4119 40.1898 44.0062 40.0309 44.5302 39.7292C44.006 39.4279 43.5707 38.9942 43.268 38.4719C42.9654 37.9495 42.8061 37.3569 42.8062 36.7537Z" fill="#CCCCCC"/>
<path d="M47.1392 36.7537C47.139 36.1503 47.2983 35.5576 47.601 35.0352C47.9036 34.5128 48.339 34.0791 48.8632 33.7777C48.3393 33.476 47.7449 33.3171 47.1398 33.317C46.5348 33.317 45.9403 33.4757 45.4163 33.7773C44.8923 34.0789 44.4571 34.5127 44.1546 35.0351C43.852 35.5576 43.6927 36.1502 43.6927 36.7534C43.6927 37.3567 43.852 37.9493 44.1546 38.4718C44.4571 38.9942 44.8923 39.428 45.4163 39.7296C45.9403 40.0312 46.5348 40.1899 47.1398 40.1898C47.7449 40.1898 48.3393 40.0309 48.8632 39.7292C48.339 39.4279 47.9037 38.9942 47.6011 38.4719C47.2984 37.9495 47.1391 37.3569 47.1392 36.7537Z" fill="#CCCCCC"/>
<path d="M51.3737 40.1899C53.2772 40.1899 54.8204 38.6514 54.8204 36.7535C54.8204 34.8557 53.2772 33.3171 51.3737 33.3171C49.4701 33.3171 47.927 34.8557 47.927 36.7535C47.927 38.6514 49.4701 40.1899 51.3737 40.1899Z" fill="#349CF5"/>
<path d="M57.1339 47.4867H37.0459C36.8547 47.4865 36.6713 47.4107 36.5361 47.2759C36.4009 47.141 36.3248 46.9582 36.3246 46.7676V26.7395C36.3248 26.5488 36.4009 26.366 36.5361 26.2312C36.6713 26.0964 36.8547 26.0205 37.0459 26.0203H57.1339C57.3252 26.0205 57.5085 26.0964 57.6437 26.2312C57.779 26.366 57.855 26.5488 57.8552 26.7395V46.7676C57.855 46.9582 57.779 47.141 57.6437 47.2759C57.5085 47.4107 57.3252 47.4865 57.1339 47.4867ZM37.0459 26.3082C36.9312 26.3083 36.8212 26.3538 36.74 26.4347C36.6589 26.5156 36.6133 26.6252 36.6131 26.7396V46.7677C36.6133 46.8821 36.6589 46.9918 36.74 47.0727C36.8212 47.1536 36.9312 47.1991 37.0459 47.1992H57.1339C57.2487 47.1991 57.3587 47.1536 57.4398 47.0727C57.5209 46.9918 57.5666 46.8821 57.5667 46.7677V26.7396C57.5666 26.6252 57.5209 26.5156 57.4398 26.4347C57.3587 26.3538 57.2487 26.3083 57.1339 26.3082H37.0459Z" fill="#CCCCCC"/>
<path d="M61.6192 62.8392H30.8103V63.1269H61.6192V62.8392Z" fill="#CCCCCC"/>
<path d="M31.7833 61.043C32.3206 61.043 32.7562 60.6087 32.7562 60.0729C32.7562 59.5372 32.3206 59.1028 31.7833 59.1028C31.2459 59.1028 30.8103 59.5372 30.8103 60.0729C30.8103 60.6087 31.2459 61.043 31.7833 61.043Z" fill="#349CF5"/>
<path d="M61.6192 72.5392H30.8103V72.8269H61.6192V72.5392Z" fill="#CCCCCC"/>
<path d="M31.7833 70.7432C32.3206 70.7432 32.7562 70.3088 32.7562 69.7731C32.7562 69.2373 32.3206 68.803 31.7833 68.803C31.2459 68.803 30.8103 69.2373 30.8103 69.7731C30.8103 70.3088 31.2459 70.7432 31.7833 70.7432Z" fill="#349CF5"/>
<path d="M61.0554 83.5852H51.3189C51.1507 83.585 50.9895 83.5183 50.8706 83.3998C50.7516 83.2812 50.6848 83.1204 50.6846 82.9528V79.5504C50.6848 79.3827 50.7516 79.2219 50.8706 79.1034C50.9895 78.9848 51.1507 78.9181 51.3189 78.9179H61.0554C61.2236 78.9181 61.3848 78.9848 61.5037 79.1034C61.6227 79.2219 61.6896 79.3827 61.6897 79.5504V82.9528C61.6896 83.1204 61.6227 83.2812 61.5037 83.3998C61.3848 83.5183 61.2236 83.585 61.0554 83.5852Z" fill="#349CF5"/>
<path d="M34.9571 61.043C35.4944 61.043 35.9301 60.6087 35.9301 60.0729C35.9301 59.5372 35.4944 59.1028 34.9571 59.1028C34.4197 59.1028 33.9841 59.5372 33.9841 60.0729C33.9841 60.6087 34.4197 61.043 34.9571 61.043Z" fill="#349CF5"/>
<path d="M38.1308 61.043C38.6682 61.043 39.1038 60.6087 39.1038 60.0729C39.1038 59.5372 38.6682 59.1028 38.1308 59.1028C37.5934 59.1028 37.1578 59.5372 37.1578 60.0729C37.1578 60.6087 37.5934 61.043 38.1308 61.043Z" fill="#349CF5"/>
<path d="M34.9571 70.7432C35.4944 70.7432 35.9301 70.3088 35.9301 69.7731C35.9301 69.2373 35.4944 68.803 34.9571 68.803C34.4197 68.803 33.9841 69.2373 33.9841 69.7731C33.9841 70.3088 34.4197 70.7432 34.9571 70.7432Z" fill="#349CF5"/>
<path d="M38.1308 70.7432C38.6682 70.7432 39.1038 70.3088 39.1038 69.7731C39.1038 69.2373 38.6682 68.803 38.1308 68.803C37.5934 68.803 37.1578 69.2373 37.1578 69.7731C37.1578 70.3088 37.5934 70.7432 38.1308 70.7432Z" fill="#349CF5"/>
<path d="M104.608 105H3.3945C3.17783 105 3.00232 104.923 3.00232 104.829C3.00232 104.734 3.17783 104.657 3.3945 104.657H104.608C104.824 104.657 105 104.734 105 104.829C105 104.923 104.824 105 104.608 105Z" fill="#263238"/>
<path d="M79.6015 68.7927C79.6706 68.8242 79.7371 68.8612 79.8003 68.9033L86.1231 66.2128L86.3488 64.5522L88.8752 64.5368L88.7259 68.3454L80.3806 70.5458C80.363 70.6036 80.342 70.6603 80.3175 70.7156C80.1969 70.9723 80.0028 71.1877 79.7598 71.3348C79.5167 71.4819 79.2355 71.5541 78.9514 71.5424C78.6673 71.5307 78.3931 71.4355 78.1631 71.2689C77.933 71.1023 77.7575 70.8716 77.6586 70.6059C77.5596 70.3401 77.5416 70.0511 77.6068 69.7752C77.6721 69.4993 77.8176 69.2487 78.0252 69.055C78.2328 68.8613 78.4931 68.733 78.7736 68.6864C79.054 68.6397 79.342 68.6767 79.6015 68.7927Z" fill="#FFB8B8"/>
<path d="M89.794 103.306H88.0658L87.2437 96.6593L89.7943 96.6595L89.794 103.306Z" fill="#FFB8B8"/>
<path d="M86.8312 102.813H90.1643V104.905H84.7327C84.7327 104.351 84.9538 103.818 85.3473 103.426C85.7409 103.034 86.2747 102.813 86.8312 102.813Z" fill="#263238"/>
<path d="M96.5154 102.819L94.7955 102.988L93.3236 96.4539L95.862 96.2045L96.5154 102.819Z" fill="#FFB8B8"/>
<path d="M93.5186 102.618L96.8356 102.293L97.0413 104.375L91.6359 104.906C91.6089 104.632 91.6361 104.356 91.7161 104.093C91.7961 103.83 91.9273 103.586 92.1021 103.373C92.277 103.161 92.492 102.985 92.7351 102.855C92.9781 102.726 93.2444 102.645 93.5186 102.618Z" fill="#263238"/>
<path d="M90.2751 57.503C92.1873 57.503 93.7374 55.9575 93.7374 54.051C93.7374 52.1445 92.1873 50.599 90.2751 50.599C88.3629 50.599 86.8127 52.1445 86.8127 54.051C86.8127 55.9575 88.3629 57.503 90.2751 57.503Z" fill="#FFB8B8"/>
<path d="M87.6796 101.961C87.531 101.962 87.3871 101.91 87.2733 101.815C87.1594 101.72 87.0829 101.588 87.0572 101.442C86.1626 96.491 83.2386 80.3027 83.1687 79.8543C83.1672 79.844 83.1664 79.8336 83.1665 79.8232V78.6161C83.1664 78.5722 83.1802 78.5293 83.2059 78.4936L83.5922 77.9542C83.6105 77.9282 83.6346 77.9068 83.6625 77.8916C83.6905 77.8764 83.7216 77.8677 83.7534 77.8663C85.9556 77.7634 93.1678 77.4617 93.5163 77.8957C93.8662 78.3319 93.7426 79.6535 93.7142 79.914L93.7156 79.9412L96.9558 100.601C96.9812 100.766 96.9404 100.934 96.8424 101.069C96.7444 101.204 96.597 101.295 96.4321 101.323L94.4083 101.655C94.2576 101.679 94.1032 101.649 93.9732 101.569C93.8432 101.489 93.7462 101.365 93.6999 101.22C93.0739 99.2263 90.9751 92.518 90.2477 89.9223C90.2431 89.9058 90.2328 89.8916 90.2185 89.8823C90.2042 89.8729 90.1869 89.8691 90.17 89.8714C90.1531 89.8738 90.1376 89.8823 90.1264 89.8952C90.1153 89.9082 90.1093 89.9247 90.1095 89.9418C90.1458 92.4162 90.2337 98.7293 90.2639 100.91L90.2672 101.145C90.2686 101.304 90.2101 101.457 90.1032 101.575C89.9964 101.693 89.8491 101.767 89.6903 101.782L87.7388 101.959C87.7189 101.961 87.6991 101.961 87.6796 101.961Z" fill="#263238"/>
<path d="M88.0777 58.8603C87.4734 59.2184 87.1119 59.8765 86.9044 60.5462C86.5203 61.786 86.2891 63.0678 86.2159 64.3634L85.9966 68.2425L83.2822 78.5264C85.6348 80.511 86.9919 80.06 90.1587 78.4366C93.3256 76.8133 93.6875 78.9779 93.6875 78.9779L94.3208 70.2276L95.2256 60.6658C95.0225 60.422 94.7926 60.2016 94.5402 60.0089C93.7039 59.3605 92.7309 58.9098 91.6945 58.6909C90.6582 58.4719 89.5854 58.4902 88.5572 58.7446L88.0777 58.8603Z" fill="#349CF5"/>
<path d="M87.196 70.8696C87.269 70.897 87.3398 70.9301 87.4076 70.9686L93.6593 67.8488L93.763 66.1586L96.3419 65.9814L96.4801 69.8342L88.1255 72.5888C88.0572 72.8805 87.9016 73.1446 87.6791 73.346C87.4567 73.5474 87.178 73.6764 86.8802 73.7161C86.5824 73.7557 86.2796 73.704 86.012 73.5678C85.7444 73.4316 85.5247 73.2175 85.3821 72.9538C85.2396 72.6901 85.1809 72.3894 85.2139 72.0917C85.247 71.7939 85.3701 71.5133 85.567 71.287C85.7639 71.0608 86.0253 70.8997 86.3162 70.8251C86.6072 70.7506 86.9141 70.7661 87.196 70.8696Z" fill="#FFB8B8"/>
<path d="M95.1804 60.7096C96.7186 61.2509 96.9895 67.1149 96.9895 67.1149C95.18 66.1226 93.0084 67.7464 93.0084 67.7464C93.0084 67.7464 92.556 66.2128 92.0131 64.2282C91.8492 63.6699 91.8296 63.0794 91.9561 62.5116C92.0827 61.9438 92.3513 61.4171 92.7369 60.9806C92.7369 60.9806 93.6422 60.168 95.1804 60.7096Z" fill="#349CF5"/>
<path d="M93.3796 54.9639C92.9482 54.6198 92.3597 55.2452 92.3597 55.2452L92.0145 52.1485C92.0145 52.1485 89.8576 52.4061 88.4771 52.0625C87.0967 51.7189 86.881 53.3099 86.881 53.3099C86.8098 52.6672 86.7954 52.0196 86.8379 51.3744C86.9241 50.6002 88.0458 49.826 90.0301 49.3099C92.0145 48.7937 93.0498 51.0303 93.0498 51.0303C94.4304 51.7184 93.8109 55.308 93.3796 54.9639Z" fill="#263238"/>
</g>
<defs>
<clipPath id="clip0_56_117">
<rect width="105" height="105" fill="white"/>
</clipPath>
</defs>
</svg>
