<svg width="147" height="105" viewBox="0 0 147 105" fill="none" xmlns="http://www.w3.org/2000/svg">
<g clip-path="url(#clip0_56_91)">
<path d="M3.87354 104.768C3.87354 104.897 3.9767 105 4.10517 105H146.064C146.193 105 146.296 104.897 146.296 104.768C146.296 104.64 146.193 104.537 146.064 104.537H4.10517C3.9767 104.537 3.87354 104.64 3.87354 104.768Z" fill="#3F3D58"/>
<path d="M49.331 18.5213H3.80159C2.06528 18.5213 0.6521 17.1081 0.6521 15.3718C0.6521 13.6355 2.06528 12.2223 3.80159 12.2223H49.331C51.0674 12.2223 52.4805 13.6355 52.4805 15.3718C52.4805 17.1081 51.0674 18.5213 49.331 18.5213ZM3.80159 12.6116C2.2794 12.6116 1.04141 13.8496 1.04141 15.3718C1.04141 16.894 2.2794 18.132 3.80159 18.132H49.331C50.8532 18.132 52.0912 16.894 52.0912 15.3718C52.0912 13.8496 50.8532 12.6116 49.331 12.6116H3.80159Z" fill="#E2E3E4"/>
<path d="M49.3311 55.3789H3.80168C2.11793 55.3789 0.749512 54.0105 0.749512 52.3268C0.749512 50.643 2.11793 49.2746 3.80168 49.2746H49.3311C51.0149 49.2746 52.3833 50.643 52.3833 52.3268C52.3833 54.0105 51.0149 55.3789 49.3311 55.3789Z" fill="#349CF5"/>
<path d="M34.4108 6.10433H3.05217C1.36841 6.10433 0 4.73592 0 3.05217C0 1.36841 1.36841 0 3.05217 0H34.4108C36.0946 0 37.463 1.36841 37.463 3.05217C37.463 4.73592 36.0946 6.10433 34.4108 6.10433Z" fill="#E2E3E4"/>
<path d="M49.331 30.839H3.80159C2.06528 30.839 0.6521 29.4258 0.6521 27.6895C0.6521 25.9532 2.06528 24.54 3.80159 24.54H49.331C51.0674 24.54 52.4805 25.9532 52.4805 27.6895C52.4805 29.4258 51.0674 30.839 49.331 30.839ZM3.80159 24.9293C2.2794 24.9293 1.04141 26.1673 1.04141 27.6895C1.04141 29.2117 2.2794 30.4497 3.80159 30.4497H49.331C50.8532 30.4497 52.0912 29.2117 52.0912 27.6895C52.0912 26.1673 50.8532 24.9293 49.331 24.9293H3.80159Z" fill="#E2E3E4"/>
<path d="M49.331 43.1586H3.80159C2.06528 43.1586 0.6521 41.7454 0.6521 40.0091C0.6521 38.2728 2.06528 36.8596 3.80159 36.8596H49.331C51.0674 36.8596 52.4805 38.2728 52.4805 40.0091C52.4805 41.7454 51.0674 43.1586 49.331 43.1586ZM3.80159 37.2489C2.2794 37.2489 1.04141 38.4869 1.04141 40.0091C1.04141 41.5313 2.2794 42.7693 3.80159 42.7693H49.331C50.8532 42.7693 52.0912 41.5313 52.0912 40.0091C52.0912 38.4869 50.8532 37.2489 49.331 37.2489H3.80159Z" fill="#E2E3E4"/>
<path d="M2.23653 9.96042H14.1688C14.453 9.96042 14.6846 10.1901 14.6846 10.4763C14.6846 10.7604 14.453 10.9921 14.1688 10.9921H2.23653C1.95234 10.9921 1.7207 10.7624 1.7207 10.4763C1.7207 10.1921 1.95234 9.96042 2.23653 9.96042Z" fill="#E2E3E4"/>
<path d="M2.23653 22.5701H14.1688C14.453 22.5701 14.6846 22.7998 14.6846 23.084C14.6846 23.3681 14.453 23.5998 14.1688 23.5998H2.23653C1.95234 23.5998 1.7207 23.3701 1.7207 23.0859C1.7207 22.8017 1.95234 22.5701 2.23653 22.5701Z" fill="#E2E3E4"/>
<path d="M2.23653 35.1817H14.1688C14.453 35.1817 14.6846 35.4114 14.6846 35.6975C14.6846 35.9817 14.453 36.2114 14.1688 36.2114H2.23653C1.95234 36.2114 1.7207 35.9817 1.7207 35.6956C1.7207 35.4114 1.95234 35.1817 2.23653 35.1817Z" fill="#E2E3E4"/>
<path d="M87.0255 25.7449L82.6731 27.1775V20.9116H86.6226L87.0255 25.7449Z" fill="#FFB8B8"/>
<path d="M83.2124 22.646C85.6076 22.646 87.5492 20.7043 87.5492 18.3091C87.5492 15.9139 85.6076 13.9722 83.2124 13.9722C80.8172 13.9722 78.8755 15.9139 78.8755 18.3091C78.8755 20.7043 80.8172 22.646 83.2124 22.646Z" fill="#FFB8B8"/>
<path d="M84.4037 17.8789C83.6777 17.8575 83.2008 17.1237 82.9185 16.454C82.6363 15.7844 82.3462 15.0156 81.6727 14.7392C81.1219 14.5134 80.1505 16.0414 79.7165 15.6346C79.2629 15.2102 79.7048 13.032 80.1856 12.6408C80.6664 12.2495 81.3243 12.1736 81.9433 12.1444C83.4538 12.0743 84.9741 12.197 86.4554 12.5065C87.3722 12.6972 88.3143 12.9853 88.9761 13.6471C89.8131 14.488 90.0273 15.7552 90.0876 16.9407C90.1499 18.1534 90.0798 19.4225 89.49 20.4834C88.9002 21.5442 87.6661 22.3267 86.4826 22.0562C86.3639 21.4138 86.4846 20.7539 86.5313 20.0999C86.5761 19.4478 86.5293 18.7432 86.1303 18.2235C85.7332 17.7037 84.8806 17.4974 84.4173 17.9587" fill="#263238"/>
<path d="M89.7391 19.3816C90.1732 19.0644 90.6929 18.7977 91.2262 18.8639C91.8024 18.9339 92.291 19.4089 92.4389 19.9714C92.5869 20.534 92.4214 21.153 92.0632 21.6124C91.707 22.0718 91.1756 22.3754 90.615 22.5272C90.29 22.6148 89.9337 22.6518 89.6242 22.5195C89.1687 22.3229 88.9215 21.7408 89.1006 21.2776" fill="#263238"/>
<path d="M73.1429 60.1869C72.8529 61.6117 73.3843 62.914 74.3264 63.095C75.2686 63.276 76.2671 62.2658 76.5552 60.8409C76.6779 60.2725 76.6584 59.6847 76.4988 59.1241L80.0862 36.7876L75.5995 35.9428L73.8671 58.6199C73.4992 59.0793 73.252 59.6165 73.1429 60.1888V60.1869Z" fill="#FFB8B8"/>
<path d="M82.6265 24.3025H79.5646C77.4 24.6315 76.8122 25.7857 76.3197 27.9192C75.5683 31.1738 74.6087 35.5067 74.7995 35.571C75.1051 35.6722 80.3179 38.1248 82.9749 37.5642L82.6265 24.3025Z" fill="#349CF5"/>
<path d="M85.587 95.4503H81.511V101.233H85.587V95.4503Z" fill="#FFB8B8"/>
<path d="M77.5422 104.733C77.114 104.733 76.7325 104.724 76.4444 104.696C75.3621 104.597 74.3285 103.797 73.8088 103.33C73.5752 103.12 73.5012 102.785 73.6219 102.497C73.7095 102.29 73.8827 102.135 74.0988 102.074L76.9602 101.257L81.593 98.1307L81.6455 98.2241C81.665 98.2591 82.1205 99.0786 82.2723 99.6315C82.3307 99.8417 82.3151 100.017 82.2275 100.153C82.1672 100.247 82.0815 100.301 82.0134 100.332C82.0971 100.42 82.3599 100.599 83.1697 100.727C84.3512 100.914 84.6004 99.6899 84.6101 99.6392L84.6179 99.5984L84.6529 99.575C85.2155 99.2129 85.562 99.0475 85.6807 99.0825C85.7547 99.1039 85.8792 99.1429 86.216 102.477C86.2491 102.582 86.4846 103.349 86.325 104.083C86.1518 104.881 82.6636 104.607 81.9648 104.545C81.9453 104.546 79.333 104.733 77.5442 104.733H77.5422Z" fill="#263238"/>
<path d="M97.1937 90.9066L93.7351 93.0636L96.7954 97.9707L100.254 95.8137L97.1937 90.9066Z" fill="#FFB8B8"/>
<path d="M92.6006 103.941C92.1217 103.941 91.6818 103.883 91.3684 103.828C91.0608 103.774 90.8195 103.528 90.7689 103.221C90.7338 102.999 90.7981 102.775 90.9499 102.61L92.9451 100.402L95.2225 95.2985L95.316 95.3491C95.351 95.3685 96.1705 95.8221 96.5929 96.2114C96.7545 96.3593 96.8343 96.517 96.8304 96.6786C96.8284 96.7915 96.7856 96.881 96.7428 96.9452C96.8596 96.9764 97.1769 96.9881 97.9321 96.6688C99.0338 96.2036 98.5978 95.0318 98.5784 94.9831L98.5628 94.9442L98.5803 94.9072C98.8664 94.3018 99.0708 93.9787 99.1915 93.9456C99.2674 93.9242 99.392 93.8911 101.442 96.5442C101.525 96.6143 102.131 97.1418 102.384 97.8484C102.658 98.6173 99.5536 100.231 98.9287 100.546C98.9093 100.562 95.6605 102.923 94.3252 103.595C93.7957 103.861 93.1689 103.943 92.5986 103.943L92.6006 103.941Z" fill="#263238"/>
<path d="M88.5887 47.0886H77.1762L76.1406 57.705L80.6722 96.9316H86.4981L84.1681 74.2759L93.6186 94.7301L98.7963 91.1056L91.417 72.0101C91.417 72.0101 94.0526 55.375 91.9815 51.2308C89.9104 47.0886 88.5887 47.0886 88.5887 47.0886Z" fill="#263238"/>
<path d="M94.2668 47.7349H76.1406L81.5792 24.3025H89.4763L94.2668 47.7349Z" fill="#349CF5"/>
<path d="M95.8979 60.1868C96.1879 61.6117 95.6565 62.9139 94.7144 63.095C93.7723 63.276 92.7737 62.2657 92.4856 60.8409C92.363 60.2725 92.3824 59.6846 92.5421 59.124L88.9546 36.7875L93.4414 35.9427L95.1738 58.6199C95.5417 59.0793 95.7889 59.6165 95.8979 60.1888V60.1868Z" fill="#FFB8B8"/>
<path d="M86.4143 24.3025H89.4763C91.6408 24.6315 92.2286 25.7857 92.7211 27.9192C93.4725 31.1738 94.4321 35.5067 94.2414 35.571C93.9358 35.6722 88.7229 38.1248 86.0659 37.5642L86.4143 24.3025Z" fill="#349CF5"/>
</g>
<defs>
<clipPath id="clip0_56_91">
<rect width="146.296" height="105" fill="white"/>
</clipPath>
</defs>
</svg>
