<svg width="204" height="179" viewBox="0 0 204 179" fill="none" xmlns="http://www.w3.org/2000/svg">
<g clip-path="url(#clip0_26_393)">
<mask id="path-1-inside-1_26_393" fill="white">
<path d="M101.877 72.3116C94.7366 72.3116 87.757 70.1911 81.8204 66.2183C75.8837 62.2454 71.2567 56.5986 68.5243 49.992C65.792 43.3854 65.0771 36.1157 66.47 29.1022C67.863 22.0886 71.3012 15.6463 76.3499 10.5898C81.3986 5.53332 87.831 2.08982 94.8337 0.69474C101.836 -0.700339 109.095 0.0156652 115.691 2.75221C122.288 5.48876 127.926 10.1229 131.893 16.0687C135.859 22.0145 137.977 29.0049 137.977 36.1558C137.966 45.7416 134.159 54.9317 127.391 61.7098C120.623 68.488 111.448 72.3008 101.877 72.3116ZM101.877 0.569399C94.849 0.569399 87.9794 2.65651 82.1362 6.56679C76.2931 10.4771 71.7389 16.0349 69.0496 22.5375C66.3603 29.04 65.6566 36.1953 67.0276 43.0984C68.3986 50.0015 71.7827 56.3424 76.7519 61.3192C81.7211 66.2961 88.0522 69.6853 94.9447 71.0584C101.837 72.4316 108.981 71.7268 115.474 69.0334C121.966 66.3399 127.516 61.7787 131.42 55.9266C135.324 50.0744 137.408 43.1941 137.408 36.1558C137.398 26.721 133.651 17.6756 126.989 11.0042C120.328 4.33276 111.297 0.580061 101.877 0.569399Z"/>
</mask>
<path d="M101.877 72.3116C94.7366 72.3116 87.757 70.1911 81.8204 66.2183C75.8837 62.2454 71.2567 56.5986 68.5243 49.992C65.792 43.3854 65.0771 36.1157 66.47 29.1022C67.863 22.0886 71.3012 15.6463 76.3499 10.5898C81.3986 5.53332 87.831 2.08982 94.8337 0.69474C101.836 -0.700339 109.095 0.0156652 115.691 2.75221C122.288 5.48876 127.926 10.1229 131.893 16.0687C135.859 22.0145 137.977 29.0049 137.977 36.1558C137.966 45.7416 134.159 54.9317 127.391 61.7098C120.623 68.488 111.448 72.3008 101.877 72.3116ZM101.877 0.569399C94.849 0.569399 87.9794 2.65651 82.1362 6.56679C76.2931 10.4771 71.7389 16.0349 69.0496 22.5375C66.3603 29.04 65.6566 36.1953 67.0276 43.0984C68.3986 50.0015 71.7827 56.3424 76.7519 61.3192C81.7211 66.2961 88.0522 69.6853 94.9447 71.0584C101.837 72.4316 108.981 71.7268 115.474 69.0334C121.966 66.3399 127.516 61.7787 131.42 55.9266C135.324 50.0744 137.408 43.1941 137.408 36.1558C137.398 26.721 133.651 17.6756 126.989 11.0042C120.328 4.33276 111.297 0.580061 101.877 0.569399Z" fill="#E6E6E6"/>
<path d="M101.877 72.3116V73.3116H101.878L101.877 72.3116ZM137.977 36.1558L138.977 36.1569V36.1558H137.977ZM101.877 0.569399L101.878 -0.430601H101.877V0.569399ZM137.408 36.1558H138.408V36.1547L137.408 36.1558ZM101.877 71.3116C94.9347 71.3116 88.1487 69.25 82.3765 65.3872L81.2642 67.0493C87.3653 71.1323 94.5385 73.3116 101.877 73.3116V71.3116ZM82.3765 65.3872C76.6044 61.5244 72.1053 56.0339 69.4484 49.6099L67.6003 50.3742C70.4081 57.1634 75.1631 62.9664 81.2642 67.0493L82.3765 65.3872ZM69.4484 49.6099C66.7916 43.1858 66.0964 36.1168 67.4509 29.297L65.4892 28.9074C64.0578 36.1146 64.7924 43.5851 67.6003 50.3742L69.4484 49.6099ZM67.4509 29.297C68.8053 22.4771 72.1486 16.2129 77.0575 11.2964L75.6422 9.88324C70.4538 15.0797 66.9206 21.7001 65.4892 28.9074L67.4509 29.297ZM77.0575 11.2964C81.9665 6.37985 88.2207 3.03184 95.0291 1.67547L94.6384 -0.285988C87.4413 1.14779 80.8307 4.68679 75.6422 9.88324L77.0575 11.2964ZM95.0291 1.67547C101.838 0.319093 108.895 1.01522 115.308 3.67588L116.075 1.82854C109.295 -0.983889 101.835 -1.71977 94.6384 -0.285988L95.0291 1.67547ZM115.308 3.67588C121.722 6.33655 127.204 10.8423 131.061 16.6237L132.725 15.5137C128.648 9.40353 122.854 4.64096 116.075 1.82854L115.308 3.67588ZM131.061 16.6237C134.918 22.4051 136.977 29.2023 136.977 36.1558H138.977C138.977 28.8074 136.801 21.6239 132.725 15.5137L131.061 16.6237ZM136.977 36.1547C136.966 45.4761 133.264 54.4125 126.684 61.0033L128.099 62.4164C135.054 55.4508 138.966 46.0071 138.977 36.1569L136.977 36.1547ZM126.684 61.0033C120.103 67.594 111.181 71.3011 101.875 71.3116L101.878 73.3116C111.714 73.3004 121.144 69.382 128.099 62.4164L126.684 61.0033ZM101.877 -0.430601C94.6509 -0.430601 87.5877 1.71535 81.58 5.73572L82.6924 7.39787C88.371 3.59766 95.0472 1.5694 101.877 1.5694V-0.430601ZM81.58 5.73572C75.5724 9.75607 70.8903 15.4702 68.1255 22.1553L69.9737 22.9197C72.5875 16.5996 77.0137 11.1981 82.6924 7.39787L81.58 5.73572ZM68.1255 22.1553C65.3607 28.8404 64.6373 36.1964 66.0468 43.2932L68.0085 42.9036C66.6759 36.1942 67.3598 29.2397 69.9737 22.9197L68.1255 22.1553ZM66.0468 43.2932C67.4562 50.39 70.9353 56.909 76.0442 62.0258L77.4595 60.6126C72.6301 55.7757 69.341 49.613 68.0085 42.9036L66.0468 43.2932ZM76.0442 62.0258C81.1532 67.1426 87.6625 70.6274 94.7493 72.0392L95.14 70.0777C88.4418 68.7433 82.289 65.4495 77.4595 60.6126L76.0442 62.0258ZM94.7493 72.0392C101.836 73.451 109.182 72.7264 115.857 69.957L115.091 68.1097C108.781 70.7273 101.838 71.4121 95.14 70.0777L94.7493 72.0392ZM115.857 69.957C122.533 67.1877 128.238 62.4981 132.252 56.4815L130.588 55.3716C126.794 61.0593 121.4 65.4921 115.091 68.1097L115.857 69.957ZM132.252 56.4815C136.266 50.465 138.408 43.3916 138.408 36.1558H136.408C136.408 42.9967 134.383 49.6838 130.588 55.3716L132.252 56.4815ZM138.408 36.1547C138.397 26.4555 134.545 17.1564 127.697 10.2976L126.282 11.7108C132.756 18.1948 136.398 26.9864 136.408 36.1569L138.408 36.1547ZM127.697 10.2976C120.849 3.43877 111.563 -0.419638 101.878 -0.4306L101.875 1.5694C111.03 1.57976 119.808 5.22675 126.282 11.7108L127.697 10.2976Z" fill="#359CF6" mask="url(#path-1-inside-1_26_393)"/>
<path d="M105.837 49.2517H98.1626C97.7857 49.2517 97.4242 49.1017 97.1576 48.8348C96.8911 48.5678 96.7413 48.2058 96.7413 47.8282C96.7413 47.4507 96.8911 47.0887 97.1576 46.8217C97.4242 46.5548 97.7857 46.4048 98.1626 46.4048H105.837C106.214 46.4048 106.576 46.5548 106.842 46.8217C107.109 47.0887 107.259 47.4507 107.259 47.8282C107.259 48.2058 107.109 48.5678 106.842 48.8348C106.576 49.1017 106.214 49.2517 105.837 49.2517Z" fill="#E6E6E6"/>
<path d="M107.601 90.5651H96.3994C95.8493 90.5651 95.3217 90.3462 94.9327 89.9566C94.5437 89.567 94.3252 89.0386 94.3252 88.4876C94.3252 87.9367 94.5437 87.4082 94.9327 87.0186C95.3217 86.629 95.8493 86.4102 96.3994 86.4102H107.601C108.151 86.4102 108.678 86.629 109.067 87.0186C109.456 87.4082 109.675 87.9367 109.675 88.4876C109.675 89.0386 109.456 89.567 109.067 89.9566C108.678 90.3462 108.151 90.5651 107.601 90.5651Z" fill="#359CF6"/>
<path d="M139.44 81.8574H64.5604C63.8932 81.8566 63.2535 81.5909 62.7818 81.1183C62.31 80.6458 62.0446 80.0052 62.0438 79.337V56.9789C62.0446 56.3107 62.31 55.6701 62.7818 55.1976C63.2535 54.7251 63.8932 54.4593 64.5604 54.4585H139.44C140.107 54.4593 140.747 54.7251 141.218 55.1976C141.69 55.6701 141.955 56.3107 141.956 56.9789V79.337C141.955 80.0052 141.69 80.6458 141.218 81.1183C140.747 81.5909 140.107 81.8566 139.44 81.8574Z" fill="#E6E6E6"/>
<path d="M132.164 80.1574H66.2582C65.591 80.1566 64.9513 79.8908 64.4796 79.4183C64.0078 78.9458 63.7424 78.3052 63.7416 77.6369V58.6803C63.7424 58.0121 64.0078 57.3715 64.4796 56.899C64.9513 56.4265 65.591 56.1607 66.2582 56.1599H137.742C138.409 56.1607 139.049 56.4265 139.521 56.899C139.993 57.3715 140.258 58.0121 140.259 58.6803V72.0503C140.256 74.1997 139.403 76.2604 137.885 77.7802C136.368 79.3 134.31 80.1549 132.164 80.1574Z" fill="white"/>
<path d="M109.43 62.9018H79.3347C79.1626 62.9018 78.9975 62.8334 78.8758 62.7115C78.754 62.5896 78.6857 62.4242 78.6857 62.2518C78.6857 62.0794 78.754 61.9141 78.8758 61.7922C78.9975 61.6703 79.1626 61.6018 79.3347 61.6018H109.43C109.603 61.6018 109.768 61.6703 109.889 61.7922C110.011 61.9141 110.079 62.0794 110.079 62.2518C110.079 62.4242 110.011 62.5896 109.889 62.7115C109.768 62.8334 109.603 62.9018 109.43 62.9018Z" fill="#359CF6"/>
<path d="M124.665 65.5603H79.3347C79.1626 65.5603 78.9975 65.4918 78.8758 65.3699C78.754 65.248 78.6857 65.0827 78.6857 64.9103C78.6857 64.7379 78.754 64.5725 78.8758 64.4506C78.9975 64.3287 79.1626 64.2603 79.3347 64.2603H124.665C124.838 64.2603 125.003 64.3287 125.124 64.4506C125.246 64.5725 125.315 64.7379 125.315 64.9103C125.315 65.0827 125.246 65.248 125.124 65.3699C125.003 65.4918 124.838 65.5603 124.665 65.5603Z" fill="#E6E6E6"/>
<path d="M124.665 68.612H79.3346C79.2493 68.6122 79.1648 68.5955 79.0859 68.563C79.007 68.5304 78.9353 68.4825 78.8748 68.4221C78.8144 68.3618 78.7665 68.29 78.7338 68.2111C78.7011 68.1321 78.6843 68.0475 78.6843 67.962C78.6843 67.8766 78.7011 67.7919 78.7338 67.713C78.7665 67.634 78.8144 67.5623 78.8748 67.5019C78.9353 67.4415 79.007 67.3937 79.0859 67.3611C79.1648 67.3285 79.2493 67.3118 79.3346 67.312H124.665C124.837 67.3124 125.002 67.381 125.123 67.5029C125.245 67.6247 125.313 67.7899 125.313 67.962C125.313 68.1342 125.245 68.2993 125.123 68.4212C125.002 68.543 124.837 68.6117 124.665 68.612Z" fill="#E6E6E6"/>
<path d="M124.665 71.6638H79.3346C79.2493 71.664 79.1648 71.6473 79.0859 71.6147C79.007 71.5821 78.9353 71.5343 78.8748 71.4739C78.8144 71.4135 78.7665 71.3418 78.7338 71.2628C78.7011 71.1839 78.6843 71.0993 78.6843 71.0138C78.6843 70.9283 78.7011 70.8437 78.7338 70.7647C78.7665 70.6858 78.8144 70.6141 78.8748 70.5537C78.9353 70.4933 79.007 70.4454 79.0859 70.4129C79.1648 70.3803 79.2493 70.3636 79.3346 70.3638H124.665C124.837 70.3641 125.002 70.4328 125.123 70.5546C125.245 70.6765 125.313 70.8416 125.313 71.0138C125.313 71.1859 125.245 71.3511 125.123 71.4729C125.002 71.5948 124.837 71.6634 124.665 71.6638Z" fill="#E6E6E6"/>
<path d="M124.665 74.7156H79.3346C79.2493 74.7157 79.1648 74.6991 79.0859 74.6665C79.007 74.6339 78.9353 74.586 78.8748 74.5257C78.8144 74.4653 78.7665 74.3936 78.7338 74.3146C78.7011 74.2357 78.6843 74.151 78.6843 74.0655C78.6843 73.9801 78.7011 73.8954 78.7338 73.8165C78.7665 73.7375 78.8144 73.6658 78.8748 73.6054C78.9353 73.5451 79.007 73.4972 79.0859 73.4646C79.1648 73.432 79.2493 73.4153 79.3346 73.4155H124.665C124.837 73.4159 125.002 73.4845 125.123 73.6064C125.245 73.7283 125.313 73.8934 125.313 74.0655C125.313 74.2377 125.245 74.4028 125.123 74.5247C125.002 74.6466 124.837 74.7152 124.665 74.7156Z" fill="#E6E6E6"/>
<path d="M164.494 175.323L161.452 175.323L160.005 163.572L164.495 163.572L164.494 175.323Z" fill="#FFB0B1"/>
<path d="M164.601 178.501L155.247 178.501V178.383C155.247 177.415 155.631 176.488 156.314 175.804C156.996 175.12 157.922 174.736 158.888 174.736L160.597 173.438L163.785 174.736L164.602 174.736L164.601 178.501Z" fill="#2F2E41"/>
<path d="M189.363 171.422L186.638 172.774L180.132 162.888L184.155 160.892L189.363 171.422Z" fill="#FFB0B1"/>
<path d="M190.868 174.222L182.486 178.381L182.434 178.275C182.005 177.409 181.938 176.407 182.246 175.491C182.555 174.574 183.215 173.818 184.08 173.389L185.036 171.466L188.468 171.212L189.2 170.849L190.868 174.222Z" fill="#2F2E41"/>
<path d="M174.265 74.7095L173.224 71.7422L170.382 68.8953L165.138 68.2683L161.725 70.5159L158.564 73.6371L153.895 112.453C153.895 112.453 175.948 120.969 178.837 113.822L174.265 74.7095Z" fill="#6C63FF"/>
<path d="M176.053 74.7095L172.99 71.6416C172.99 71.6416 171.526 91.2488 172.15 92.6278C172.773 94.0068 173.507 93.6549 172.714 94.4002C171.92 95.1456 171.068 94.4058 171.92 95.7721C172.423 96.5382 172.669 97.4444 172.624 98.3599C172.624 98.3599 177.037 126.177 179.595 126.177C182.153 126.177 183.755 125.427 183.665 124.663C183.575 123.899 182.066 121.998 182.536 121.525C183.006 121.053 184.165 121.409 183.017 120.519C181.869 119.629 181.301 119.914 181.585 118.775C181.869 117.636 179.696 102.874 179.696 102.874L179.484 78.2156L176.053 74.7095Z" fill="#359CF6"/>
<path d="M161.725 70.5159L157.758 71.078L153.042 72.8809C153.042 72.8809 155.196 97.217 154.746 98.0318C154.297 98.8466 153.498 98.3378 154.181 99.1616C154.865 99.9854 155.48 99.62 154.746 100.372C154.012 101.124 152.777 100.171 153.537 101.502C154.297 102.832 150.635 121.15 151.621 122.133C152.607 123.115 155.147 122.504 155.148 121.778C155.071 120.996 154.776 120.252 154.297 119.629C154.159 119.471 154.083 119.269 154.083 119.06C154.083 118.85 154.159 118.648 154.297 118.49C154.699 118.102 154.976 117.602 155.09 117.054C155.149 116.498 155.584 115.814 155.793 115.302C156.002 114.789 161.273 80.1164 161.273 80.1164L161.725 70.5159Z" fill="#359CF6"/>
<path d="M144.799 89.6778L146.588 88.7422C144.354 86.7242 138.812 83.4225 138.812 83.4225L129.259 76.9724C129.119 76.6427 128.895 76.3557 128.609 76.1403C128.323 75.9249 127.986 75.7887 127.631 75.7454C127.276 75.7021 126.915 75.7533 126.586 75.8938C126.257 76.0342 125.971 76.259 125.756 76.5455C125.542 76.832 125.406 77.1701 125.363 77.5258C125.32 77.8815 125.372 78.2422 125.513 78.5715C125.653 78.9009 125.878 79.1874 126.164 79.4021C126.451 79.6168 126.788 79.7522 127.144 79.7946L137.849 89.4004L144.799 89.6778Z" fill="#FFB0B1"/>
<path d="M157.874 82.5606L157.894 74.6934L153.53 72.6033L142.525 84.2687L141.672 83.6993H139.682L134.85 89.3932C134.85 89.3932 137.424 90.9207 138.695 90.2993C139.966 89.6779 139.847 90.5708 139.847 90.5708C140.036 90.8083 140.299 90.9753 140.594 91.0448C140.888 91.1144 141.198 91.0823 141.473 90.9539C142.525 90.5319 144.514 91.6707 144.514 91.6707L157.874 82.5606Z" fill="#359CF6"/>
<path d="M168.333 66.4612C171.847 66.4612 174.696 63.6079 174.696 60.088C174.696 56.5682 171.847 53.7148 168.333 53.7148C164.819 53.7148 161.97 56.5682 161.97 60.088C161.97 63.6079 164.819 66.4612 168.333 66.4612Z" fill="#FFB0B1"/>
<path d="M176.015 61.7061C175.414 62.8836 174.608 63.9439 173.634 64.8369C173.355 65.1551 172.998 65.396 172.599 65.5363C172.398 65.6018 172.18 65.5948 171.984 65.5164C171.788 65.438 171.626 65.2932 171.525 65.1072L171.407 64.9459C171.748 64.8414 172.07 64.682 172.36 64.474C172.504 64.3692 172.621 64.2315 172.701 64.0724C172.781 63.9132 172.822 63.7372 172.821 63.559C172.81 63.3809 172.732 63.2137 172.601 63.0926C172.47 62.9715 172.297 62.9059 172.119 62.9096C171.722 62.957 171.366 63.4219 171.01 63.2427C170.723 63.0962 170.764 62.6768 170.846 62.3601C171.289 60.7075 171.104 58.1458 170.467 58.0563C169.833 57.9271 169.229 57.6796 168.687 57.3267C168.144 56.9732 167.537 56.729 166.901 56.6074C166.855 56.6014 166.809 56.5981 166.759 56.5941C166.741 56.2533 166.682 55.916 166.583 55.5895C166.514 55.9343 166.408 56.2707 166.268 56.5931C165.717 56.6683 165.16 56.6965 164.605 56.6773C164.012 56.6085 162.31 57.9909 162.297 57.8007C162.279 57.4599 162.22 57.1226 162.121 56.7961C162.051 57.1409 161.946 57.4773 161.806 57.7997C161.799 57.8129 161.796 57.824 161.79 57.8371C161.609 57.3952 161.557 56.9009 161.562 57.27C161.181 54.9215 161.935 53.5075 163.86 52.1149C164.244 51.8077 164.7 51.6033 165.185 51.5208C165.427 51.4821 165.675 51.5065 165.905 51.5916C166.135 51.6767 166.339 51.8196 166.498 52.0067C167.237 51.6153 168.067 51.4288 168.902 51.4667C169.737 51.5046 170.547 51.7655 171.247 52.2223C172.631 53.1511 173.723 53.769 173.539 55.4299C174.851 55.5565 175.96 56.6119 176.374 57.8627C176.785 59.1155 176.572 60.5136 176.015 61.7061Z" fill="#2F2E41"/>
<path d="M184.137 94.9149L179.572 94.26C178.028 96.8458 177.479 103.728 177.479 103.728L173.011 114.364C172.716 114.565 172.478 114.841 172.322 115.164C172.167 115.486 172.098 115.844 172.125 116.201C172.151 116.559 172.271 116.903 172.472 117.199C172.674 117.495 172.949 117.733 173.272 117.888C173.594 118.044 173.951 118.111 174.308 118.084C174.665 118.058 175.008 117.937 175.303 117.735C175.599 117.533 175.836 117.257 175.991 116.934C176.146 116.611 176.213 116.253 176.186 115.896L183.521 103.516L184.137 94.9149Z" fill="#FFB0B1"/>
<path d="M173.626 79.0601L175.56 76.3916L179.483 78.2173L182.745 90.8214C182.745 90.8214 185.128 92.3742 184.619 93.4695C184.111 94.5649 183.841 95.4488 184.366 96.0764C184.892 96.704 186.422 96.7502 185.282 97.7736C184.142 98.797 185.118 101.471 185.118 101.471L184.026 103.912L177.204 103.628L173.626 79.0601Z" fill="#359CF6"/>
<path d="M15.8438 118.151C16.2744 117.813 16.5562 117.32 16.6292 116.776C16.7022 116.233 16.5606 115.683 16.2346 115.242C16.1669 115.154 16.0921 115.071 16.0108 114.995L18.9238 108.258L16.0306 105.575L13.0364 115.236C12.7474 115.598 12.5863 116.045 12.5781 116.509C12.5699 116.972 12.7151 117.425 12.991 117.797C13.15 118.008 13.3489 118.184 13.5761 118.318C13.8034 118.451 14.0546 118.538 14.3155 118.574C14.5764 118.61 14.8417 118.594 15.0965 118.527C15.3513 118.461 15.5904 118.344 15.8003 118.185C15.815 118.174 15.8294 118.163 15.8438 118.151Z" fill="#FFB6B6"/>
<path d="M32.7674 74.4468C32.7674 74.4468 30.6111 70.3412 25.6088 74.775C20.6066 79.2088 14.6954 101.402 14.8102 102.236C14.925 103.071 16.1477 102.741 14.6012 103.942C13.0547 105.143 12.1997 104.064 13.0547 105.143C13.9098 106.222 15.8219 107.366 14.1289 107.526C12.4358 107.687 18.6424 110.361 18.6424 110.361C18.6424 110.361 19.6186 110.127 19.9182 107.871C20.0864 106.603 19.5163 105.884 20.5198 105.673C21.5233 105.462 20.5827 103.17 20.7271 102.81C20.8716 102.449 28.8839 86.7015 28.8839 86.7015L32.7674 74.4468Z" fill="#359CF6"/>
<path d="M42.6149 174.717L46.2369 174.716L47.9603 160.723L42.6141 160.723L42.6149 174.717Z" fill="#FFB6B6"/>
<path d="M42.4871 178.501L53.6264 178.501V178.36C53.6264 177.208 53.1695 176.104 52.3565 175.289C51.5434 174.475 50.4406 174.018 49.2907 174.017H49.2904L47.2557 172.471L43.4593 174.018L42.4869 174.018L42.4871 178.501Z" fill="#2F2E41"/>
<path d="M17.2249 168.043L20.188 170.13L29.6348 159.676L25.261 156.596L17.2249 168.043Z" fill="#FFB6B6"/>
<path d="M14.9469 171.066L24.0592 177.483L24.1403 177.367C24.8016 176.425 25.0622 175.258 24.8648 174.124C24.6674 172.989 24.028 171.98 23.0875 171.317L22.3107 168.88L18.3172 167.958L17.5218 167.398L14.9469 171.066Z" fill="#2F2E41"/>
<path d="M32.8345 66.7058L38.3124 66.9671L40.932 71.4994C42.0936 71.8485 43.1621 72.4543 44.0586 73.2723C44.9552 74.0902 45.6569 75.0994 46.1119 76.2253L47.8176 80.446L45.8772 104.849C45.8772 104.849 45.4883 106.325 46.2044 106.11C46.9206 105.894 46.6287 107.744 46.6287 107.744L49.2683 117.912L25.2698 115.822L26.6023 105.049C26.6023 105.049 24.7496 105.109 26.0523 103.804C27.355 102.499 27.9885 102.915 26.7371 101.373C25.4857 99.8301 25.2996 98.7118 25.2996 98.7118L24.7413 91.07L23.8209 80.3153C23.6749 78.6088 23.9546 76.8926 24.635 75.3212C25.3154 73.7499 26.3752 72.3725 27.7189 71.313L32.8345 66.7058Z" fill="#359CF6"/>
<path d="M35.6752 65.4474C39.5119 65.4474 42.6222 62.3323 42.6222 58.4897C42.6222 54.6471 39.5119 51.532 35.6752 51.532C31.8385 51.532 28.7282 54.6471 28.7282 58.4897C28.7282 62.3323 31.8385 65.4474 35.6752 65.4474Z" fill="#FFB6B6"/>
<path d="M32.9909 64.8772C34.9844 64.8117 35.1655 64.2843 37.159 64.2188C37.7938 64.198 38.5428 64.1108 38.8497 63.5539C38.939 63.3453 38.9788 63.1188 38.9659 62.8921C38.953 62.6655 38.8878 62.4449 38.7753 62.2478C38.5479 61.8565 38.3428 61.4525 38.1612 61.0379C38.0518 60.7127 38.0231 60.3657 38.0776 60.0269C38.1321 59.6881 38.2681 59.3678 38.474 59.0934C38.6798 58.8191 38.9493 58.5991 39.259 58.4525C39.5688 58.3058 39.9095 58.2369 40.2519 58.2518C40.8585 58.278 41.4283 58.5637 42.0332 58.616C42.8629 58.6876 44.6976 55.9439 44.3156 55.2028C43.9438 54.4814 43.1955 53.9371 43.0778 53.1338C43.0009 52.6084 43.2175 52.0864 43.247 51.5562C43.2909 50.7701 41.3013 52.5426 41.6657 51.845C42.5595 50.1336 34.1366 48.012 32.7499 50.1556C32.2317 50.9568 31.308 50.9021 30.4848 51.3833C29.9452 51.6986 28.5828 52.7866 28.2731 53.4647C27.9885 54.1566 27.854 54.9012 27.8785 55.6492C27.8661 59.1276 28.3952 62.3272 31.1966 64.3833" fill="#2F2E41"/>
<path d="M52.7125 117.852C52.3028 117.489 52.051 116.979 52.0105 116.433C51.97 115.886 52.1441 115.345 52.4957 114.925C52.5686 114.841 52.6482 114.763 52.7339 114.692L50.2276 107.792L53.2756 105.287L55.6887 115.11C55.9555 115.488 56.0897 115.945 56.0703 116.408C56.0508 116.871 55.8789 117.315 55.5813 117.67C55.41 117.87 55.201 118.034 54.9662 118.154C54.7314 118.273 54.4754 118.345 54.2129 118.366C53.9503 118.386 53.6863 118.354 53.436 118.272C53.1857 118.191 52.9539 118.06 52.7539 117.889C52.7399 117.877 52.7261 117.864 52.7125 117.852Z" fill="#FFB6B6"/>
<path d="M38.424 73.214C38.424 73.214 40.8211 69.2446 45.5502 73.9695C50.2793 78.6945 54.8571 101.201 54.6928 102.027C54.5285 102.853 53.3277 102.451 54.7998 103.743C56.2719 105.034 57.1898 104.008 56.2719 105.034C55.354 106.06 53.3771 107.087 55.0576 107.349C56.7381 107.61 50.3832 109.909 50.3832 109.909C50.3832 109.909 49.4227 109.616 49.2581 107.346C49.1657 106.071 49.7777 105.387 48.7886 105.116C47.7995 104.846 48.8749 102.615 48.7522 102.246C48.6295 101.877 41.5701 85.679 41.5701 85.679L38.424 73.214Z" fill="#359CF6"/>
<path d="M107.547 35.3786C107.548 36.5051 107.214 37.6063 106.59 38.543C105.965 39.4797 105.077 40.2099 104.038 40.6413C102.999 41.0726 101.856 41.1856 100.753 40.9662C99.6497 40.7467 98.6364 40.2045 97.8409 39.4082C97.0454 38.6119 96.5036 37.5973 96.2839 36.4926C96.0642 35.3878 96.1765 34.2427 96.6067 33.2019C97.0368 32.1611 97.7654 31.2715 98.7004 30.6454C99.6354 30.0194 100.735 29.6851 101.859 29.6848C102.606 29.6838 103.346 29.8304 104.037 30.1161C104.727 30.4019 105.354 30.8212 105.883 31.3501C106.411 31.879 106.83 32.507 107.116 33.1983C107.401 33.8896 107.548 34.6305 107.547 35.3786Z" fill="#6C63FF"/>
<path d="M101.986 36.2042C103.085 36.2042 103.976 35.312 103.976 34.2113C103.976 33.1107 103.085 32.2185 101.986 32.2185C100.887 32.2185 99.9965 33.1107 99.9965 34.2113C99.9965 35.312 100.887 36.2042 101.986 36.2042Z" fill="white"/>
<path d="M104.119 36.916H99.8554C99.5916 36.9163 99.3388 37.0214 99.1522 37.2082C98.9657 37.395 98.8608 37.6483 98.8605 37.9124C98.9212 38.7659 99.0544 39.6125 99.2585 40.4433C100.114 40.8847 101.067 41.1013 102.028 41.0729C102.99 41.0445 103.928 40.7721 104.756 40.2811C104.938 39.5024 105.058 38.7103 105.114 37.9124C105.114 37.6483 105.009 37.395 104.822 37.2082C104.636 37.0214 104.383 36.9163 104.119 36.916Z" fill="white"/>
<path d="M1.49716e-06 178.661C-0.000130985 178.706 0.00853012 178.75 0.0254835 178.791C0.0424369 178.832 0.0673462 178.87 0.0987849 178.901C0.130224 178.933 0.16757 178.958 0.208672 178.975C0.249773 178.992 0.293821 179 0.338281 179H203.662C203.751 179 203.838 178.964 203.901 178.901C203.964 178.837 204 178.751 204 178.661C204 178.571 203.964 178.485 203.901 178.422C203.838 178.358 203.751 178.323 203.662 178.323H0.338281C0.293822 178.322 0.249773 178.331 0.208672 178.348C0.167571 178.365 0.130228 178.39 0.0987892 178.421C0.0673508 178.453 0.0424374 178.49 0.0254835 178.531C0.00852959 178.573 -0.000129475 178.617 1.49716e-06 178.661Z" fill="#1E5E92"/>
<path d="M128.563 139H125.664L125.654 138.992C125.139 138.598 124.907 138.043 125.035 137.51C125.075 137.337 125.152 137.17 125.264 137.012L126.145 135.769L125.795 131.315C125.789 131.232 125.829 131.154 125.907 131.093C125.985 131.034 126.092 131 126.207 131H126.749C126.972 131 127.153 131.126 127.162 131.286L127.398 135.687L128.619 137.062C128.723 137.18 128.807 137.305 128.867 137.434C129.107 137.935 129.019 138.479 128.626 138.926L128.561 138.999H128.563V139Z" fill="#3F3D56"/>
<path d="M127.719 138.963C127.694 138.986 127.649 139 127.601 139H125.554C125.515 139 125.476 138.99 125.451 138.974C125.105 138.749 124.953 138.454 125.013 138.167C125.02 138.136 125.06 138.11 125.114 138.102C125.541 138.037 126.057 138 126.613 138C127.048 138 127.457 138.023 127.821 138.064C127.871 138.07 127.912 138.09 127.926 138.118C128.071 138.4 128.003 138.708 127.72 138.963H127.719Z" fill="#6C63FF"/>
<path d="M83.0026 117.622C81.6666 117.175 80.7892 116.042 81.044 115.092C81.2988 114.142 82.5888 113.734 83.9248 114.181C84.4604 114.352 84.9526 114.663 85.359 115.089L91 117.062L90.1151 120L84.6481 117.743C84.0988 117.849 83.5346 117.808 83.0026 117.62L83.0026 117.622Z" fill="#FFB0B1"/>
<path d="M107.934 118.585L108 122.918C108 122.918 102.331 122.847 100.347 122.996C98.363 123.147 86 118.798 86 118.798L88.0539 116L101.692 119.164L107.934 118.584V118.585Z" fill="white"/>
<path d="M84 113H83V124H84V113Z" fill="#6C63FF"/>
<path d="M86.2348 139.999H81.1635L81.1447 139.979C80.2429 139.041 79.8371 137.725 80.06 136.457C80.1314 136.048 80.2655 135.651 80.4608 135.277L82.0039 132.324L81.3914 121.745C81.3802 121.549 81.4503 121.363 81.5881 121.221C81.7258 121.078 81.9125 121 82.1129 121H83.061C83.4505 121 83.7686 121.298 83.7837 121.679L84.1957 132.135L86.3325 135.401C86.5153 135.68 86.6619 135.977 86.7683 136.283C87.1866 137.472 87.0338 138.764 86.3475 139.827L86.2348 140L86.2348 139.999Z" fill="#3F3D56"/>
<path d="M86.4404 138.926C86.3899 138.972 86.3009 139 86.2052 139H82.1087C82.0303 139 81.9532 138.981 81.9013 138.948C81.2102 138.498 80.9058 137.909 81.0254 137.334C81.0387 137.271 81.1198 137.22 81.2275 137.204C82.0821 137.074 83.1149 137 84.226 137C85.0953 137 85.9167 137.046 86.6425 137.128C86.7421 137.139 86.8246 137.18 86.8525 137.236C87.1422 137.798 87.0053 138.416 86.4404 138.926Z" fill="#6C63FF"/>
<path d="M104.25 111.925L105 117.34L99 118L99.375 111L104.25 111.925Z" fill="#FFB0B1"/>
<path d="M99 113C101.209 113 103 111.433 103 109.5C103 107.567 101.209 106 99 106C96.7909 106 95 107.567 95 109.5C95 111.433 96.7909 113 99 113Z" fill="#FFB0B1"/>
<path d="M86.3554 126.972C85.2946 125.922 83.9303 125.686 83.3073 126.445C82.6842 127.203 83.0386 128.67 84.0994 129.72C84.5175 130.146 85.0248 130.453 85.5795 130.615L90.125 135L92 132.559L87.3201 128.496C87.1163 127.907 86.7851 127.385 86.3554 126.972Z" fill="#FFB0B1"/>
<path d="M99.1075 115.87L104.903 115L108.333 117.734L108.688 132.769L112 156.751L90 157C90 157 91.6559 141.467 92.4839 140.598C93.3118 139.728 93.9032 135.751 93.9032 135.751L95.5591 118.604L99.1075 115.87Z" fill="white"/>
<path d="M96.9805 119.008C96.9805 119.008 93.8084 118.763 93.0763 120.972C92.3443 123.182 91.4903 130.425 91.4903 130.425L89.5382 130.67L87.8301 128.829L86 133.248C86 133.248 92.4663 140.369 94.9064 137.177C97.3465 133.985 96.9805 119.008 96.9805 119.008Z" fill="white"/>
<path d="M105.538 111.418C105.538 111.418 105.538 107.478 105.901 106.249C106.264 105.02 104.208 103.668 103.604 102.438C102.999 101.209 99.2506 102.93 97.6787 103.176C96.1068 103.422 96.2277 104.405 95.2604 106.003C94.293 107.601 96.2277 110.06 97.6787 110.306C99.1297 110.551 98.646 111.658 99.6411 112.887C100.636 114.116 103.816 112.887 103.816 112.887L104.208 113.502C104.208 113.502 103.362 116.943 104.934 119.894L109.045 121C107.836 117.312 109.166 117.312 109.924 115.407C110.682 113.502 105.538 111.418 105.538 111.418Z" fill="#2F2E41"/>
<path d="M134.527 139.176H132.224V135.824H134.527C134.789 135.824 135 135.638 135 135.411C135 135.183 134.788 135.001 134.527 135H118.473C118.211 135 118 135.185 118 135.413C118 135.641 118.212 135.822 118.473 135.824H120.437V139.176H118.473C118.211 139.176 118 139.362 118 139.589C118 139.817 118.212 139.999 118.473 140H134.527C134.789 140 135 139.815 135 139.587C135 139.359 134.788 139.178 134.527 139.176ZM121.386 139.176L122.468 136.672L131.275 135.824V139.176H121.386Z" fill="#F2F2F2"/>
<path d="M45.5 157H163" stroke="#D6D7D8"/>
<path d="M155.483 112.158C155.483 112.158 152.02 116.993 154.52 125.345C157.019 133.698 155.616 141.165 156.317 142.662C157.019 144.16 158.431 145.582 157.264 146.717C156.097 147.852 155.483 148.775 156.404 149.083C157.326 149.391 160.398 170.93 160.398 170.93L165.621 171.238C165.621 171.238 167.514 161.232 165.492 153.158C165.492 153.158 165.936 147.296 165.011 145.574C164.085 143.852 164.267 145.405 164.33 143.244C164.364 141.681 164.592 140.128 165.007 138.621C165.314 137.39 165.492 124.985 165.492 124.985L170.577 141.447C170.781 142.014 170.857 142.619 170.801 143.22C170.675 144.068 170.674 145.335 170.828 145.778C170.982 146.222 171.154 146.315 171.068 147.191C170.982 148.068 181.215 166.544 181.215 166.544L186.3 163.128L181.29 146.929C180.793 146.377 180.379 145.755 180.061 145.083C179.447 143.852 179.423 143.784 179.742 142.895C180.061 142.006 180.061 140.273 180.061 139.755C180.061 139.236 180.381 115.698 176.381 112.236C172.381 108.773 155.483 112.158 155.483 112.158Z" fill="#1E5E92"/>
<path d="M28.1823 105.098L27.8813 105.742C25.9028 109.975 25.397 114.708 26.1658 119.318C26.223 119.498 26.2121 119.692 26.1352 119.865C25.6583 120.425 26.4064 122.858 26.8352 124.217L27.2217 126.62C27.2217 126.62 26.5809 128.852 27.5543 128.688C28.5278 128.524 27.0782 130.904 28.0067 131.5L30.4155 146.476L20.3661 163.064L24.0881 168.47L38.976 149.272L39.1621 131.938L41.3953 145.917L41.5814 167.91L48.3526 167.19L50.8335 145.867L48.4671 116.378L44.7451 103.592L28.1823 105.098Z" fill="#1E5E92"/>
</g>
<defs>
<clipPath id="clip0_26_393">
<rect width="204" height="179" fill="white"/>
</clipPath>
</defs>
</svg>
