<svg width="205" height="148" viewBox="0 0 205 148" fill="none" xmlns="http://www.w3.org/2000/svg">
<g clip-path="url(#clip0_21_416)">
<path d="M200.215 147.833H77.2174C75.9489 147.832 74.7327 147.325 73.8356 146.424C72.9386 145.523 72.434 144.302 72.4326 143.028V4.80528C72.434 3.53128 72.9386 2.30987 73.8356 1.40902C74.7327 0.508164 75.9489 0.0014342 77.2174 0H200.215C201.484 0.0014342 202.7 0.508164 203.597 1.40902C204.494 2.30987 204.999 3.53128 205 4.80528V143.028C204.999 144.302 204.494 145.523 203.597 146.424C202.7 147.325 201.484 147.832 200.215 147.833ZM77.2174 0.565327C76.0981 0.566599 75.025 1.01371 74.2335 1.80858C73.442 2.60345 72.9968 3.68117 72.9955 4.80528V143.028C72.9968 144.152 73.442 145.23 74.2335 146.024C75.025 146.819 76.0981 147.266 77.2174 147.268H200.215C201.335 147.266 202.408 146.819 203.199 146.024C203.991 145.23 204.436 144.152 204.437 143.028V4.80528C204.436 3.68117 203.991 2.60345 203.199 1.80858C202.408 1.01371 201.335 0.566599 200.215 0.565327H77.2174Z" fill="#359CF6"/>
<path d="M204.719 11.756H72.7141V12.3214H204.719V11.756Z" fill="#359CF6"/>
<path d="M79.1876 8.47989C80.4312 8.47989 81.4393 7.46747 81.4393 6.21858C81.4393 4.9697 80.4312 3.95728 79.1876 3.95728C77.944 3.95728 76.9359 4.9697 76.9359 6.21858C76.9359 7.46747 77.944 8.47989 79.1876 8.47989Z" fill="#359CF6"/>
<path d="M86.2241 8.47989C87.4677 8.47989 88.4758 7.46747 88.4758 6.21858C88.4758 4.9697 87.4677 3.95728 86.2241 3.95728C84.9805 3.95728 83.9724 4.9697 83.9724 6.21858C83.9724 7.46747 84.9805 8.47989 86.2241 8.47989Z" fill="#359CF6"/>
<path d="M93.2606 8.47989C94.5042 8.47989 95.5123 7.46747 95.5123 6.21858C95.5123 4.9697 94.5042 3.95728 93.2606 3.95728C92.017 3.95728 91.0089 4.9697 91.0089 6.21858C91.0089 7.46747 92.017 8.47989 93.2606 8.47989Z" fill="#359CF6"/>
<path d="M182.624 32.5063H94.8086C93.8382 32.5063 92.9075 32.1191 92.2213 31.43C91.5352 30.7409 91.1497 29.8062 91.1497 28.8317C91.1497 27.8571 91.5352 26.9224 92.2213 26.2333C92.9075 25.5442 93.8382 25.157 94.8086 25.157H182.624C183.594 25.157 184.525 25.5442 185.211 26.2333C185.897 26.9224 186.283 27.8571 186.283 28.8317C186.283 29.8062 185.897 30.7409 185.211 31.43C184.525 32.1191 183.594 32.5063 182.624 32.5063ZM94.8086 25.7224C93.9875 25.7224 93.2 26.05 92.6194 26.6331C92.0388 27.2162 91.7126 28.007 91.7126 28.8317C91.7126 29.6563 92.0388 30.4472 92.6194 31.0303C93.2 31.6134 93.9875 31.941 94.8086 31.941H182.624C183.445 31.941 184.233 31.6134 184.813 31.0303C185.394 30.4472 185.72 29.6563 185.72 28.8317C185.72 28.007 185.394 27.2162 184.813 26.6331C184.233 26.05 183.445 25.7224 182.624 25.7224H94.8086Z" fill="#359CF6"/>
<path d="M160.911 61.5049H120.943C120.346 61.5049 119.773 61.2667 119.351 60.8426C118.929 60.4185 118.692 59.8433 118.692 59.2436C118.692 58.6439 118.929 58.0687 119.351 57.6446C119.773 57.2205 120.346 56.9823 120.943 56.9823H160.911C161.508 56.9823 162.08 57.2205 162.503 57.6446C162.925 58.0687 163.162 58.6439 163.162 59.2436C163.162 59.8433 162.925 60.4185 162.503 60.8426C162.08 61.2667 161.508 61.5049 160.911 61.5049Z" fill="#E8E9EA"/>
<path d="M183.99 69.1369H120.943C120.346 69.1369 119.773 68.8986 119.351 68.4746C118.929 68.0505 118.692 67.4753 118.692 66.8756C118.692 66.2758 118.929 65.7007 119.351 65.2766C119.773 64.8525 120.346 64.6143 120.943 64.6143H183.99C184.587 64.6143 185.16 64.8525 185.582 65.2766C186.005 65.7007 186.242 66.2758 186.242 66.8756C186.242 67.4753 186.005 68.0505 185.582 68.4746C185.16 68.8986 184.587 69.1369 183.99 69.1369Z" fill="#E8E9EA"/>
<path d="M105.967 69.5608H93.8645C93.1556 69.56 92.476 69.2768 91.9747 68.7734C91.4734 68.27 91.1915 67.5874 91.1907 66.8755V59.2436C91.1915 58.5317 91.4734 57.8491 91.9747 57.3457C92.476 56.8423 93.1556 56.5591 93.8645 56.5583H105.967C106.676 56.5591 107.356 56.8423 107.857 57.3457C108.358 57.8491 108.64 58.5317 108.641 59.2436V66.8755C108.64 67.5874 108.358 68.27 107.857 68.7734C107.356 69.2768 106.676 69.56 105.967 69.5608ZM93.8645 57.1236C93.3049 57.1242 92.7683 57.3478 92.3726 57.7452C91.9768 58.1427 91.7542 58.6815 91.7536 59.2436V66.8755C91.7542 67.4376 91.9768 67.9764 92.3726 68.3739C92.7683 68.7713 93.3049 68.9949 93.8645 68.9955H105.967C106.527 68.9949 107.064 68.7713 107.459 68.3739C107.855 67.9764 108.078 67.4376 108.078 66.8755V59.2436C108.078 58.6815 107.855 58.1427 107.459 57.7452C107.064 57.3478 106.527 57.1242 105.967 57.1236H93.8645Z" fill="#E8E9EA"/>
<path d="M160.911 88.358H120.943C120.346 88.358 119.773 88.1198 119.351 87.6957C118.929 87.2716 118.692 86.6964 118.692 86.0967C118.692 85.497 118.929 84.9218 119.351 84.4977C119.773 84.0736 120.346 83.8354 120.943 83.8354H160.911C161.508 83.8354 162.08 84.0736 162.503 84.4977C162.925 84.9218 163.162 85.497 163.162 86.0967C163.162 86.6964 162.925 87.2716 162.503 87.6957C162.08 88.1198 161.508 88.358 160.911 88.358Z" fill="#E8E9EA"/>
<path d="M183.99 95.9899H120.943C120.346 95.9899 119.773 95.7517 119.351 95.3276C118.929 94.9035 118.692 94.3283 118.692 93.7286C118.692 93.1289 118.929 92.5537 119.351 92.1296C119.773 91.7055 120.346 91.4673 120.943 91.4673H183.99C184.587 91.4673 185.16 91.7055 185.582 92.1296C186.005 92.5537 186.242 93.1289 186.242 93.7286C186.242 94.3283 186.005 94.9035 185.582 95.3276C185.16 95.7517 184.587 95.9899 183.99 95.9899Z" fill="#E8E9EA"/>
<path d="M105.967 96.4139H93.8645C93.1556 96.4131 92.476 96.1299 91.9747 95.6265C91.4734 95.1231 91.1915 94.4405 91.1907 93.7286V86.0967C91.1915 85.3847 91.4734 84.7022 91.9747 84.1988C92.476 83.6954 93.1556 83.4122 93.8645 83.4114H105.967C106.676 83.4122 107.356 83.6954 107.857 84.1988C108.358 84.7022 108.64 85.3847 108.641 86.0967V93.7286C108.64 94.4405 108.358 95.1231 107.857 95.6265C107.356 96.1299 106.676 96.4131 105.967 96.4139ZM93.8645 83.9767C93.3049 83.9773 92.7683 84.2009 92.3726 84.5983C91.9768 84.9958 91.7542 85.5346 91.7536 86.0967V93.7286C91.7542 94.2907 91.9768 94.8295 92.3726 95.227C92.7683 95.6244 93.3049 95.848 93.8645 95.8486H105.967C106.527 95.848 107.064 95.6244 107.459 95.227C107.855 94.8295 108.078 94.2907 108.078 93.7286V86.0967C108.078 85.5346 107.855 84.9958 107.459 84.5983C107.064 84.2009 106.527 83.9773 105.967 83.9767H93.8645Z" fill="#E8E9EA"/>
<path d="M160.911 115.211H120.943C120.346 115.211 119.773 114.973 119.351 114.549C118.929 114.125 118.692 113.549 118.692 112.95C118.692 112.35 118.929 111.775 119.351 111.351C119.773 110.927 120.346 110.688 120.943 110.688H160.911C161.508 110.688 162.08 110.927 162.503 111.351C162.925 111.775 163.162 112.35 163.162 112.95C163.162 113.549 162.925 114.125 162.503 114.549C162.08 114.973 161.508 115.211 160.911 115.211Z" fill="#F2F2F2"/>
<path d="M183.99 122.843H120.943C120.346 122.843 119.773 122.605 119.351 122.181C118.929 121.757 118.692 121.181 118.692 120.582C118.692 119.982 118.929 119.407 119.351 118.983C119.773 118.559 120.346 118.32 120.943 118.32H183.99C184.587 118.32 185.16 118.559 185.582 118.983C186.005 119.407 186.242 119.982 186.242 120.582C186.242 121.181 186.005 121.757 185.582 122.181C185.16 122.605 184.587 122.843 183.99 122.843Z" fill="#F2F2F2"/>
<path d="M105.967 123.267H93.8645C93.1556 123.266 92.476 122.983 91.9747 122.48C91.4734 121.976 91.1915 121.294 91.1907 120.582V112.95C91.1915 112.238 91.4734 111.555 91.9747 111.052C92.476 110.548 93.1556 110.265 93.8645 110.264H105.967C106.676 110.265 107.356 110.548 107.857 111.052C108.358 111.555 108.64 112.238 108.641 112.95V120.582C108.64 121.294 108.358 121.976 107.857 122.48C107.356 122.983 106.676 123.266 105.967 123.267Z" fill="#F2F2F2"/>
<path d="M99.9159 67.2256L99.2642 66.6352C96.9498 64.5013 95.4219 63.1162 95.4219 61.3909C95.4162 61.0627 95.4761 60.7366 95.5981 60.432C95.7201 60.1274 95.9017 59.8504 96.1322 59.6176C96.3626 59.3847 96.6373 59.2007 96.9398 59.0763C97.2424 58.952 97.5667 58.8898 97.8936 58.8936C98.2794 58.8957 98.6601 58.982 99.0093 59.1467C99.3585 59.3114 99.6679 59.5504 99.9159 59.8472C100.164 59.5504 100.473 59.3113 100.822 59.1467C101.172 58.982 101.552 58.8957 101.938 58.8936C102.265 58.8898 102.589 58.952 102.892 59.0763C103.194 59.2007 103.469 59.3847 103.7 59.6176C103.93 59.8504 104.112 60.1274 104.234 60.432C104.356 60.7366 104.416 61.0627 104.41 61.3909C104.41 63.1162 102.882 64.5013 100.568 66.6352L99.9159 67.2256Z" fill="#359CF6"/>
<path d="M99.9159 94.0786L99.2642 93.4882C96.9498 91.3543 95.4219 89.9693 95.4219 88.2439C95.4162 87.9157 95.4761 87.5896 95.5981 87.285C95.7201 86.9804 95.9017 86.7035 96.1322 86.4706C96.3626 86.2378 96.6373 86.0537 96.9398 85.9294C97.2424 85.805 97.5667 85.7429 97.8936 85.7466C98.2794 85.7487 98.6601 85.8351 99.0093 85.9997C99.3585 86.1644 99.6679 86.4034 99.9159 86.7002C100.164 86.4034 100.473 86.1644 100.822 85.9997C101.172 85.835 101.552 85.7487 101.938 85.7466C102.265 85.7429 102.589 85.805 102.892 85.9294C103.194 86.0537 103.469 86.2378 103.7 86.4706C103.93 86.7035 104.112 86.9804 104.234 87.285C104.356 87.5896 104.416 87.9157 104.41 88.2439C104.41 89.9693 102.882 91.3543 100.568 93.4882L99.9159 94.0786Z" fill="#359CF6"/>
<path d="M62.9561 44.9715H50.8533C50.1444 44.9707 49.4648 44.6875 48.9635 44.1841C48.4622 43.6807 48.1802 42.9982 48.1794 42.2862V34.6543C48.1802 33.9424 48.4622 33.2598 48.9635 32.7564C49.4648 32.253 50.1444 31.9698 50.8533 31.969H62.9561C63.665 31.9698 64.3446 32.253 64.8459 32.7564C65.3472 33.2598 65.6291 33.9424 65.6299 34.6543V42.2862C65.6291 42.9982 65.3472 43.6807 64.8459 44.1841C64.3446 44.6875 63.665 44.9707 62.9561 44.9715ZM50.8533 32.5343C50.2936 32.5349 49.7571 32.7585 49.3613 33.1559C48.9656 33.5534 48.743 34.0922 48.7424 34.6543V42.2862C48.743 42.8483 48.9656 43.3871 49.3613 43.7846C49.7571 44.182 50.2936 44.4056 50.8533 44.4062H62.9561C63.5157 44.4056 64.0523 44.182 64.448 43.7846C64.8438 43.3871 65.0664 42.8483 65.067 42.2862V34.6543C65.0664 34.0922 64.8438 33.5534 64.448 33.1559C64.0523 32.7585 63.5157 32.5349 62.9561 32.5343H50.8533Z" fill="#359CF6"/>
<path d="M56.9047 42.6362L56.253 42.0458C53.9387 39.9119 52.4108 38.5269 52.4108 36.8016C52.405 36.4733 52.4649 36.1472 52.5869 35.8426C52.7089 35.538 52.8905 35.2611 53.121 35.0282C53.3515 34.7954 53.6261 34.6113 53.9287 34.487C54.2312 34.3626 54.5555 34.3005 54.8824 34.3042C55.2682 34.3063 55.6489 34.3927 55.9982 34.5573C56.3474 34.722 56.6567 34.961 56.9047 35.2578C57.1527 34.961 57.4621 34.722 57.8113 34.5573C58.1605 34.3926 58.5412 34.3063 58.927 34.3042C59.2539 34.3005 59.5782 34.3626 59.8808 34.487C60.1833 34.6113 60.458 34.7954 60.6884 35.0282C60.9189 35.2611 61.1005 35.538 61.2225 35.8426C61.3445 36.1472 61.4044 36.4733 61.3987 36.8016C61.3987 38.5269 59.8707 39.9119 57.5564 42.0458L56.9047 42.6362Z" fill="#359CF6"/>
<path d="M54.3217 148H0.281459C0.206812 148 0.135221 147.97 0.0824374 147.917C0.0296535 147.864 0 147.792 0 147.717C0 147.642 0.0296535 147.57 0.0824374 147.517C0.135221 147.464 0.206812 147.435 0.281459 147.435H54.3217C54.3963 147.435 54.4679 147.464 54.5207 147.517C54.5735 147.57 54.6031 147.642 54.6031 147.717C54.6031 147.792 54.5735 147.864 54.5207 147.917C54.4679 147.97 54.3963 148 54.3217 148Z" fill="#E8E9EA"/>
<path d="M31.1933 28.6453L32.8899 36.4199L29.2813 47.2414L23.4675 35.6146L24.2741 28.8694L31.1933 28.6453Z" fill="#FFB0B1"/>
<path d="M33.205 36.0172H23.1666V48.1976H33.205V36.0172Z" fill="#359CF6"/>
<path d="M29.0773 32.5615C32.8634 32.5615 35.9327 29.4792 35.9327 25.6769C35.9327 21.8746 32.8634 18.7923 29.0773 18.7923C25.2911 18.7923 22.2218 21.8746 22.2218 25.6769C22.2218 29.4792 25.2911 32.5615 29.0773 32.5615Z" fill="#FFB0B1"/>
<path d="M23.1097 30.7963C23.1097 30.7963 17.9996 21.3187 22.607 16.7579C27.2143 12.197 30.9129 15.2023 30.9129 15.2023L33.0249 15.1166C33.0249 15.1166 33.4654 16.7858 34.1756 15.8822C34.8859 14.9786 36.1694 18.2694 36.1694 18.2694C38.5516 22.5778 30.2934 23.543 30.2934 23.543C30.2934 23.543 30.8897 25.4506 30.2836 25.8501C29.6775 26.2496 28.0581 27.7525 28.0581 27.7525L26.6086 28.8519L25.7472 27.5338C25.7472 27.5338 24.8474 26.8205 24.3928 27.1202C23.9382 27.4198 24.5635 31.3622 24.5635 31.3622L23.1097 30.7963Z" fill="#1E5E92"/>
<path d="M14.8857 100.521L12.2646 139.785L18.708 140.004L27.2263 100.85L14.8857 100.521Z" fill="#1E5E92"/>
<path d="M30.5026 100.302L27.8815 139.565L34.3249 139.785L42.8432 100.631L30.5026 100.302Z" fill="#1E5E92"/>
<path d="M13.3073 109.492L16.7374 66.7288L11.4772 44.4611C11.0237 41.151 13.1005 38.0189 16.3058 37.1649L21.453 35.7935L23.7312 33.5055L28.913 44.9975L32.1494 33.5143L34.6734 35.3577L42.1592 38.6744L42.1558 38.752L40.955 65.6513L43.6353 109.111L43.5165 109.113L13.3073 109.492Z" fill="white"/>
<path d="M33.9111 139.338L35.7768 144.932C35.7768 144.932 43.0759 145.928 43.1894 148.198C43.303 150.467 33.2697 149.153 27.3946 149.45C21.5195 149.746 26.41 143.357 26.41 143.357L27.0361 139.685L33.9111 139.338Z" fill="#1E5E92"/>
<path d="M18.6748 138.936L20.5405 144.529C20.5405 144.529 27.8395 145.526 27.9531 147.795C28.0667 150.064 18.0333 148.751 12.1582 149.047C6.28314 149.344 11.1737 142.954 11.1737 142.954L11.7998 139.283L18.6748 138.936Z" fill="#1E5E92"/>
<path d="M9.57257 86.7809C9.49345 85.6781 9.67854 84.5723 10.1123 83.556L8.71991 72.085L14.1744 71.5792L14.9994 83.2697C15.5476 84.2282 15.8592 85.3046 15.9082 86.4088C16.0687 89.1709 14.7804 91.4922 13.0306 91.5947C11.2809 91.6973 9.73256 89.542 9.57257 86.7809Z" fill="#FFB0B1"/>
<path d="M44.1201 88.4647C44.0529 87.3611 44.25 86.2574 44.6948 85.2459L43.427 73.7603L48.8867 73.3143L49.5847 85.0132C50.1225 85.9776 50.4224 87.0573 50.4594 88.162C50.5898 90.9257 49.2764 93.2327 47.5257 93.3161C45.7749 93.3995 44.2501 91.2274 44.1201 88.4647Z" fill="#FFB0B1"/>
<path d="M8.6974 82.1806L8.67896 82.0816L5.83624 66.7642L9.1952 41.8214C9.49492 39.5945 11.4749 37.9904 13.7077 38.1697C14.8738 38.2634 15.92 38.8188 16.6538 39.7338C17.3876 40.6487 17.7051 41.7937 17.5478 42.9578L15.0197 61.6646L16.6114 81.6732L8.6974 82.1806Z" fill="white"/>
<path d="M42.4353 81.8211L36.72 43.5082C36.4229 42.3848 36.5968 41.2091 37.2121 40.2101C37.8275 39.211 38.7972 38.5298 39.9428 38.2919C42.1345 37.8367 44.2987 39.1821 44.8707 41.3544L50.3614 81.3399L42.4353 81.8211Z" fill="white"/>
<path d="M29.0808 48.4997C29.4683 48.4997 29.7825 48.1842 29.7825 47.795C29.7825 47.4059 29.4683 47.0904 29.0808 47.0904C28.6933 47.0904 28.3792 47.4059 28.3792 47.795C28.3792 48.1842 28.6933 48.4997 29.0808 48.4997Z" fill="#E8E9EA"/>
<path d="M29.0808 53.8349C29.4683 53.8349 29.7825 53.5194 29.7825 53.1303C29.7825 52.7411 29.4683 52.4256 29.0808 52.4256C28.6933 52.4256 28.3792 52.7411 28.3792 53.1303C28.3792 53.5194 28.6933 53.8349 29.0808 53.8349Z" fill="#E8E9EA"/>
<path d="M29.0808 59.1702C29.4683 59.1702 29.7825 58.8547 29.7825 58.4655C29.7825 58.0763 29.4683 57.7609 29.0808 57.7609C28.6933 57.7609 28.3792 58.0763 28.3792 58.4655C28.3792 58.8547 28.6933 59.1702 29.0808 59.1702Z" fill="#E8E9EA"/>
<path d="M29.0808 64.5054C29.4683 64.5054 29.7825 64.1899 29.7825 63.8007C29.7825 63.4116 29.4683 63.0961 29.0808 63.0961C28.6933 63.0961 28.3792 63.4116 28.3792 63.8007C28.3792 64.1899 28.6933 64.5054 29.0808 64.5054Z" fill="#E8E9EA"/>
<path d="M29.0808 69.8406C29.4683 69.8406 29.7825 69.5251 29.7825 69.1359C29.7825 68.7468 29.4683 68.4313 29.0808 68.4313C28.6933 68.4313 28.3792 68.7468 28.3792 69.1359C28.3792 69.5251 28.6933 69.8406 29.0808 69.8406Z" fill="#E8E9EA"/>
<path d="M29.0808 75.1758C29.4683 75.1758 29.7825 74.8604 29.7825 74.4712C29.7825 74.082 29.4683 73.7665 29.0808 73.7665C28.6933 73.7665 28.3792 74.082 28.3792 74.4712C28.3792 74.8604 28.6933 75.1758 29.0808 75.1758Z" fill="#E8E9EA"/>
<path d="M29.0808 80.5111C29.4683 80.5111 29.7825 80.1956 29.7825 79.8065C29.7825 79.4173 29.4683 79.1018 29.0808 79.1018C28.6933 79.1018 28.3792 79.4173 28.3792 79.8065C28.3792 80.1956 28.6933 80.5111 29.0808 80.5111Z" fill="#E8E9EA"/>
<path d="M29.0808 85.8463C29.4683 85.8463 29.7825 85.5308 29.7825 85.1417C29.7825 84.7525 29.4683 84.437 29.0808 84.437C28.6933 84.437 28.3792 84.7525 28.3792 85.1417C28.3792 85.5308 28.6933 85.8463 29.0808 85.8463Z" fill="#E8E9EA"/>
<path d="M29.0817 89.9734L15.8053 88.1966L15.5496 88.1625L8.76436 72.4508L4.72351 63.0964H15.2487L29.0817 89.9734Z" fill="#359CF6"/>
<path d="M36.1502 44.668L35.916 44.5501C36.4039 41.6602 35.3636 36.1836 35.353 36.1295L35.6458 36.5107C35.6904 36.7369 36.6595 41.6515 36.1502 44.668Z" fill="#3F3C57"/>
<path d="M21.4644 44.668L21.9298 44.5489C20.9602 41.6304 23.0509 36.1842 23.072 36.1295L22.5741 36.4223C22.4853 36.6507 20.4522 41.6217 21.4644 44.668Z" fill="#3F3C57"/>
<path d="M36.2977 47.5141C36.8195 47.5141 37.2424 46.877 37.2424 46.091C37.2424 45.3051 36.8195 44.668 36.2977 44.668C35.776 44.668 35.353 45.3051 35.353 46.091C35.353 46.877 35.776 47.5141 36.2977 47.5141Z" fill="#3F3C57"/>
<path d="M22.3501 57.0013H21.1805C21.0529 57.0013 20.9496 56.8966 20.9496 56.7674C20.9496 56.6382 21.0529 56.5335 21.1805 56.5335H22.3501C22.6725 56.5335 22.9753 56.4063 23.203 56.1751C23.4305 55.944 23.5556 55.6369 23.5549 55.3105L23.5407 48.0112C23.5407 46.4255 22.2678 45.1358 20.7032 45.1358C19.1386 45.1358 17.8655 46.4255 17.8655 48.0107L17.8797 54.8429C17.881 55.5095 18.4174 56.0559 19.0752 56.061L19.8781 56.0672C20.0054 56.0682 20.108 56.1736 20.1071 56.3029C20.1062 56.4314 20.003 56.535 19.8763 56.535H19.8745L19.0716 56.5288C18.1617 56.5217 17.4198 55.7658 17.418 54.8439L17.4037 48.0112C17.4037 46.1676 18.8838 44.668 20.7032 44.668C22.5224 44.668 24.0024 46.1676 24.0024 48.0107L24.0166 55.3096C24.0175 55.7612 23.8446 56.1859 23.5297 56.5055C23.2149 56.8252 22.7958 57.0013 22.3501 57.0013Z" fill="#3F3C57"/>
<path d="M20.311 56.9231C20.5719 56.9231 20.7834 56.7107 20.7834 56.4487C20.7834 56.1867 20.5719 55.9744 20.311 55.9744C20.0502 55.9744 19.8387 56.1867 19.8387 56.4487C19.8387 56.7107 20.0502 56.9231 20.311 56.9231Z" fill="#3F3C57"/>
<path d="M21.2557 56.9231C21.5166 56.9231 21.7281 56.7107 21.7281 56.4487C21.7281 56.1867 21.5166 55.9744 21.2557 55.9744C20.9949 55.9744 20.7834 56.1867 20.7834 56.4487C20.7834 56.7107 20.9949 56.9231 21.2557 56.9231Z" fill="#3F3C57"/>
</g>
<defs>
<clipPath id="clip0_21_416">
<rect width="205" height="148" fill="white"/>
</clipPath>
</defs>
</svg>
