<svg width="235" height="146" viewBox="0 0 235 146" fill="none" xmlns="http://www.w3.org/2000/svg">
<g clip-path="url(#clip0_25_283)">
<path d="M85.3386 95.0497H150.098C150.914 95.0497 151.575 94.3875 151.575 93.5706V1.75573C151.575 0.938833 150.914 0.276611 150.098 0.276611H85.3386C84.5233 0.276611 83.8624 0.938833 83.8624 1.75573V93.5706C83.8624 94.3875 84.5233 95.0497 85.3386 95.0497Z" fill="white"/>
<path d="M151.851 95.3265H83.5862V0H151.851V95.3265ZM84.1385 94.7732H151.299V0.553334H84.1385V94.7732Z" fill="#E6E6E6"/>
<path d="M136.51 15.2709C136.772 15.2709 136.985 15.4843 136.985 15.7476V16.701C136.985 16.9642 136.772 17.1777 136.51 17.1777H98.9277C98.665 17.1777 98.452 16.9642 98.452 16.701V15.7476C98.452 15.4843 98.665 15.2709 98.9277 15.2709H136.51Z" fill="#E6E6E6"/>
<path d="M136.51 19.7988C136.772 19.7988 136.985 20.0122 136.985 20.2755V21.2289C136.985 21.4922 136.772 21.7056 136.51 21.7056H98.9277C98.665 21.7056 98.452 21.4922 98.452 21.2289V20.2755C98.452 20.0123 98.665 19.7988 98.9277 19.7988H136.51Z" fill="#E6E6E6"/>
<path d="M136.51 24.327C136.772 24.327 136.985 24.5404 136.985 24.8037V25.7571C136.985 26.0204 136.772 26.2338 136.51 26.2338H98.9277C98.665 26.2338 98.452 26.0204 98.452 25.7571V24.804C98.452 24.5407 98.665 24.3273 98.9277 24.3273L136.51 24.327Z" fill="#6C63FF"/>
<path d="M110.899 47.6167C111.601 47.1626 111.749 46.1907 111.258 45.513L108.955 42.3381C108.417 41.5958 107.381 41.4309 106.64 41.9698C106.574 42.0175 106.512 42.07 106.454 42.1269C102.555 44.2155 100.456 47.2656 102.789 50.8713C102.789 51.4734 102.833 52.0748 102.92 52.6705C102.958 52.929 103.045 53.1818 103.192 53.3975C103.63 54.0379 104.401 54.2729 105.079 54.0513L108.846 52.8252C109.646 52.5647 110.079 51.6894 109.783 50.9002C109.401 49.8803 109.559 48.4823 110.899 47.6167Z" fill="#F2F2F2"/>
<path d="M119.837 56.9818C118.754 56.8746 117.829 57.7694 117.829 58.8603V62.1156C117.829 62.1999 117.835 62.2841 117.848 62.3675C117.987 63.2746 118.834 63.8968 119.739 63.7573C125.018 64.409 128.625 62.1093 128.842 57.0637C128.876 56.9929 128.906 56.9197 128.93 56.8447C129.211 55.9728 128.734 55.0375 127.864 54.7557L124.71 53.7291C123.622 53.375 122.492 54.0826 122.301 55.2127C122.129 56.2335 121.457 57.142 119.837 56.9818Z" fill="#E6E6E6"/>
<path d="M100.342 60.1648C101.436 66.6739 107.136 69.1433 113.082 69.5336C113.198 69.5516 113.316 69.5606 113.433 69.5607C114.716 69.5613 115.756 68.5204 115.756 67.2356V61.7925C115.756 60.27 114.511 59.0842 112.991 59.0689C111.522 59.054 110.565 58.3575 110.172 57.0788C109.722 55.6181 108.12 54.8479 106.67 55.3203L101.711 56.9348C101.068 57.1437 100.548 57.6223 100.286 58.2459C100.026 58.8632 100.046 59.5636 100.342 60.1648Z" fill="#3F3D56"/>
<path d="M130.891 37.6577C129.976 36.7595 128.508 36.7748 127.611 37.6917C127.532 37.7733 127.458 37.8607 127.391 37.9531L122.985 44.0296C122.421 44.8065 122.743 45.889 123.624 46.2684C125.687 47.157 125.47 49.1518 124.798 50.3726C124.469 50.9708 124.741 51.7195 125.389 51.9306L132.814 54.3479C134.036 54.743 135.346 54.0712 135.74 52.8473C135.78 52.7241 135.809 52.5977 135.828 52.4696C135.955 51.6179 136.02 50.7578 136.02 49.8966C137.275 45.2039 135.537 40.7801 130.891 37.6577Z" fill="#6C63FF"/>
<path d="M118.141 44.7033C118.963 45.1674 120.001 44.9429 120.556 44.1777L122.032 42.1422C122.319 41.7475 122.418 41.2468 122.305 40.7722C122.195 40.3064 121.886 39.9123 121.461 39.694C117.987 36.5495 113.876 36.3565 110.39 39.678C109.952 39.8995 109.633 40.3028 109.517 40.7808C109.404 41.2521 109.502 41.7496 109.787 42.1415L111.512 44.5204C112.104 45.3374 113.252 45.5511 114.069 44.9589C115.255 44.0984 116.978 44.0478 118.141 44.7033Z" fill="#E6E6E6"/>
<path d="M235 145.517H0V145.982H235V145.517Z" fill="#E6E6E6"/>
<path d="M98.693 85.7092C98.8256 85.147 99.448 84.9622 99.9569 84.9835C100.278 85.0053 100.597 85.0558 100.91 85.1346C101.237 85.2079 101.561 85.2948 101.883 85.3866C102.474 85.5554 103.058 85.7596 103.659 85.8915C104.163 86.0297 104.693 86.0376 105.201 85.9142C105.689 85.7799 106.074 85.4021 106.217 84.9155C106.363 84.4505 106.153 83.948 105.72 83.7258C105.319 83.5045 104.816 83.6506 104.595 84.0521C104.592 84.058 104.588 84.064 104.585 84.07C104.4 84.5651 104.545 85.1237 104.949 85.4646C105.156 85.6593 105.382 85.8318 105.625 85.9792C105.871 86.1474 106.146 86.2704 106.435 86.3425C106.927 86.4731 107.446 86.2698 107.72 85.8398C107.774 85.7369 107.807 85.6239 107.816 85.5078C107.83 85.3498 107.584 85.3507 107.57 85.5078C107.528 85.9604 106.999 86.1718 106.603 86.1226C106.336 86.0782 106.081 85.979 105.854 85.8312C105.635 85.7033 105.428 85.5566 105.234 85.3927C104.898 85.1017 104.584 84.623 104.809 84.169C104.985 83.8772 105.363 83.7832 105.654 83.9589C105.693 83.9823 105.729 84.01 105.762 84.0415C106.114 84.3303 106.051 84.854 105.819 85.1971C105.54 85.5552 105.109 85.7611 104.656 85.7529C104.178 85.7538 103.702 85.6791 103.247 85.5316C102.68 85.3703 102.118 85.1896 101.548 85.0375C101.225 84.9511 100.899 84.8734 100.569 84.8128C100.258 84.744 99.9375 84.7218 99.6195 84.747C99.0825 84.7724 98.618 85.1297 98.4547 85.6428C98.4191 85.798 98.6566 85.8639 98.693 85.7092Z" fill="#3F3D56"/>
<path d="M108.446 79.2764C108.52 79.2764 108.58 79.4897 108.58 79.7531V80.7065C108.58 80.9696 108.52 81.1832 108.446 81.1832H97.8232C97.7489 81.1832 97.6887 80.9698 97.6887 80.7065V79.7531C97.6887 79.4897 97.7489 79.2764 97.8232 79.2764H108.446Z" fill="#E6E6E6"/>
<path d="M136.851 79.2764C136.925 79.2764 136.985 79.4897 136.985 79.7531V80.7065C136.985 80.9696 136.925 81.1832 136.851 81.1832H126.229C126.154 81.1832 126.094 80.9698 126.094 80.7065V79.7531C126.094 79.4897 126.154 79.2764 126.229 79.2764H136.851Z" fill="#E6E6E6"/>
<path d="M132.121 84.6465L130.013 85.3449L128.958 85.694C128.635 85.8325 128.284 85.8971 127.932 85.883C127.673 85.8656 127.444 85.7037 127.342 85.4638C127.297 85.2234 127.4 84.9794 127.604 84.8444C128.107 84.4609 128.743 84.8513 129.1 85.2483C129.536 85.7341 129.783 86.3613 130.192 86.8698C130.556 87.3263 131.017 87.695 131.543 87.9489C132.592 88.4704 133.844 88.3632 134.79 87.6708C135.901 86.8118 136.015 85.3227 136.021 84.0238C136.016 83.899 135.912 83.8014 135.787 83.8058C135.669 83.81 135.574 83.9052 135.57 84.0238C135.564 85.201 135.498 86.6441 134.426 87.3808C133.4 88.0866 132.051 87.8993 131.106 87.1473C130.619 86.7129 130.214 86.1943 129.91 85.6163C129.573 85.0629 129.154 84.5287 128.519 84.314C127.957 84.1097 127.33 84.3294 127.017 84.8397C126.748 85.2936 126.897 85.8801 127.35 86.1497C127.385 86.1705 127.422 86.1891 127.459 86.2053C128.196 86.5569 129.038 86.145 129.747 85.9101L132.242 85.084C132.516 84.9932 132.399 84.5566 132.122 84.6482L132.121 84.6465Z" fill="#6C63FF"/>
<path d="M167.298 42.0887H137.114V42.6421H167.298V42.0887Z" fill="#3F3D56"/>
<path d="M173.373 45.954C171.241 45.954 169.507 44.2164 169.507 42.0806C169.507 39.9448 171.241 38.2073 173.373 38.2073C175.504 38.2073 177.239 39.9448 177.239 42.0806C177.239 44.2164 175.504 45.954 173.373 45.954ZM173.373 38.7606C171.546 38.7606 170.059 40.25 170.059 42.0806C170.059 43.9112 171.546 45.4006 173.373 45.4006C175.2 45.4006 176.686 43.9112 176.686 42.0806C176.686 40.25 175.2 38.7606 173.373 38.7606Z" fill="#3F3D56"/>
<path d="M173.373 44.0174C174.44 44.0174 175.306 43.1503 175.306 42.0807C175.306 41.0111 174.44 40.144 173.373 40.144C172.305 40.144 171.44 41.0111 171.44 42.0807C171.44 43.1503 172.305 44.0174 173.373 44.0174Z" fill="#6C63FF"/>
<path d="M98.3489 62.5621H68.1654V63.1155H98.3489V62.5621Z" fill="#3F3D56"/>
<path d="M58.2245 62.554C58.2245 60.4182 59.9587 58.6807 62.0904 58.6807C64.2221 58.6807 65.9563 60.4182 65.9563 62.554C65.9563 64.6898 64.2221 66.4273 62.0904 66.4273C59.9587 66.4273 58.2245 64.6898 58.2245 62.554ZM58.7768 62.554C58.7768 64.3846 60.2633 65.874 62.0904 65.874C63.9175 65.874 65.404 64.3846 65.404 62.554C65.404 60.7234 63.9175 59.234 62.0904 59.234C60.2633 59.234 58.7768 60.7234 58.7768 62.554Z" fill="#3F3D56"/>
<path d="M62.0904 64.4906C63.1579 64.4906 64.0234 63.6236 64.0234 62.554C64.0234 61.4844 63.1579 60.6173 62.0904 60.6173C61.0229 60.6173 60.1575 61.4844 60.1575 62.554C60.1575 63.6236 61.0229 64.4906 62.0904 64.4906Z" fill="#6C63FF"/>
<path d="M37.1959 45.3041L38.5057 51.3142L35.7196 59.6796L31.2309 50.6916L31.8537 45.4773L37.1959 45.3041Z" fill="#FFB0B1"/>
<path d="M38.749 51.0029H30.9987V60.4189H38.749V51.0029Z" fill="#359CF6"/>
<path d="M35.5621 48.3315C38.4853 48.3315 40.855 45.9487 40.855 43.0094C40.855 40.07 38.4853 37.6873 35.5621 37.6873C32.6389 37.6873 30.2692 40.07 30.2692 43.0094C30.2692 45.9487 32.6389 48.3315 35.5621 48.3315Z" fill="#FFB0B1"/>
<path d="M30.9547 46.9669C30.9547 46.9669 27.0094 39.6403 30.5666 36.1146C34.1238 32.5888 36.9794 34.9121 36.9794 34.9121L38.61 34.8458C38.61 34.8458 38.9501 36.1361 39.4985 35.4376C40.0468 34.7391 41.0378 37.283 41.0378 37.283C42.877 40.6136 36.5011 41.3597 36.5011 41.3597C36.5011 41.3597 36.9615 42.8344 36.4936 43.1433C36.0256 43.4521 34.7753 44.6139 34.7753 44.6139L33.6561 45.4638L32.9911 44.4449C32.9911 44.4449 32.2964 43.8935 31.9454 44.1251C31.5944 44.3567 32.0772 47.4043 32.0772 47.4043L30.9547 46.9669Z" fill="#1E5E92"/>
<path d="M24.6051 100.867L22.5815 131.22L27.5562 131.389L34.133 101.122L24.6051 100.867Z" fill="#1E5E92"/>
<path d="M36.6626 100.698L34.639 131.05L39.6137 131.22L46.1905 100.952L36.6626 100.698Z" fill="#1E5E92"/>
<path d="M23.3865 107.802L26.0348 74.7442L21.9735 57.5303C21.6233 54.9714 23.2268 52.5502 25.7015 51.89L29.6755 50.8299L31.4345 49.0612L35.4353 57.945L37.934 49.0679L39.8827 50.493L45.6623 53.0569L45.6597 53.117L44.7326 73.9113L46.802 107.508L46.7103 107.509L23.3865 107.802Z" fill="white"/>
<path d="M39.2942 130.875L40.7347 135.199C40.7347 135.199 46.3701 135.969 46.4578 137.723C46.5454 139.478 38.799 138.462 34.2629 138.691C29.7269 138.921 33.5028 133.981 33.5028 133.981L33.9862 131.143L39.2942 130.875Z" fill="#1E5E92"/>
<path d="M27.5306 130.563L28.9711 134.887C28.9711 134.887 34.6065 135.658 34.6942 137.412C34.7818 139.166 27.0353 138.151 22.4993 138.38C17.9633 138.609 21.7392 133.67 21.7392 133.67L22.2226 130.832L27.5306 130.563Z" fill="#1E5E92"/>
<path d="M20.5029 90.2454C20.4418 89.3929 20.5847 88.5381 20.9197 87.7525L19.8446 78.8849L24.0559 78.4939L24.6929 87.5312C25.1161 88.2721 25.3567 89.1042 25.3945 89.9578C25.5184 92.0931 24.5237 93.8875 23.1728 93.9668C21.8219 94.046 20.6264 92.3799 20.5029 90.2454Z" fill="#FFB0B1"/>
<path d="M47.1763 91.5471C47.1244 90.694 47.2766 89.8407 47.62 89.0589L46.6412 80.18L50.8565 79.8352L51.3954 88.8789C51.8106 89.6245 52.0421 90.4591 52.0707 91.3131C52.1714 93.4496 51.1574 95.233 49.8057 95.2975C48.4539 95.3619 47.2766 93.6828 47.1763 91.5471Z" fill="#FFB0B1"/>
<path d="M19.8273 86.6892L19.813 86.6127L17.6182 74.7716L20.2116 55.4898C20.443 53.7683 21.9717 52.5282 23.6956 52.6668C24.5959 52.7393 25.4036 53.1686 25.9702 53.8759C26.5368 54.5832 26.7819 55.4683 26.6604 56.3682L24.7086 70.8294L25.9375 86.297L19.8273 86.6892Z" fill="white"/>
<path d="M45.8756 86.4113L41.4629 56.7938C41.2335 55.9253 41.3678 55.0165 41.8429 54.2442C42.3179 53.4719 43.0667 52.9453 43.9512 52.7613C45.6433 52.4094 47.3142 53.4495 47.7559 55.1288L51.9951 86.0393L45.8756 86.4113Z" fill="white"/>
<path d="M35.5649 60.6524C35.8641 60.6524 36.1066 60.4086 36.1066 60.1077C36.1066 59.8069 35.8641 59.563 35.5649 59.563C35.2657 59.563 35.0231 59.8069 35.0231 60.1077C35.0231 60.4086 35.2657 60.6524 35.5649 60.6524Z" fill="#E8E9EA"/>
<path d="M35.5649 64.7767C35.8641 64.7767 36.1066 64.5328 36.1066 64.232C36.1066 63.9311 35.8641 63.6873 35.5649 63.6873C35.2657 63.6873 35.0231 63.9311 35.0231 64.232C35.0231 64.5328 35.2657 64.7767 35.5649 64.7767Z" fill="#E8E9EA"/>
<path d="M35.5649 68.9011C35.8641 68.9011 36.1066 68.6572 36.1066 68.3564C36.1066 68.0555 35.8641 67.8116 35.5649 67.8116C35.2657 67.8116 35.0231 68.0555 35.0231 68.3564C35.0231 68.6572 35.2657 68.9011 35.5649 68.9011Z" fill="#E8E9EA"/>
<path d="M35.5649 73.0255C35.8641 73.0255 36.1066 72.7816 36.1066 72.4808C36.1066 72.1799 35.8641 71.936 35.5649 71.936C35.2657 71.936 35.0231 72.1799 35.0231 72.4808C35.0231 72.7816 35.2657 73.0255 35.5649 73.0255Z" fill="#E8E9EA"/>
<path d="M35.5649 77.1499C35.8641 77.1499 36.1066 76.906 36.1066 76.6052C36.1066 76.3043 35.8641 76.0604 35.5649 76.0604C35.2657 76.0604 35.0231 76.3043 35.0231 76.6052C35.0231 76.906 35.2657 77.1499 35.5649 77.1499Z" fill="#E8E9EA"/>
<path d="M35.5649 81.2743C35.8641 81.2743 36.1066 81.0304 36.1066 80.7295C36.1066 80.4287 35.8641 80.1848 35.5649 80.1848C35.2657 80.1848 35.0231 80.4287 35.0231 80.7295C35.0231 81.0304 35.2657 81.2743 35.5649 81.2743Z" fill="#E8E9EA"/>
<path d="M35.5649 85.3985C35.8641 85.3985 36.1066 85.1547 36.1066 84.8538C36.1066 84.553 35.8641 84.3091 35.5649 84.3091C35.2657 84.3091 35.0231 84.553 35.0231 84.8538C35.0231 85.1547 35.2657 85.3985 35.5649 85.3985Z" fill="#E8E9EA"/>
<path d="M35.5649 89.523C35.8641 89.523 36.1066 89.2792 36.1066 88.9783C36.1066 88.6775 35.8641 88.4336 35.5649 88.4336C35.2657 88.4336 35.0231 88.6775 35.0231 88.9783C35.0231 89.2792 35.2657 89.523 35.5649 89.523Z" fill="#E8E9EA"/>
<path d="M35.5655 92.7135L25.3151 91.34L25.1177 91.3136L19.879 79.1677L16.7592 71.9364H24.8854L35.5655 92.7135Z" fill="#359CF6"/>
<path d="M40.9094 58.0089L40.748 57.9099C41.0842 55.4832 40.3674 50.8847 40.3601 50.8392L40.5618 51.1593C40.5926 51.3493 41.2604 55.476 40.9094 58.0089Z" fill="#3F3C57"/>
<path d="M29.5849 58.0089L30.066 57.9089C29.0638 55.4583 31.2248 50.8851 31.2465 50.8392L30.732 51.085C30.6402 51.2769 28.5387 55.451 29.5849 58.0089Z" fill="#3F3C57"/>
<path d="M41.0111 59.9643C41.3706 59.9643 41.662 59.5265 41.662 58.9866C41.662 58.4466 41.3706 58.0089 41.0111 58.0089C40.6516 58.0089 40.3601 58.4466 40.3601 58.9866C40.3601 59.5265 40.6516 59.9643 41.0111 59.9643Z" fill="#3F3C57"/>
<path d="M30.5851 67.1339H29.664C29.5635 67.1339 29.4822 67.0564 29.4822 66.9609C29.4822 66.8653 29.5635 66.7878 29.664 66.7878H30.5851C30.839 66.7878 31.0774 66.6937 31.2568 66.5226C31.4359 66.3517 31.5344 66.1245 31.5339 65.883L31.5227 60.4824C31.5227 59.3092 30.5203 58.355 29.2881 58.355C28.056 58.355 27.0534 59.3092 27.0534 60.4821L27.0646 65.537C27.0656 66.0302 27.488 66.4344 28.0061 66.4382L28.6383 66.4428C28.7386 66.4435 28.8194 66.5215 28.8187 66.6172C28.818 66.7123 28.7367 66.7889 28.6369 66.7889H28.6355L28.0032 66.7843C27.2867 66.7791 26.7024 66.2198 26.7009 65.5377L26.6898 60.4824C26.6898 59.1184 27.8553 58.0089 29.2881 58.0089C30.7207 58.0089 31.8863 59.1184 31.8863 60.4821L31.8975 65.8823C31.8982 66.2164 31.762 66.5307 31.514 66.7671C31.2662 67.0036 30.9361 67.1339 30.5851 67.1339Z" fill="#3F3C57"/>
<path d="M195.889 41.3742L202.882 37.4974L202.995 48.4157L194.862 48.4797L195.889 41.3742Z" fill="#2E2E41"/>
<path d="M204.451 43.7368L205.155 49.0912L200.575 58.3663L197.584 49.7908L198.884 43.6026L204.451 43.7368Z" fill="#FDB4B4"/>
<path d="M205.4 49.4071L197.323 49.4707L197.423 59.1507L205.5 59.0872L205.4 49.4071Z" fill="#6C63FF"/>
<path d="M212.559 100.584L214.988 131.762L209.809 131.977L202.64 100.924L212.559 100.584Z" fill="#1E5E92"/>
<path d="M199.982 100.516L202.411 131.694L197.232 131.909L190.063 100.856L199.982 100.516Z" fill="#1E5E92"/>
<path d="M218.119 107.175L217.995 107.176L184.978 107.329L185.007 107.213L193.151 73.7814L190.85 56.9604C190.415 53.773 192.105 50.7436 195.057 49.4225L196.123 48.9455L198.141 47.4623L200.837 56.5621L204.909 47.4018L206.764 49.2079L210.914 50.2648C213.501 50.9234 215.198 53.4005 214.862 56.0266L214.857 56.0449L208.721 73.9881L218.119 107.175Z" fill="white"/>
<path d="M197.552 131.542L203.089 131.775L203.623 134.69C203.623 134.69 207.612 139.74 202.881 139.541C198.149 139.343 190.084 140.451 190.157 138.646C190.23 136.841 196.097 136.002 196.097 136.002L197.552 131.542Z" fill="#2E2E41"/>
<path d="M209.818 131.119L215.355 131.352L215.889 134.267C215.889 134.267 219.878 139.317 215.146 139.118C210.415 138.92 202.35 140.028 202.422 138.223C202.495 136.418 208.362 135.579 208.362 135.579L209.818 131.119Z" fill="#2E2E41"/>
<path d="M214.481 89.3375C214.375 91.5322 213.148 93.2543 211.741 93.184C210.333 93.1136 209.278 91.2776 209.385 89.0821C209.415 88.2045 209.657 87.3473 210.09 86.5823L210.657 77.2891L215.047 77.6562L214.021 86.7788C214.378 87.5834 214.536 88.4608 214.481 89.3375Z" fill="#FDB4B4"/>
<path d="M191.903 88.694C191.75 90.8859 190.486 92.5817 189.08 92.4816C187.674 92.3815 186.659 90.5237 186.812 88.331C186.862 87.4543 187.122 86.6025 187.571 85.8468L188.338 76.568L192.719 77.0278L191.498 86.1262C191.837 86.9382 191.976 87.8187 191.903 88.694Z" fill="#FDB4B4"/>
<path d="M215.159 85.6835L208.789 85.3305L208.795 85.2357L209.904 69.4216L207.72 54.5765C207.584 53.6519 207.83 52.7393 208.413 52.0071C208.996 51.2749 209.833 50.8265 210.77 50.7445C212.565 50.5897 214.17 51.8508 214.43 53.6196L217.333 73.4145L217.33 73.4293L215.159 85.6835Z" fill="white"/>
<path d="M192.94 85.2653L186.559 84.9331L186.572 84.833L190.644 53.1381C191.088 51.3956 192.819 50.3123 194.586 50.6602C195.509 50.8421 196.295 51.3776 196.798 52.1682C197.302 52.9589 197.451 53.8926 197.219 54.7975L192.94 85.2653Z" fill="white"/>
<path d="M200.741 59.3626C201.053 59.3602 201.303 59.1074 201.3 58.7981C201.297 58.4888 201.041 58.2401 200.729 58.2425C200.417 58.245 200.167 58.4977 200.17 58.807C200.174 59.1163 200.429 59.3651 200.741 59.3626Z" fill="#359CF6"/>
<path d="M200.782 63.6003C201.094 63.5978 201.344 63.3451 201.341 63.0358C201.338 62.7265 201.082 62.4777 200.771 62.4802C200.459 62.4826 200.209 62.7354 200.212 63.0447C200.215 63.354 200.47 63.6027 200.782 63.6003Z" fill="#359CF6"/>
<path d="M200.824 67.838C201.135 67.8355 201.386 67.5828 201.382 67.2735C201.379 66.9642 201.124 66.7154 200.812 66.7178C200.5 66.7203 200.25 66.973 200.253 67.2823C200.256 67.5917 200.512 67.8404 200.824 67.838Z" fill="#359CF6"/>
<path d="M200.865 72.0758C201.177 72.0733 201.427 71.8206 201.424 71.5113C201.421 71.2019 201.165 70.9532 200.853 70.9556C200.541 70.9581 200.291 71.2108 200.294 71.5201C200.298 71.8295 200.553 72.0782 200.865 72.0758Z" fill="#359CF6"/>
<path d="M200.906 76.3134C201.218 76.311 201.468 76.0582 201.465 75.7489C201.462 75.4396 201.207 75.1909 200.895 75.1933C200.583 75.1958 200.333 75.4485 200.336 75.7578C200.339 76.0671 200.594 76.3159 200.906 76.3134Z" fill="#359CF6"/>
<path d="M200.948 80.5511C201.259 80.5486 201.51 80.2959 201.506 79.9866C201.503 79.6773 201.248 79.4285 200.936 79.431C200.624 79.4334 200.374 79.6862 200.377 79.9955C200.38 80.3048 200.636 80.5536 200.948 80.5511Z" fill="#359CF6"/>
<path d="M200.989 84.7889C201.301 84.7864 201.551 84.5337 201.548 84.2244C201.545 83.9151 201.289 83.6663 200.977 83.6688C200.665 83.6712 200.415 83.924 200.418 84.2333C200.422 84.5426 200.677 84.7913 200.989 84.7889Z" fill="#359CF6"/>
<path d="M201.03 89.0266C201.342 89.0241 201.592 88.7714 201.589 88.4621C201.586 88.1528 201.33 87.904 201.019 87.9064C200.707 87.9089 200.457 88.1616 200.46 88.4709C200.463 88.7803 200.718 89.029 201.03 89.0266Z" fill="#359CF6"/>
<path d="M201.476 46.5007C204.393 46.4777 206.733 44.1137 206.703 41.2206C206.673 38.3274 204.284 36.0007 201.368 36.0236C198.451 36.0466 196.111 38.4105 196.14 41.3037C196.17 44.1969 198.559 46.5236 201.476 46.5007Z" fill="#FDB4B4"/>
<path d="M204.121 35.1275C204.379 35.6359 203.984 36.2766 203.455 36.4954C202.927 36.7142 202.326 36.6319 201.759 36.5471C201.192 36.4622 200.59 36.3822 200.063 36.6048C199.381 36.8928 199.002 37.6046 198.676 38.265C198.068 39.4979 197.459 40.7307 196.851 41.9635C196.554 42.5659 196.25 43.1952 196.251 43.8665C196.253 45.0987 197.248 46.0755 197.79 47.1856C198.449 48.5372 198.413 50.2002 197.696 51.5193C196.979 52.8384 195.598 53.7799 194.099 53.9727C193.704 54.0234 193.286 54.0216 192.929 53.8463C192.572 53.6711 192.297 53.2845 192.359 52.8947C192.48 52.1323 193.651 51.9452 193.859 51.2016C193.967 50.8135 193.764 50.4015 193.492 50.1011C193.22 49.8008 192.879 49.5675 192.619 49.2567C192.021 48.5399 191.971 47.4265 192.501 46.6616C192.812 46.212 193.298 45.8761 193.497 45.3673C193.667 44.9337 193.599 44.4484 193.528 43.988C193.437 43.3965 193.346 42.8049 193.255 42.2134C193.149 41.5232 193.044 40.8083 193.233 40.1364C193.665 38.5966 195.406 37.8613 196.419 36.6192C196.89 36.042 197.203 35.3499 197.686 34.7829C198.497 33.8315 199.783 33.3 201.036 33.3985C202.29 33.497 203.478 34.223 204.133 35.2895" fill="#2E2E41"/>
<path d="M203.297 35.2275C203.04 35.321 202.948 35.655 203.025 35.9159C203.102 36.1769 203.298 36.3832 203.478 36.5883C205.514 38.9087 206.018 42.4389 204.711 45.222C204.363 45.9622 203.897 46.66 203.713 47.4565C203.58 48.036 203.594 48.6704 203.276 49.1738C202.952 49.6862 202.303 50.0329 202.245 50.6356C202.207 51.0223 202.448 51.3958 202.769 51.6198C203.089 51.8438 203.479 51.9444 203.862 52.0259C204.858 52.2377 205.875 52.3497 206.893 52.3594C207.225 52.3626 207.567 52.3527 207.87 52.2191C208.173 52.0856 208.43 51.799 208.43 51.4697C208.43 51.2109 208.277 50.9734 208.255 50.7155C208.19 49.9426 209.234 49.5229 209.431 48.7728C209.56 48.2797 209.29 47.7754 209.004 47.3514C208.718 46.9275 208.391 46.4825 208.393 45.9726C208.395 45.4846 208.699 45.0524 208.814 44.5781C208.973 43.9221 208.762 43.2389 208.553 42.5959C208.376 42.0493 208.198 41.5026 208.021 40.956C207.832 40.3749 207.643 39.7938 207.455 39.2126C207.125 38.1981 206.78 37.1543 206.081 36.3441C205.382 35.5338 204.233 35.0082 203.217 35.3493" fill="#2E2E41"/>
</g>
<defs>
<clipPath id="clip0_25_283">
<rect width="235" height="146" fill="white"/>
</clipPath>
</defs>
</svg>
