<svg width="245" height="168" viewBox="0 0 245 168" fill="none" xmlns="http://www.w3.org/2000/svg">
<g clip-path="url(#clip0_23_2)">
<path opacity="0.1" d="M62.3249 67.3149H36.376C35.457 67.3149 34.712 68.0503 34.712 68.9574V74.4085C34.712 75.3156 35.457 76.0509 36.376 76.0509H62.3249C63.2439 76.0509 63.9889 75.3156 63.9889 74.4085V68.9574C63.9889 68.0503 63.2439 67.3149 62.3249 67.3149Z" fill="#6C63FF"/>
<path opacity="0.1" d="M92.9634 76.0532H67.0145C66.0955 76.0532 65.3505 76.7886 65.3505 77.6956V83.1468C65.3505 84.0539 66.0955 84.7892 67.0145 84.7892H92.9634C93.8824 84.7892 94.6274 84.0539 94.6274 83.1468V77.6956C94.6274 76.7886 93.8824 76.0532 92.9634 76.0532Z" fill="#6C63FF"/>
<path opacity="0.1" d="M123.604 84.7892H97.6551C96.7362 84.7892 95.9912 85.5245 95.9912 86.4316V91.8828C95.9912 92.7898 96.7362 93.5252 97.6551 93.5252H123.604C124.523 93.5252 125.268 92.7898 125.268 91.8828V86.4316C125.268 85.5245 124.523 84.7892 123.604 84.7892Z" fill="#6C63FF"/>
<path opacity="0.1" d="M62.3249 54.2109H36.376C35.457 54.2109 34.712 54.9463 34.712 55.8534V61.3045C34.712 62.2116 35.457 62.9469 36.376 62.9469H62.3249C63.2439 62.9469 63.9889 62.2116 63.9889 61.3045V55.8534C63.9889 54.9463 63.2439 54.2109 62.3249 54.2109Z" fill="#6C63FF"/>
<path opacity="0.1" d="M92.9634 62.9469H67.0145C66.0955 62.9469 65.3505 63.6822 65.3505 64.5893V70.0405C65.3505 70.9476 66.0955 71.6829 67.0145 71.6829H92.9634C93.8824 71.6829 94.6274 70.9476 94.6274 70.0405V64.5893C94.6274 63.6822 93.8824 62.9469 92.9634 62.9469Z" fill="#6C63FF"/>
<path opacity="0.1" d="M123.604 71.6852H97.6551C96.7362 71.6852 95.9912 72.4205 95.9912 73.3276V78.7788C95.9912 79.6858 96.7362 80.4212 97.6551 80.4212H123.604C124.523 80.4212 125.268 79.6858 125.268 78.7788V73.3276C125.268 72.4205 124.523 71.6852 123.604 71.6852Z" fill="#6C63FF"/>
<path opacity="0.1" d="M157.647 67.3149H131.698C130.779 67.3149 130.034 68.0503 130.034 68.9574V74.4085C130.034 75.3156 130.779 76.0509 131.698 76.0509H157.647C158.565 76.0509 159.31 75.3156 159.31 74.4085V68.9574C159.31 68.0503 158.565 67.3149 157.647 67.3149Z" fill="#6C63FF"/>
<path opacity="0.1" d="M188.285 76.0532H162.336C161.417 76.0532 160.672 76.7886 160.672 77.6956V83.1468C160.672 84.0539 161.417 84.7892 162.336 84.7892H188.285C189.204 84.7892 189.949 84.0539 189.949 83.1468V77.6956C189.949 76.7886 189.204 76.0532 188.285 76.0532Z" fill="#6C63FF"/>
<path opacity="0.1" d="M218.926 84.7892H192.977C192.058 84.7892 191.313 85.5245 191.313 86.4316V91.8828C191.313 92.7898 192.058 93.5252 192.977 93.5252H218.926C219.845 93.5252 220.59 92.7898 220.59 91.8828V86.4316C220.59 85.5245 219.845 84.7892 218.926 84.7892Z" fill="#6C63FF"/>
<path opacity="0.1" d="M157.647 54.2109H131.698C130.779 54.2109 130.034 54.9463 130.034 55.8534V61.3045C130.034 62.2116 130.779 62.9469 131.698 62.9469H157.647C158.565 62.9469 159.31 62.2116 159.31 61.3045V55.8534C159.31 54.9463 158.565 54.2109 157.647 54.2109Z" fill="#6C63FF"/>
<path opacity="0.1" d="M188.285 62.9469H162.336C161.417 62.9469 160.672 63.6822 160.672 64.5893V70.0405C160.672 70.9476 161.417 71.6829 162.336 71.6829H188.285C189.204 71.6829 189.949 70.9476 189.949 70.0405V64.5893C189.949 63.6822 189.204 62.9469 188.285 62.9469Z" fill="#6C63FF"/>
<path opacity="0.1" d="M218.926 71.6852H192.977C192.058 71.6852 191.313 72.4205 191.313 73.3276V78.7788C191.313 79.6858 192.058 80.4212 192.977 80.4212H218.926C219.845 80.4212 220.59 79.6858 220.59 78.7788V73.3276C220.59 72.4205 219.845 71.6852 218.926 71.6852Z" fill="#6C63FF"/>
<path opacity="0.1" d="M62.3249 36.7367H36.376C35.457 36.7367 34.712 37.472 34.712 38.3791V43.8303C34.712 44.7374 35.457 45.4727 36.376 45.4727H62.3249C63.2439 45.4727 63.9889 44.7374 63.9889 43.8303V38.3791C63.9889 37.472 63.2439 36.7367 62.3249 36.7367Z" fill="#6C63FF"/>
<path opacity="0.1" d="M92.9634 45.4728H67.0145C66.0955 45.4728 65.3505 46.2081 65.3505 47.1152V52.5664C65.3505 53.4734 66.0955 54.2088 67.0145 54.2088H92.9634C93.8824 54.2088 94.6274 53.4734 94.6274 52.5664V47.1152C94.6274 46.2081 93.8824 45.4728 92.9634 45.4728Z" fill="#6C63FF"/>
<path opacity="0.1" d="M123.604 54.2109H97.6551C96.7362 54.2109 95.9912 54.9463 95.9912 55.8534V61.3045C95.9912 62.2116 96.7362 62.9469 97.6551 62.9469H123.604C124.523 62.9469 125.268 62.2116 125.268 61.3045V55.8534C125.268 54.9463 124.523 54.2109 123.604 54.2109Z" fill="#6C63FF"/>
<path opacity="0.1" d="M62.3249 23.6305H36.376C35.457 23.6305 34.712 24.3658 34.712 25.2729V30.7241C34.712 31.6312 35.457 32.3665 36.376 32.3665H62.3249C63.2439 32.3665 63.9889 31.6312 63.9889 30.7241V25.2729C63.9889 24.3658 63.2439 23.6305 62.3249 23.6305Z" fill="#6C63FF"/>
<path opacity="0.1" d="M92.9634 32.3688H67.0145C66.0955 32.3688 65.3505 33.1041 65.3505 34.0112V39.4624C65.3505 40.3694 66.0955 41.1048 67.0145 41.1048H92.9634C93.8824 41.1048 94.6274 40.3694 94.6274 39.4624V34.0112C94.6274 33.1041 93.8824 32.3688 92.9634 32.3688Z" fill="#6C63FF"/>
<path opacity="0.1" d="M123.604 41.1047H97.6551C96.7362 41.1047 95.9912 41.8401 95.9912 42.7472V48.1983C95.9912 49.1054 96.7362 49.8407 97.6551 49.8407H123.604C124.523 49.8407 125.268 49.1054 125.268 48.1983V42.7472C125.268 41.8401 124.523 41.1047 123.604 41.1047Z" fill="#6C63FF"/>
<path opacity="0.1" d="M157.647 36.7367H131.698C130.779 36.7367 130.034 37.472 130.034 38.3791V43.8303C130.034 44.7374 130.779 45.4727 131.698 45.4727H157.647C158.565 45.4727 159.31 44.7374 159.31 43.8303V38.3791C159.31 37.472 158.565 36.7367 157.647 36.7367Z" fill="#6C63FF"/>
<path opacity="0.1" d="M188.285 45.4728H162.336C161.417 45.4728 160.672 46.2081 160.672 47.1152V52.5664C160.672 53.4734 161.417 54.2088 162.336 54.2088H188.285C189.204 54.2088 189.949 53.4734 189.949 52.5664V47.1152C189.949 46.2081 189.204 45.4728 188.285 45.4728Z" fill="#6C63FF"/>
<path opacity="0.1" d="M218.926 54.2109H192.977C192.058 54.2109 191.313 54.9463 191.313 55.8534V61.3045C191.313 62.2116 192.058 62.9469 192.977 62.9469H218.926C219.845 62.9469 220.59 62.2116 220.59 61.3045V55.8534C220.59 54.9463 219.845 54.2109 218.926 54.2109Z" fill="#6C63FF"/>
<path opacity="0.1" d="M157.647 23.6305H131.698C130.779 23.6305 130.034 24.3658 130.034 25.2729V30.7241C130.034 31.6312 130.779 32.3665 131.698 32.3665H157.647C158.565 32.3665 159.31 31.6312 159.31 30.7241V25.2729C159.31 24.3658 158.565 23.6305 157.647 23.6305Z" fill="#6C63FF"/>
<path opacity="0.1" d="M188.285 32.3688H162.336C161.417 32.3688 160.672 33.1041 160.672 34.0112V39.4624C160.672 40.3694 161.417 41.1048 162.336 41.1048H188.285C189.204 41.1048 189.949 40.3694 189.949 39.4624V34.0112C189.949 33.1041 189.204 32.3688 188.285 32.3688Z" fill="#6C63FF"/>
<path opacity="0.1" d="M218.926 41.1047H192.977C192.058 41.1047 191.313 41.8401 191.313 42.7472V48.1983C191.313 49.1054 192.058 49.8407 192.977 49.8407H218.926C219.845 49.8407 220.59 49.1054 220.59 48.1983V42.7472C220.59 41.8401 219.845 41.1047 218.926 41.1047Z" fill="#6C63FF"/>
<path opacity="0.1" d="M122.5 168C190.155 168 245 158.153 245 146.005C245 133.858 190.155 124.01 122.5 124.01C54.8451 124.01 0 133.858 0 146.005C0 158.153 54.8451 168 122.5 168Z" fill="#D6D7D8"/>
<path d="M53.7477 70.9579L43.446 133.295L90.0274 128.432L88.0119 123.126L51.6202 126.111L60.1302 70.8474L53.7477 70.9579Z" fill="#1E5E92"/>
<path d="M41.6545 0.221053L104.36 0L122.5 135.505L59.5704 143.905L41.6545 0.221053Z" fill="#1E5E92"/>
<path d="M48.4849 5.41577H99.0974L116.789 131.416L64.6092 138.489L48.4849 5.41577Z" fill="white"/>
<path d="M180.648 122.737C180.65 123.314 180.59 123.889 180.469 124.453C180.447 124.559 180.422 124.674 180.397 124.764C179.761 127.282 177.968 129.123 175.827 129.241C175.755 129.241 175.683 129.241 175.603 129.241C173.339 129.241 171.424 127.313 170.792 124.658C170.774 124.587 170.759 124.517 170.743 124.437C170.622 123.873 170.562 123.298 170.564 122.722C170.564 119.125 172.819 116.212 175.603 116.212C178.386 116.212 180.648 119.147 180.648 122.737Z" fill="#3F3D56"/>
<path opacity="0.1" d="M180.648 122.737C180.65 123.314 180.59 123.889 180.469 124.453C180.447 124.559 180.422 124.674 180.397 124.764C180.321 124.764 180.247 124.764 180.174 124.764C179.619 124.735 179.068 124.661 178.525 124.543C178.045 124.69 177.554 124.801 177.056 124.875C176.675 124.932 176.29 124.967 175.905 124.981H175.515C175.054 124.981 174.593 124.951 174.136 124.89C173.396 124.793 172.67 124.615 171.97 124.36C171.587 124.486 171.197 124.589 170.801 124.669C170.783 124.599 170.768 124.528 170.752 124.448C170.631 123.884 170.571 123.309 170.573 122.733C170.573 119.136 172.828 116.223 175.612 116.223C178.395 116.223 180.648 119.147 180.648 122.737Z" fill="black"/>
<path d="M191.398 110.61C191.4 109.028 191.024 107.467 190.301 106.054L184.375 107.874L189.577 104.854C188.704 103.61 187.56 102.576 186.228 101.827C184.896 101.077 183.411 100.633 181.882 100.526C181.639 100.161 181.372 99.8129 181.083 99.4825L172.573 102.098L179.553 98.0457C178.218 97.0341 176.651 96.363 174.99 96.0918C173.329 95.8206 171.626 95.9575 170.032 96.4906C168.438 97.0237 167.001 97.9364 165.85 99.148C164.698 100.36 163.866 101.833 163.429 103.437L170.718 111.72L162.811 106.074C160.808 107.477 159.382 109.543 158.793 111.896C158.203 114.249 158.49 116.733 159.601 118.895C160.712 121.057 162.573 122.753 164.844 123.674C167.116 124.595 169.647 124.68 171.977 123.913C174.084 124.678 176.387 124.741 178.534 124.092C180.031 124.417 181.583 124.407 183.075 124.062C184.567 123.718 185.962 123.047 187.157 122.1C188.352 121.153 189.317 119.953 189.98 118.59C190.643 117.226 190.989 115.733 190.99 114.22C190.99 113.999 190.99 113.778 190.968 113.557C191.258 112.601 191.403 111.608 191.398 110.61Z" fill="#359CF6"/>
<path opacity="0.1" d="M191.221 112.485C188.092 111.899 184.882 111.859 181.739 112.365C178.18 112.947 174.543 114.225 171.063 113.292C169.021 112.743 167.256 111.475 165.261 110.769C163.336 110.106 161.262 109.984 159.27 110.416C158.511 112.208 158.291 114.178 158.636 116.09C158.981 118.002 159.876 119.776 161.215 121.199C162.554 122.623 164.28 123.636 166.186 124.117C168.093 124.598 170.099 124.527 171.966 123.913C174.073 124.678 176.376 124.741 178.523 124.092C180.02 124.417 181.571 124.407 183.064 124.062C184.556 123.718 185.951 123.047 187.146 122.1C188.341 121.153 189.305 119.953 189.969 118.59C190.632 117.226 190.977 115.733 190.979 114.22C190.979 113.999 190.979 113.778 190.957 113.557C191.065 113.205 191.153 112.847 191.221 112.485Z" fill="#1E5E92"/>
<path d="M154.799 90.3642C153.945 89.6382 153.832 88.3462 154.546 87.4784C154.622 87.3859 154.706 87.3004 154.797 87.2229L156.019 76.4843L159.899 77.3979L157.743 87.5773C158.403 88.4955 158.207 89.7842 157.304 90.4556C156.548 91.0174 155.513 90.9796 154.799 90.3642Z" fill="#FFB6B6"/>
<path d="M155.195 78.1657L159.726 81.019C159.726 81.019 160.002 82.6912 160.314 78.4886C160.346 78.0499 160.043 77.2857 160.076 76.8354C160.114 76.3275 161.555 76.0964 161.593 75.5824C161.62 75.2166 161.204 74.8911 161.231 74.5263C161.271 73.9736 161.312 73.424 161.352 72.8832C161.385 72.4308 161.881 72.1441 161.913 71.7075C161.946 71.2672 161.513 70.6773 161.544 70.2601C161.772 67.1316 160.982 59.2607 160.982 59.1006C161.043 58.6988 161.21 58.3207 161.464 58.0054L161.222 57.2753L161.382 55.9054C161.592 54.1052 161.217 52.2849 160.314 50.7185L159.163 49.9579L153.853 58.9726C156.087 66.7733 157.546 69.8374 155.195 78.1657Z" fill="#359CF6"/>
<path d="M158.78 145.453H155.897L154.525 134.842H158.78V145.453Z" fill="#FFB6B6"/>
<path d="M159.781 143.723L155.286 143.463V145.33L151.013 148.19C150.466 148.556 150.329 149.282 150.707 149.812C150.931 150.128 151.301 150.316 151.697 150.316H157.047L157.97 148.469L158.33 150.316H160.347L159.781 143.723Z" fill="#2F2E41"/>
<path d="M142.879 145.453H140.148L138.848 134.842H142.879V145.453Z" fill="#FFB6B6"/>
<path d="M143.88 143.723L139.386 143.463V145.33L135.113 148.19C134.566 148.556 134.429 149.282 134.806 149.812C135.031 150.128 135.401 150.316 135.796 150.316H141.147L142.069 148.469L142.429 150.316H144.447L143.88 143.723Z" fill="#2F2E41"/>
<path d="M160.028 136.252H160.017L159.474 110.818C160.188 109.468 160.165 107.857 159.413 106.527L159.336 106.389L159.537 105.473C159.796 104.295 159.677 103.068 159.197 101.96L158.69 85.7613C160.501 74.2592 151.874 66.7579 151.874 66.7579H138.951L136.176 76.1039C134.342 93.6239 134.675 118.766 137.585 135.306L137.506 135.346C137.193 135.517 137.073 135.898 137.232 136.212C137.367 136.595 137.707 136.826 137.993 136.729L144.818 136.496C145.131 136.325 145.251 135.944 145.092 135.63C144.957 135.248 144.617 135.016 144.331 135.113L143.867 135.343L144.346 134.387C144.933 133.215 144.819 131.822 144.05 130.756L144.134 128.653C144.859 127.82 145.1 126.681 144.773 125.633L144.313 124.16L144.856 110.517L144.747 107.456L144.973 103.984L146.019 88.3656L149.979 107.572L154.024 136.445C153.826 136.621 153.739 136.886 153.796 137.142C153.882 137.484 154.198 137.723 154.558 137.716H160.048C160.461 137.715 160.796 137.387 160.795 136.982C160.795 136.916 160.786 136.851 160.768 136.787C160.673 136.466 160.37 136.246 160.028 136.252Z" fill="#1E5E92"/>
<path d="M128.785 86.1041C128.067 85.2274 128.2 83.9384 129.083 83.2251C129.177 83.149 129.278 83.0814 129.384 83.0229L132.663 72.7263L136.385 74.3715L132.274 83.9391C132.762 84.9672 132.318 86.1932 131.283 86.6774C130.417 87.0826 129.384 86.8456 128.785 86.1041Z" fill="#FFB6B6"/>
<path d="M142.338 53.2597C142.338 53.2597 138.568 66.5061 138.739 67.8442C139.091 70.6036 156.415 79.0858 157.703 75.3111L157.541 74.0703C158.192 72.7778 154.221 67.6484 154.029 66.9773C153.784 66.1194 154.893 63.3025 154.893 63.3025C154.893 63.3025 154.126 60.731 154.249 59.139C154.373 57.547 154.743 57.7925 156.099 56.8107C157.455 55.8312 159.676 51.3007 159.676 51.3007C159.676 51.3007 158.689 46.8918 158.689 46.0339C158.689 45.176 154.636 43.7146 154.144 43.226C153.93 42.9421 153.75 42.6346 153.607 42.3095C153.507 42.1114 153.57 41.652 153.464 41.4246C153.396 41.2759 153.158 41.3683 153.087 41.2152C153.019 41.0666 153.078 40.8954 153.01 40.749C152.922 40.5554 152.709 40.3865 152.625 40.2041C152.239 39.3665 151.91 38.6842 151.808 38.6842C151.563 38.6842 143.667 39.7876 143.667 39.7876C143.237 40.4476 142.742 41.0631 142.188 41.625C141.324 42.4806 137.281 44.5635 137.281 44.5635L142.338 53.2597Z" fill="#359CF6"/>
<path d="M131.71 75.4583C132.327 76.0673 135.377 78.8634 135.501 78.1313C135.624 77.4014 135.69 77.3141 136.184 77.0723C136.678 76.8283 136.678 76.7074 136.801 75.8543C136.923 75.0013 138.033 74.1482 137.909 73.7832C137.786 73.4183 137.9 73.8826 137.9 73.5154C137.9 73.1504 138.27 71.8115 138.764 71.5674C139.256 71.3234 139.997 71.0816 139.625 70.4726C139.256 69.8636 143.103 51.5934 143.103 51.5934L139.652 44.8966L137.311 44.6526C137.311 44.6526 136.6 45.0547 136.377 48.6801C136.366 48.8637 136.163 49.2007 136.155 49.4012C136.147 49.5679 136.334 49.5954 136.329 49.7742C136.328 49.8124 136.327 49.8508 136.326 49.8896C136.321 50.0673 135.835 50.1981 135.828 50.3697C135.815 50.6762 135.624 52.6308 135.604 52.9181C135.58 53.242 135.553 53.554 135.521 53.854C135.181 57.1211 135.059 57.3971 134.848 58.4399C134.521 60.0539 133.167 69.4807 133.167 69.4807C133.167 69.4807 132.181 69.7225 132.181 70.5756C132.181 71.4286 131.094 73.1432 131.586 74.1171C132.08 75.0933 131.094 74.8493 131.71 75.4583Z" fill="#359CF6"/>
<path d="M148.478 38.4631C145.262 38.4631 142.655 35.8899 142.655 32.7158C142.655 29.5416 145.262 26.9684 148.478 26.9684C151.694 26.9684 154.301 29.5416 154.301 32.7158C154.301 35.8899 151.694 38.4631 148.478 38.4631Z" fill="#FFB8B8"/>
<path d="M161.148 44.8201C162.387 44.3862 163.625 43.9516 164.863 43.5162C164.65 43.1622 164.378 42.8459 164.059 42.5806C162.88 41.6074 161.253 41.4315 159.756 41.1032C158.257 40.7749 156.629 40.1018 156.081 38.6854C155.512 37.2127 156.338 35.6228 156.817 34.122C157.525 32.0169 157.439 29.7299 156.575 27.6825C155.68 25.6329 153.871 24.1123 151.681 23.5693C149.513 23.0933 147.062 23.8695 145.729 25.6236C143.951 25.0964 142.055 25.9641 141.312 27.645C140.969 28.4172 141.022 29.3052 141.454 30.0322C141.917 30.724 142.906 31.0781 143.651 30.6936L143.219 29.6101C144.555 30.058 145.423 32.4453 145.243 33.8289C145.065 35.2101 144.249 36.4201 143.421 37.5481C142.593 38.6761 141.71 39.8158 141.355 41.1641C140.842 43.1035 141.535 45.2234 142.816 46.7782C144.097 48.3329 145.902 49.3882 147.771 50.1644C149.171 50.746 150.625 51.189 152.113 51.487C151.847 50.9758 151.584 50.4646 151.318 49.9534L154.471 51.8388C155.08 51.8974 155.695 51.9326 156.309 51.9443C158.098 51.9748 159.922 51.7895 161.559 51.0837C163.198 50.3755 164.638 49.0927 165.231 47.4254C165.421 46.8861 165.511 46.3173 165.497 45.7464C164.047 45.4368 162.598 45.1281 161.148 44.8201Z" fill="#2F2E41"/>
<path d="M75.0018 22.3155L82.5626 17.5967L83.3376 29.7162L74.2796 30.2678L75.0018 22.3155Z" fill="#2E2E41"/>
<path d="M84.6807 24.4326L85.7835 30.3375L81.2317 40.909L77.3894 31.5619L78.4706 24.6125L84.6807 24.4326Z" fill="#FDB4B4"/>
<path d="M86.0749 30.6735L77.0792 31.2213L77.7663 41.9664L86.762 41.4186L86.0749 30.6735Z" fill="#6C63FF"/>
<path d="M97.0861 87.0811L101.646 121.563L95.889 122.108L86.0558 88.0445L97.0861 87.0811Z" fill="#1E5E92"/>
<path d="M83.0662 87.7506L87.6257 122.232L81.8692 122.777L72.036 88.714L83.0662 87.7506Z" fill="#1E5E92"/>
<path d="M103.676 94.0767L103.539 94.0847L66.7625 96.2056L66.7873 96.0749L73.8728 58.4653L70.3099 39.9199C69.6349 36.4057 71.3382 32.9415 74.5485 31.2998L75.7074 30.7071L77.8682 28.9406L81.4128 38.8875L85.405 28.4735L87.5781 30.3698L92.265 31.2983C95.1863 31.877 97.2244 34.5277 97.0058 37.4641L97.0022 37.4847L91.2325 57.7748L103.676 94.0767Z" fill="#E8E9EA"/>
<path d="M82.2014 122.349L88.3849 122.28L89.1534 125.487C89.1534 125.487 93.8988 130.86 88.6146 130.919C83.3304 130.978 74.409 132.686 74.3827 130.677C74.3565 128.667 80.8443 127.389 80.8443 127.389L82.2014 122.349Z" fill="#2E2E41"/>
<path d="M95.8451 121.152L102.029 121.083L102.797 124.29C102.797 124.29 107.542 129.664 102.258 129.723C96.9741 129.782 88.0527 131.489 88.0264 129.48C88.0002 127.47 94.488 126.192 94.488 126.192L95.8451 121.152Z" fill="#2E2E41"/>
<path d="M98.5646 74.479C98.577 76.9227 97.3123 78.9078 95.7401 78.9128C94.1679 78.9178 92.8837 76.9411 92.8717 74.4966C92.8534 73.5201 93.0717 72.5539 93.5084 71.6788L93.5882 61.3245L98.4998 61.4729L97.8997 71.6646C98.3453 72.5371 98.5733 73.5022 98.5646 74.479Z" fill="#FDB4B4"/>
<path d="M73.3649 75.1021C73.3247 77.5454 72.0175 79.5033 70.4453 79.4753C68.8732 79.4472 67.6318 77.4439 67.6723 74.9998C67.675 74.0232 67.9141 73.0618 68.3696 72.1961L68.6722 61.846L73.58 62.0978L72.7606 72.2744C73.1874 73.156 73.3946 74.1257 73.3649 75.1021Z" fill="#FDB4B4"/>
<path d="M99.1041 70.3816L91.9874 70.366L91.9893 70.2603L92.2847 52.6324L88.9693 36.2753C88.7627 35.2565 88.9825 34.2285 89.588 33.3809C90.1936 32.5333 91.0993 31.9859 92.1385 31.8395C94.1282 31.5616 95.9916 32.8672 96.3858 34.8162L100.796 56.6278L100.794 56.6444L99.1041 70.3816Z" fill="#E8E9EA"/>
<path d="M74.3198 71.2335L67.1912 71.2415L67.1996 71.1297L69.8515 35.6901C70.2432 33.7287 72.1071 32.4233 74.0954 32.7053C75.1352 32.8528 76.0423 33.4011 76.6499 34.2494C77.2576 35.0977 77.4797 36.1258 77.2753 37.1445L74.3198 71.2335Z" fill="#E8E9EA"/>
<path d="M81.4748 42.0053C81.8221 41.9841 82.0858 41.6886 82.0639 41.3453C82.0419 41.0019 81.7426 40.7407 81.3952 40.7619C81.0479 40.783 80.7842 41.0785 80.8061 41.4219C80.8281 41.7652 81.1274 42.0264 81.4748 42.0053Z" fill="#D6D7D8"/>
<path d="M81.7721 46.7087C82.1194 46.6876 82.3832 46.3921 82.3612 46.0488C82.3393 45.7054 82.0399 45.4442 81.6926 45.4654C81.3453 45.4865 81.0815 45.782 81.1035 46.1254C81.1254 46.4687 81.4248 46.7299 81.7721 46.7087Z" fill="#D6D7D8"/>
<path d="M82.0695 51.4124C82.4168 51.3912 82.6806 51.0957 82.6586 50.7524C82.6367 50.409 82.3373 50.1478 81.99 50.169C81.6426 50.1901 81.3789 50.4856 81.4008 50.829C81.4228 51.1723 81.7222 51.4335 82.0695 51.4124Z" fill="#D6D7D8"/>
<path d="M82.3669 56.1159C82.7142 56.0947 82.978 55.7992 82.956 55.4559C82.9341 55.1125 82.6347 54.8513 82.2874 54.8725C81.9401 54.8936 81.6763 55.1891 81.6983 55.5325C81.7202 55.8758 82.0196 56.137 82.3669 56.1159Z" fill="#D6D7D8"/>
<path d="M82.6643 60.8195C83.0116 60.7983 83.2754 60.5028 83.2534 60.1595C83.2314 59.8161 82.9321 59.5549 82.5848 59.5761C82.2374 59.5972 81.9737 59.8927 81.9956 60.2361C82.0176 60.5794 82.3169 60.8406 82.6643 60.8195Z" fill="#D6D7D8"/>
<path d="M82.9616 65.523C83.309 65.5018 83.5727 65.2063 83.5508 64.863C83.5288 64.5196 83.2294 64.2584 82.8821 64.2796C82.5348 64.3007 82.271 64.5962 82.293 64.9396C82.3149 65.2829 82.6143 65.5441 82.9616 65.523Z" fill="#D6D7D8"/>
<path d="M83.259 70.2266C83.6063 70.2054 83.8701 69.9099 83.8481 69.5666C83.8262 69.2232 83.5268 68.962 83.1795 68.9832C82.8322 69.0043 82.5684 69.2998 82.5904 69.6432C82.6123 69.9865 82.9117 70.2477 83.259 70.2266Z" fill="#D6D7D8"/>
<path d="M83.5564 74.9301C83.9037 74.9089 84.1675 74.6134 84.1455 74.2701C84.1236 73.9267 83.8242 73.6655 83.4769 73.6867C83.1296 73.7078 82.8658 74.0033 82.8878 74.3467C82.9097 74.69 83.2091 74.9512 83.5564 74.9301Z" fill="#D6D7D8"/>
<path d="M81.5319 27.679C84.7805 27.4812 87.2476 24.7174 87.0423 21.5058C86.8369 18.2943 84.0369 15.8512 80.7882 16.049C77.5395 16.2468 75.0724 19.0107 75.2777 22.2222C75.4831 25.4338 78.2832 27.8769 81.5319 27.679Z" fill="#FDB4B4"/>
<path d="M83.8008 14.8916C84.1188 15.441 83.7172 16.1759 83.1411 16.4501C82.565 16.7243 81.8909 16.6685 81.254 16.6078C80.617 16.547 79.9421 16.4938 79.368 16.7721C78.6252 17.1322 78.2455 17.9452 77.9216 18.6979C77.317 20.103 76.7124 21.5081 76.1078 22.9133C75.8125 23.5998 75.5113 24.3167 75.5524 25.0622C75.6279 26.4305 76.7951 27.4566 77.4645 28.6575C78.2796 30.1196 78.3383 31.9687 77.6175 33.476C76.8967 34.9834 75.4148 36.1105 73.7559 36.4133C73.3194 36.4929 72.8534 36.5155 72.4453 36.342C72.0372 36.1685 71.7078 35.7554 71.7534 35.3189C71.8426 34.465 73.1361 34.188 73.3233 33.3499C73.421 32.9125 73.1699 32.4669 72.8495 32.1494C72.529 31.8318 72.1342 31.593 71.8269 31.2631C71.1181 30.5023 70.9953 29.2688 71.5406 28.388C71.861 27.8703 72.3821 27.4685 72.5737 26.8917C72.7371 26.4001 72.6321 25.8651 72.526 25.358C72.3895 24.7064 72.2531 24.0548 72.1166 23.4032C71.9574 22.643 71.7982 21.8552 71.9683 21.0978C72.3582 19.3622 74.2543 18.4427 75.3088 17.0034C75.7987 16.3346 76.1068 15.5474 76.6113 14.8892C77.4578 13.7846 78.8592 13.1184 80.2616 13.1537C81.6641 13.189 83.0316 13.925 83.8238 15.0709" fill="#2E2E41"/>
<path d="M82.8913 15.0503C82.6107 15.1694 82.5278 15.5457 82.629 15.831C82.7302 16.1163 82.9614 16.3337 83.1741 16.5509C85.5802 19.0077 86.3517 22.8984 85.0608 26.0664C84.7174 26.9091 84.2396 27.7115 84.0825 28.6069C83.9683 29.2584 84.0217 29.9622 83.6971 30.5399C83.3666 31.1282 82.6643 31.5516 82.6351 32.2243C82.6164 32.656 82.9074 33.0565 83.2778 33.2864C83.6481 33.5163 84.0883 33.6049 84.52 33.6728C85.6419 33.8492 86.7816 33.9134 87.9162 33.8641C88.2861 33.848 88.6668 33.8169 88.9964 33.6506C89.3261 33.4844 89.5952 33.1509 89.5757 32.7853C89.5604 32.4978 89.3759 32.2431 89.3362 31.9579C89.2174 31.1034 90.356 30.5756 90.5304 29.731C90.6451 29.1757 90.3145 28.6316 89.9703 28.1777C89.6261 27.7237 89.2361 27.2488 89.2076 26.6825C89.1804 26.1404 89.4936 25.6424 89.5936 25.1089C89.7319 24.371 89.4564 23.6247 89.1855 22.923C88.9552 22.3264 88.7249 21.7298 88.4947 21.1331C88.2499 20.4989 88.0051 19.8647 87.7603 19.2305C87.3329 18.1233 86.8858 16.9845 86.0593 16.1259C85.2327 15.2673 83.9211 14.7515 82.8093 15.1903" fill="#2E2E41"/>
<path d="M88.3293 37.3258L87.9197 37.2343C88.576 34.3378 86.4304 29.1381 86.4088 29.0859L86.7967 28.9278C86.8876 29.1459 89.0145 34.3025 88.3293 37.3258Z" fill="#3F3C57"/>
<path d="M88.3348 40.6062C89.3036 40.5472 90.0394 39.7229 89.9782 38.7652C89.9169 37.8074 89.0819 37.0788 88.113 37.1378C87.1442 37.1968 86.4084 38.0211 86.4697 38.9788C86.5309 39.9366 87.366 40.6652 88.3348 40.6062Z" fill="#3F3C57"/>
<path d="M77.0785 45.721L76.0153 45.7858C75.8993 45.7928 75.7995 45.7056 75.7921 45.591C75.7848 45.4764 75.8727 45.3778 75.9887 45.3707L77.052 45.306C77.3451 45.2881 77.6131 45.1585 77.807 44.9408C78.0007 44.7232 78.097 44.4438 78.0779 44.1543L77.6509 37.6792C77.561 36.2724 76.3307 35.1987 74.9084 35.2853C73.4861 35.3719 72.4019 36.5866 72.4918 37.993L72.8922 44.0537C72.9312 44.645 73.4498 45.1 74.0481 45.0681L74.7783 45.0292C74.8941 45.023 74.9934 45.1109 74.9999 45.2256C75.0064 45.3396 74.9184 45.4373 74.8032 45.4443L74.8015 45.4444L74.0714 45.4834C73.2438 45.5275 72.5264 44.8979 72.4725 44.0801L72.0721 38.019C71.9675 36.3834 73.2279 34.971 74.8819 34.8703C76.5356 34.7695 77.9661 36.018 78.0707 37.6532L78.4976 44.1279C78.524 44.5285 78.3909 44.9149 78.1227 45.2158C77.8547 45.5169 77.4837 45.6963 77.0785 45.721Z" fill="#3F3C57"/>
<path d="M74.8324 45.971C75.2435 45.946 75.5556 45.5963 75.5297 45.1899C75.5037 44.7836 75.1494 44.4744 74.7383 44.4995C74.3273 44.5245 74.0151 44.8742 74.0411 45.2806C74.0671 45.6869 74.4214 45.996 74.8324 45.971Z" fill="#3F3C57"/>
<path d="M76.0457 46.3114C76.4567 46.2864 76.7689 45.9367 76.7429 45.5304C76.7169 45.124 76.3626 44.8149 75.9516 44.8399C75.5406 44.865 75.2284 45.2147 75.2544 45.621C75.2804 46.0274 75.6347 46.3365 76.0457 46.3114Z" fill="#3F3C57"/>
</g>
<defs>
<clipPath id="clip0_23_2">
<rect width="245" height="168" fill="white"/>
</clipPath>
</defs>
</svg>
