<svg width="208" height="172" viewBox="0 0 208 172" fill="none" xmlns="http://www.w3.org/2000/svg">
<g clip-path="url(#clip0_16_115)">
<path d="M30.5239 146.6C43.6517 139.709 70.7896 128.148 105.044 128.148C139.299 128.148 166.437 139.709 179.565 146.6C192.345 153.309 202.624 161.22 207.465 167.674C209.23 165.241 206.64 121.964 199.471 104.801C188.963 79.5793 171.338 58.058 148.805 42.9334C126.273 27.8088 99.8341 19.7534 72.801 19.7763C63.1855 19.7497 53.6603 21.6546 44.7768 25.3809C35.8932 29.1072 27.8277 34.5807 21.0472 41.4847C20.7592 41.7764 20.4739 42.07 20.1913 42.3656C5.02015 58.2359 -2.06369 80.3156 0.522646 102.248C2.36401 117.863 6.90209 150.523 13.3142 157.448C18.7439 153.355 24.5003 149.727 30.5239 146.6Z" fill="#F8F8F8"/>
<path d="M102.299 74.035C113.134 74.035 121.918 65.1398 121.918 54.1671C121.918 43.1943 113.134 34.2991 102.299 34.2991C91.463 34.2991 82.679 43.1943 82.679 54.1671C82.679 65.1398 91.463 74.035 102.299 74.035Z" fill="#359CF6"/>
<path d="M102.165 64.0654C82.1722 64.0636 66.5112 60.3932 66.5116 55.7093C66.5118 52.9012 72.0614 50.3962 81.7372 48.8368C81.7717 48.831 81.807 48.8321 81.841 48.84C81.8751 48.848 81.9072 48.8626 81.9357 48.8832C81.9641 48.9037 81.9883 48.9297 82.0069 48.9597C82.0254 48.9897 82.0379 49.0231 82.0437 49.058C82.0494 49.0929 82.0484 49.1286 82.0405 49.1631C82.0327 49.1976 82.0182 49.2302 81.9979 49.259C81.9776 49.2878 81.9519 49.3123 81.9223 49.331C81.8927 49.3498 81.8597 49.3625 81.8252 49.3683L81.8242 49.3685L81.8209 49.369C72.7062 50.838 67.044 53.2675 67.0438 55.7094C67.0434 59.945 83.1271 63.5248 102.165 63.5265C121.204 63.5283 137.288 59.9514 137.289 55.7158C137.289 53.2637 131.591 50.8272 122.418 49.3575C122.384 49.3522 122.35 49.34 122.32 49.3217C122.29 49.3034 122.264 49.2793 122.244 49.2508C122.223 49.2222 122.208 49.1898 122.199 49.1554C122.191 49.121 122.189 49.0853 122.195 49.0502C122.2 49.0152 122.212 48.9816 122.23 48.9513C122.248 48.921 122.272 48.8946 122.3 48.8737C122.329 48.8527 122.361 48.8376 122.395 48.8292C122.429 48.8208 122.464 48.8193 122.499 48.8247L122.499 48.8249L122.501 48.8251C132.237 50.3852 137.821 52.8968 137.821 55.7158C137.82 60.3997 122.159 64.0672 102.165 64.0654Z" fill="#1E5E92"/>
<path d="M103.59 60.8559C86.362 71.1288 71.0281 76.0143 68.6812 71.9782C67.2742 69.5584 70.8007 64.548 78.3566 58.2319C78.3833 58.2092 78.4143 58.192 78.4476 58.1813C78.4809 58.1707 78.516 58.1668 78.5508 58.1699C78.5856 58.1729 78.6195 58.1829 78.6505 58.1993C78.6815 58.2156 78.709 58.238 78.7314 58.2651C78.7539 58.2922 78.7709 58.3235 78.7814 58.3572C78.7919 58.391 78.7958 58.4265 78.7927 58.4617C78.7897 58.497 78.7798 58.5313 78.7637 58.5627C78.7476 58.594 78.7255 58.6219 78.6987 58.6447L78.698 58.6453L78.6953 58.6475C71.5777 64.5973 67.9163 69.6005 69.1398 71.7047C71.262 75.3546 86.9148 70.1738 103.32 60.3915C119.726 50.6093 131.793 39.2615 129.671 35.6116C128.442 33.4986 122.311 34.3274 113.671 37.7747C113.638 37.7879 113.604 37.7944 113.569 37.794C113.534 37.7935 113.499 37.7861 113.467 37.7722C113.435 37.7583 113.406 37.738 113.382 37.7127C113.357 37.6874 113.338 37.6574 113.325 37.6246C113.312 37.5917 113.305 37.5566 113.306 37.5212C113.306 37.4858 113.314 37.4509 113.327 37.4184C113.341 37.3858 113.361 37.3564 113.386 37.3317C113.411 37.307 113.441 37.2875 113.473 37.2743L113.474 37.274L113.476 37.2733C122.647 33.6143 128.717 32.9089 130.129 35.3381C132.476 39.3743 120.819 50.583 103.59 60.8559Z" fill="#1E5E92"/>
<path d="M50.1256 167.461C60.6636 167.461 69.2063 166.027 69.2063 164.258C69.2063 162.489 60.6636 161.055 50.1256 161.055C39.5875 161.055 31.0448 162.489 31.0448 164.258C31.0448 166.027 39.5875 167.461 50.1256 167.461Z" fill="#F2F2F2"/>
<path d="M159.262 169.137C177.278 169.137 191.884 166.685 191.884 163.661C191.884 160.636 177.278 158.185 159.262 158.185C141.245 158.185 126.64 160.636 126.64 163.661C126.64 166.685 141.245 169.137 159.262 169.137Z" fill="#F2F2F2"/>
<path d="M15.3759 87.2726C16.4045 87.2726 17.2384 86.4281 17.2384 85.3864C17.2384 84.3448 16.4045 83.5003 15.3759 83.5003C14.3472 83.5003 13.5133 84.3448 13.5133 85.3864C13.5133 86.4281 14.3472 87.2726 15.3759 87.2726Z" fill="white"/>
<path d="M145.755 114.756C146.783 114.756 147.617 113.912 147.617 112.87C147.617 111.828 146.783 110.984 145.755 110.984C144.726 110.984 143.892 111.828 143.892 112.87C143.892 113.912 144.726 114.756 145.755 114.756Z" fill="white"/>
<path d="M30.4093 118.528H29.4781V117.585C29.4781 117.264 29.3519 116.955 29.1274 116.728C28.9028 116.501 28.5983 116.373 28.2807 116.373C27.9631 116.373 27.6586 116.501 27.434 116.728C27.2095 116.955 27.0833 117.264 27.0833 117.585V118.528H26.1521C25.8345 118.528 25.53 118.656 25.3054 118.883C25.0809 119.111 24.9547 119.419 24.9547 119.741C24.9547 120.062 25.0809 120.371 25.3054 120.598C25.53 120.826 25.8345 120.953 26.1521 120.953H27.0833V121.896C27.0833 122.218 27.2095 122.526 27.434 122.754C27.6586 122.981 27.9631 123.109 28.2807 123.109C28.5983 123.109 28.9028 122.981 29.1274 122.754C29.3519 122.526 29.4781 122.218 29.4781 121.896V120.953H30.4093C30.7269 120.953 31.0314 120.826 31.256 120.598C31.4805 120.371 31.6067 120.062 31.6067 119.741C31.6067 119.419 31.4805 119.111 31.256 118.883C31.0314 118.656 30.7269 118.528 30.4093 118.528Z" fill="white"/>
<path d="M167.483 95.3991H166.998V94.9087C166.998 94.7414 166.933 94.5811 166.816 94.4628C166.699 94.3446 166.541 94.2782 166.376 94.2782C166.211 94.2782 166.052 94.3446 165.935 94.4628C165.819 94.5811 165.753 94.7414 165.753 94.9087V95.3991H165.269C165.104 95.3991 164.945 95.4655 164.829 95.5837C164.712 95.702 164.646 95.8623 164.646 96.0296C164.646 96.1968 164.712 96.3572 164.829 96.4754C164.945 96.5936 165.104 96.6601 165.269 96.6601H165.753V97.1505C165.753 97.3177 165.819 97.4781 165.935 97.5963C166.052 97.7145 166.211 97.781 166.376 97.781C166.541 97.781 166.699 97.7145 166.816 97.5963C166.933 97.4781 166.998 97.3177 166.998 97.1505V96.6601H167.483C167.648 96.6604 167.806 96.5942 167.923 96.4762C168.04 96.3582 168.106 96.1979 168.106 96.0307C168.107 95.8635 168.041 95.703 167.925 95.5845C167.808 95.4661 167.65 95.3994 167.485 95.3991H167.483Z" fill="#FF6584"/>
<path d="M26.1946 62.7961H25.7104V62.3057C25.7107 62.1384 25.6454 61.978 25.5288 61.8595C25.4123 61.741 25.254 61.6743 25.0889 61.674C25.0071 61.6738 24.9261 61.69 24.8505 61.7215C24.7749 61.7531 24.7062 61.7994 24.6483 61.8578C24.5313 61.9759 24.4654 62.1361 24.4651 62.3033V62.7961H23.9808C23.8991 62.7959 23.8181 62.8121 23.7425 62.8436C23.6669 62.8752 23.5982 62.9215 23.5403 62.98C23.4823 63.0384 23.4364 63.1078 23.4049 63.1843C23.3735 63.2607 23.3573 63.3427 23.3571 63.4255C23.357 63.5083 23.3729 63.5903 23.4041 63.6668C23.4353 63.7434 23.481 63.813 23.5387 63.8716C23.5964 63.9303 23.665 63.9768 23.7405 64.0087C23.816 64.0405 23.8969 64.0569 23.9787 64.0571H24.4651V64.5475C24.4648 64.7147 24.5301 64.8752 24.6466 64.9936C24.7632 65.1121 24.9214 65.1788 25.0866 65.1791C25.2517 65.1795 25.4102 65.1133 25.5272 64.9953C25.6442 64.8773 25.71 64.717 25.7104 64.5498V64.0571H26.1946C26.3597 64.0576 26.5183 63.9916 26.6354 63.8737C26.7525 63.7558 26.8185 63.5956 26.819 63.4284C26.8195 63.2611 26.7543 63.1006 26.6379 62.982C26.5215 62.8634 26.3633 62.7965 26.1981 62.7961H26.1968L26.1946 62.7961Z" fill="#0957DE"/>
<path d="M62.1153 62.7961H61.631V62.3057C61.6313 62.1384 61.566 61.978 61.4495 61.8595C61.3329 61.741 61.1747 61.6743 61.0095 61.674C60.8444 61.6737 60.6859 61.7398 60.5689 61.8578C60.452 61.9759 60.3861 62.1361 60.3858 62.3033V62.7961H59.9015C59.7364 62.7958 59.5779 62.8619 59.4609 62.98C59.3439 63.098 59.2781 63.2582 59.2778 63.4255C59.2775 63.5927 59.3428 63.7532 59.4594 63.8716C59.5759 63.9901 59.7342 64.0568 59.8993 64.0571H60.3858V64.5475C60.3855 64.7147 60.4508 64.8752 60.5673 64.9936C60.6838 65.1121 60.8421 65.1788 61.0072 65.1791C61.1724 65.1795 61.3308 65.1133 61.4478 64.9953C61.5648 64.8773 61.6307 64.717 61.631 64.5498V64.0571H62.1153C62.2804 64.0576 62.439 63.9916 62.556 63.8737C62.6731 63.7558 62.7392 63.5956 62.7397 63.4284C62.7401 63.2611 62.675 63.1006 62.5585 62.982C62.4421 62.8634 62.2839 62.7965 62.1188 62.7961H62.1175L62.1153 62.7961Z" fill="white"/>
<path d="M185.842 127.463H185.358V126.973C185.358 126.806 185.292 126.645 185.175 126.527C185.059 126.409 184.9 126.342 184.735 126.342C184.57 126.342 184.412 126.409 184.295 126.527C184.178 126.645 184.112 126.806 184.112 126.973V127.463H183.628C183.463 127.463 183.305 127.53 183.188 127.648C183.071 127.766 183.006 127.926 183.006 128.094C183.006 128.261 183.071 128.421 183.188 128.54C183.305 128.658 183.463 128.724 183.628 128.724H184.112V129.215C184.112 129.382 184.178 129.542 184.295 129.66C184.412 129.779 184.57 129.845 184.735 129.845C184.9 129.845 185.059 129.779 185.175 129.66C185.292 129.542 185.358 129.382 185.358 129.215V128.724H185.842C186.007 128.724 186.165 128.658 186.282 128.54C186.399 128.421 186.465 128.261 186.465 128.094C186.465 127.926 186.399 127.766 186.282 127.648C186.165 127.53 186.007 127.463 185.842 127.463Z" fill="white"/>
<path d="M129.965 74.9212H129.481V74.4308C129.481 74.2635 129.416 74.1032 129.299 73.9849C129.182 73.8667 129.024 73.8003 128.859 73.8003C128.693 73.8003 128.535 73.8667 128.418 73.9849C128.301 74.1032 128.236 74.2635 128.236 74.4308V74.9212H127.752C127.586 74.9212 127.428 74.9876 127.311 75.1058C127.195 75.2241 127.129 75.3844 127.129 75.5517C127.129 75.7189 127.195 75.8792 127.311 75.9975C127.428 76.1157 127.586 76.1822 127.752 76.1822H128.236V76.6726C128.236 76.8398 128.301 77.0001 128.418 77.1184C128.535 77.2366 128.693 77.3031 128.859 77.3031C129.024 77.3031 129.182 77.2366 129.299 77.1184C129.416 77.0001 129.481 76.8398 129.481 76.6726V76.1822H129.965C130.047 76.1823 130.128 76.1661 130.204 76.1346C130.279 76.103 130.348 76.0567 130.406 75.9983C130.464 75.9398 130.51 75.8704 130.541 75.794C130.573 75.7175 130.589 75.6356 130.589 75.5528C130.589 75.47 130.573 75.388 130.542 75.3114C130.511 75.2348 130.465 75.1653 130.408 75.1066C130.35 75.048 130.281 75.0014 130.206 74.9696C130.13 74.9378 130.049 74.9213 129.968 74.9212H129.965Z" fill="white"/>
<path d="M44.5541 88.3935H44.0698V87.9031C44.0701 87.7359 44.0048 87.5754 43.8882 87.4569C43.7717 87.3384 43.6134 87.2717 43.4483 87.2714C43.2832 87.2711 43.1247 87.3372 43.0077 87.4552C42.8907 87.5733 42.8248 87.7335 42.8245 87.9007V88.3935H42.3403C42.1751 88.3932 42.0167 88.4593 41.8997 88.5774C41.7827 88.6954 41.7168 88.8556 41.7166 89.0229C41.7163 89.1901 41.7816 89.3506 41.8981 89.469C42.0147 89.5875 42.173 89.6542 42.3381 89.6545H42.8245V90.1449C42.8242 90.3121 42.8895 90.4726 43.0061 90.591C43.1226 90.7095 43.2809 90.7762 43.446 90.7765C43.6111 90.7769 43.7696 90.7107 43.8866 90.5927C44.0036 90.4747 44.0695 90.3144 44.0698 90.1472V89.6545H44.5541C44.7192 89.6548 44.8777 89.5886 44.9946 89.4706C45.1116 89.3526 45.1775 89.1923 45.1778 89.0251C45.1781 88.8579 45.1127 88.6974 44.9962 88.5789C44.8796 88.4605 44.7214 88.3938 44.5562 88.3935L44.5541 88.3935Z" fill="white"/>
<path d="M46.1505 43.6654H45.6663V43.175C45.6666 43.0078 45.6013 42.8473 45.4847 42.7288C45.3682 42.6104 45.2099 42.5436 45.0448 42.5433C44.8797 42.543 44.7212 42.6091 44.6042 42.7272C44.4872 42.8452 44.4213 43.0054 44.421 43.1726V43.6654H43.9368C43.7716 43.6651 43.6132 43.7312 43.4962 43.8493C43.3792 43.9673 43.3133 44.1276 43.3131 44.2948C43.3128 44.462 43.3781 44.6225 43.4946 44.7409C43.6112 44.8594 43.7695 44.9261 43.9346 44.9264H44.421V45.4168C44.4207 45.584 44.486 45.7445 44.6026 45.863C44.7191 45.9814 44.8774 46.0482 45.0425 46.0485C45.2076 46.0488 45.3661 45.9827 45.4831 45.8646C45.6001 45.7466 45.666 45.5864 45.6663 45.4191V44.9264H46.1505C46.3157 44.9267 46.4742 44.8605 46.5911 44.7425C46.7081 44.6245 46.774 44.4642 46.7743 44.297C46.7746 44.1298 46.7092 43.9693 46.5927 43.8509C46.4761 43.7324 46.3179 43.6657 46.1527 43.6654L46.1505 43.6654Z" fill="white"/>
<path d="M102.298 60.1863C83.0241 50.3272 66.8614 53.5308 66.644 51.8302C66.6443 49.0221 72.1938 46.517 81.8697 44.9577C81.9042 44.9518 81.9395 44.9528 81.9735 44.9608C82.0076 44.9687 82.0398 44.9833 82.0683 45.0039C82.0968 45.0244 82.121 45.0504 82.1396 45.0804C82.1581 45.1105 82.1707 45.1439 82.1764 45.1788C82.1822 45.2137 82.1811 45.2495 82.1733 45.284C82.1654 45.3185 82.1509 45.3511 82.1306 45.3799C82.1103 45.4087 82.0845 45.4332 82.0549 45.452C82.0252 45.4707 81.9922 45.4834 81.9577 45.4892L81.9567 45.4893L81.9533 45.4899C72.8387 46.9589 67.1764 49.3884 67.1762 51.8302C67.1758 56.0659 83.2596 59.6457 102.298 59.6474C121.336 59.6491 137.421 56.0723 137.421 51.8367C137.421 49.3845 131.723 46.9481 122.551 45.4783C122.516 45.473 122.483 45.4608 122.453 45.4424C122.423 45.4241 122.397 45.4 122.376 45.3715C122.356 45.343 122.341 45.3106 122.332 45.2762C122.324 45.2419 122.322 45.2062 122.328 45.1712C122.333 45.1362 122.345 45.1026 122.363 45.0724C122.381 45.0421 122.405 45.0157 122.433 44.9948C122.461 44.9738 122.493 44.9587 122.527 44.9503C122.561 44.9418 122.597 44.9402 122.631 44.9456L122.632 44.9457L122.634 44.946C132.37 46.5061 137.953 49.0176 137.953 51.8367C137.953 56.5206 120.144 69.3149 102.298 60.1863Z" fill="#1E5E92"/>
<path opacity="0.1" d="M114.886 53.3927H107.94V62.4622H114.886V53.3927Z" fill="#359CF6"/>
<path opacity="0.1" d="M160.213 77.9504H154.352V83.8542H160.213V77.9504Z" fill="#359CF6"/>
<path opacity="0.1" d="M160.213 92.5128H154.352V98.4167H160.213V92.5128Z" fill="#359CF6"/>
<path opacity="0.1" d="M160.213 107.073H154.352V112.977H160.213V107.073Z" fill="#359CF6"/>
<path opacity="0.1" d="M160.213 121.635H154.352V127.539H160.213V121.635Z" fill="#359CF6"/>
<path d="M67.2231 83.7775C67.2231 83.7775 66.4111 83.6633 66.4111 82.4717C66.4111 81.2802 65.83 79.0548 65.83 79.0548C65.83 79.0444 65.3272 75.1791 64.6327 74.5647C63.9382 73.9502 63.0459 70.3423 63.0459 70.3423C63.0459 70.3423 62.8934 68.3847 62.5822 67.9633C62.2711 67.5419 61.8507 66.5102 61.2304 65.0384C60.6101 63.5666 58.0239 62.5473 58.0239 62.5473C58.0239 62.5473 53.348 59.8155 52.0229 58.9249C51.9025 58.8517 51.7899 58.7662 51.687 58.6696C51.4562 58.3644 50.4506 58.3582 50.4506 58.3582C50.3455 57.6898 50.2445 56.9217 50.2115 56.2262C50.2115 56.1515 50.2115 56.0768 50.2012 56.0021C51.6788 55.1223 52.7917 53.7351 53.3356 52.0952C53.3604 52.0163 53.381 51.9333 53.4036 51.8544C53.4922 51.825 53.5736 51.7774 53.6428 51.7145C53.712 51.6516 53.7674 51.5748 53.8055 51.4891C53.925 51.2213 53.9271 50.9078 54.0754 50.6587C54.2485 50.3639 54.5783 50.2062 54.8379 49.984C55.4932 49.4236 55.6622 48.479 55.6313 47.6196C55.6107 46.9242 55.4994 46.2225 55.5427 45.5313L55.5551 45.3569C55.5674 45.2531 55.5818 45.1493 55.6004 45.0497C55.7014 44.5348 55.9219 44.0491 56.0455 43.5384C56.1692 43.0277 56.1815 42.4527 55.893 42.0126C55.4706 41.367 54.5906 41.2383 53.8178 41.1719C52.942 41.0972 52.1589 41.1947 51.5984 40.4619C51.3361 40.0789 51.0409 39.7198 50.7164 39.3887C50.601 39.2808 49.4799 38.5916 49.4799 38.5459C48.3858 38.0354 47.1456 37.9396 45.987 38.276C45.4058 38.4462 44.8577 38.7244 44.2683 38.8635C42.9968 39.1666 41.5337 38.8386 40.4538 39.5714C39.8521 39.9866 39.4914 40.6467 39.1535 41.2902C38.8787 41.8203 38.5998 42.3496 38.3168 42.8783C37.8614 43.7481 37.3977 44.6324 37.2061 45.5956C37.1658 45.8052 37.141 46.0175 37.1319 46.2308V46.2412C37.1319 46.318 37.1319 46.3948 37.1319 46.4716V46.5692C37.1319 46.6419 37.1319 46.7124 37.1442 46.7768C37.1566 46.8411 37.1545 46.8619 37.1607 46.9055C37.1669 46.9491 37.1772 47.0467 37.1896 47.1131C37.2019 47.1795 37.2267 47.2958 37.2514 47.3871C37.2617 47.4265 37.2761 47.4639 37.2885 47.5013C37.3091 47.5719 37.3338 47.6404 37.3606 47.7089C37.375 47.7442 37.3895 47.7815 37.406 47.8168C37.4369 47.8895 37.474 47.9601 37.5111 48.0244C37.5275 48.0535 37.5399 48.0805 37.5564 48.1074C37.6139 48.204 37.6772 48.2969 37.746 48.3856C38.187 48.9399 38.8361 49.2928 39.3163 49.8117C39.3163 49.8325 39.3163 49.8533 39.3163 49.8719C39.3163 49.9301 39.3163 49.9861 39.3163 50.0442C39.3417 51.2017 39.6476 52.3353 40.2071 53.3465C40.7667 54.3577 41.5631 55.2159 42.5269 55.8464C42.5269 55.9252 42.5372 56.0062 42.5414 56.0851C42.5816 56.7013 42.574 57.3197 42.5187 57.9347C42.4348 57.8351 42.3297 57.7558 42.2113 57.7027C42.0929 57.6495 41.9641 57.6238 41.8345 57.6275C41.746 57.6231 41.6573 57.6308 41.5707 57.6503L41.5522 57.6358V57.6545C41.0988 57.7666 40.5404 58.2419 40.0066 59.5933C40.0066 59.5933 38.3828 61.4367 37.1463 61.3599C35.9098 61.2831 32.7796 63.278 32.7796 63.278C32.7796 63.278 29.7255 65.2751 29.0702 67.3094C28.7039 68.463 28.2647 69.5918 27.7554 70.689L23.9801 78.5255L23.2836 84.7428C23.2836 84.7428 23.6689 87.5078 23.5927 87.9293C23.5164 88.3507 25.1774 92.1516 25.1774 92.1516C25.1774 92.1516 30.6652 101.865 32.9073 102.363L33.0681 102.249C33.164 102.299 33.2657 102.338 33.371 102.363L33.8326 102.035C33.8603 102.4 33.8486 102.768 33.7976 103.131C33.4885 104.09 33.913 110.349 34.4529 111.576C34.9928 112.803 34.8012 128.889 34.8012 128.889L34.7249 130.309C34.7249 130.309 34.7249 130.354 34.7435 130.433L34.7249 130.769L34.7805 130.798C34.8383 131.249 34.8195 131.706 34.7249 132.15C34.5312 132.773 34.4529 134.533 34.4529 134.533C34.4529 134.533 32.9094 144.472 33.6409 146.469C34.3725 148.466 34.9949 150.654 34.9949 150.654C34.9949 150.654 35.7677 153.145 35.032 153.571C34.2963 153.997 32.2046 154.711 32.6353 155.749C33.0268 156.708 34.5126 159.278 34.7331 159.653L34.7146 159.851L34.4117 163.157C34.4607 163.594 34.5783 164.02 34.7599 164.42C35.0917 165.14 35.7367 165.887 36.9629 165.806C37.169 165.792 37.408 165.767 37.6388 165.736C39.883 165.433 42.6465 164.424 42.6465 164.424C42.503 164.332 42.3715 164.222 42.2549 164.098C42.1446 163.99 42.0572 163.861 41.998 163.718C41.9389 163.576 41.9092 163.422 41.9108 163.267C41.9437 162.665 40.8248 159.797 40.5466 159.091C40.5033 158.989 40.4806 158.931 40.4806 158.931C40.4806 158.931 43.0318 156.245 42.6073 153.864C42.6073 153.864 39.7841 152.203 40.7135 151.292C41.6429 150.38 43.3038 147.763 43.3038 147.763C43.3038 147.763 43.3801 137.975 43.3038 136.513C43.2243 135.499 43.2721 134.479 43.446 133.476C43.4769 133.325 43.514 133.177 43.5532 133.032C44.8385 133.225 46.1361 133.325 47.4357 133.329C47.9096 133.329 48.3919 133.329 48.8782 133.3C48.8782 133.438 48.8844 133.588 48.8967 133.748C49.0039 136.173 49.2038 140.424 49.3666 142.004C49.5974 144.269 50.873 150.372 50.873 150.372C50.873 150.372 48.4393 151.946 51.2975 155.823C51.2975 155.823 51.2975 157.229 51.1079 157.432C50.9055 158.097 50.7424 158.774 50.6195 159.458C50.5 160.189 50.4506 160.928 50.6443 161.312C51.1079 162.23 53.89 162.155 53.89 162.155L53.958 162.142C54.4832 162.088 55.014 162.139 55.5195 162.292C56.025 162.446 56.4952 162.699 56.9028 163.037C57.96 163.892 61.9723 163.517 64.1443 163.245C64.9954 163.137 65.5642 163.037 65.5642 163.037C65.5917 162.94 65.6015 162.839 65.593 162.738C65.5703 162.2 65.152 161.021 62.3164 159.969C62.3164 159.969 59.6498 158.163 59.6869 156.589H59.6312H59.3221C59.5467 156.577 59.691 156.589 59.691 156.589C59.691 156.589 58.6462 152.749 59.0728 152.438C59.4994 152.126 58.2217 147.871 58.2217 147.871C58.2217 147.871 57.4901 140.73 57.451 140.229C57.4526 139.8 57.5172 139.373 57.6426 138.963L57.451 135.048C57.451 135.048 57.4139 133.746 57.451 133.323C57.4447 132.955 57.4151 132.588 57.3623 132.225C57.3438 132.079 57.3252 131.928 57.3046 131.778C58.3041 131.523 58.9533 131.286 58.9533 131.286L58.8378 117.658C59.6869 115.997 59.8435 112.354 59.8394 109.77C59.8394 108.109 59.7652 106.88 59.7652 106.88L60.9254 104.972C60.9254 104.972 61.1933 102.689 60.7688 102.189C60.5812 101.962 60.6657 101.728 60.8203 101.535C60.9006 101.471 60.9853 101.412 61.0738 101.36C61.0738 101.36 61.0614 101.342 61.047 101.315C61.128 101.246 61.2141 101.185 61.3046 101.13C61.3046 101.13 60.8924 100.486 61.2613 100.214C61.6075 100.451 61.9166 100.63 62.1516 100.775C62.1351 100.926 62.1186 101.014 62.1186 101.014L62.2175 100.806C62.4442 100.935 62.5822 101.014 62.5822 101.014C62.5822 101.014 64.3998 97.3663 64.3607 96.8286C64.3215 96.2909 65.5971 94.0261 65.5971 94.0261C65.5971 94.0261 65.7517 92.8367 66.4482 92.3384C67.1448 91.8402 66.9882 88.2303 66.9882 88.2303C66.9882 88.2303 67.1819 86.3495 67.6455 85.5814C68.1092 84.8133 67.2231 83.7775 67.2231 83.7775ZM32.4457 82.177L32.4807 83.0468C32.2747 82.7125 32.1263 82.4717 32.1263 82.4717L32.4457 82.177Z" fill="url(#paint0_linear_16_115)"/>
<path d="M62.6812 99.438L62.236 101.348C62.236 101.348 58.6709 99.5148 58.028 97.1856C57.385 94.8565 59.1037 93.9722 59.1037 93.9722L62.4256 95.39L62.6812 99.438Z" fill="white"/>
<path opacity="0.1" d="M62.6812 99.438L62.236 101.348C62.236 101.348 58.6709 99.5148 58.028 97.1856C57.385 94.8565 59.1037 93.9722 59.1037 93.9722L62.4256 95.39L62.6812 99.438Z" fill="#1E5E92"/>
<path d="M42.6733 164.436C42.6733 164.436 39.3761 165.657 37.1092 165.81C35.9058 165.891 35.2731 165.148 34.9475 164.432C34.7696 164.034 34.6549 163.61 34.6075 163.176L34.9022 159.886L35.0588 158.134L39.8748 156.874L40.5569 158.975L40.6208 159.134C40.8949 159.836 41.9932 162.69 41.9603 163.286C41.9589 163.439 41.9882 163.59 42.0462 163.731C42.1043 163.872 42.19 163.999 42.2982 164.106C42.4088 164.232 42.5348 164.343 42.6733 164.436Z" fill="white"/>
<path d="M65.1953 162.763C65.2035 162.863 65.1938 162.963 65.1664 163.06C65.1664 163.06 58.1145 164.245 56.672 163.06C56.2653 162.714 55.7912 162.457 55.2801 162.306C54.7691 162.155 54.2324 162.113 53.7045 162.184C53.7045 162.184 50.976 162.259 50.5206 161.354C50.331 160.974 50.3805 160.237 50.4979 159.51C50.6178 158.829 50.7774 158.156 50.976 157.494L51.0853 157.407L51.7344 156.882L59.3345 156.656H59.3922C59.3551 158.221 61.9723 160.017 61.9723 160.017C64.7522 161.055 65.1623 162.227 65.1953 162.763Z" fill="white"/>
<path opacity="0.1" d="M65.1953 162.763C65.2025 162.863 65.1921 162.964 65.1644 163.06C65.1644 163.06 58.1145 164.245 56.672 163.06C56.2655 162.714 55.7918 162.457 55.2811 162.306C54.7705 162.156 54.2342 162.114 53.7066 162.184C53.7066 162.184 50.9761 162.259 50.5227 161.354C50.3331 160.972 50.3805 160.237 50.498 159.51C51.5489 159.616 53.2079 159.88 53.8591 160.509C54.8441 161.466 56.5133 162.421 57.5375 162.495C58.3391 162.547 63.1345 162.701 65.1953 162.763Z" fill="#1E5E92"/>
<path opacity="0.1" d="M42.6733 164.436C42.6733 164.436 39.3761 165.657 37.1093 165.81C35.9058 165.891 35.2731 165.148 34.9496 164.43C35.7883 164.714 36.9526 165.013 37.5647 164.739C38.2901 164.415 40.8619 164.206 42.3044 164.116C42.4142 164.238 42.5381 164.345 42.6733 164.436Z" fill="#1E5E92"/>
<path d="M47.5655 66.0701C44.8453 65.0052 41.3461 61.4865 42.2199 59.8424C42.414 59.4275 42.5293 58.9797 42.5599 58.5222C42.6161 57.901 42.6244 57.2763 42.5847 56.6539C42.5234 55.6344 42.4016 54.6195 42.2199 53.6147C42.2199 53.6147 50.7123 53.8078 50.2177 55.0679C50.0735 55.4374 50.0508 56.0788 50.0899 56.7971C50.1291 57.5153 50.2321 58.327 50.3393 59.0141C50.4877 59.9566 50.636 60.6749 50.636 60.6749C50.636 60.6749 50.1167 61.4076 49.8117 61.4471C49.5067 61.4865 51.4686 67.5876 47.5655 66.0701Z" fill="#FFB0B1"/>
<path opacity="0.1" d="M40.6146 159.134L40.5507 159.205C38.0119 156.112 34.9413 159.967 34.9413 159.967L34.896 159.886L35.0526 158.134L39.8686 156.874L40.5507 158.975L40.6146 159.134Z" fill="#1E5E92"/>
<path opacity="0.1" d="M59.3943 156.874C59.3943 156.874 57.5396 156.834 56.5504 157.714C55.5613 158.595 50.7803 157.905 50.9864 157.714C51.0474 157.62 51.0843 157.511 51.0935 157.399L51.7427 156.874L59.3428 156.647C59.3716 156.787 59.3943 156.874 59.3943 156.874Z" fill="#1E5E92"/>
<path d="M43.7737 132.584C43.6356 132.928 43.5307 133.284 43.4605 133.649C43.2887 134.646 43.2409 135.662 43.3183 136.671C43.3946 138.124 43.3183 147.862 43.3183 147.862C43.3183 147.862 41.6883 150.459 40.7795 151.375C39.8707 152.29 42.6341 153.934 42.6341 153.934C43.0463 156.301 40.5487 158.975 40.5487 158.975C38.0098 155.881 34.9393 159.738 34.9393 159.738C34.9393 159.738 33.2701 156.832 32.8538 155.794C32.4375 154.756 34.4838 154.038 35.203 153.617C35.9223 153.195 35.168 150.71 35.168 150.71C35.168 150.71 34.5601 148.533 33.8388 146.546C33.1176 144.56 34.6343 134.67 34.6343 134.67C34.6343 134.67 34.7126 132.914 34.9001 132.301C34.9947 131.86 35.0136 131.405 34.9558 130.956C34.9434 130.805 34.929 130.678 34.9187 130.593C34.9084 130.508 34.9001 130.468 34.9001 130.468L34.929 130.419L35.9593 128.484C35.9593 128.484 44.2683 131.365 43.7737 132.584Z" fill="#1E5E92"/>
<path d="M59.3943 156.645C59.3943 156.645 57.5396 156.606 56.5504 157.476C55.5613 158.346 50.7803 157.667 50.9864 157.476C51.1924 157.285 51.176 155.871 51.176 155.871C48.3713 152.014 50.7638 150.449 50.7638 150.449C50.7638 150.449 49.5109 144.377 49.2842 142.125C49.1255 140.551 48.9297 136.322 48.8246 133.908C48.7793 132.87 48.7525 132.156 48.7525 132.156L51.0441 131.691L51.3388 131.631L56.8657 130.514C56.8657 130.514 57.0182 131.552 57.1212 132.401C57.1726 132.764 57.2015 133.129 57.2078 133.495C57.1707 133.91 57.2078 135.21 57.2078 135.21L57.3953 139.106C57.2728 139.515 57.2096 139.939 57.2078 140.366C57.2449 140.862 57.9641 147.966 57.9641 147.966C57.9641 147.966 59.215 152.205 58.7884 152.51C58.3618 152.815 59.3943 156.645 59.3943 156.645Z" fill="#1E5E92"/>
<path opacity="0.1" d="M50.2177 55.0679C50.0735 55.4374 50.0508 56.0788 50.0899 56.7971C48.9524 57.4871 47.6447 57.8399 46.3171 57.8149C44.9895 57.79 43.6958 57.3882 42.5847 56.6559C42.5235 55.6358 42.4017 54.6202 42.2199 53.6147C42.2199 53.6147 50.7123 53.8037 50.2177 55.0679Z" fill="#1E5E92"/>
<path d="M53.5005 50.4802C53.5022 51.2282 53.3853 51.9718 53.1543 52.6827C52.638 54.2757 51.5793 55.6335 50.1653 56.5162C48.7513 57.3989 47.0731 57.7496 45.4272 57.5064C43.7813 57.2632 42.2737 56.4417 41.171 55.1871C40.0682 53.9325 39.4412 52.3256 39.4008 50.6504C39.4008 50.5923 39.4008 50.5383 39.4008 50.4802C39.3848 49.5372 39.5554 48.6005 39.9025 47.7247C40.2497 46.8488 40.7665 46.0513 41.4228 45.3788C42.0791 44.7063 42.8618 44.1721 43.7252 43.8075C44.5886 43.4428 45.5155 43.2551 46.4517 43.2551C47.3879 43.2551 48.3148 43.4428 49.1782 43.8075C50.0416 44.1721 50.8243 44.7063 51.4806 45.3788C52.1369 46.0513 52.6537 46.8488 53.0009 47.7247C53.348 48.6005 53.5186 49.5372 53.5026 50.4802H53.5005Z" fill="#FFB0B1"/>
<path opacity="0.1" d="M47.5655 66.0701C44.8453 65.0052 41.3461 61.4865 42.2199 59.8424C42.414 59.4276 42.5293 58.9798 42.5599 58.5222L46.2837 61.6049L48.5877 63.5085L50.3393 59.0162C50.4877 59.9587 50.636 60.6769 50.636 60.6769C50.636 60.6769 50.1167 61.4097 49.8117 61.4492C49.5067 61.4886 51.4686 67.5876 47.5655 66.0701Z" fill="#1E5E92"/>
<path d="M57.1955 79.6942L54.0858 132.318L50.0302 132.586L39.5286 102.072L41.2514 65.8459L41.6141 58.1921L46.2837 62.0553L48.5897 63.9589L50.3929 59.3359L53.7457 62.2795L57.1955 79.6942Z" fill="#359CF6"/>
<path opacity="0.1" d="M43.7737 132.584C43.6355 132.928 43.5306 133.284 43.4604 133.649C40.5094 133.19 37.6433 132.288 34.9577 130.973L34.9021 130.944L34.9206 130.61L34.931 130.435L35.9613 128.5C35.9613 128.5 44.2682 131.365 43.7737 132.584Z" fill="#1E5E92"/>
<path opacity="0.1" d="M51.0914 133.657C50.337 133.786 49.5762 133.874 48.8122 133.919C48.7669 132.881 48.7401 132.167 48.7401 132.167L51.0317 131.701L51.0914 133.657Z" fill="#1E5E92"/>
<path opacity="0.1" d="M57.1089 132.411C55.6437 132.795 53.381 133.227 51.3553 132.957L51.3264 131.641L56.8534 130.524C56.8534 130.524 57.0059 131.552 57.1089 132.411Z" fill="#1E5E92"/>
<path opacity="0.1" d="M51.3181 133.198C42.869 134.651 35.1309 130.485 35.1309 130.485L35.2051 129.073C35.2051 129.073 35.3967 113.07 34.865 111.843C34.3334 110.617 33.9191 104.395 34.22 103.44C34.5209 102.485 33.1216 88.1659 33.1216 88.1659L32.8949 82.3534L24.5983 78.9676L28.3077 71.1789C28.8087 70.0869 29.2396 68.9636 29.5977 67.8159C30.2427 65.794 33.237 63.8074 33.237 63.8074C33.237 63.8074 36.3076 61.8228 37.5213 61.8976C38.7351 61.9723 40.326 60.1414 40.326 60.1414C41.5007 57.1251 42.564 58.491 42.564 58.491C42.564 58.6343 42.564 58.491 42.5063 58.9374C42.0942 62.2484 49.1708 72.7109 49.2718 72.8956L49.9457 89.4322L50.6278 110.359L51.3181 133.198Z" fill="#1E5E92"/>
<path d="M51.0915 133.198C42.6424 134.651 34.9021 130.485 34.9021 130.485L34.9784 129.073C34.9784 129.073 35.17 113.07 34.6363 111.844C34.1026 110.617 33.6904 104.395 33.9933 103.44C34.2963 102.485 32.895 88.1659 32.895 88.1659L32.6662 82.3534L24.3655 78.9552L28.0748 71.1664C28.5748 70.074 29.0056 68.9507 29.3649 67.8035C30.0078 65.7816 33.0042 63.7949 33.0042 63.7949C33.0042 63.7949 36.0747 61.8104 37.2864 61.8851C38.4982 61.9599 40.0911 60.1289 40.0911 60.1289C41.2678 57.1127 42.564 58.4786 42.564 58.4786C42.564 58.6218 42.4404 58.6862 42.5063 58.9249C43.4131 62.1363 48.9442 72.6984 49.0451 72.8832L49.7272 89.4197L50.4094 110.347L51.0915 133.198Z" fill="white"/>
<path opacity="0.1" d="M48.8143 73.3544C47.9055 72.9724 43.0916 67.436 43.0916 67.436V66.176C42.9164 65.7608 41.8757 66.014 41.0308 66.3047L41.3935 58.6509L41.8057 58.9955C42.7083 62.2048 48.7092 73.1696 48.8143 73.3544Z" fill="#1E5E92"/>
<path d="M49.0431 72.8956C48.1322 72.5137 43.3183 66.9773 43.3183 66.9773V65.7172C43.1431 65.302 42.1024 65.5553 41.2575 65.8459L41.6223 58.1921L42.0344 58.5367C42.9391 61.746 48.9421 72.713 49.0431 72.8956Z" fill="white"/>
<path opacity="0.1" d="M35.1309 100.507C35.2442 100.507 41.0061 99.8967 41.0061 99.8967C41.0061 99.8967 44.495 106.807 44.2663 108.489C44.0375 110.17 43.6233 111.659 42.2199 111.395C40.8165 111.131 34.6672 111.603 34.6672 111.603L35.1309 100.507Z" fill="#1E5E92"/>
<path d="M34.9021 100.048C35.0155 100.048 40.7774 99.438 40.7774 99.438C40.7774 99.438 44.2642 106.351 44.0375 108.03C43.8108 109.709 43.3925 111.2 41.9912 110.936C40.5898 110.673 34.4385 111.144 34.4385 111.144L34.9021 100.048Z" fill="white"/>
<path d="M39.2442 96.8036C39.2442 96.8036 44.5321 99.6663 44.6454 100.54C44.7588 101.414 41.9541 100.158 41.3482 100.007C40.9494 99.91 40.5435 99.8461 40.1344 99.8158L36.0933 99.9258L39.2442 96.8036Z" fill="#FFB0B1"/>
<path opacity="0.1" d="M47.3388 73.7114C47.6461 73.7114 47.8952 73.4605 47.8952 73.151C47.8952 72.8414 47.6461 72.5905 47.3388 72.5905C47.0315 72.5905 46.7824 72.8414 46.7824 73.151C46.7824 73.4605 47.0315 73.7114 47.3388 73.7114Z" fill="#1E5E92"/>
<path d="M47.3388 73.4831C47.6461 73.4831 47.8952 73.2321 47.8952 72.9226C47.8952 72.613 47.6461 72.3621 47.3388 72.3621C47.0315 72.3621 46.7824 72.613 46.7824 72.9226C46.7824 73.2321 47.0315 73.4831 47.3388 73.4831Z" fill="#3F3D56"/>
<path opacity="0.1" d="M48.363 97.9745C48.6703 97.9745 48.9194 97.7235 48.9194 97.414C48.9194 97.1044 48.6703 96.8535 48.363 96.8535C48.0557 96.8535 47.8066 97.1044 47.8066 97.414C47.8066 97.7235 48.0557 97.9745 48.363 97.9745Z" fill="#1E5E92"/>
<path d="M48.363 97.744C48.6703 97.744 48.9194 97.4931 48.9194 97.1836C48.9194 96.874 48.6703 96.6231 48.363 96.6231C48.0557 96.6231 47.8066 96.874 47.8066 97.1836C47.8066 97.4931 48.0557 97.744 48.363 97.744Z" fill="#3F3D56"/>
<path opacity="0.1" d="M47.8931 85.843C48.2004 85.843 48.4495 85.592 48.4495 85.2825C48.4495 84.9729 48.2004 84.722 47.8931 84.722C47.5858 84.722 47.3367 84.9729 47.3367 85.2825C47.3367 85.592 47.5858 85.843 47.8931 85.843Z" fill="#1E5E92"/>
<path d="M47.8931 85.6146C48.2004 85.6146 48.4495 85.3637 48.4495 85.0542C48.4495 84.7446 48.2004 84.4937 47.8931 84.4937C47.5858 84.4937 47.3367 84.7446 47.3367 85.0542C47.3367 85.3637 47.5858 85.6146 47.8931 85.6146Z" fill="#3F3D56"/>
<path d="M60.7193 99.6996C60.7193 99.6996 61.0985 100.272 60.7193 100.54C60.3401 100.808 60.7564 101.456 60.7564 101.456C60.7564 101.456 59.8105 102.014 60.2268 102.517C60.6431 103.019 60.3793 105.288 60.3793 105.288L59.2418 107.185C59.2418 107.185 59.3098 108.408 59.3139 110.06C59.3139 112.639 59.1635 116.263 58.3309 117.915L58.4463 131.473C58.4463 131.473 54.4629 132.939 51.1286 132.492L50.634 110.737C50.634 110.737 51.3552 98.4 51.6211 96.0335C51.7766 94.8049 51.84 93.5663 51.8107 92.3281C51.8107 92.3281 51.6973 88.6247 51.3161 86.9058C51.3161 86.9058 50.9039 79.4596 50.8627 77.3983C50.8442 76.4122 50.8957 73.535 50.9534 70.799C51.0173 67.8076 51.0894 64.9865 51.0894 64.9865L50.3372 58.9913C50.3372 58.9913 51.0894 58.9145 51.3161 59.2197C51.4176 59.3152 51.528 59.4007 51.6458 59.475C52.9441 60.3594 57.5313 63.0788 57.5313 63.0788C57.5313 63.0788 60.0702 64.096 60.6781 65.5532C61.286 67.0105 61.7085 68.0443 62.0032 68.4595C62.2979 68.8747 62.4586 70.826 62.4586 70.826C62.4586 70.826 63.3324 74.4173 64.0145 75.0255C64.6966 75.6338 65.1953 79.5032 65.1953 79.5032L59.1676 84.2778C59.1676 84.2778 58.638 92.2201 58.5246 92.5274C58.4113 92.8346 60.7193 99.6996 60.7193 99.6996Z" fill="white"/>
<path d="M60.948 99.6995C60.948 99.6995 61.3252 100.272 60.948 100.54C60.5709 100.808 60.9831 101.456 60.9831 101.456C60.9831 101.456 60.0434 102.02 60.4555 102.523C60.8677 103.025 60.608 105.294 60.608 105.294L59.4705 107.191C59.4705 107.191 59.5385 108.414 59.5447 110.067C59.5447 112.645 59.3942 116.269 58.5617 117.922L58.675 131.479C58.675 131.479 54.6854 132.945 51.3552 132.499L50.8627 110.743C50.8627 110.743 51.5839 98.4063 51.8498 96.0397C52.0055 94.8112 52.0682 93.5724 52.0373 92.3343C52.0373 92.3343 51.924 88.6309 51.5448 86.9121C51.5448 86.9121 51.1326 79.4658 51.0894 77.4045C51.0708 76.4184 51.1244 73.5412 51.18 70.8052C51.2439 67.8139 51.316 64.9927 51.316 64.9927L50.3228 58.9166C50.3228 58.9166 51.316 58.9166 51.5448 59.2259C51.6454 59.3226 51.7559 59.4082 51.8745 59.4812C53.1728 60.3656 57.7621 63.085 57.7621 63.085C57.7621 63.085 60.2989 64.1022 60.9068 65.5594C61.5147 67.0167 61.9372 68.0505 62.2339 68.4657C62.5307 68.8809 62.6873 70.8322 62.6873 70.8322C62.6873 70.8322 63.5611 74.4235 64.2432 75.0317C64.9253 75.64 65.4178 79.5011 65.4178 79.5011L59.3901 84.2757C59.3901 84.2757 58.8605 92.218 58.7451 92.5253C58.6297 92.8325 60.948 99.6995 60.948 99.6995Z" fill="white"/>
<path opacity="0.1" d="M53.7292 66.7552L54.2732 68.3536L51.4088 71.2599C51.4727 68.2706 51.5448 65.4474 51.5448 65.4474L50.5515 59.3712C50.5515 59.3712 51.5448 59.3712 51.7735 59.6805C51.8738 59.7769 51.9844 59.8619 52.1033 59.9338L54.5391 67.0126L53.7292 66.7552Z" fill="#1E5E92"/>
<path d="M53.5004 66.2964L54.0465 67.8949L51.1821 70.8011C51.246 67.8097 51.3181 64.9886 51.3181 64.9886L50.3228 58.9125C50.3228 58.9125 51.3181 58.9125 51.5448 59.2218C51.6459 59.3179 51.7563 59.4034 51.8745 59.4771L54.3124 66.5538L53.5004 66.2964Z" fill="white"/>
<path opacity="0.1" d="M53.5005 50.4802C53.5022 51.2282 53.3853 51.9718 53.1543 52.6827C53.1154 52.6888 53.0756 52.687 53.0374 52.6774C52.9992 52.6678 52.9632 52.6505 52.9318 52.6267C52.8782 50.7584 51.9653 49.0042 50.8421 47.5117C50.5268 47.061 50.1446 46.6619 49.7087 46.3284C49.2681 45.995 48.7201 45.8389 48.1714 45.8904C47.5532 45.9755 47.0071 46.399 46.3827 46.453C45.5584 46.5215 44.8206 45.9464 44.0025 45.9174C43.6699 45.9206 43.3418 45.9952 43.0401 46.1362C42.7384 46.2772 42.47 46.4815 42.2529 46.7353C41.8231 47.2475 41.5038 47.8441 41.3153 48.4873C40.9912 49.4627 40.8148 50.4816 40.7918 51.5098C40.7815 52.0911 40.7259 52.8197 40.1901 53.0315C40.2304 52.604 40.1822 52.1727 40.0485 51.765C39.9147 51.3573 39.6984 50.982 39.4132 50.6629L39.4008 50.6504C39.4008 50.5923 39.4008 50.5383 39.4008 50.4802C39.3848 49.5372 39.5554 48.6005 39.9025 47.7247C40.2497 46.8488 40.7665 46.0513 41.4228 45.3788C42.0791 44.7063 42.8618 44.1721 43.7252 43.8075C44.5886 43.4428 45.5155 43.2551 46.4517 43.2551C47.3879 43.2551 48.3148 43.4428 49.1782 43.8075C50.0416 44.1721 50.8243 44.7063 51.4806 45.3788C52.1369 46.0513 52.6537 46.8488 53.0009 47.7247C53.348 48.6005 53.5186 49.5372 53.5026 50.4802H53.5005Z" fill="#1E5E92"/>
<path d="M49.3708 39.2019C48.3 38.6944 47.082 38.5985 45.9458 38.932C45.375 39.1022 44.8371 39.3783 44.2581 39.5174C43.0216 39.8184 41.5791 39.4925 40.5178 40.2211C39.9284 40.6363 39.574 41.2923 39.2442 41.9296L38.4199 43.5114C37.9707 44.377 37.5173 45.2572 37.3298 46.2101C37.1423 47.1629 37.2556 48.2299 37.8553 48.9959C38.2922 49.5543 38.9372 49.9051 39.4112 50.4303C39.6951 50.7498 39.9105 51.1249 40.0438 51.5321C40.1772 51.9393 40.2256 52.3699 40.186 52.7969C40.7239 52.5893 40.7754 51.8586 40.7878 51.2773C40.8107 50.2491 40.9872 49.2301 41.3112 48.2548C41.4993 47.6114 41.8186 47.0147 42.2488 46.5028C42.4661 46.2492 42.7345 46.0451 43.0362 45.904C43.3379 45.763 43.6659 45.6883 43.9984 45.6849C44.8227 45.7139 45.5625 46.2869 46.3786 46.2184C46.9968 46.1665 47.545 45.7409 48.1673 45.6579C48.7161 45.6056 49.2644 45.7618 49.7047 46.0959C50.1403 46.4289 50.522 46.8281 50.836 47.2791C51.9612 48.7717 52.8741 50.5217 52.9277 52.3941C53.1606 52.5664 53.4965 52.3422 53.6119 52.0765C53.7273 51.8108 53.7314 51.4994 53.8777 51.2462C54.0467 50.9535 54.3702 50.7978 54.6237 50.5777C55.2667 50.0193 55.4274 49.0789 55.4027 48.2257C55.3779 47.3726 55.2131 46.5069 55.3738 45.6682C55.4707 45.1534 55.6891 44.6718 55.8086 44.1632C55.9282 43.6546 55.9426 43.0838 55.6603 42.6458C55.2481 42.0022 54.3805 41.8756 53.6242 41.8154C52.7649 41.7407 51.9962 41.8362 51.4481 41.1075C51.1908 40.7273 50.9012 40.3703 50.5825 40.0405C50.4733 39.9326 49.3708 39.2475 49.3708 39.2019Z" fill="#1E5E92"/>
<path opacity="0.1" d="M26.9723 82.9782L24.8188 78.9676L24.1367 85.1559C24.1367 85.1559 24.5159 87.9043 24.4397 88.3257C24.3634 88.7471 25.9935 92.5253 25.9935 92.5253C25.9935 92.5253 31.3782 102.186 33.5771 102.685L41.0061 97.3372L39.036 94.817C39.036 94.817 38.3539 94.5493 38.1829 94.817C38.1829 94.817 34.525 88.4773 34.1458 88.0185C33.7666 87.5597 33.8408 86.6443 33.8408 86.6443C33.8408 86.6443 33.2721 86.034 33.4617 85.461C33.6512 84.8881 32.3633 82.9014 32.3633 82.9014L33.5379 81.795L26.9723 82.9782Z" fill="#1E5E92"/>
<path d="M24.9322 78.5109L24.3634 78.9676L23.6813 85.1559C23.6813 85.1559 24.0605 87.9043 23.9843 88.3257C23.908 88.7471 25.5401 92.5253 25.5401 92.5253C25.5401 92.5253 30.9228 102.186 33.1217 102.685L40.5528 97.3372L38.5806 94.8171C38.5806 94.8171 37.8985 94.5493 37.7275 94.8171C37.7275 94.8171 34.0696 88.4773 33.6904 88.0185C33.3113 87.5597 33.3875 86.6443 33.3875 86.6443C33.3875 86.6443 32.8187 86.034 33.0083 85.461C33.1979 84.8881 31.9079 82.9014 31.9079 82.9014L33.0825 81.795L24.9322 78.5109Z" fill="white"/>
<path opacity="0.1" d="M60.2268 102.753C60.639 103.258 60.3793 105.522 60.3793 105.522L59.2418 107.42C59.2418 107.42 59.3098 108.645 59.3139 110.295L57.4015 110.897C57.2287 110.951 57.0455 110.963 56.8671 110.932C56.6888 110.9 56.5205 110.826 56.3763 110.716C56.2321 110.606 56.1162 110.462 56.0382 110.298C55.9602 110.133 55.9225 109.952 55.9281 109.77L56.2578 99.056L60.7194 100.775C60.3402 101.041 60.7565 101.692 60.7565 101.692C60.7565 101.692 59.8106 102.249 60.2268 102.753Z" fill="#1E5E92"/>
<path d="M60.4555 102.523C60.8677 103.027 60.608 105.294 60.608 105.294L59.4705 107.191C59.4705 107.191 59.5385 108.414 59.5447 110.067L57.5973 110.679C57.428 110.732 57.2486 110.743 57.0741 110.712C56.8995 110.681 56.7348 110.609 56.5937 110.501C56.4526 110.393 56.3391 110.252 56.2628 110.091C56.1864 109.93 56.1494 109.753 56.1547 109.575L56.4865 98.8276L60.9501 100.546C60.5689 100.812 60.9852 101.462 60.9852 101.462C60.9852 101.462 60.0434 102.02 60.4555 102.523Z" fill="white"/>
<path d="M61.9331 97.416C61.9331 97.416 61.6302 99.3653 60.8718 99.4795C60.1135 99.5936 59.7734 102.633 59.0171 102.525C58.2608 102.417 58.7616 99.6995 58.7884 99.1722C58.8152 98.645 57.9641 96.4611 58.6009 95.965C59.2377 95.4688 61.2531 95.965 61.2531 95.965L61.9331 97.416Z" fill="#FFB0B1"/>
<path opacity="0.1" d="M63.5467 82.4053L64.9769 79.4991C64.9769 79.4991 65.5457 81.7141 65.5457 82.8973C65.5457 84.0806 66.3411 84.1968 66.3411 84.1968C66.3411 84.1968 67.2128 85.2348 66.7533 85.9904C66.2937 86.746 66.1083 88.6268 66.1083 88.6268C66.1083 88.6268 66.2587 92.216 65.5766 92.7121C64.8945 93.2083 64.7523 94.3936 64.7523 94.3936C64.7523 94.3936 63.4993 96.6459 63.5385 97.1815C63.5777 97.7171 61.7951 101.344 61.7951 101.344C61.7951 101.344 62.6668 96.8369 57.587 94.8897C57.587 94.8897 57.5479 93.3598 57.9271 92.9405C58.3062 92.5211 58.8977 92.3302 58.5267 90.2107C58.1558 88.0912 58.4196 85.5586 58.4196 85.05C58.4196 84.5414 59.5571 81.3695 59.5571 81.3695L63.5467 82.4053Z" fill="#1E5E92"/>
<path d="M64.1649 79.0839L65.4137 79.499C65.4137 79.499 65.9845 81.714 65.9845 82.8973C65.9845 84.0805 66.78 84.1968 66.78 84.1968C66.78 84.1968 67.6517 85.2347 67.1922 85.9904C66.7326 86.746 66.5492 88.6267 66.5492 88.6267C66.5492 88.6267 66.6996 92.216 66.0175 92.7121C65.3354 93.2082 65.1829 94.3936 65.1829 94.3936C65.1829 94.3936 63.932 96.6459 63.9712 97.1815C64.0103 97.7171 62.2257 101.344 62.2257 101.344C62.2257 101.344 63.0995 96.8369 58.0177 94.8897C58.0177 94.8897 57.9806 93.3598 58.3597 92.9404C58.7389 92.5211 59.3304 92.3301 58.9594 90.2106C58.5885 88.0912 58.8523 85.5586 58.8523 85.05C58.8523 84.5414 59.9898 81.3694 59.9898 81.3694L64.1649 79.0839Z" fill="white"/>
<path opacity="0.1" d="M36.5817 154.412C36.5817 154.412 38.5724 153.152 39.8789 154.067C41.1855 154.983 36.5817 154.412 36.5817 154.412Z" fill="#1E5E92"/>
<path opacity="0.1" d="M52.0497 150.515C52.0497 150.515 53.8116 150.287 55.2913 151.892C56.7709 153.496 52.0497 150.515 52.0497 150.515Z" fill="#1E5E92"/>
<g opacity="0.1">
<path d="M54.6278 50.1232C54.3743 50.3432 54.0487 50.501 53.8797 50.7937C53.7355 51.0449 53.7313 51.3542 53.6159 51.624C53.5005 51.8939 53.1646 52.114 52.9318 51.9437C52.8782 50.0754 51.9632 48.3213 50.8401 46.8267C50.5261 46.3756 50.1444 45.9764 49.7087 45.6434C49.2677 45.3094 48.7187 45.1532 48.1694 45.2054C47.5511 45.2905 47.0071 45.714 46.3827 45.7659C45.5584 45.8365 44.8186 45.2614 44.0004 45.2324C43.668 45.2357 43.34 45.3106 43.0387 45.452C42.7373 45.5934 42.4694 45.7981 42.2529 46.0524C41.8227 46.5635 41.5033 47.1596 41.3153 47.8023C40.9914 48.7777 40.815 49.7966 40.7918 50.8248C40.7795 51.404 40.7259 52.1264 40.1942 52.3423C40.2066 52.4957 40.2066 52.6498 40.1942 52.8032C40.73 52.5956 40.7836 51.8648 40.796 51.2836C40.8189 50.2554 40.9954 49.2364 41.3194 48.2611C41.5075 47.6177 41.8268 47.021 42.257 46.509C42.4739 46.2555 42.742 46.0514 43.0433 45.9104C43.3446 45.7694 43.6723 45.6946 44.0046 45.6912C44.8289 45.7202 45.5707 46.2932 46.3868 46.2247C47.005 46.1728 47.5532 45.7472 48.1735 45.6642C48.7228 45.6119 49.2718 45.7681 49.7129 46.1022C50.1485 46.4352 50.5302 46.8344 50.8442 47.2854C51.9673 48.778 52.8823 50.528 52.9359 52.4004C53.1688 52.5727 53.5047 52.3485 53.6201 52.0828C53.7355 51.8171 53.7396 51.5057 53.8838 51.2525C54.0528 50.9598 54.3784 50.8041 54.6319 50.584C55.2748 50.0256 55.4356 49.0852 55.4109 48.232C55.4109 48.2051 55.4109 48.1781 55.4109 48.1532C55.3717 48.8922 55.1759 49.6457 54.6278 50.1232Z" fill="#1E5E92"/>
<path d="M39.4151 49.9757C38.9412 49.4505 38.2941 49.0997 37.8593 48.5434C37.4931 48.0509 37.284 47.458 37.2596 46.8432C37.1947 47.6115 37.4077 48.3775 37.8593 49.0001C38.2941 49.5585 38.9412 49.9093 39.4151 50.4345C39.8702 50.9482 40.1434 51.5994 40.192 52.2862C40.2236 51.8682 40.171 51.4482 40.0375 51.0511C39.9041 50.6541 39.6923 50.2884 39.4151 49.9757Z" fill="#1E5E92"/>
<path d="M55.8126 43.7086C55.691 44.2172 55.4746 44.7009 55.3757 45.2137C55.3171 45.5563 55.2957 45.9043 55.3118 46.2516C55.3187 46.0538 55.3401 45.8567 55.3757 45.6621C55.4746 45.1472 55.691 44.6656 55.8126 44.157C55.8835 43.8765 55.9065 43.5859 55.8806 43.2976C55.8678 43.4361 55.8451 43.5735 55.8126 43.7086Z" fill="#1E5E92"/>
</g>
<path d="M178.106 102.886C178.106 102.886 174.704 85.8346 176.006 83.7131C176.006 83.7131 176.054 81.741 175.976 79.2271C175.976 79.1316 175.976 79.0361 175.976 78.9385C176.205 79.0924 176.444 79.2311 176.691 79.3537C177.891 79.9747 179.268 80.1539 180.585 79.8602L179.555 78.704C179.308 78.4279 179.05 78.1289 178.997 77.7636C178.943 77.3982 179.091 77.0723 179.219 76.7464C180.198 74.2553 180.25 71.1228 178.364 69.2213C176.771 67.6229 176.384 65.5594 174.655 64.1001C173.391 63.031 172.697 61.4637 172.042 59.9483C171.487 58.6675 170.929 57.3763 170.611 56.0186C170.364 54.9578 170.265 53.8597 169.925 52.8238C169.585 51.788 168.948 50.7812 167.953 50.3182C167.599 50.1542 167.205 50.0608 166.881 49.8429C166.457 49.5543 166.201 49.0852 165.894 48.6741C164.334 46.5982 159.11 47.8209 156.637 48.6637C155.965 48.876 155.343 49.2235 154.807 49.6851L154.83 49.6477C154.849 49.6166 154.871 49.5854 154.892 49.5543C154.621 49.7748 154.387 50.0376 154.199 50.3328C153.839 50.9078 153.688 51.5783 153.388 52.2011C153.025 52.938 151.007 54.9952 151.875 55.8235C151.936 55.8791 152.005 55.924 152.081 55.9564C152.407 56.0929 152.765 56.129 153.111 56.0601L153.074 56.1494C152.778 56.8802 152.626 57.6622 152.627 58.4516C152.627 61.8623 155.419 64.6273 158.867 64.6273C159.515 64.628 160.16 64.5279 160.777 64.3305C160.792 64.4094 160.804 64.4883 160.819 64.5672C160.819 64.5983 160.829 64.6294 160.833 64.6606L160.724 64.8142C160.718 64.8047 160.712 64.7957 160.705 64.7872L157.47 69.3417C156.975 69.6925 154.127 71.7684 153.967 73.3253C153.798 75.0296 153.629 77.0246 153.629 77.0246L153.606 77.4522C153.465 77.5712 153.299 77.6579 153.121 77.7063C152.943 77.7547 152.757 77.7636 152.576 77.7324C151.566 77.5664 151.566 81.469 151.566 81.469C151.566 81.469 150.894 82.0918 150.432 81.5521C149.971 81.0124 148.751 82.8412 148.751 82.8412L141.105 83.1734L140.93 83.1837L140.518 81.8988C140.474 81.7632 140.378 81.6508 140.252 81.5859C140.126 81.521 139.979 81.5088 139.844 81.5521C139.812 81.5627 139.781 81.5759 139.752 81.5915L139.723 81.6081L139.669 81.6455L139.642 81.6704C139.628 81.6839 139.614 81.6985 139.601 81.714L139.576 81.7431L139.564 81.7555C139.516 81.8218 139.485 81.8984 139.472 81.9791C139.459 82.0599 139.465 82.1426 139.49 82.2205L139.844 83.3228C138.369 83.6217 136.86 84.4646 138.091 86.7854L131.855 85.625L133.872 87.3314L144.287 89.4965C144.149 89.7456 144.24 90.1068 144.671 90.6154C146.525 92.8096 149.905 93.4054 151.265 93.559C151.624 94.3684 152.073 95.1344 152.602 95.8425L152.485 98.0284C152.485 98.0284 149.041 114.69 148.411 115.534C148.729 115.171 149.021 114.785 149.283 114.378C148.283 117.801 146.886 122.487 146.519 123.188C145.93 124.309 145.384 128.845 146.055 129.136C146.261 129.225 146.851 129.181 147.692 129.117V129.493L147.655 143.731C147.655 143.731 147.824 152.465 147.36 153.297C146.896 154.129 146.773 155.875 146.773 155.875C146.773 155.875 144.918 159.319 143.449 160.704C143.439 160.714 143.427 160.724 143.416 160.733L143.37 160.409C143.37 160.409 141.604 162.655 137.697 162.528C137.697 162.528 135.346 164.069 138.832 164.152C142.319 164.235 146.773 164.027 146.773 164.027C146.773 164.027 149.882 159.253 152.487 159.875V163.494H153.285V159.817C153.654 159.572 153.971 159.254 154.215 158.881C154.459 158.509 154.626 158.091 154.704 157.652C154.773 157.2 154.723 156.737 154.559 156.31C154.396 155.883 154.125 155.506 153.773 155.217C153.615 155.073 153.488 154.898 153.4 154.702C153.313 154.506 153.266 154.294 153.264 154.08L153.235 154.104C153.235 154.032 153.217 153.957 153.208 153.88C152.98 152.012 152.693 148.157 153.705 145.305C155.092 141.394 155.512 135.947 154.502 132.704C154.177 131.668 153.909 130.613 153.701 129.547C153.676 129.412 153.653 129.283 153.633 129.163C154.323 129.257 155.007 129.395 155.679 129.578C158.018 130.228 163.135 130.348 167.504 130.313C167.514 130.433 167.526 130.56 167.541 130.686C167.619 131.567 167.782 132.437 168.027 133.285C168.575 134.946 168.827 142.268 168.827 142.268C168.827 142.268 169.534 148.288 169.148 150.737C168.942 152.099 168.736 153.467 168.619 154.841V154.868C168.619 154.868 167.46 158.19 166.614 159.994C166.593 160.039 166.57 160.085 166.55 160.129C166.324 160.149 166.102 160.199 165.888 160.276C165.888 160.276 164.753 162.56 163.621 162.937C162.49 163.315 162.865 164.559 165.427 164.102C167.988 163.645 171.856 163.272 171.856 163.272L172.023 160.942L172.81 159.95L172.604 162.273L173.443 162.107L173.332 159.282L174.62 157.658C174.62 157.658 176.175 156.263 173.863 153.519V153.579C173.839 153.54 173.816 153.498 173.789 153.459V153.446C173.406 152.849 173.101 151.734 173.659 149.755C174.669 146.181 175.256 142.936 175.256 142.936C175.256 142.936 177.511 134.244 174.801 130.132H174.92C174.643 129.553 174.446 128.939 174.337 128.305C174.323 128.231 174.311 128.154 174.3 128.075C176.305 127.959 178.273 127.593 179.879 126.804C179.872 126.796 178.906 106.17 178.106 102.886ZM152.65 88.5001V88.5416L152.238 88.5624L152.65 88.5001ZM151.236 88.6973C151.168 88.7124 151.105 88.743 151.051 88.7866C150.873 89.0391 150.762 89.3325 150.727 89.6398L150.084 89.4944C150.084 89.4944 149.633 89.3969 148.984 89.2869L148.677 88.9755C149.522 88.9049 150.399 88.8011 151.236 88.6973Z" fill="url(#paint1_linear_16_115)"/>
<path d="M172.509 159.311L172.264 162.252L173.086 162.086L172.963 158.896L172.509 159.311Z" fill="#1E5E92"/>
<path d="M153.75 145.344C152.759 148.188 153.039 152.026 153.262 153.891C153.344 154.58 153.42 154.999 153.42 154.999C153.42 154.999 151.939 158.399 151.815 158.528C151.691 158.657 147.455 161.262 147.455 161.262L144.493 163.004C144.493 163.004 141.489 161.677 142.929 161.221C143.223 161.102 143.489 160.92 143.706 160.687C145.149 159.307 146.96 155.875 146.96 155.875C146.96 155.875 147.084 154.134 147.537 153.305C147.99 152.477 147.825 143.773 147.825 143.773L147.861 129.584V127.734L153.497 127.776C153.532 128.404 153.614 129.028 153.74 129.644C153.942 130.707 154.204 131.758 154.525 132.791C155.518 136.028 155.106 141.448 153.75 145.344Z" fill="#FFB0B1"/>
<path opacity="0.1" d="M153.42 154.999C153.42 154.999 151.939 158.399 151.815 158.528C151.691 158.657 147.455 161.262 147.455 161.262L144.493 163.004C144.493 163.004 141.489 161.677 142.929 161.221C143.223 161.102 143.489 160.92 143.706 160.687L143.834 161.594L144.821 161.553L153.27 153.895C153.344 154.58 153.42 154.999 153.42 154.999Z" fill="#1E5E92"/>
<path d="M153.318 154.088L144.821 161.798L143.834 161.839L143.628 160.386C143.628 160.386 141.901 162.624 138.064 162.499C138.064 162.499 135.76 164.033 139.175 164.117C142.589 164.2 146.95 163.992 146.95 163.992C146.95 163.992 149.996 159.217 152.545 159.84V163.446H153.328V159.807C153.692 159.56 154.003 159.242 154.241 158.871C154.48 158.499 154.642 158.084 154.717 157.648C154.785 157.199 154.737 156.741 154.577 156.316C154.418 155.891 154.153 155.515 153.808 155.223C153.654 155.078 153.531 154.902 153.446 154.707C153.362 154.511 153.318 154.301 153.318 154.088Z" fill="#1E5E92"/>
<path d="M173.292 149.778C172.744 151.75 173.043 152.861 173.418 153.457V153.469C173.899 154.205 174.234 155.028 174.403 155.892L174.436 156.079L170.57 161.756L168.472 162.587C168.472 162.587 165.099 161.426 165.715 161.094C165.87 161.013 166.111 160.581 166.387 159.985C167.211 158.19 168.349 154.877 168.349 154.877V154.85C168.468 153.482 168.658 152.118 168.868 150.76C169.245 148.317 168.553 142.32 168.553 142.32C168.553 142.32 168.305 135.027 167.77 133.368C167.528 132.525 167.367 131.66 167.289 130.786C167.178 129.748 167.153 128.893 167.153 128.893C167.153 128.893 169.375 125.779 173.447 129.142C173.773 129.41 174.059 129.723 174.298 130.072C177.111 134.103 174.846 142.984 174.846 142.984C174.846 142.984 174.28 146.214 173.292 149.778Z" fill="#FFB0B1"/>
<path opacity="0.1" d="M174.442 156.079L170.576 161.756L168.479 162.587C168.479 162.587 165.105 161.426 165.721 161.094C165.876 161.013 166.117 160.581 166.393 159.985C167.821 159.973 168.561 161.343 168.561 161.343L170.37 161.052C170.37 161.052 172.757 156.328 173.292 156.039C173.828 155.751 173.375 153.882 173.375 153.882V153.407C173.389 153.424 173.402 153.442 173.418 153.459V153.471C173.899 154.207 174.234 155.03 174.403 155.894L174.442 156.079Z" fill="#1E5E92"/>
<path d="M168.685 161.466C168.685 161.466 167.654 159.56 165.68 160.264C165.68 160.264 164.569 162.547 163.459 162.917C162.348 163.286 162.719 164.532 165.229 164.077C167.739 163.622 171.522 163.247 171.522 163.247L171.687 160.924L174.238 157.65C174.238 157.65 175.759 156.261 173.496 153.527V154.003C173.496 154.003 173.95 155.871 173.414 156.16C172.878 156.448 170.5 161.175 170.5 161.175L168.685 161.466Z" fill="#1E5E92"/>
<path opacity="0.1" d="M153.503 127.772C153.539 128.4 153.62 129.024 153.746 129.64C151.426 129.298 149.272 129.468 147.861 129.58V127.73L153.503 127.772Z" fill="#1E5E92"/>
<path opacity="0.1" d="M174.527 130.589C174.527 130.589 171.23 130.751 167.298 130.784C167.186 129.746 167.162 128.891 167.162 128.891C167.162 128.891 169.383 125.777 173.455 129.14C173.781 129.408 174.067 129.721 174.306 130.07C174.37 130.247 174.444 130.42 174.527 130.589Z" fill="#1E5E92"/>
<path d="M174.527 130.215C174.527 130.215 160.085 130.919 155.683 129.675C151.281 128.432 146.919 129.509 146.261 129.221C145.604 128.932 146.138 124.413 146.715 123.294C147.292 122.175 150.457 110.86 150.457 110.86L153.503 94.8627L156.712 93.9722L156.938 93.9078L162.529 92.355L166.626 91.2154C166.626 91.2154 174.772 123.253 174.073 125.615C173.82 126.52 173.779 127.471 173.954 128.395C174.061 129.025 174.254 129.638 174.527 130.215Z" fill="#359CF6"/>
<path d="M142.886 83.9228C142.886 83.9228 140.001 87.0366 142.185 88.7721C144.37 90.5075 145.806 88.9381 145.806 88.9381L142.886 83.9228Z" fill="#C7DAF5"/>
<path opacity="0.1" d="M142.886 83.9228C142.886 83.9228 140.001 87.0366 142.185 88.7721C144.37 90.5075 145.806 88.9381 145.806 88.9381L142.886 83.9228Z" fill="#1E5E92"/>
<path d="M166.195 63.4503C166.195 63.4503 165.857 63.7742 165.348 64.2516C164.623 64.9346 163.549 65.9331 162.597 66.7697C161.278 67.9259 160.19 68.775 160.58 68.0505C160.969 67.326 160.895 66.0639 160.701 64.8827C160.687 64.8038 160.674 64.7249 160.66 64.6481C160.5 63.7806 160.287 62.9238 160.023 62.0823C160.023 62.0823 162.154 59.3089 163.333 58.2149C163.772 57.7998 164.079 57.6295 164.097 57.9181C164.118 58.3063 164.406 59.1636 164.765 60.0728C164.775 60.1019 164.786 60.1289 164.798 60.158C165.037 60.7807 165.307 61.4201 165.544 61.9723C165.907 62.8193 166.195 63.4503 166.195 63.4503Z" fill="#FFB0B1"/>
<path opacity="0.1" d="M164.798 60.158C164.598 61.2429 164.112 62.2538 163.391 63.0849C162.671 63.916 161.742 64.5369 160.701 64.8827C160.537 63.9351 160.311 62.9995 160.023 62.0823C160.023 62.0823 164.036 56.8615 164.097 57.9181C164.112 58.3187 164.425 59.2072 164.798 60.158Z" fill="#1E5E92"/>
<path opacity="0.1" d="M160.301 66.2777L160.821 65.5408C160.821 65.5408 161.165 67.6541 162.43 66.722C163.695 65.7899 163.757 73.7364 163.757 73.7364L162.399 94.1902L152.586 93.5985L152.864 83.7152L153.975 78.7331L156.722 71.4903L158.356 69.0968L160.301 66.2777Z" fill="#1E5E92"/>
<path d="M163.757 73.863L162.521 92.3571L162.391 94.3167L156.92 93.9867L156.714 93.9742L152.592 93.7251L152.87 83.8397L153.981 78.8576L156.728 71.6148L158.362 69.2213L160.308 66.3919L160.827 65.657C160.827 65.657 161.171 67.7703 162.436 66.8382L162.463 66.8195C163.7 66.0307 163.757 73.863 163.757 73.863Z" fill="#1E5E92"/>
<path d="M154.119 77.1263C154.119 77.1263 153.627 78.1642 152.638 77.9961C151.648 77.8279 151.65 81.7327 151.65 81.7327C151.65 81.7327 150.993 82.3555 150.54 81.8157C150.086 81.276 148.891 83.1007 148.891 83.1007L141.402 83.4329C141.402 83.4329 144.734 84.9669 144.081 89.6086C144.081 89.6086 155.395 88.9028 155.766 87.8254C156.137 86.748 154.119 77.1263 154.119 77.1263Z" fill="white"/>
<path opacity="0.03" d="M154.119 77.1263C154.119 77.1263 153.627 78.1642 152.638 77.9961C151.648 77.8279 151.65 81.7327 151.65 81.7327C151.65 81.7327 150.993 82.3555 150.54 81.8157C150.086 81.276 148.891 83.1007 148.891 83.1007L141.402 83.4329C141.402 83.4329 144.734 84.9669 144.081 89.6086C144.081 89.6086 155.395 88.9028 155.766 87.8254C156.137 86.748 154.119 77.1263 154.119 77.1263Z" fill="white"/>
<path d="M132.355 85.8721L134.33 87.5701L150.581 91.0099L148.565 88.9381L132.355 85.8721Z" fill="white"/>
<path d="M160.332 66.9316C160.062 67.3468 159.29 69.4725 158.645 71.3284C158.107 72.8749 157.657 74.2346 157.657 74.2346C157.657 74.2346 156.609 81.1141 156.073 82.3576C155.537 83.601 155.828 88.4503 155.828 88.4503L153.831 100.426C153.831 100.426 152.926 106.602 151.529 110.291C150.15 113.921 148.615 115.624 148.567 115.678C149.186 114.835 152.555 98.2402 152.555 98.2402L153.668 77.3111C153.668 77.3111 153.831 75.3224 153.996 73.6222C154.16 71.9221 157.499 69.6012 157.499 69.6012L160.718 64.9907C161.041 65.4266 160.825 66.1864 160.332 66.9316Z" fill="white"/>
<path d="M151.939 93.8289C151.939 93.8289 147.199 93.6213 144.903 90.8438C142.608 88.0662 150.21 89.7352 150.21 89.7352L152.186 90.1919L151.939 93.8289Z" fill="#FFB0B1"/>
<path opacity="0.1" d="M174.073 125.617C173.82 126.522 173.779 127.473 173.954 128.397C168.783 128.766 163.252 127.359 163.252 127.359C162.222 128.314 159.508 129.721 159.508 129.721L158.028 111.246C157.082 108.755 156.712 95.7034 156.712 95.7034C156.712 95.7034 156.796 95.0205 156.918 93.9971C156.918 93.9721 156.918 93.9452 156.928 93.9203C157.297 91.0618 158.028 85.6956 158.387 84.9711C158.882 83.9747 156.866 81.3238 156.866 81.3238L157.783 73.4457L157.894 72.495C159.827 71.6252 161.309 68.8476 161.309 68.8476L162.447 66.8403C163.683 66.041 163.747 73.8734 163.747 73.8734L162.511 92.3675L166.607 91.2278C166.607 91.2278 174.772 123.255 174.073 125.617Z" fill="#1E5E92"/>
<path d="M179.38 126.894C173.744 129.713 163.5 127.101 163.5 127.101C162.469 128.056 159.755 129.464 159.755 129.464L158.274 110.988C157.33 108.497 156.959 95.446 156.959 95.446C156.959 95.446 158.15 85.708 158.645 84.7137C158.789 84.423 158.719 83.9913 158.548 83.5263C157.707 81.313 157.398 78.9308 157.645 76.5741L158.041 73.1883L158.15 72.2396C160.085 71.3678 161.567 68.5902 161.567 68.5902L162.597 66.7717L164.493 63.4213L165.391 61.8353L165.544 61.9744L166.708 63.0372C166.708 63.0372 167.203 63.4524 167.945 64.0752C169.558 65.4453 172.347 67.8574 173.785 69.3334C175.05 70.6329 175.45 75.6877 175.565 79.4928C175.642 81.9984 175.596 83.9622 175.596 83.9622C174.321 86.0775 177.657 103.06 177.657 103.06C178.434 106.342 179.38 126.894 179.38 126.894Z" fill="white"/>
<path opacity="0.03" d="M168.561 68.5487C168.561 68.5487 164.693 75.9659 165.142 78.7849C165.591 81.604 166.869 84.7946 166.253 85.5399C166.041 85.8222 165.767 86.0514 165.453 86.2095C165.139 86.3676 164.793 86.4503 164.441 86.4512C163.823 86.4927 162.175 87.6531 162.175 87.7777C162.175 87.9022 160.652 87.9022 159.29 88.4835C157.927 89.0647 155.916 89.3948 155.916 89.3948C155.916 89.3948 152.001 89.2703 151.636 89.6439C151.271 90.0176 150.896 92.2533 151.677 94.0365C152.458 95.8197 153.326 97.1503 153.981 97.3932C154.636 97.6361 158.795 96.2328 162.168 95.9007C165.542 95.5685 169.204 92.8761 169.204 92.8761C169.204 92.8761 173.237 91.423 173.944 88.9796C174.65 86.5363 173.08 73.1074 173.08 73.1074C173.08 73.1074 171.893 66.8486 168.561 68.5487Z" fill="#1E5E92"/>
<path opacity="0.03" d="M168.066 67.926C168.066 67.926 164.198 75.3452 164.652 78.1622C165.105 80.9792 166.379 84.1719 165.76 84.9192C165.549 85.2019 165.276 85.4313 164.962 85.5894C164.648 85.7476 164.302 85.8301 163.951 85.8305C163.333 85.872 161.684 87.0325 161.684 87.157C161.684 87.2816 160.161 87.2816 158.799 87.8607C157.437 88.4399 155.426 88.772 155.426 88.772C155.426 88.772 151.51 88.6475 151.148 89.0212C150.785 89.3948 150.406 91.6326 151.189 93.4137C151.972 95.1949 152.837 96.5276 153.493 96.7705C154.148 97.0133 158.307 95.61 161.68 95.28C165.054 94.9499 168.716 92.2533 168.716 92.2533C168.716 92.2533 172.746 90.8002 173.445 88.3589C174.144 85.9177 172.582 72.4846 172.582 72.4846C172.582 72.4846 171.399 66.2279 168.066 67.926Z" fill="#1E5E92"/>
<path d="M168.439 68.175C168.439 68.175 164.571 75.5943 165.025 78.4113C165.478 81.2283 166.752 84.421 166.135 85.1662C165.925 85.4495 165.651 85.6795 165.337 85.8381C165.022 85.9966 164.676 86.0793 164.324 86.0796C163.706 86.1211 162.057 87.2815 162.057 87.404C162.057 87.5265 160.536 87.5286 159.172 88.1098C157.808 88.6911 155.799 89.0211 155.799 89.0211C155.799 89.0211 151.883 88.8966 151.519 89.2703C151.154 89.6439 150.779 91.8817 151.56 93.6628C152.341 95.444 153.208 96.7767 153.864 97.0195C154.519 97.2624 158.678 95.8591 162.051 95.527C165.425 95.1948 169.086 92.5024 169.086 92.5024C169.086 92.5024 173.119 91.0493 173.826 88.606C174.533 86.1626 172.973 72.7337 172.973 72.7337C172.973 72.7337 171.77 66.4853 168.439 68.175Z" fill="white"/>
<path opacity="0.1" d="M168.355 88.0745C168.355 88.0745 165.264 87.4518 166.339 88.4897C167.415 89.5277 167.409 90.4369 168.726 90.3954C170.043 90.3539 168.355 88.0745 168.355 88.0745Z" fill="#1E5E92"/>
<path opacity="0.1" d="M173.579 110.407C173.579 110.407 172.182 111.36 174.855 113.556C177.527 115.752 173.579 110.407 173.579 110.407Z" fill="#1E5E92"/>
<path opacity="0.1" d="M170.912 118.239C170.912 118.364 170.418 122.806 172.268 123.917C174.119 125.027 170.912 118.239 170.912 118.239Z" fill="#1E5E92"/>
<path d="M141.53 83.4225C140.038 83.4744 136.815 83.9332 138.486 87.074C139.964 89.8536 142.447 87.9957 143.844 86.5861C143.503 85.272 142.675 84.1396 141.53 83.4225Z" fill="#FFB0B1"/>
<path opacity="0.1" d="M167.945 64.2018C166.362 65.2917 165.035 66.2113 164.775 66.4023C164.066 66.9316 162.715 70.0392 161.843 71.6252C161.148 72.9019 158.892 73.2299 158.041 73.3108L158.15 72.3621C160.085 71.4903 161.567 68.7127 161.567 68.7127L165.392 61.9578L166.708 63.1639C166.708 63.1639 167.203 63.579 167.945 64.2018Z" fill="#1E5E92"/>
<path d="M167.945 64.0773C166.362 65.1671 165.035 66.0867 164.775 66.2798C164.066 66.8071 162.715 69.9147 161.843 71.5006C161.148 72.7773 158.892 73.1053 158.041 73.1863L158.15 72.2376C160.085 71.3657 161.567 68.5882 161.567 68.5882L165.392 61.8332L166.708 63.0352C166.708 63.0352 167.203 63.4462 167.945 64.0773Z" fill="#DCE7FF"/>
<path d="M164.899 58.7879C164.9 60.034 164.525 61.251 163.823 62.2775C162.995 63.4911 161.762 64.3654 160.348 64.7417C158.935 65.118 157.434 64.9714 156.119 64.3285C154.803 63.6856 153.76 62.5889 153.179 61.2376C152.597 59.8862 152.516 58.3696 152.95 56.963C153.383 55.5564 154.303 54.353 155.542 53.5711C156.781 52.7892 158.257 52.4807 159.703 52.7014C161.149 52.9222 162.468 53.6577 163.421 54.7744C164.374 55.8911 164.899 57.315 164.899 58.7879Z" fill="#FFB0B1"/>
<path opacity="0.1" d="M175.565 79.4949C174.729 78.9763 174.047 78.2388 173.593 77.3609C173.249 76.6759 173.02 75.885 172.433 75.3992C171.903 74.9633 171.197 74.8574 170.537 74.6623C168.369 74.0167 166.552 72.0238 166.484 69.7486C166.451 68.6775 166.782 67.6084 166.632 66.5476C166.547 65.9472 166.31 65.379 165.944 64.8973C165.762 64.6669 165.563 64.451 165.348 64.2517C165.06 63.9776 164.757 63.7119 164.493 63.4213C164.327 63.2414 164.182 63.0429 164.06 62.8297C163.962 62.6552 163.883 62.4708 163.823 62.2796C163.411 61.0091 163.786 59.502 163.333 58.217L163.308 58.1465C163.137 57.6898 162.789 57.2331 162.304 57.1978C161.82 57.1625 161.406 57.5673 160.944 57.7479C159.978 58.1257 158.935 57.4822 158.129 56.8262C157.324 56.1702 156.415 55.4208 155.391 55.5661C154.713 55.6637 154.177 56.1287 153.552 56.3695C153.411 56.4245 153.266 56.4669 153.118 56.4961C153.646 55.1686 154.617 54.0679 155.863 53.3832C157.11 52.6984 158.554 52.4723 159.948 52.7437C161.342 53.0151 162.599 53.7671 163.502 54.8705C164.406 55.9739 164.9 57.3597 164.899 58.79C164.9 59.2219 164.855 59.6526 164.765 60.075C164.775 60.104 164.786 60.131 164.798 60.1601C165.037 60.7828 165.307 61.4222 165.544 61.9744L166.708 63.0373C166.708 63.0373 167.203 63.4524 167.945 64.0752C169.558 65.4453 172.347 67.8575 173.785 69.3334C175.05 70.6371 175.446 75.6898 175.565 79.4949Z" fill="#1E5E92"/>
<path d="M153.48 52.5769C153.775 51.9728 153.921 51.296 154.274 50.7231C154.791 49.8927 155.694 49.3613 156.621 49.0395C159.042 48.1988 164.159 46.9782 165.688 49.0395C165.989 49.4547 166.238 49.9156 166.655 50.202C166.972 50.42 167.355 50.5134 167.704 50.6774C168.678 51.1383 169.301 52.143 169.633 53.1685C169.964 54.194 170.063 55.2942 170.306 56.3508C170.618 57.7064 171.164 58.9914 171.708 60.268C172.349 61.7751 173.029 63.3383 174.265 64.4032C175.953 65.8563 176.326 67.9135 177.892 69.5078C179.747 71.401 179.687 74.5252 178.731 77.0059C178.605 77.3318 178.463 77.6723 178.512 78.019C178.562 78.3656 178.817 78.6812 179.058 78.9573L180.072 80.1094C177.674 80.6927 174.96 79.4306 173.843 77.2156C173.498 76.5306 173.27 75.7417 172.68 75.2539C172.153 74.8179 171.444 74.7142 170.787 74.519C168.619 73.8713 166.801 71.8764 166.733 69.6012C166.7 68.5322 167.032 67.4631 166.881 66.4044C166.798 65.8 166.56 65.2278 166.191 64.7436C165.624 63.9984 164.769 63.4981 164.308 62.6678C163.526 61.279 164.12 59.475 163.557 57.9845C163.384 57.5279 163.038 57.0712 162.554 57.0359C162.07 57.0006 161.655 57.4054 161.192 57.586C160.227 57.9638 159.184 57.3223 158.379 56.6643C157.573 56.0062 156.664 55.2589 155.638 55.4063C154.96 55.5018 154.426 55.9668 153.802 56.2097C153.34 56.3882 152.405 56.548 152.001 56.1557C151.147 55.3648 153.124 53.3159 153.48 52.5769Z" fill="#1E5E92"/>
<path opacity="0.1" d="M174.416 76.5305C174.069 75.8455 173.843 75.0566 173.253 74.5709C172.726 74.1349 172.017 74.0291 171.357 73.8339C169.192 73.1883 167.374 71.1934 167.304 68.9182C167.271 67.8491 167.603 66.778 167.454 65.7193C167.368 65.1188 167.13 64.5506 166.764 64.0689C166.195 63.3237 165.34 62.8234 164.88 61.9931C164.099 60.6064 164.693 58.8024 164.128 57.3098C163.957 56.8552 163.609 56.3985 163.127 56.3612C162.644 56.3238 162.226 56.7327 161.765 56.9134C160.8 57.2912 159.755 56.6476 158.952 55.9917C158.148 55.3357 157.235 54.5863 156.211 54.7316C155.533 54.8292 154.997 55.2942 154.375 55.535C153.913 55.7135 152.975 55.8754 152.572 55.4831C151.722 54.6527 153.699 52.6079 154.053 51.8731C154.348 51.2669 154.494 50.5923 154.849 50.0193C154.867 49.9882 154.888 49.957 154.908 49.9259C154.643 50.1472 154.414 50.4092 154.23 50.7023C153.878 51.2752 153.732 51.9478 153.437 52.5561C153.081 53.2909 151.104 55.3419 151.955 56.166C152.367 56.5604 153.295 56.3985 153.756 56.22C154.375 55.9771 154.915 55.5121 155.593 55.4166C156.623 55.2692 157.53 56.0186 158.333 56.6746C159.137 57.3306 160.188 57.9741 161.148 57.5963C161.61 57.4157 162.014 57.0088 162.508 57.0462C163.003 57.0836 163.333 57.5382 163.512 57.9949C164.075 59.4854 163.481 61.2893 164.262 62.6781C164.724 63.4939 165.579 64.0046 166.146 64.754C166.515 65.2381 166.752 65.8103 166.836 66.4147C166.987 67.4734 166.655 68.5425 166.688 69.6116C166.756 71.8951 168.573 73.8817 170.741 74.5294C171.394 74.7245 172.107 74.8283 172.635 75.2642C173.226 75.7521 173.459 76.5409 173.797 77.2259C174.914 79.4409 177.628 80.7031 180.027 80.1197L179.549 79.5758C177.47 79.607 175.366 78.4154 174.416 76.5305Z" fill="#1E5E92"/>
<path opacity="0.1" d="M160.209 67.0561C159.939 67.4713 159.166 69.597 158.521 71.4529C157.917 71.2162 157.369 69.7071 157.369 69.7071L160.588 65.0944C160.918 65.5511 160.701 66.3088 160.209 67.0561Z" fill="#1E5E92"/>
<path d="M160.332 66.9316C160.062 67.3468 159.29 69.4725 158.645 71.3284C158.041 71.0938 157.493 69.5825 157.493 69.5825L160.711 64.972C161.041 65.4266 160.825 66.1864 160.332 66.9316Z" fill="#DCE7FF"/>
<path d="M141.616 88.1389L139.832 82.4696C139.811 82.4033 139.803 82.3333 139.809 82.2639C139.814 82.1944 139.834 82.1268 139.865 82.0649C139.897 82.003 139.941 81.948 139.994 81.9031C140.047 81.8582 140.108 81.8243 140.174 81.8033C140.307 81.7615 140.451 81.7743 140.574 81.8388C140.698 81.9034 140.791 82.0144 140.833 82.1479L142.618 87.8109L142.441 88.9962L141.616 88.1389Z" fill="#BE8B87"/>
<path opacity="0.1" d="M140.001 81.9714C140.134 81.929 140.278 81.9415 140.402 82.0061C140.526 82.0707 140.62 82.1821 140.662 82.316L142.447 87.9791L142.313 88.8675L142.443 89.0045L142.62 87.8192L140.825 82.1562C140.783 82.0227 140.689 81.9117 140.566 81.8471C140.442 81.7826 140.299 81.7698 140.166 81.8116C140.054 81.8481 139.957 81.9212 139.892 82.0192C139.927 82.0002 139.963 81.9843 140.001 81.9714Z" fill="white"/>
<path d="M141.617 88.1389L142.618 87.8192L142.472 88.7907L142.441 89.0045L142.148 88.6973L141.617 88.1389Z" fill="#EFC8C4"/>
<path d="M142.148 88.6973C142.166 88.6751 142.187 88.6567 142.212 88.6433C142.227 88.6341 142.243 88.6292 142.26 88.6292C142.278 88.6292 142.294 88.6341 142.309 88.6433C142.323 88.6604 142.335 88.6793 142.344 88.6994C142.358 88.7223 142.376 88.7418 142.398 88.7566C142.42 88.7713 142.445 88.7808 142.472 88.7845L142.441 88.9921L142.148 88.6973Z" fill="#727A9C"/>
<path d="M139.822 84.4833C139.822 84.4833 143.401 84.4625 142.558 85.9966C141.715 87.5307 140.399 87.7154 140.399 87.7154L139.822 84.4833Z" fill="#FFB0B1"/>
<path d="M112.635 101.746H112.524C108.08 101.746 104.15 104.046 101.889 107.438C99.6283 104.046 95.6982 101.746 91.2543 101.746H91.1426C87.8076 101.778 84.6199 103.094 82.2721 105.41C79.9244 107.726 78.6065 110.855 78.6047 114.116C78.6047 118.165 80.4186 123.91 83.9555 128.638C90.6944 137.647 101.889 145.528 101.889 145.528C101.889 145.528 113.084 137.648 119.821 128.638C123.359 123.91 125.172 118.165 125.172 114.116C125.17 110.855 123.852 107.727 121.505 105.411C119.157 103.095 115.97 101.778 112.635 101.746ZM111.037 129.331C110.531 129.329 110.038 129.178 109.621 128.897C109.205 128.616 108.885 128.218 108.704 127.756H106.047C105.872 127.755 105.702 127.7 105.56 127.6C105.418 127.5 105.312 127.359 105.256 127.197L104.44 124.793L101.858 133.615C101.807 133.785 101.702 133.934 101.558 134.04C101.413 134.147 101.237 134.204 101.057 134.205H101.004C100.816 134.196 100.636 134.124 100.495 134.001C100.354 133.878 100.26 133.711 100.23 133.529L97.5687 117.879L95.6237 127.14C95.5792 127.316 95.4756 127.472 95.3295 127.584C95.1835 127.695 95.0034 127.756 94.8181 127.756H91.0756C90.9634 127.76 90.8514 127.743 90.7464 127.704C90.6413 127.665 90.5454 127.606 90.4643 127.53C90.3833 127.454 90.3188 127.363 90.2747 127.262C90.2306 127.161 90.2079 127.052 90.2079 126.943C90.2079 126.833 90.2306 126.724 90.2747 126.623C90.3188 126.522 90.3833 126.431 90.4643 126.355C90.5454 126.279 90.6413 126.22 90.7464 126.181C90.8514 126.142 90.9634 126.125 91.0756 126.129H94.1628L96.9179 113.679C96.9631 113.495 97.0724 113.332 97.2269 113.218C97.3814 113.104 97.5717 113.046 97.7652 113.053C97.9586 113.061 98.1433 113.135 98.2875 113.261C98.4318 113.387 98.5267 113.559 98.5561 113.746L101.274 129.71L103.588 121.817C103.636 121.65 103.738 121.504 103.879 121.399C104.019 121.294 104.19 121.236 104.367 121.234H104.383C104.559 121.234 104.729 121.288 104.871 121.389C105.013 121.489 105.118 121.631 105.173 121.793L106.649 126.134H108.671C108.815 125.707 109.076 125.327 109.427 125.036C109.778 124.745 110.204 124.554 110.658 124.485C111.113 124.416 111.578 124.471 112.003 124.644C112.427 124.817 112.794 125.102 113.064 125.466C113.334 125.83 113.495 126.26 113.53 126.709C113.566 127.157 113.474 127.606 113.265 128.007C113.056 128.407 112.737 128.743 112.345 128.978C111.953 129.213 111.502 129.337 111.042 129.337L111.037 129.331Z" fill="#359CF6"/>
</g>
<defs>
<linearGradient id="paint0_linear_16_115" x1="45.5295" y1="165.817" x2="45.5295" y2="38.0788" gradientUnits="userSpaceOnUse">
<stop stop-color="#808080" stop-opacity="0.25"/>
<stop offset="0.54" stop-color="#808080" stop-opacity="0.12"/>
<stop offset="1" stop-color="#808080" stop-opacity="0.1"/>
</linearGradient>
<linearGradient id="paint1_linear_16_115" x1="156.213" y1="164.202" x2="156.213" y2="47.5365" gradientUnits="userSpaceOnUse">
<stop stop-color="#808080" stop-opacity="0.25"/>
<stop offset="0.54" stop-color="#808080" stop-opacity="0.12"/>
<stop offset="1" stop-color="#808080" stop-opacity="0.1"/>
</linearGradient>
<clipPath id="clip0_16_115">
<rect width="208" height="172" fill="white"/>
</clipPath>
</defs>
</svg>
