<svg width="205" height="148" viewBox="0 0 205 148" fill="none" xmlns="http://www.w3.org/2000/svg">
<g clip-path="url(#clip0_16_318)">
<path opacity="0.1" d="M119.109 26.101C105.966 25.6433 93.4394 21.3925 81.4957 16.7426C69.552 12.0927 57.714 6.93983 44.8795 4.4759C36.6276 2.88938 27.1904 2.66625 20.5429 7.09867C14.1445 11.3628 12.0777 18.7243 10.966 25.5545C10.1299 30.6941 9.64481 36.1023 11.9305 40.9148C13.5216 44.2542 16.3452 47.0623 18.2987 50.2618C25.0935 61.3939 20.2899 75.1223 12.9252 86.001C9.47117 91.1066 5.46414 95.9645 2.79908 101.393C0.134024 106.822 -1.10036 113.042 1.23251 118.578C3.54462 124.062 9.05216 128.188 15.0202 131.087C27.1413 136.97 41.4236 138.653 55.351 139.617C86.1803 141.73 117.176 140.814 148.086 139.899C159.526 139.559 171.017 139.216 182.27 137.441C188.519 136.456 194.972 134.894 199.509 131.123C205.268 126.335 206.697 118.231 202.837 112.227C196.363 102.159 178.465 99.6575 173.939 88.8525C171.449 82.9055 174.006 76.2795 177.627 70.7636C185.39 58.9319 198.405 48.5505 199.09 35.0244C199.562 25.7341 193.305 16.4325 183.63 12.036C173.491 7.42391 159.43 8.00633 151.95 15.6288C144.247 23.482 130.711 26.5037 119.109 26.101Z" fill="#359CF6"/>
<path d="M45.7231 137.102C45.7231 137.102 35.3422 129.24 33.3812 119.238C32.5859 115.038 30.4528 111.209 27.3017 108.326C25.7943 106.969 24.1662 105.754 22.4378 104.695" stroke="#535461" stroke-width="2" stroke-miterlimit="10"/>
<path d="M21.1676 98.3944C22.0773 99.6273 22.4888 104.852 22.4888 104.852C22.4888 104.852 17.6249 102.933 16.7132 101.702C16.2755 101.11 16.0903 100.368 16.1984 99.6395C16.3066 98.911 16.6992 98.2553 17.2898 97.8167C17.8805 97.3781 18.6209 97.1926 19.3481 97.3009C20.0753 97.4093 20.7298 97.8026 21.1676 98.3944Z" fill="#359CF6"/>
<path d="M29.8913 102.494C29.9857 104.024 27.4999 108.634 27.4999 108.634C27.4999 108.634 24.4555 104.372 24.3592 102.842C24.3226 102.113 24.5743 101.398 25.0598 100.854C25.5452 100.309 26.2254 99.9778 26.9528 99.932C27.6802 99.8863 28.3964 100.13 28.9461 100.609C29.4957 101.089 29.8347 101.766 29.8894 102.494H29.8913Z" fill="#359CF6"/>
<path d="M38.347 114.278C37.66 115.648 33.1886 118.371 33.1886 118.371C33.1886 118.371 32.7111 113.151 33.3981 111.782C33.7363 111.139 34.3133 110.654 35.0049 110.432C35.6965 110.21 36.4473 110.269 37.096 110.596C37.7446 110.923 38.2391 111.492 38.4731 112.181C38.707 112.87 38.6618 113.623 38.347 114.278Z" fill="#359CF6"/>
<path d="M42.7429 124.633C42.2956 126.099 38.3489 129.539 38.3489 129.539C38.3489 129.539 36.9956 124.476 37.443 123.009C37.658 122.305 38.1433 121.715 38.7923 121.37C39.4413 121.024 40.2008 120.951 40.9036 121.166C41.6064 121.382 42.195 121.868 42.5399 122.518C42.8849 123.168 42.9579 123.929 42.7429 124.633Z" fill="#359CF6"/>
<path d="M23.0003 112.34C24.5103 112.544 29.2836 110.385 29.2836 110.385C29.2836 110.385 25.2558 107.042 23.7383 106.838C23.0099 106.739 22.2726 106.935 21.6883 107.382C21.1041 107.829 20.7209 108.49 20.6231 109.219C20.5252 109.949 20.7207 110.688 21.1665 111.273C21.6123 111.858 22.272 112.242 23.0003 112.34Z" fill="#359CF6"/>
<path d="M28.2945 124.388C29.8045 124.128 33.7058 120.64 33.7058 120.64C33.7058 120.64 28.8627 118.658 27.3546 118.917C26.9935 118.976 26.6478 119.107 26.3373 119.301C26.0267 119.494 25.7576 119.748 25.5455 120.047C25.3333 120.345 25.1823 120.683 25.1011 121.04C25.0199 121.398 25.0102 121.768 25.0725 122.129C25.1348 122.49 25.2679 122.836 25.4641 123.145C25.6604 123.454 25.9158 123.722 26.2157 123.932C26.5156 124.142 26.854 124.29 27.2115 124.368C27.569 124.447 27.9383 124.453 28.2983 124.388H28.2945Z" fill="#359CF6"/>
<path d="M35.0421 135.391C36.5728 135.391 41.0083 132.613 41.0083 132.613C41.0083 132.613 36.5709 129.839 35.0402 129.839C34.3054 129.839 33.6006 130.132 33.081 130.652C32.5614 131.173 32.2695 131.879 32.2695 132.615C32.2695 133.351 32.5614 134.057 33.081 134.578C33.6006 135.099 34.3054 135.391 35.0402 135.391H35.0421Z" fill="#359CF6"/>
<path d="M146.569 69.0977C146.569 69.0977 152.967 57.7424 162.612 54.4711C166.662 53.1236 170.167 50.4968 172.6 46.9847C173.742 45.3057 174.727 43.5251 175.543 41.6655" stroke="#535461" stroke-width="2" stroke-miterlimit="10"/>
<path d="M181.598 39.5854C180.499 40.6519 175.386 41.7563 175.386 41.7563C175.386 41.7563 176.641 36.6696 177.74 35.6012C178.27 35.1038 178.974 34.8349 179.7 34.8524C180.426 34.8699 181.116 35.1724 181.622 35.6947C182.128 36.217 182.409 36.9174 182.404 37.6451C182.4 38.3728 182.11 39.0695 181.598 39.5854Z" fill="#359CF6"/>
<path d="M178.706 48.7812C177.196 49.0799 172.313 47.223 172.313 47.223C172.313 47.223 176.126 43.6302 177.627 43.3371C177.987 43.257 178.359 43.2498 178.723 43.3159C179.086 43.3821 179.432 43.5202 179.741 43.7223C180.05 43.9243 180.316 44.1862 180.522 44.4925C180.729 44.7989 180.873 45.1435 180.944 45.5061C181.016 45.8688 181.015 46.2422 180.941 46.6044C180.867 46.9666 180.721 47.3103 180.513 47.6154C180.304 47.9205 180.037 48.1808 179.727 48.3809C179.417 48.5811 179.07 48.7172 178.706 48.7812Z" fill="#359CF6"/>
<path d="M168.182 58.7428C166.736 58.2417 163.45 54.1647 163.45 54.1647C163.45 54.1647 168.546 52.9961 169.996 53.4972C170.344 53.613 170.666 53.7969 170.943 54.0383C171.219 54.2796 171.445 54.5737 171.608 54.9033C171.77 55.233 171.866 55.5917 171.889 55.9586C171.912 56.3255 171.861 56.6933 171.741 57.0407C171.621 57.388 171.433 57.708 171.189 57.9821C170.944 58.2562 170.648 58.4789 170.317 58.6372C169.986 58.7955 169.626 58.8864 169.26 58.9045C168.893 58.9227 168.527 58.8677 168.182 58.7428Z" fill="#359CF6"/>
<path d="M158.511 64.4837C157.001 64.2341 153.082 60.7642 153.082 60.7642C153.082 60.7642 157.912 58.7485 159.42 58.9981C160.146 59.1177 160.795 59.5213 161.224 60.12C161.653 60.7188 161.826 61.4638 161.707 62.191C161.588 62.9181 161.185 63.568 160.587 63.9977C159.989 64.4273 159.246 64.6015 158.52 64.4819L158.511 64.4837Z" fill="#359CF6"/>
<path d="M168.05 43.2463C168.048 44.7799 170.824 49.2293 170.824 49.2293C170.824 49.2293 173.597 44.7856 173.597 43.2539C173.607 42.8834 173.542 42.5147 173.407 42.1695C173.272 41.8244 173.07 41.5098 172.812 41.2443C172.554 40.9789 172.245 40.7679 171.904 40.6238C171.563 40.4797 171.197 40.4055 170.827 40.4055C170.457 40.4055 170.091 40.4797 169.75 40.6238C169.409 40.7679 169.101 40.9789 168.842 41.2443C168.584 41.5098 168.382 41.8244 168.247 42.1695C168.112 42.5147 168.048 42.8834 168.057 43.2539L168.05 43.2463Z" fill="#359CF6"/>
<path d="M156.833 50.103C157.289 51.5666 161.261 54.9797 161.261 54.9797C161.261 54.9797 162.582 49.9082 162.121 48.4446C161.882 47.7665 161.39 47.2077 160.748 46.8858C160.107 46.564 159.365 46.5043 158.68 46.7192C157.995 46.9341 157.42 47.407 157.076 48.0381C156.732 48.6693 156.646 49.4095 156.836 50.103H156.833Z" fill="#359CF6"/>
<path d="M146.854 58.2663C147.058 59.779 150.395 63.82 150.395 63.82C150.395 63.82 152.548 59.0453 152.344 57.5269C152.304 57.159 152.19 56.8029 152.011 56.4796C151.831 56.1562 151.588 55.8722 151.297 55.6442C151.006 55.4161 150.673 55.2487 150.316 55.1518C149.96 55.0548 149.587 55.0302 149.221 55.0795C148.855 55.1289 148.502 55.251 148.184 55.4389C147.866 55.6267 147.588 55.8764 147.368 56.1734C147.147 56.4703 146.988 56.8084 146.9 57.1678C146.811 57.5272 146.796 57.9007 146.854 58.2663Z" fill="#359CF6"/>
<path opacity="0.25" d="M181.598 39.5854C180.499 40.6519 175.386 41.7563 175.386 41.7563C175.386 41.7563 176.641 36.6696 177.74 35.6012C178.27 35.1038 178.974 34.8349 179.7 34.8524C180.426 34.8699 181.116 35.1724 181.622 35.6947C182.128 36.217 182.409 36.9174 182.404 37.6451C182.4 38.3728 182.11 39.0695 181.598 39.5854Z" fill="black"/>
<path opacity="0.25" d="M178.706 48.7812C177.196 49.0799 172.313 47.223 172.313 47.223C172.313 47.223 176.126 43.6302 177.627 43.3371C177.987 43.257 178.359 43.2498 178.723 43.3159C179.086 43.3821 179.432 43.5202 179.741 43.7223C180.05 43.9243 180.316 44.1862 180.522 44.4925C180.729 44.7989 180.873 45.1435 180.944 45.5061C181.016 45.8688 181.015 46.2422 180.941 46.6044C180.867 46.9666 180.721 47.3103 180.513 47.6154C180.304 47.9205 180.037 48.1808 179.727 48.3809C179.417 48.5811 179.07 48.7172 178.706 48.7812Z" fill="black"/>
<path opacity="0.25" d="M168.182 58.7428C166.736 58.2417 163.45 54.1647 163.45 54.1647C163.45 54.1647 168.546 52.9961 169.996 53.4972C170.344 53.613 170.666 53.7969 170.943 54.0383C171.219 54.2796 171.445 54.5737 171.608 54.9033C171.77 55.233 171.866 55.5917 171.889 55.9586C171.912 56.3255 171.861 56.6933 171.741 57.0407C171.621 57.388 171.433 57.708 171.189 57.9821C170.944 58.2562 170.648 58.4789 170.317 58.6372C169.986 58.7955 169.626 58.8864 169.26 58.9045C168.893 58.9227 168.527 58.8677 168.182 58.7428Z" fill="black"/>
<path opacity="0.25" d="M158.511 64.4837C157.001 64.2341 153.082 60.7642 153.082 60.7642C153.082 60.7642 157.912 58.7485 159.42 58.9981C160.146 59.1177 160.795 59.5213 161.224 60.12C161.653 60.7188 161.826 61.4638 161.707 62.191C161.588 62.9181 161.185 63.568 160.587 63.9977C159.989 64.4273 159.246 64.6015 158.52 64.4819L158.511 64.4837Z" fill="black"/>
<path opacity="0.25" d="M168.05 43.2463C168.048 44.7799 170.824 49.2293 170.824 49.2293C170.824 49.2293 173.597 44.7856 173.597 43.2539C173.607 42.8834 173.542 42.5147 173.407 42.1695C173.272 41.8244 173.07 41.5098 172.812 41.2443C172.554 40.9789 172.245 40.7679 171.904 40.6238C171.563 40.4797 171.197 40.4055 170.827 40.4055C170.457 40.4055 170.091 40.4797 169.75 40.6238C169.409 40.7679 169.101 40.9789 168.842 41.2443C168.584 41.5098 168.382 41.8244 168.247 42.1695C168.112 42.5147 168.048 42.8834 168.057 43.2539L168.05 43.2463Z" fill="black"/>
<path opacity="0.25" d="M156.833 50.103C157.289 51.5666 161.261 54.9797 161.261 54.9797C161.261 54.9797 162.582 49.9082 162.121 48.4446C161.882 47.7665 161.39 47.2077 160.748 46.8858C160.107 46.564 159.365 46.5043 158.68 46.7192C157.995 46.9341 157.42 47.407 157.076 48.0381C156.732 48.6693 156.646 49.4095 156.836 50.103H156.833Z" fill="black"/>
<path opacity="0.25" d="M146.854 58.2663C147.058 59.779 150.395 63.82 150.395 63.82C150.395 63.82 152.548 59.0453 152.344 57.5269C152.304 57.159 152.19 56.8029 152.011 56.4796C151.831 56.1562 151.588 55.8722 151.297 55.6442C151.006 55.4161 150.673 55.2487 150.316 55.1518C149.96 55.0548 149.587 55.0302 149.221 55.0795C148.855 55.1289 148.502 55.251 148.184 55.4389C147.866 55.6267 147.588 55.8764 147.368 56.1734C147.147 56.4703 146.988 56.8084 146.9 57.1678C146.811 57.5272 146.796 57.9007 146.854 58.2663Z" fill="black"/>
<path d="M146.937 68.8727C146.937 68.8727 148.194 55.8931 155.679 48.9911C158.837 46.1146 160.978 42.2903 161.783 38.0916C162.15 36.0955 162.332 34.07 162.329 32.0405" stroke="#535461" stroke-width="2" stroke-miterlimit="10"/>
<path d="M167.021 27.661C166.455 29.083 162.219 32.1691 162.219 32.1691C162.219 32.1691 161.31 27.0086 161.882 25.5866C162.157 24.9038 162.692 24.3585 163.368 24.0708C164.045 23.783 164.808 23.7763 165.489 24.0521C166.171 24.3279 166.715 24.8637 167.002 25.5416C167.29 26.2195 167.296 26.9839 167.021 27.6667V27.661Z" fill="#359CF6"/>
<path d="M168.099 37.252C166.847 38.1332 161.625 38.4225 161.625 38.4225C161.625 38.4225 163.659 33.593 164.911 32.7118C165.208 32.4892 165.546 32.3286 165.906 32.2395C166.266 32.1503 166.64 32.1344 167.006 32.1926C167.372 32.2509 167.723 32.3822 168.037 32.5787C168.352 32.7752 168.624 33.0329 168.837 33.3366C169.05 33.6403 169.201 33.9838 169.279 34.3468C169.358 34.7097 169.362 35.0848 169.294 35.4497C169.225 35.8146 169.084 36.162 168.878 36.4712C168.673 36.7805 168.408 37.0453 168.099 37.2501V37.252Z" fill="#359CF6"/>
<path d="M162.501 50.6362C160.976 50.7648 156.321 48.367 156.321 48.367C156.321 48.367 160.511 45.228 162.036 45.0995C162.769 45.0378 163.495 45.2701 164.057 45.7453C164.618 46.2205 164.968 46.8996 165.03 47.6333C165.091 48.3671 164.859 49.0952 164.385 49.6577C163.911 50.2201 163.233 50.5707 162.501 50.6324V50.6362Z" fill="#359CF6"/>
<path d="M155.987 59.8055C154.505 60.1837 149.515 58.6199 149.515 58.6199C149.515 58.6199 153.114 54.8171 154.596 54.4314C155.307 54.2466 156.063 54.3524 156.696 54.7257C157.33 55.0989 157.789 55.709 157.974 56.4216C158.158 57.1343 158.052 57.8912 157.68 58.5258C157.307 59.1604 156.698 59.6207 155.987 59.8055Z" fill="#359CF6"/>
<path d="M156.119 36.5183C156.738 37.9195 161.068 40.8675 161.068 40.8675C161.068 40.8675 161.804 35.6787 161.185 34.2775C160.877 33.6219 160.324 33.1132 159.647 32.8601C158.969 32.607 158.219 32.6295 157.557 32.9228C156.896 33.2162 156.375 33.7571 156.106 34.43C155.838 35.1029 155.842 35.8544 156.119 36.5239V36.5183Z" fill="#359CF6"/>
<path d="M148.637 47.3384C149.647 48.49 154.656 49.9989 154.656 49.9989C154.656 49.9989 153.811 44.8272 152.801 43.6756C152.563 43.3958 152.271 43.1663 151.944 43.0004C151.616 42.8344 151.259 42.7354 150.893 42.709C150.526 42.6826 150.159 42.7293 149.811 42.8466C149.463 42.9638 149.141 43.1491 148.866 43.3918C148.59 43.6345 148.365 43.9297 148.204 44.2602C148.043 44.5908 147.949 44.9501 147.928 45.3173C147.906 45.6845 147.958 46.0523 148.08 46.3992C148.202 46.7462 148.391 47.0654 148.637 47.3384Z" fill="#359CF6"/>
<path d="M142.807 58.8581C143.607 60.1629 148.29 62.4982 148.29 62.4982C148.29 62.4982 148.33 57.2584 147.535 55.9517C147.14 55.3484 146.525 54.9232 145.822 54.7662C145.119 54.6092 144.382 54.7329 143.768 55.1109C143.154 55.489 142.712 56.0917 142.534 56.7912C142.356 57.4908 142.458 58.2322 142.817 58.8581H142.807Z" fill="#359CF6"/>
<path d="M137.311 18.0417C137.624 16.8901 138.002 15.7328 138.266 14.5661C137.949 15.7328 137.569 16.8939 137.311 18.0417Z" fill="url(#paint0_linear_16_318)"/>
<path d="M135.907 29.1341C135.88 29.0887 135.861 29.0433 135.841 29.0017C135.841 28.9828 135.822 28.9677 135.814 28.9488C135.773 28.9682 135.731 28.9852 135.688 28.9998C135.605 29.032 135.52 29.0622 135.433 29.0868C135.346 29.1114 135.31 29.1246 135.244 29.1397C135.189 29.1586 135.133 29.1732 135.076 29.1832L135.091 29.2173C135.161 29.2021 135.229 29.1889 135.299 29.17L135.318 29.4045C135.397 29.4045 135.471 29.3931 135.542 29.3931C135.576 29.3913 135.61 29.3913 135.644 29.3931C135.792 29.3931 135.92 29.3931 136.022 29.3931C135.982 29.308 135.941 29.2192 135.907 29.1341ZM174.222 90.2368C173.335 89.0398 171.564 76.1926 171.564 76.1926C171.564 76.1926 168.082 67.0573 169.031 63.4116C169.981 59.7658 166.438 50.4377 166.438 50.4377C166.438 50.4377 164.097 49.4184 163.971 47.9057C163.971 47.9057 154.415 44.8801 153.968 42.611C153.605 40.7503 147.679 39.4152 145.55 38.9936C144.9 36.3689 144.247 33.9201 143.766 32.5832C143.636 32.1672 143.513 31.8079 143.4 31.5242C142.586 29.4442 140.072 29.2551 138.249 29.4215C138.17 29.067 138.023 28.7311 137.817 28.4325C137.787 28.3299 137.727 28.2384 137.645 28.1697C137.606 28.1363 137.564 28.1059 137.52 28.0789C137.487 28.0176 137.444 27.9626 137.392 27.9163C137.34 27.8695 137.283 27.8289 137.222 27.7953C137.178 27.7715 137.133 27.7506 137.086 27.7329C136.977 27.6911 136.864 27.6601 136.748 27.6402C136.614 27.6125 136.478 27.5948 136.341 27.5873C136.674 27.4413 136.971 27.2237 137.211 26.95C137.374 26.7578 137.496 26.5337 137.568 26.292C137.627 26.0909 137.654 25.8814 137.647 25.6717C137.598 25.7581 137.541 25.8398 137.477 25.9157C137.556 25.078 137.115 24.227 136.862 23.3931C136.555 22.3075 136.498 21.1664 136.696 20.0556C136.949 18.3802 137.575 16.6859 138 14.9802C138.001 14.9708 138.001 14.9613 138 14.9518C138.223 14.1048 138.36 13.2376 138.411 12.3631C138.485 10.5989 138.034 8.83836 137.309 7.23105C136.665 5.80715 135.716 4.40595 134.263 3.82731C133.183 3.3905 131.973 3.46047 130.811 3.38861C128.202 3.22599 125.715 2.30698 123.234 1.47117C120.754 0.635367 118.203 -0.1248 115.592 0.0208037C112.982 0.166408 110.296 1.42768 109.105 3.74222C108.728 4.46457 108.511 5.26823 108.059 5.94708C107.214 7.22726 105.7 7.8683 104.437 8.75138C103.175 9.63446 102.063 10.8882 101.606 12.3839C101.357 13.1898 101.322 14.0469 101.504 14.8705C101.545 15.0565 101.598 15.2397 101.663 15.4189C101.842 15.9186 102.121 16.3761 102.484 16.7634C102.757 17.0496 103.072 17.2937 103.416 17.4876C103.849 17.7281 104.313 17.9087 104.794 18.0247C104.777 18.0814 104.76 18.1419 104.741 18.2005C104.711 18.297 104.685 18.3896 104.656 18.4936C104.594 18.7262 104.536 18.9626 104.487 19.2008C104.485 19.2178 104.485 19.2349 104.487 19.2519C104.255 20.3275 104.138 21.4248 104.139 22.5252C104.139 23.0456 104.165 23.5656 104.219 24.0833C104.973 31.7568 111.296 37.8098 119.108 38.2031C119.377 38.2164 119.646 38.2239 119.92 38.2239C120.045 38.2239 120.167 38.2239 120.298 38.2239C120.42 38.3866 120.541 38.553 120.656 38.7156C120.771 38.8782 120.877 39.0446 120.977 39.2072L120.703 38.9236L120.43 38.6721C120.356 38.7741 120.273 38.8696 120.182 38.9576C120.004 38.8947 119.822 38.8429 119.637 38.8026C118.854 38.6286 117.661 38.5643 116.09 39.0389C114.647 39.472 112.882 40.3626 110.817 42.055L100.755 48.1061L95.3117 51.4229L93.3507 56.2259C93.3507 56.2259 91.8766 61.9328 90.2364 68.4718C90.1722 68.4907 90.11 68.5096 90.0477 68.5323C89.9148 68.5171 89.7812 68.5096 89.6475 68.5096C88.6959 68.5074 87.7804 68.8747 87.0934 69.5344C86.4064 70.1942 86.0013 71.0949 85.9633 72.0476C82.7018 76.0186 82.5168 79.9896 83.2831 81.8125C83.3525 81.9833 83.4398 82.1462 83.5436 82.2985C84.0456 83.0246 84.9837 84.8967 85.9349 86.8916C85.9104 87.0562 85.8953 87.1942 85.8878 87.2982C85.886 87.3322 85.886 87.3663 85.8878 87.4003C85.8878 87.4003 86.454 95.9683 84.5665 98.4246C84.1532 98.9598 84.2155 99.6632 84.5665 100.442C85.8311 103.245 90.8309 106.987 90.8309 106.987C90.8309 106.987 96.8273 106.955 100.168 106.59C100.159 106.926 100.151 107.261 100.144 107.588C100.068 110.894 100.068 113.664 100.068 113.664L99.9435 117.13C99.9435 117.13 98.811 124.435 98.2448 126.449C97.8881 127.712 98.2995 139.407 98.6581 148.006H157.739C158.433 142.919 157.454 127.464 157.454 127.464C157.454 127.464 156.523 123.469 156.489 119.985C156.487 119.982 156.486 119.977 156.486 119.973C156.486 119.969 156.487 119.965 156.489 119.961C156.489 119.656 156.489 119.359 156.5 119.068L156.929 119.053L157.699 119.027H157.769C157.769 119.027 157.788 118.955 157.831 118.838C157.933 118.546 158.072 118.268 158.244 118.011C158.573 117.525 159.086 117.049 159.858 117.017C160.285 117 160.945 116.654 161.691 116.143C161.696 116.144 161.701 116.144 161.706 116.143C163.712 114.783 166.364 112.274 167.008 111.862C167.893 111.295 172.132 107.513 172.132 107.513C172.132 107.513 172.764 106.711 173.438 105.745L173.463 105.711C174.301 104.5 175.192 103.054 174.973 102.598C174.595 101.781 175.226 99.8277 175.226 99.8277C177.194 96.2179 175.109 91.4337 174.222 90.2368ZM137.724 32.0745C137.742 32.131 137.754 32.1894 137.758 32.2485C137.711 32.1861 137.664 32.1199 137.617 32.0594L137.571 31.9989L137.539 31.9535L137.611 31.8552C137.611 31.8552 137.611 31.8552 137.611 31.8684C137.661 31.9297 137.699 31.9995 137.724 32.0745ZM137.09 30.3991C136.884 30.4407 136.722 30.4785 136.616 30.5069C136.482 30.2687 136.354 30.0304 136.239 29.7883C136.541 29.9642 136.826 30.1687 137.09 30.3991ZM136.735 30.6979C136.735 30.6941 136.735 30.6903 136.735 30.6866L136.75 30.6979C136.828 30.749 136.903 30.7981 136.973 30.8492C137.035 30.8946 137.092 30.938 137.149 30.9834C137.111 31.0496 137.069 31.1177 137.028 31.1725C136.962 31.0685 136.899 30.9683 136.839 30.8643C136.801 30.8227 136.767 30.766 136.735 30.6979ZM135.603 28.3645C135.967 28.3284 136.335 28.3284 136.699 28.3645C136.75 28.3645 136.796 28.3739 136.841 28.3815C136.943 28.3973 137.044 28.4233 137.141 28.459C137.364 28.7716 137.501 29.1374 137.539 29.5198L137.437 29.535L137.337 29.5539C137.149 29.586 136.96 29.6182 136.813 29.6484L136.624 29.6881C136.373 29.743 136.228 29.7846 136.222 29.7865C136.197 29.7354 136.173 29.6881 136.146 29.639C136.105 29.5576 136.061 29.4744 136.024 29.3931C135.986 29.3118 135.937 29.2192 135.897 29.1341C135.871 29.0887 135.852 29.0433 135.831 29.0017C135.831 28.9828 135.812 28.9677 135.805 28.9488C135.794 28.9287 135.784 28.9078 135.776 28.8864C135.661 28.6519 135.556 28.4174 135.454 28.1867C135.442 28.164 135.433 28.1394 135.423 28.1167L135.567 28.1073V28.1564L135.603 28.3645ZM90.5705 145.668C90.5554 142.853 90.3515 139.806 89.7853 136.947C89.5437 135.731 89.2946 134.516 89.0417 133.32C88.9775 133.022 88.9152 132.727 88.8529 132.432L88.2716 132.509H88.2187C86.6333 125.019 84.9761 118.42 84.9761 118.42C84.9761 118.42 81.6844 105.828 82.0657 104.824C82.1148 104.693 82.0525 104.341 81.9128 103.825C81.1163 100.962 77.7907 93.0732 76.628 90.3767C76.628 90.3653 76.6186 90.3521 76.6148 90.3427C76.426 89.8907 76.2901 89.5863 76.2486 89.4974L76.5223 85.4734L76.5374 85.2314L76.5733 84.717L76.5582 84.7038L76.5733 84.4655C76.5733 84.4655 73.7006 82.1056 68.8348 80.4019C68.646 80.3338 68.446 80.2676 68.2478 80.2033C68.4913 78.5752 68.814 76.7372 69.2349 74.9464C69.2746 74.7668 69.318 74.5928 69.3633 74.417C69.4029 74.2411 69.4482 74.0709 69.4935 73.8988C69.5652 73.619 69.6426 73.3429 69.7219 73.0706C69.9842 72.9874 70.2428 72.8947 70.4976 72.7964L70.5958 72.7586C73.7347 71.5349 76.3248 69.2131 77.8864 66.2232C79.448 63.2332 79.8753 59.7776 79.0892 56.4963C78.641 54.6353 77.8133 52.8874 76.6582 51.3623C76.5714 51.2451 76.4789 51.1279 76.3864 51.0125C76.2939 50.8972 76.1826 50.7686 76.0788 50.6513C76.6242 49.409 77.2678 48.2271 77.3207 47.0188C77.3301 46.8658 77.3301 46.7123 77.3207 46.5593V46.5404C77.2509 45.7632 76.9073 44.9766 76.1071 44.1502C74.9387 42.9381 73.2759 42.3235 71.6131 42.0285C69.9502 41.7336 68.2553 41.726 66.5831 41.5274C63.8104 41.1946 61.1095 40.338 58.3369 40.0752C54.9217 39.7583 51.4834 40.3452 48.3655 41.7771C46.3026 42.7225 44.2132 44.3752 44.0886 46.6425C43.9867 48.5164 45.289 50.3129 44.9606 52.1641C44.6341 53.9832 42.7844 55.4147 42.9467 57.2546C43.009 57.9731 43.3771 58.6161 43.8376 59.189C43.9961 59.3781 44.1641 59.5672 44.3378 59.7563C45.0097 60.4692 45.7496 61.1537 46.1252 62.052C46.1403 62.0898 46.1554 62.1276 46.1686 62.1654C46.4875 63.0523 46.3441 64.1736 45.5552 64.6823C45.5595 64.6857 45.5628 64.6903 45.5646 64.6955C45.5759 64.7107 45.5872 64.722 45.5967 64.7371C45.5978 64.7341 45.5978 64.7307 45.5967 64.7277C45.8764 65.0599 46.2535 65.2955 46.6744 65.4008L46.8348 65.45C46.7046 65.5918 46.5819 65.7393 46.4573 65.8944L46.3762 66.0022C46.1682 66.2824 45.979 66.5761 45.81 66.8815C45.7137 67.0517 45.6212 67.2218 45.5438 67.392C45.2851 67.9108 45.0978 68.4623 44.987 69.0315C44.7851 70.2833 45.0701 71.5881 44.7643 72.8134C44.3868 74.3262 43.1921 75.4873 42.5183 76.8922C41.2424 79.5396 41.9653 82.6464 42.2219 85.5699C42.5711 89.5409 42.0049 93.5289 41.4405 97.4735C41.1411 99.5712 40.8416 101.671 40.5421 103.772C39.7872 109.047 39.0322 114.321 38.2772 119.596C38.0016 121.528 37.6751 123.567 36.3898 125.059H36.403C36.403 125.059 36.403 125.07 36.3898 125.074C36.7756 125.243 37.186 125.349 37.6053 125.388C39.2832 125.556 41.0612 124.743 42.5711 123.854C43.7669 123.162 44.8994 122.365 45.9553 121.474C45.8005 122.041 45.6344 122.659 45.457 123.325C45.4576 123.331 45.4576 123.337 45.457 123.344C43.3261 131.475 39.8985 146.381 39.8985 146.381C39.8985 146.381 39.5871 147.03 39.1832 147.996H92.4088C91.786 147.24 91.2066 146.516 90.7536 145.931L90.5705 145.668ZM51.1608 70.4838C51.174 70.4611 51.1835 70.4403 51.1967 70.4195C51.1967 70.48 51.1967 70.5386 51.1967 70.5953C51.1967 70.6521 51.1967 70.7031 51.1967 70.7561C51.1967 70.809 51.1967 70.8033 51.1967 70.8298C51.1967 70.9073 51.1797 70.9849 51.1665 71.0624C51.1665 71.0624 51.1665 71.0718 51.1665 71.0794L51.3552 71.1494L51.5742 71.2401C52.8677 71.752 54.1776 72.2152 55.5038 72.63C55.6397 72.6735 55.7775 72.7151 55.9153 72.7548L55.9436 72.9893C55.9776 73.2294 56.0097 73.4734 56.0399 73.7173C56.0399 73.7173 56.0399 73.7287 56.0399 73.7362C56.1248 74.4113 56.2078 75.0845 56.2814 75.7425C56.2814 75.7425 52.8161 74.4189 52.8595 76.4289C52.8575 76.4649 52.8575 76.5008 52.8595 76.5367C52.8557 76.5846 52.8557 76.6326 52.8595 76.6805C52.8916 78.2462 53.3805 79.1746 53.4786 79.6511C53.4727 79.6709 53.4624 79.689 53.4484 79.7041C53.3647 79.8867 53.3358 80.0897 53.3654 80.2884C53.3621 80.6267 53.3886 80.9646 53.4446 81.2982C53.3427 81.3606 53.2427 81.423 53.1426 81.4873C53.0671 81.5345 52.9954 81.5875 52.9218 81.6404C52.4588 80.0313 51.853 78.4669 51.1118 76.966C50.5927 75.8957 50.0095 74.78 50.0152 73.6057C50.0152 73.5301 50.0152 73.4526 50.0246 73.375C50.0456 73.0347 50.1103 72.6985 50.2171 72.3747C50.2605 72.2518 50.3077 72.1308 50.3606 72.0117C50.4839 71.7286 50.6219 71.4521 50.7739 71.1834C50.8721 71.0057 50.9759 70.8298 51.0759 70.6521C51.108 70.5991 51.1382 70.5443 51.1684 70.4913L51.1608 70.4838ZM135.907 29.1341C135.88 29.0887 135.861 29.0433 135.841 29.0017C135.841 28.9828 135.822 28.9677 135.814 28.9488C135.773 28.9682 135.731 28.9852 135.688 28.9998C135.605 29.032 135.52 29.0622 135.433 29.0868C135.346 29.1114 135.31 29.1246 135.244 29.1397L135.076 29.1832L135.091 29.2173C135.161 29.2021 135.229 29.1889 135.299 29.17L135.318 29.4045C135.397 29.4045 135.471 29.3931 135.542 29.3931H135.644C135.792 29.3931 135.92 29.3931 136.022 29.3931C135.982 29.308 135.941 29.2192 135.907 29.1341Z" fill="url(#paint1_linear_16_318)"/>
<path d="M94.6662 56.9085L93.5337 57.4096C93.5337 57.4096 86.152 86.1409 86.152 88.463C86.152 90.7851 101.804 103.706 101.804 103.706L104.247 87.1904C104.247 87.1904 100.74 49.3163 94.6662 56.9085Z" fill="white"/>
<path d="M129.001 47.7695L122.461 44.3506C122.094 42.7861 121.444 41.3023 120.543 39.9731C119.586 38.5889 118.314 37.2293 116.728 36.5202C112.721 34.72 133.678 25.2708 133.678 25.2708C134.008 26.4059 134.396 27.5231 134.842 28.6178C135.922 31.2879 137.713 34.7408 140.021 35.7241C143.945 37.3976 129.001 47.7695 129.001 47.7695Z" fill="#FFB0B1"/>
<path opacity="0.1" d="M134.842 28.6178C133.947 31.7729 132.085 34.5664 129.519 36.6039C126.953 38.6414 123.813 39.82 120.543 39.9731C119.586 38.5889 118.314 37.2293 116.728 36.5202C112.721 34.72 133.678 25.2708 133.678 25.2708C134.008 26.4059 134.396 27.5231 134.842 28.6178Z" fill="black"/>
<path d="M135.431 23.8469C135.432 26.9413 134.517 29.9663 132.801 32.5395C131.086 35.1126 128.647 37.1184 125.794 38.3029C122.941 39.4875 119.801 39.7977 116.772 39.1944C113.742 38.591 110.96 37.1012 108.776 34.9133C106.592 32.7254 105.104 29.9378 104.502 26.9029C103.899 23.8681 104.208 20.7224 105.39 17.8636C106.572 15.0049 108.574 12.5615 111.142 10.8426C113.71 9.12369 116.73 8.20641 119.818 8.20679C121.871 8.19727 123.905 8.59531 125.804 9.37791C127.702 10.1605 129.427 11.3122 130.879 12.7664C132.33 14.2206 133.48 15.9485 134.261 17.8503C135.043 19.7522 135.44 21.7903 135.431 23.8469Z" fill="#FFB0B1"/>
<path d="M137.685 45.7613L133.427 55.7153L129.671 62.3224H117.648L114.141 53.2892L115.562 43.9214H124.744L130.673 43.5867L132.675 42.9173L133.966 43.651L137.685 45.7613Z" fill="#359CF6"/>
<path opacity="0.1" d="M136.218 32.4924C136.218 32.4924 138.874 33.0597 136.496 35.0131C134.117 36.9664 125.913 43.1783 125.913 43.1783C125.913 43.1783 128.795 45.75 128.198 48.7623L137.747 43.4298L139.446 34.8977C139.446 34.8977 139.636 32.3336 136.218 32.4924Z" fill="black"/>
<path opacity="0.1" d="M127.791 43.1783L121.717 44.1824C121.717 44.1824 122.97 48.8247 122.344 50.1427C122.325 50.1836 122.309 50.226 122.296 50.2694L119.818 56.9804L121.675 62.2505L128.104 53.467L125.913 50.1427C125.913 50.1427 128.229 47.068 129.606 46.0015C130.984 44.935 127.791 43.1783 127.791 43.1783Z" fill="black"/>
<path d="M127.791 42.9192L121.717 43.9214C121.717 43.9214 122.97 48.5637 122.344 49.8817C122.325 49.9227 122.309 49.965 122.296 50.0084L119.818 56.7194L121.675 61.9896L128.104 53.2004L125.913 49.876C125.913 49.876 128.229 46.8013 129.606 45.7348C130.984 44.6683 127.791 42.9192 127.791 42.9192Z" fill="#1E5E92"/>
<path d="M136.473 31.9913C136.473 31.9913 139.129 32.5586 136.748 34.512C134.368 36.4653 125.913 43.1782 125.913 43.1782C125.913 43.1782 129.044 45.2489 128.449 48.2593L137.998 42.9286L139.697 34.3966C139.697 34.3966 139.885 31.8325 136.473 31.9913Z" fill="#359CF6"/>
<path opacity="0.1" d="M120.96 40.5649C120.96 40.5649 121.54 41.6504 124.097 43.6075C124.097 43.6075 119.839 45.8767 121.468 49.0667L114.954 47.3648L113.952 44.2277L120.96 40.5649Z" fill="black"/>
<path d="M120.709 40.3153C120.709 40.3153 121.288 41.4008 123.846 43.3579C123.846 43.3579 119.588 45.6157 121.217 48.8152L114.705 47.1134L113.703 43.9781L120.709 40.3153Z" fill="#359CF6"/>
<path opacity="0.1" d="M137.685 45.7613L133.427 55.7153L129.678 62.3224H117.648L114.141 53.2892L115.56 43.9214H118.114C118.072 46.1074 118.869 48.6753 118.818 49.6302C118.731 51.1997 121.154 59.6675 121.154 59.6675C121.154 59.6675 126.226 51.4493 128.229 50.7175C129.487 50.258 132.154 46.4345 133.964 43.651L137.685 45.7613Z" fill="black"/>
<path d="M154.458 98.1429L154.026 98.6875C154.026 98.6875 157.157 114.434 156.291 118.009C156.144 118.654 156.06 119.311 156.04 119.972V120.001C155.887 123.639 156.984 128.36 156.984 128.36C156.984 128.36 157.859 142.278 157.361 148.002H98.7336C98.3901 139.538 98.0202 128.572 98.3561 127.356C98.9224 125.35 100.055 118.072 100.055 118.072L100.179 114.623C100.179 114.623 100.179 111.289 100.281 107.575C100.325 105.905 100.389 104.152 100.481 102.598C100.6 100.643 100.766 98.9957 100.995 98.1864C101.135 97.5729 101.216 96.9472 101.236 96.3181C101.236 96.2595 101.236 96.199 101.248 96.1385C101.248 95.9494 101.267 95.7451 101.274 95.5352C101.274 95.4766 101.274 95.418 101.274 95.3461C101.31 94.1284 101.297 92.6837 101.257 91.186C101.257 91.1047 101.257 91.0215 101.257 90.9383C101.225 89.8151 101.178 88.6691 101.125 87.58C100.961 84.1762 100.748 81.2982 100.748 81.2982L93.547 57.3964L95.4872 52.6085L100.872 49.3031L110.828 43.2804C115.685 39.281 118.882 39.7613 120.101 40.2C120.22 40.2405 120.336 40.2878 120.449 40.3418C120.486 40.3607 120.517 40.3758 120.545 40.3929C120.584 40.4113 120.621 40.4328 120.656 40.4572C120.322 40.6181 120.032 40.8575 119.811 41.1549C119.561 41.4934 119.383 41.8795 119.288 42.2895C119.224 42.5436 119.179 42.8021 119.154 43.0629C119.129 43.3371 119.12 43.6207 119.12 43.9063C119.133 44.5325 119.187 45.1571 119.28 45.7764C119.28 45.7878 119.28 45.8029 119.28 45.818C119.343 46.2605 119.42 46.6935 119.495 47.1001C119.495 47.107 119.495 47.114 119.495 47.1209C119.582 47.5955 119.669 48.0342 119.728 48.4124C119.739 48.4805 119.748 48.5429 119.758 48.6015C119.799 48.8515 119.819 49.1046 119.816 49.3579C119.838 49.9697 119.92 50.5778 120.062 51.1732C120.111 51.4228 120.167 51.6895 120.23 51.9674C120.315 52.3456 120.407 52.7579 120.507 53.1777C120.562 53.4084 120.62 53.6466 120.681 53.883C120.703 53.9775 120.728 54.0721 120.751 54.1685L120.788 54.3179C121.19 55.9196 121.626 57.5136 121.894 58.478C122.053 59.0453 122.153 59.3952 122.153 59.3952C122.153 59.3952 124.995 54.7907 127.264 52.1698C127.298 52.132 127.328 52.096 127.36 52.062C127.585 51.8029 127.806 51.5666 128.017 51.3586C128.48 50.8972 128.895 50.5681 129.229 50.4471C129.3 50.4209 129.369 50.3887 129.435 50.3507C130.363 49.8231 131.862 47.9075 133.264 45.9012C133.402 45.7121 133.536 45.506 133.672 45.3113C133.983 44.8612 134.285 44.4093 134.57 43.9762C134.789 43.6453 134.999 43.3239 135.197 43.0175C136.141 41.5463 136.805 40.4496 136.805 40.4496L138.115 40.391L138.343 40.3796H138.496L144.444 40.1035C144.444 40.1035 144.7 40.147 145.123 40.2321C145.146 40.2321 145.168 40.2321 145.193 40.2473C147.303 40.6671 153.165 41.9964 153.524 43.8401C153.962 46.0979 163.418 49.1102 163.418 49.1102C163.543 50.623 165.858 51.6195 165.858 51.6195C165.858 51.6195 169.365 60.9041 168.427 64.5424C167.5 68.1352 170.839 77.0227 170.928 77.2723L170.288 78.0816L154.458 98.1429Z" fill="white"/>
<path opacity="0.1" d="M136.216 31.8325C136.216 31.8325 142.005 30.1873 143.321 33.5741C144.636 36.9608 147.579 50.6381 147.579 50.6381C147.579 50.6381 139.938 52.0809 137.936 50.6381C136.761 49.7818 135.307 49.401 133.864 49.5716L129.544 52.5196L128.268 52.1414C128.268 52.1414 135.18 41.847 136.682 38.3487C138.185 34.8504 138.693 33.2866 136.216 31.8325Z" fill="black"/>
<path d="M135.965 31.0761C135.965 31.0761 141.758 29.431 143.079 32.8177C144.4 36.2044 147.337 49.8817 147.337 49.8817C147.337 49.8817 139.699 51.3245 137.694 49.8817C136.52 49.0254 135.067 48.6445 133.625 48.8152L129.301 51.7632L128.025 51.385C128.025 51.385 134.937 41.0906 136.439 37.5924C137.941 34.0941 138.441 32.534 135.965 31.0761Z" fill="white"/>
<path opacity="0.1" d="M97.1085 85.6398C97.1085 85.6398 101.429 86.7063 102.244 89.1532C103.06 91.6002 99.0507 91.6626 99.0507 91.6626C99.0507 91.6626 96.6084 87.3341 97.1085 85.6398Z" fill="black"/>
<path opacity="0.1" d="M113.201 103.706C113.201 103.706 102.62 125.412 105.062 127.483C107.505 129.554 113.201 103.706 113.201 103.706Z" fill="black"/>
<path opacity="0.1" d="M127.791 87.7104C127.791 87.7104 136.245 108.795 134.553 112.051C132.862 115.307 138.185 112.051 138.185 112.051L127.791 87.7104Z" fill="black"/>
<path d="M139.563 108.538C139.563 108.538 111.009 109.918 119.339 118.826C127.668 127.735 144.761 119.204 144.761 119.204L139.563 108.538Z" fill="#FFB0B1"/>
<path opacity="0.1" d="M135.431 23.8469C135.434 25.8987 135.031 27.9307 134.248 29.8262C133.985 29.8564 133.723 29.8753 133.47 29.8867C133.092 29.0565 133.294 28.0978 133.302 27.1845C133.31 26.2711 132.974 25.1971 132.096 24.9513C130.346 24.4577 129.138 27.7348 127.413 27.1429C126.092 26.6928 126.437 24.6846 125.677 23.5255C125.075 22.6084 123.869 22.3493 122.931 21.7744C120.936 20.5472 120.996 18.5844 120.069 16.7275C119.099 14.7817 117.049 15.3565 115.269 16.5043C113.918 17.3779 112.752 18.5485 111.306 19.2443C110.054 19.8494 108.648 20.0688 107.261 20.1009C106.407 20.1341 105.553 20.0437 104.724 19.8324C105.699 16.1628 107.972 12.9735 111.12 10.8592C114.268 8.74489 118.077 7.84999 121.835 8.34137C125.593 8.83274 129.045 10.6768 131.546 13.5298C134.047 16.3827 135.427 20.0497 135.429 23.8469H135.431Z" fill="black"/>
<path d="M115.275 16.0032C113.922 16.8768 112.757 18.0455 111.312 18.7451C110.06 19.3483 108.654 19.5677 107.267 19.5998C105.568 19.6376 103.739 19.3389 102.578 18.1097C101.512 16.9752 101.257 15.2298 101.708 13.7416C102.159 12.2534 103.241 11.0186 104.511 10.1242C105.781 9.22979 107.255 8.61144 108.097 7.33126C108.543 6.6543 108.758 5.85631 109.128 5.13585C110.311 2.83077 112.972 1.58273 115.545 1.42768C118.118 1.27262 120.668 2.04035 123.117 2.87237C125.567 3.7044 128.036 4.61962 130.622 4.7917C131.773 4.86356 132.97 4.7917 134.038 5.22851C135.474 5.81282 136.416 7.21024 137.058 8.63224C137.777 10.2358 138.224 11.9868 138.149 13.7378C137.99 17.4763 135.525 21.1447 136.609 24.7262C136.896 25.6812 137.434 26.6607 137.147 27.6156C136.728 29.0093 134.933 29.3269 133.481 29.3931C133.104 28.563 133.306 27.6024 133.313 26.6909C133.321 25.7795 132.985 24.7035 132.109 24.4577C130.358 23.968 129.15 27.2393 127.428 26.6493C126.117 26.1974 126.456 24.1911 125.694 23.0319C125.092 22.1129 123.884 21.8557 122.948 21.2809C120.953 20.0537 121.013 18.0908 120.086 16.2339C119.108 14.2787 117.057 14.8535 115.275 16.0032Z" fill="#1E5E92"/>
<path d="M87.5883 87.96L86.1482 88.463C86.1482 88.463 86.7144 96.995 84.827 99.4419C82.9395 101.889 91.0253 107.972 91.0253 107.972C91.0253 107.972 102.108 107.91 102.422 107.027C102.735 106.144 101.855 91.2181 101.855 91.2181C101.855 91.2181 95.9062 88.896 96.4064 85.1954C96.4064 85.1954 94.5907 93.9147 91.8992 93.5384C89.2077 93.1621 86.152 90.9099 87.5883 87.96Z" fill="white"/>
<path opacity="0.1" d="M92.3918 96.1782C94.4902 96.1782 96.1912 94.6195 96.1912 92.6969C96.1912 90.7743 94.4902 89.2156 92.3918 89.2156C90.2935 89.2156 88.5924 90.7743 88.5924 92.6969C88.5924 94.6195 90.2935 96.1782 92.3918 96.1782Z" fill="black"/>
<path d="M96.5461 88.2115C96.5461 88.2115 95.7911 65.1267 89.2191 70.2701C82.647 75.4135 82.5828 81.5648 83.8342 83.382C85.0856 85.1992 89.0983 94.2967 89.0983 94.2967C89.7259 94.6611 90.4309 94.8714 91.1553 94.9103C91.8797 94.9491 92.603 94.8155 93.266 94.5203C93.9289 94.2251 94.5126 93.7768 94.9692 93.212C95.4259 92.6472 95.7425 91.9821 95.893 91.2711L96.5461 88.2115Z" fill="#FFB0B1"/>
<path opacity="0.1" d="M137.543 29.7373C137.512 29.6359 137.453 29.5453 137.373 29.4763C137.049 29.1794 136.35 29.0754 135.297 29.1662L135.34 29.6654C136.745 29.5444 137.022 29.8243 137.058 29.8715V29.9188L137.101 29.9812C137.276 30.217 137.401 30.4868 137.466 30.7733C137.531 31.0599 137.535 31.3568 137.479 31.6453C137.171 33.1864 135.282 34.4136 135.263 34.4269L135.218 34.4533L135.189 34.4968C134.374 35.7089 129.763 39.1297 128.557 40.0147L128.451 39.8936C127.911 40.3626 123.166 44.5246 122.91 46.1187C122.744 47.119 121.619 47.5067 121.211 47.6144C120.781 47.2873 119.384 46.1735 118.657 44.9255C117.976 43.7512 120.718 41.4594 120.96 40.5649L120.583 40.1773C120.543 40.321 117.021 43.6188 118.001 45.3037C118.786 46.6557 120.22 47.813 120.722 48.195C120.562 49.6548 119.563 58.2265 118.029 60.2574C116.123 62.7819 114.52 75.5043 114.698 79.9461C114.854 83.8926 113.826 91.3467 110.39 94.5481C109.796 95.1267 109.078 95.5632 108.292 95.8251C107.505 96.0871 106.669 96.1677 105.847 96.0609H105.806H105.764C105.715 96.0609 100.732 96.5715 96.5461 93.0354C93.1204 90.1479 91.1801 85.4356 90.7762 79.0252H90.6931L90.6592 77.1589C91.588 77.0136 92.4245 76.5133 92.9929 75.7632C93.5613 75.013 93.8173 74.0713 93.7072 73.1359C93.5971 72.2006 93.1294 71.3444 92.4024 70.7473C91.6754 70.1502 90.7457 69.8586 89.8087 69.9338C88.8716 70.0091 88.0001 70.4452 87.3773 71.1507C86.7545 71.8562 86.4289 72.7761 86.4689 73.7171C86.5088 74.6581 86.9113 75.5469 87.5917 76.1968C88.2721 76.8467 89.1774 77.2072 90.1175 77.2023H90.159L90.193 79.0574L90.0269 79.0687C90.4421 85.6871 92.4805 90.5828 96.0667 93.6064C98.7924 95.8693 102.274 97.0109 105.808 96.8003C106.058 96.8278 106.31 96.8416 106.563 96.8419C108.182 96.8502 109.741 96.2223 110.904 95.0927C114.522 91.7174 115.622 83.989 115.451 79.9083C115.262 75.2017 116.944 62.9369 118.631 60.7037C120.284 58.5121 121.287 49.9725 121.462 48.3179C122.06 48.1496 123.414 47.6182 123.644 46.2378C123.81 45.2394 126.979 42.1628 128.929 40.459L128.87 40.391C129.92 39.6232 133.183 37.2028 134.801 35.6484C135.303 35.1662 135.801 34.684 136.322 34.2245C136.949 33.6686 137.745 32.7855 137.955 31.7417C138.026 31.3971 138.026 31.0416 137.956 30.6969C137.885 30.3522 137.744 30.0256 137.543 29.7373Z" fill="black"/>
<path d="M120.658 48.0758C120.579 48.021 118.699 46.6727 117.757 45.0503C116.779 43.3654 120.301 40.0695 120.339 39.9258L120.717 40.3134C120.477 41.206 117.734 43.4997 118.416 44.6721C119.275 46.1527 121.083 47.448 121.102 47.4613L120.658 48.0758Z" fill="#353146"/>
<path d="M128.312 40.3815L128.017 39.975C128.078 39.9315 134.006 35.6352 134.94 34.2453L134.97 34.2037L135.014 34.1754C135.033 34.1621 136.922 32.9368 137.23 31.3938C137.286 31.1057 137.282 30.8089 137.217 30.5225C137.152 30.2362 137.028 29.9667 136.852 29.7316L136.809 29.6673V29.6219C136.771 29.5728 136.494 29.2948 135.089 29.4158L135.046 28.9147C136.101 28.8239 136.797 28.9279 137.122 29.2248C137.203 29.2945 137.262 29.3856 137.294 29.4877C137.498 29.7752 137.641 30.1015 137.714 30.4466C137.788 30.7916 137.79 31.1481 137.72 31.494C137.511 32.5397 136.716 33.4228 136.088 33.9768C135.569 34.4363 135.069 34.9223 134.568 35.4007C132.672 37.2217 128.519 40.2321 128.312 40.3815Z" fill="#D6D7D8"/>
<path d="M90.4156 76.5005L89.9155 76.5097L89.9712 79.5555L90.4713 79.5464L90.4156 76.5005Z" fill="#D6D7D8"/>
<path d="M89.874 76.9622C91.891 76.9622 93.5262 75.324 93.5262 73.3032C93.5262 71.2824 91.891 69.6442 89.874 69.6442C87.8569 69.6442 86.2218 71.2824 86.2218 73.3032C86.2218 75.324 87.8569 76.9622 89.874 76.9622Z" fill="#359CF6"/>
<path d="M89.874 76.342C91.5491 76.342 92.9071 74.9815 92.9071 73.3032C92.9071 71.6249 91.5491 70.2644 89.874 70.2644C88.1989 70.2644 86.8409 71.6249 86.8409 73.3032C86.8409 74.9815 88.1989 76.342 89.874 76.342Z" fill="#D6D7D8"/>
<path d="M106.325 96.598C106.073 96.5983 105.821 96.5851 105.57 96.5582C102.037 96.7667 98.5556 95.6254 95.8289 93.3644C92.2427 90.3389 90.2081 85.4488 89.7891 78.8248L90.544 78.7775C90.9479 85.1879 92.8882 89.9021 96.3158 92.7877C100.502 96.3143 105.483 95.8132 105.532 95.8132H105.574H105.615C106.438 95.9194 107.273 95.8386 108.06 95.5767C108.847 95.3148 109.565 94.8785 110.16 94.3004C113.593 91.099 114.622 83.6449 114.465 79.6984C114.277 75.2528 115.879 62.5304 117.787 60.0078C119.458 57.7973 120.494 47.8338 120.505 47.7336L120.534 47.4499L120.813 47.4008C120.83 47.4008 122.461 47.0907 122.664 45.8691C122.929 44.2769 127.666 40.1149 128.204 39.644L128.697 40.2113C126.739 41.9132 123.57 44.9917 123.412 45.992C123.182 47.3762 121.828 47.9057 121.232 48.0721C121.043 49.7285 120.048 58.2662 118.401 60.4579C116.713 62.6911 115.032 74.9559 115.22 79.6625C115.383 83.7432 114.294 91.4734 110.675 94.8469C109.51 95.9793 107.948 96.6081 106.325 96.598Z" fill="#353146"/>
<g opacity="0.1">
<path d="M137.039 19.3767C137.349 18.2308 137.722 17.0773 137.983 15.9162C137.671 17.083 137.296 18.2308 137.039 19.3767Z" fill="black"/>
<path d="M133.881 28.3815C133.504 27.5513 133.706 26.5907 133.713 25.6793C133.721 24.7678 133.385 23.7013 132.509 23.4461C130.758 22.9563 129.55 26.2296 127.828 25.6377C126.507 25.1857 126.856 23.1794 126.094 22.0203C125.492 21.1013 124.286 20.8441 123.35 20.2692C121.353 19.042 121.413 17.0792 120.488 15.2223C119.516 13.2746 117.468 13.8494 115.687 14.9991C114.333 15.8727 113.169 17.0433 111.723 17.741C110.472 18.3442 109.065 18.5636 107.678 18.5957C105.989 18.6354 104.151 18.3348 102.99 17.1057C102.095 16.1602 101.772 14.7741 101.957 13.475C101.925 13.5639 101.897 13.6528 101.869 13.7416C101.416 15.2298 101.68 16.979 102.739 18.1098C103.9 19.3389 105.738 19.6377 107.427 19.5998C108.816 19.5677 110.221 19.3483 111.474 18.7451C112.923 18.0455 114.088 16.8768 115.437 16.0032C117.219 14.8535 119.269 14.2787 120.239 16.2264C121.164 18.0833 121.105 20.0461 123.1 21.2733C124.044 21.8406 125.243 22.1054 125.847 23.0244C126.602 24.1873 126.268 26.1898 127.581 26.6418C129.301 27.2318 130.509 23.9604 132.26 24.4502C133.136 24.696 133.474 25.7738 133.464 26.6834C133.455 27.5929 133.259 28.5554 133.632 29.3856C135.084 29.3194 136.879 29.0074 137.3 27.6081C137.358 27.4072 137.384 27.1987 137.379 26.9897C136.765 28.0505 135.188 28.3228 133.881 28.3815Z" fill="black"/>
</g>
<path opacity="0.1" d="M167.993 74.9748L170.184 77.2969C170.184 77.2969 171.938 90.093 172.814 91.29C173.689 92.487 175.758 97.2484 173.816 100.824C173.816 100.824 173.189 102.77 173.565 103.585C173.94 104.4 170.749 108.479 170.749 108.479C170.749 108.479 166.553 112.242 165.675 112.807C164.798 113.373 160.166 117.888 158.601 117.951C157.036 118.013 156.525 119.959 156.525 119.959L147.696 120.273C147.696 120.273 142.818 120.018 141.758 120.708C141.758 120.708 142.324 113.242 136.875 108.348L143.824 105.839C143.824 105.839 146.456 104.704 147.269 103.519C147.781 102.792 148.507 102.244 149.345 101.951C149.345 101.951 151.285 100.571 151.348 99.8183C151.41 99.0657 153.72 98.1429 153.72 98.1429L152.412 86.9578L153.101 68.3886C153.101 68.3886 155.292 52.8297 159.926 53.709C164.56 54.5883 167.993 74.9748 167.993 74.9748Z" fill="black"/>
<path d="M168.748 74.9748L170.939 77.2969C170.939 77.2969 172.693 90.093 173.569 91.29C174.444 92.487 176.513 97.2484 174.571 100.824C174.571 100.824 173.946 102.77 174.322 103.585C174.697 104.4 171.504 108.479 171.504 108.479C171.504 108.479 167.308 112.242 166.43 112.807C165.553 113.373 160.921 117.888 159.356 117.951C157.791 118.013 157.28 119.959 157.28 119.959L148.451 120.273C148.451 120.273 143.57 120.018 142.513 120.708C142.513 120.708 143.079 113.242 137.63 108.348L144.579 105.839C144.579 105.839 147.211 104.704 148.024 103.519C148.536 102.792 149.262 102.244 150.1 101.951C150.1 101.951 152.04 100.571 152.103 99.8183C152.165 99.0657 154.475 98.1429 154.475 98.1429L153.167 86.9578L153.856 68.3886C153.856 68.3886 156.047 52.8297 160.681 53.709C165.315 54.5883 168.748 74.9748 168.748 74.9748Z" fill="white"/>
<path opacity="0.1" d="M160.602 93.7331C160.602 93.7331 167.051 92.0313 168.742 94.1113C170.434 96.1914 160.602 93.7331 160.602 93.7331Z" fill="black"/>
<path opacity="0.1" d="M159.099 96.5866C161.291 98.124 168.053 98.1864 168.053 98.1864L159.099 96.5866Z" fill="black"/>
<path opacity="0.1" d="M162.418 104.271C162.606 104.334 167.066 109.103 168.939 107.66C170.811 106.217 162.418 104.271 162.418 104.271Z" fill="black"/>
<path opacity="0.1" d="M102.352 64.2474C102.352 64.2474 103.662 73.2824 103.016 76.9622C102.371 80.642 104.726 85.2011 104.726 85.2011L102.352 64.2474Z" fill="black"/>
<path d="M73.3533 67.9215C71.8433 69.1071 70.7411 71.9133 69.9427 74.9975C68.5498 80.3773 68.0949 86.6155 68.0949 86.6155C68.0949 86.6155 56.0719 83.8547 56.9477 82.601C57.4988 81.8125 56.759 75.8711 56.1418 71.5635C55.7737 69.0182 55.4453 67.0422 55.4453 67.0422C55.4453 67.0422 77.4868 64.6577 73.3533 67.9215Z" fill="#FFB0B1"/>
<path opacity="0.1" d="M73.3533 67.67C71.8433 68.8575 70.7411 71.6618 69.9427 74.746C67.5473 75.4747 64.9996 75.5404 62.5699 74.9362C60.1402 74.332 57.919 73.0803 56.1418 71.3139C55.7737 68.7668 55.4453 66.7907 55.4453 66.7907C55.4453 66.7907 77.4868 64.4081 73.3533 67.67Z" fill="black"/>
<path d="M79.8159 60.9117C79.8171 64.2007 78.6569 67.3841 76.5407 69.8985C74.4244 72.4129 71.4886 74.0961 68.2527 74.6504C65.0168 75.2046 61.6895 74.5941 58.8597 72.9268C56.0299 71.2595 53.8801 68.6431 52.7907 65.5405C51.7013 62.4378 51.7425 59.0492 52.9072 55.9741C54.0719 52.8991 56.2848 50.3359 59.1544 48.7384C62.0239 47.1408 65.3651 46.6118 68.5865 47.245C71.808 47.8782 74.702 49.6328 76.7563 52.1981C78.736 54.6693 79.8153 57.743 79.8159 60.9117Z" fill="#FFB0B1"/>
<path opacity="0.1" d="M90.7781 148.002H86.8145L86.4804 140.988L86.1312 133.729C86.1312 133.729 87.0315 133.595 88.466 133.394L89.0454 133.317H89.0926C89.4059 134.79 89.7155 136.302 90.0137 137.813C90.5101 140.496 90.7684 143.217 90.7856 145.945C90.7856 146.134 90.7856 146.323 90.7856 146.5C90.797 147.005 90.7856 147.51 90.7781 148.002Z" fill="black"/>
<path d="M90.0174 148.002H40.3099C40.5251 147.512 40.6685 147.215 40.6685 147.215C40.6685 147.215 44.6454 129.784 46.6668 122.41C46.6674 122.403 46.6674 122.397 46.6668 122.391C46.9194 121.389 47.2243 120.401 47.5803 119.431C47.6033 119.365 47.6331 119.302 47.669 119.242C48.6694 117.612 49.9226 115.856 48.1692 113.346C46.4158 110.837 47.0368 99.7956 47.0368 99.7956C47.0368 99.7956 49.1658 90.3843 51.4194 85.3656C51.7614 84.5883 52.2468 83.8826 52.8501 83.2856C53.0462 83.0933 53.2556 82.9151 53.4767 82.7523C53.6448 82.6258 53.82 82.509 54.0014 82.4025L54.0372 82.3798C54.9839 81.8421 56.0352 81.5151 57.1194 81.4211C57.8896 81.3404 58.667 81.3621 59.4315 81.4854C63.0856 82.0224 66.0111 82.9206 68.3365 83.9436C74.6386 86.7177 76.5468 90.4353 76.5846 90.5128L76.5997 90.545C76.8526 91.1369 80.5519 99.7899 81.8845 103.827C82.2299 104.878 82.4186 105.618 82.3431 105.82C81.9656 106.822 85.2233 119.369 85.2233 119.369C85.2233 119.369 86.7333 125.42 88.2432 132.513C88.3093 132.808 88.3716 133.103 88.432 133.402C88.7019 134.69 88.9699 136.002 89.2285 137.312C89.7295 140.013 89.9878 142.753 90.0005 145.5C90.0281 146.356 90.0338 147.19 90.0174 148.002Z" fill="#359CF6"/>
<path opacity="0.1" d="M56.8231 77.1059C56.8231 77.1059 53.3937 75.7822 53.4352 77.7904C53.4767 79.7986 54.2713 80.7592 54.0203 81.0523C53.7693 81.3454 54.1449 83.1021 54.1449 83.1021C54.1449 83.1021 58.7785 83.1021 60.9075 84.0628C63.0366 85.0234 70.8845 86.9484 71.8868 87.5346C72.889 88.1208 76.6053 90.7492 76.6053 90.7492L76.9394 85.7722C76.9394 85.7722 73.0985 82.5935 66.7963 80.9635C60.4942 79.3335 56.8231 77.1059 56.8231 77.1059Z" fill="black"/>
<path d="M56.8231 76.8544C56.8231 76.8544 53.3937 75.5307 53.4352 77.5389C53.4767 79.5471 54.2713 80.5077 54.0203 80.8008C53.7693 81.0939 54.1449 82.8507 54.1449 82.8507C54.1449 82.8507 58.7785 82.8507 60.9075 83.8132C63.0366 84.7757 70.8845 86.6988 71.8868 87.2831C72.889 87.8674 76.6053 90.4977 76.6053 90.4977L76.9432 85.5358C76.9432 85.5358 73.1023 82.3571 66.8001 80.7271C60.498 79.0971 56.8231 76.8544 56.8231 76.8544Z" fill="#359CF6"/>
<path opacity="0.1" d="M67.1757 88.8318C67.1757 88.8318 73.7289 95.9399 73.3948 97.9084C73.0607 99.8769 67.1757 88.8318 67.1757 88.8318Z" fill="black"/>
<path opacity="0.1" d="M56.5306 114.509C56.5306 114.509 51.7271 118.943 50.3115 119.195C48.8959 119.446 51.3968 120.282 53.0237 119.615C54.6507 118.947 58.1198 117.191 58.1198 117.191L56.5306 114.509Z" fill="black"/>
<path d="M91.969 148.002H80.7671C79.2005 146.64 77.7189 145.379 76.7752 144.621C75.2652 143.407 74.1762 141.62 73.4816 140.183C73.3249 139.856 73.1891 139.549 73.0739 139.271C72.8678 138.792 72.6863 138.303 72.5303 137.806L80.8256 132.87C81.2841 133.261 81.7148 133.683 82.1147 134.134L82.2148 134.249C82.6753 134.794 83.0811 135.412 83.117 135.919C83.1585 136.509 84.7968 138.791 86.4709 140.983C88.1696 143.212 89.9098 145.343 90.025 145.487C90.025 145.487 90.3119 145.878 90.7799 146.48C91.1102 146.915 91.5179 147.437 91.969 148.002Z" fill="#FFB0B1"/>
<path opacity="0.1" d="M76.7563 52.1981C76.3581 53.0982 76.0014 54.0324 75.9485 55.0346C75.7994 57.9278 76.041 64.3967 72.8437 65.849C71.2601 66.5638 69.5652 64.9943 67.8288 64.9565C66.5793 64.93 65.4336 65.7242 64.6711 66.7169C63.9086 67.7097 63.4348 68.8878 62.8818 70.011C62.3784 71.0305 61.7985 72.0103 61.1473 72.942C60.9526 73.2271 60.7381 73.4982 60.5055 73.7532C58.5559 72.929 56.8198 71.6698 55.4295 70.0716C54.0392 68.4734 53.0314 66.5783 52.4829 64.5307C51.9344 62.4832 51.8596 60.3372 52.2643 58.2563C52.669 56.1754 53.5424 54.2145 54.8181 52.5231C56.0938 50.8316 57.738 49.4542 59.6255 48.4958C61.513 47.5374 63.594 47.0233 65.7098 46.9927C67.8257 46.9621 69.9206 47.4158 71.8349 48.3192C73.7492 49.2226 75.4324 50.5518 76.7563 52.2057V52.1981Z" fill="black"/>
<path d="M75.6975 54.524C75.5465 57.4172 75.79 63.8862 72.5908 65.3365C71.0072 66.0513 69.3123 64.4837 67.5758 64.4459C66.3264 64.4175 65.1826 65.2136 64.4182 66.2045C63.6537 67.1954 63.1838 68.3753 62.6289 69.5005C62.1253 70.5199 61.5455 71.4997 60.8943 72.4314C60.5055 72.9836 60.0752 73.5377 59.4769 73.8478C58.435 74.3924 57.1723 74.086 56.0549 73.7362C54.6054 73.2786 53.1772 72.763 51.7705 72.1894C51.8027 71.9766 51.8191 71.7617 51.8195 71.5465C51.778 71.6259 51.7327 71.6996 51.6874 71.7791L51.5987 71.9341C51.4383 72.2178 51.2816 72.5014 51.1382 72.7926C51.0834 72.9042 51.0306 73.0195 50.9834 73.1349C50.7936 73.5641 50.6744 74.0214 50.6304 74.4888C50.5342 75.7501 51.1552 76.9471 51.7063 78.0816C53.8259 82.4706 55.1357 87.6026 53.5409 92.2071C52.8501 94.2097 51.6534 95.9891 50.7796 97.9235C49.2519 101.35 48.8023 105.161 49.4904 108.849C49.9264 111.141 50.8003 113.41 50.5851 115.734C50.2077 119.734 46.765 122.71 43.3166 124.756C41.4537 125.857 39.1737 126.836 37.1957 125.966C38.4565 124.492 38.7811 122.451 39.0529 120.526C39.7966 115.276 40.5421 110.023 41.2895 104.767C41.5877 102.676 41.8853 100.584 42.1823 98.4927C42.7372 94.5633 43.2996 90.5904 42.9524 86.6364C42.6994 83.7224 41.986 80.6288 43.2468 77.9909C43.9131 76.5935 45.1003 75.4362 45.4702 73.931C45.7741 72.7075 45.491 71.4065 45.691 70.1604C45.8005 69.5934 45.9859 69.0439 46.2422 68.5266C46.5684 67.8247 46.9944 67.1737 47.5067 66.594C47.0009 66.4465 46.529 66.2442 46.2422 65.8206C47.0538 65.2912 47.1764 64.098 46.8084 63.2017C46.4403 62.3053 45.7042 61.6227 45.0417 60.9155C44.3793 60.2083 43.7413 59.3838 43.6583 58.4194C43.4978 56.5833 45.3286 55.1613 45.6514 53.3497C45.9779 51.506 44.6869 49.7134 44.7907 47.847C44.9115 45.5911 46.9801 43.9516 49.0224 43.0005C52.1041 41.5712 55.5084 40.9841 58.8899 41.2986C61.6417 41.5596 64.3049 42.4124 67.0492 42.7433C68.7045 42.9324 70.3825 42.9513 72.0264 43.2425C73.6704 43.5337 75.3181 44.1483 76.4751 45.3566C79.5252 48.5429 75.8711 51.1657 75.6975 54.524Z" fill="#FFE0D0"/>
<path opacity="0.1" d="M73.1457 140.185C72.1831 139.767 70.4316 140.016 67.4249 139.099C64.4182 138.182 63.8387 134.037 63.8387 134.037V134.024C63.8029 133.929 63.5235 133.313 61.6323 131.153C59.5429 128.769 55.0263 116.725 55.0263 116.725C55.0263 116.725 51.0212 112.416 51.1476 110.827C51.2741 109.239 50.4361 105.013 50.5191 100.285C50.6022 95.5579 59.5354 92.4227 59.5354 92.4227C76.7356 89.3688 72.6851 109.235 72.2265 110.74C71.7679 112.246 74.1479 116.311 74.1479 116.311C73.8119 118.081 75.5257 120.821 75.5257 120.821C75.5257 120.821 75.941 123.245 76.0259 124.166C76.0306 124.209 76.0401 124.251 76.0542 124.291C76.3298 125.159 78.5758 125.946 79.4894 126.424C80.4501 126.927 83.5398 131.318 83.5398 131.318C84.2061 134.542 74.1045 140.608 73.1457 140.185Z" fill="black"/>
<path d="M73.6458 139.428C72.6851 139.008 70.9317 139.26 67.9269 138.341C64.9221 137.422 64.3408 133.281 64.3408 133.281V133.267C64.3068 133.171 64.0256 132.556 62.1344 130.397C60.045 128.013 55.5283 115.967 55.5283 115.967C55.5283 115.967 51.5232 111.659 51.6478 110.071C51.7723 108.483 50.9381 104.256 51.0211 99.5327C51.1042 94.8091 60.0318 91.6758 60.0318 91.6758C77.232 88.6218 73.1815 108.488 72.7229 109.994C72.2642 111.499 74.6443 115.564 74.6443 115.564C74.3083 117.334 76.0221 120.074 76.0221 120.074C76.0221 120.074 76.4373 122.498 76.5242 123.419C76.5273 123.462 76.5362 123.504 76.5506 123.544C76.8262 124.412 79.0722 125.199 79.9876 125.677C80.9464 126.178 84.0381 130.571 84.0381 130.571C84.7081 133.789 74.6065 139.856 73.6458 139.428Z" fill="#359CF6"/>
<path opacity="0.1" d="M60.3715 102.048C60.3715 102.048 67.8854 109.99 69.8464 109.99C71.8075 109.99 60.3715 102.048 60.3715 102.048Z" fill="black"/>
<path d="M73.6458 139.428C72.6851 139.008 70.9317 139.26 67.9269 138.341C64.9221 137.422 64.3408 133.281 64.3408 133.281V133.268C66.332 131.944 71.3752 128.205 73.3627 126.838C74.7613 125.88 75.9032 124.471 76.5713 123.537C76.8469 124.405 79.093 125.191 80.0084 125.67C80.9672 126.171 84.0588 130.563 84.0588 130.563C84.7081 133.789 74.6065 139.856 73.6458 139.428Z" fill="#359CF6"/>
<g opacity="0.1">
<path d="M46.2535 65.8415C46.2629 65.8566 46.2761 65.8698 46.2875 65.8849C46.3441 65.8131 46.4026 65.7412 46.463 65.6732C46.3987 65.7358 46.3285 65.7922 46.2535 65.8415Z" fill="black"/>
<path d="M50.6323 74.5096C50.7116 73.4601 51.2722 72.5354 51.7969 71.6127C51.4534 71.4803 51.1099 71.346 50.7701 71.2061C50.8025 70.994 50.8189 70.7797 50.8192 70.5651C50.2888 71.5105 49.7113 72.4409 49.6301 73.5055C49.5338 74.7687 50.1548 75.9638 50.7059 77.0983C52.8274 81.4854 54.1354 86.6175 52.5405 91.2238C51.8478 93.2245 50.6531 95.0058 49.7792 96.9402C48.2521 100.366 47.8031 104.177 48.492 107.864C48.9242 110.158 49.8 112.425 49.5848 114.749C49.2073 118.749 45.7665 121.725 42.3163 123.769C40.9064 124.605 39.2586 125.371 37.6826 125.316C37.5368 125.551 37.374 125.776 37.1957 125.987C39.1756 126.863 41.4537 125.878 43.3166 124.773C46.7688 122.731 50.2171 119.762 50.5946 115.755C50.8098 113.431 49.934 111.164 49.4999 108.87C48.8108 105.183 49.2585 101.373 50.7833 97.9462C51.6515 96.0136 52.8595 94.2305 53.5446 92.2298C55.1395 87.6234 53.8296 82.4914 51.7101 78.1043C51.1608 76.9622 50.5361 75.7728 50.6323 74.5096Z" fill="black"/>
<path d="M76.4713 45.3793C76.2857 45.1885 76.0863 45.0115 75.8749 44.8499C78.1625 47.8224 74.8594 50.3488 74.6952 53.5483C74.548 56.4415 74.7896 62.9123 71.5904 64.3608C70.0087 65.0775 68.3119 63.508 66.5774 63.4702C65.326 63.4437 64.1822 64.2398 63.4178 65.2307C62.6534 66.2215 62.1834 67.4015 61.6304 68.5247C61.1259 69.544 60.5454 70.5238 59.894 71.4557C59.5165 72.0098 59.0748 72.5619 58.4746 72.8739C57.4365 73.4166 56.1738 73.1122 55.0546 72.7605C53.9662 72.4176 52.8878 72.0394 51.8195 71.6259C51.8173 71.8228 51.8009 72.0194 51.7704 72.214C53.1785 72.7888 54.6073 73.3044 56.0568 73.7608C57.1742 74.1125 58.4369 74.4169 59.4768 73.8742C60.0752 73.5622 60.5093 73.0082 60.8962 72.4541C61.5481 71.5235 62.128 70.5443 62.6307 69.525C63.1857 68.4018 63.6537 67.2199 64.42 66.2291C65.1863 65.2382 66.3282 64.444 67.5777 64.4705C69.3142 64.5083 71.011 66.0778 72.5926 65.3611C75.7918 63.9127 75.5484 57.4418 75.6975 54.5486C75.8711 51.1846 79.5252 48.5637 76.4713 45.3793Z" fill="black"/>
</g>
<path opacity="0.1" d="M51.6006 71.936C51.4401 72.2197 51.2835 72.5033 51.14 72.7945C51.0853 72.9061 51.0324 73.0214 50.9853 73.1368C49.9962 72.1384 47.5879 69.7652 46.244 69.0296C46.5708 68.3279 46.9967 67.6771 47.5086 67.097C47.5086 67.097 50.7116 68.7932 51.6006 71.936Z" fill="black"/>
<path d="M51.6893 71.781C50.9475 68.4169 47.5086 66.5959 47.5086 66.5959C46.9962 67.1757 46.5703 67.8266 46.244 68.5285C47.6615 69.3057 50.2737 71.9114 51.14 72.7945L51.6893 71.781Z" fill="#359CF6"/>
</g>
<defs>
<linearGradient id="paint0_linear_16_318" x1="137.788" y1="18.0417" x2="137.788" y2="14.5661" gradientUnits="userSpaceOnUse">
<stop stop-color="#808080" stop-opacity="0.25"/>
<stop offset="0.54" stop-color="#808080" stop-opacity="0.12"/>
<stop offset="1" stop-color="#808080" stop-opacity="0.1"/>
</linearGradient>
<linearGradient id="paint1_linear_16_318" x1="106.231" y1="148.002" x2="106.231" y2="4.73266e-06" gradientUnits="userSpaceOnUse">
<stop stop-color="#808080" stop-opacity="0.25"/>
<stop offset="0.54" stop-color="#808080" stop-opacity="0.12"/>
<stop offset="1" stop-color="#808080" stop-opacity="0.1"/>
</linearGradient>
<clipPath id="clip0_16_318">
<rect width="205" height="148" fill="white"/>
</clipPath>
</defs>
</svg>
