<svg xmlns="http://www.w3.org/2000/svg" viewBox="0 0 160 160" role="img" aria-label="Default female doctor avatar">
  <defs>
    <linearGradient id="bg" x1="0" y1="0" x2="1" y2="1">
      <stop offset="0%" stop-color="#5B8DEF"/>
      <stop offset="100%" stop-color="#3B6BC8"/>
    </linearGradient>
    <linearGradient id="coat" x1="0" y1="0" x2="0" y2="1">
      <stop offset="0%" stop-color="#FFFBFA"/>
      <stop offset="100%" stop-color="#F0E8F2"/>
    </linearGradient>
  </defs>
  <circle cx="80" cy="80" r="80" fill="url(#bg)"/>
  <path d="M34 78c4-36 20-52 46-52s42 16 46 52c-8-18-24-28-46-28S42 60 34 78z" fill="#2C1B16"/>
  <circle cx="80" cy="64" r="27" fill="#F3C3A3"/>
  <path d="M44 78c6 22 18 34 36 34s30-12 36-34c-8 10-20 16-36 16S52 88 44 78z" fill="#2C1B16"/>
  <path d="M36 148c4-34 22-50 44-50s40 16 44 50" fill="url(#coat)"/>
  <path d="M68 98h24v42H68z" fill="#3B6BC8"/>
  <circle cx="80" cy="112" r="4.5" fill="#E8A0B8"/>
  <path d="M72 112h16" stroke="#C97995" stroke-width="2" stroke-linecap="round"/>
</svg>
