<svg width="18" height="18" viewBox="0 0 18 18" fill="none" xmlns="http://www.w3.org/2000/svg">
<g clip-path="url(#clip0_67_151)">
<path d="M4.84204 11.5301C5.1527 11.5301 5.40454 11.2783 5.40454 10.9676C5.40454 10.657 5.1527 10.4051 4.84204 10.4051C4.53138 10.4051 4.27954 10.657 4.27954 10.9676C4.27954 11.2783 4.53138 11.5301 4.84204 11.5301Z" fill="black"/>
<path d="M6.84844 15.1875H3.375C3.00566 15.1875 2.63993 15.1148 2.2987 14.9734C1.95747 14.8321 1.64743 14.6249 1.38626 14.3637C0.858816 13.8363 0.5625 13.1209 0.5625 12.375V5.625C0.5625 4.87908 0.858816 4.16371 1.38626 3.63626C1.91371 3.10882 2.62908 2.8125 3.375 2.8125H14.625C15.3709 2.8125 16.0863 3.10882 16.6137 3.63626C17.1412 4.16371 17.4375 4.87908 17.4375 5.625V8.05444C17.4375 8.20362 17.3782 8.3467 17.2727 8.45219C17.1673 8.55767 17.0242 8.61694 16.875 8.61694C16.7258 8.61694 16.5827 8.55767 16.4773 8.45219C16.3718 8.3467 16.3125 8.20362 16.3125 8.05444V5.625C16.3125 5.17745 16.1347 4.74822 15.8182 4.43176C15.5018 4.11529 15.0726 3.9375 14.625 3.9375H3.375C2.92745 3.9375 2.49822 4.11529 2.18176 4.43176C1.86529 4.74822 1.6875 5.17745 1.6875 5.625V12.375C1.6875 12.8226 1.86529 13.2518 2.18176 13.5682C2.49822 13.8847 2.92745 14.0625 3.375 14.0625H6.84844C6.99762 14.0625 7.1407 14.1218 7.24619 14.2273C7.35167 14.3327 7.41094 14.4758 7.41094 14.625C7.41094 14.7742 7.35167 14.9173 7.24619 15.0227C7.1407 15.1282 6.99762 15.1875 6.84844 15.1875Z" fill="black"/>
<path d="M12.375 3.9375H5.625V2.25C5.625 1.31962 6.38212 0.5625 7.3125 0.5625H10.6875C11.6179 0.5625 12.375 1.31962 12.375 2.25V3.9375ZM6.75 2.8125H11.25V2.25C11.25 1.94006 10.998 1.6875 10.6875 1.6875H7.3125C7.002 1.6875 6.75 1.94006 6.75 2.25V2.8125Z" fill="black"/>
<path d="M12.9375 17.4375C10.4563 17.4375 8.4375 15.4187 8.4375 12.9375C8.4375 10.4563 10.4563 8.4375 12.9375 8.4375C15.4187 8.4375 17.4375 10.4563 17.4375 12.9375C17.4375 15.4187 15.4187 17.4375 12.9375 17.4375ZM12.9375 9.5625C11.0762 9.5625 9.5625 11.0762 9.5625 12.9375C9.5625 14.7988 11.0762 16.3125 12.9375 16.3125C14.7988 16.3125 16.3125 14.7988 16.3125 12.9375C16.3125 11.0762 14.7988 9.5625 12.9375 9.5625Z" fill="black"/>
<path d="M5.40454 5.54175C5.40454 5.23109 5.1527 4.97925 4.84204 4.97925C4.53138 4.97925 4.27954 5.23109 4.27954 5.54175V8.35425C4.27954 8.66491 4.53138 8.91675 4.84204 8.91675C5.1527 8.91675 5.40454 8.66491 5.40454 8.35425V5.54175Z" fill="black"/>
<path d="M13.7205 6.948V5.54175C13.7205 5.39256 13.6612 5.24949 13.5557 5.144C13.4502 5.03851 13.3071 4.97925 13.158 4.97925C13.0088 4.97925 12.8657 5.03851 12.7602 5.144C12.6547 5.24949 12.5955 5.39256 12.5955 5.54175V6.948H13.7205Z" fill="black"/>
<path d="M1.125 6.3855H16.875V7.5105H1.125V6.3855ZM11.9053 14.0361C11.7967 13.9339 11.7331 13.7928 11.7284 13.6438C11.7238 13.4947 11.7785 13.35 11.8806 13.2412L12.2867 12.8087C12.3433 12.7486 12.3747 12.6691 12.3744 12.5865V10.9682C12.3744 10.819 12.4337 10.6759 12.5392 10.5704C12.6447 10.4649 12.7878 10.4057 12.9369 10.4057C13.0861 10.4057 13.2292 10.4649 13.3347 10.5704C13.4402 10.6759 13.4994 10.819 13.4994 10.9682V12.7845C13.4994 13.0264 13.4072 13.2587 13.2418 13.4347L12.6996 14.0113C12.5974 14.1199 12.4563 14.1836 12.3073 14.1882C12.1582 14.1929 12.0135 14.1381 11.9047 14.0361H11.9053Z" fill="black"/>
</g>
<defs>
<clipPath id="clip0_67_151">
<rect width="18" height="18" fill="white"/>
</clipPath>
</defs>
</svg>
