<svg width="18" height="18" viewBox="0 0 18 18" fill="none" xmlns="http://www.w3.org/2000/svg">
<path d="M1.99508 13.4939C1.41697 13.4939 0.852184 13.3463 0.340325 13.0589C0.076966 12.9233 -0.0250375 12.584 0.132293 12.3287C0.655029 11.4934 0.843791 10.4723 0.604455 9.51208C0.356384 8.51658 -0.00255564 7.67816 1.37172e-05 6.62429C0.00892082 2.92695 3.08637 -0.0704668 6.77995 0.00126105C10.3475 0.0731174 13.2877 3.07207 13.2877 6.64057C13.2877 11.3011 8.40348 14.5732 4.09155 12.7735C3.49721 13.24 2.75017 13.4939 1.99508 13.4939ZM1.29261 12.356C2.10487 12.6082 3.01841 12.4067 3.64478 11.8012C3.72013 11.7283 3.81597 11.6802 3.91944 11.6634C4.0229 11.6466 4.12904 11.6618 4.22361 11.707C7.91522 13.472 12.26 10.7055 12.2599 6.64057C12.2599 3.60727 9.79231 1.08986 6.75927 1.02879C3.63356 0.966697 1.03529 3.4982 1.02776 6.62678C1.02532 7.62776 1.41586 8.42773 1.62929 9.37595C1.85415 10.3752 1.7357 11.4319 1.29261 12.356Z" fill="black"/>
<path d="M15.3054 17.3006C14.5503 17.3006 13.8032 17.0467 13.209 16.5803C10.9158 17.5373 8.1881 17.1015 6.30789 15.4777C6.09309 15.2922 6.06937 14.9677 6.25483 14.7529C6.44034 14.5382 6.76481 14.5143 6.9796 14.6999C8.6472 16.14 11.0894 16.464 13.0769 15.5138C13.1714 15.4686 13.2776 15.4534 13.381 15.4702C13.4845 15.487 13.5803 15.5351 13.6557 15.608C14.282 16.2135 15.1956 16.4152 16.0079 16.1628C15.4852 15.0725 15.4128 13.8235 15.8178 12.6672C15.8215 12.6568 15.8254 12.6466 15.8297 12.6364C16.1255 11.939 16.2746 11.1979 16.2728 10.4336C16.2695 9.08602 15.8212 7.83949 14.9763 6.82867C14.7943 6.61087 14.8233 6.28683 15.0411 6.10484C15.2588 5.9228 15.5829 5.95183 15.7649 6.16958C16.7514 7.34982 17.2967 8.86321 17.3005 10.4311C17.3027 11.3291 17.1284 12.2006 16.7826 13.0218C16.4194 14.0732 16.5865 15.199 17.1681 16.1354C17.3256 16.3907 17.2235 16.7301 16.9601 16.8658C16.4483 17.1531 15.8834 17.3006 15.3054 17.3006Z" fill="black"/>
<path d="M6.64368 7.47889C7.09275 7.47889 7.4568 7.11504 7.4568 6.6662C7.4568 6.21737 7.09275 5.85352 6.64368 5.85352C6.19461 5.85352 5.83057 6.21737 5.83057 6.6662C5.83057 7.11504 6.19461 7.47889 6.64368 7.47889Z" fill="black"/>
<path d="M3.64808 7.47889C4.09715 7.47889 4.46119 7.11504 4.46119 6.6662C4.46119 6.21737 4.09715 5.85352 3.64808 5.85352C3.19901 5.85352 2.83496 6.21737 2.83496 6.6662C2.83496 7.11504 3.19901 7.47889 3.64808 7.47889Z" fill="black"/>
<path d="M9.63953 7.47889C10.0886 7.47889 10.4526 7.11504 10.4526 6.6662C10.4526 6.21737 10.0886 5.85352 9.63953 5.85352C9.19046 5.85352 8.82642 6.21737 8.82642 6.6662C8.82642 7.11504 9.19046 7.47889 9.63953 7.47889Z" fill="black"/>
</svg>
