<svg width="20" height="20" viewBox="0 0 20 20" fill="none" xmlns="http://www.w3.org/2000/svg">
<path d="M18.421 13.9564C18.3892 13.93 14.7958 11.3584 13.8208 11.527C13.3522 11.6098 13.084 11.929 12.547 12.5692C12.3985 12.7473 12.2467 12.9225 12.0916 13.0948C11.7522 12.9842 11.4211 12.8495 11.101 12.6916C9.44831 11.887 8.113 10.5517 7.3084 8.899C7.15052 8.57885 7.01577 8.2478 6.9052 7.9084C7.0816 7.747 7.3288 7.5388 7.4344 7.45C8.071 6.916 8.3902 6.6478 8.473 6.1786C8.6428 5.2072 6.07 1.6108 6.0436 1.5784C5.92643 1.41223 5.77384 1.27415 5.59682 1.17413C5.41981 1.07411 5.22279 1.01463 5.02 1C3.9772 1 1 4.8616 1 5.5126C1 5.5504 1.0546 9.3928 5.7928 14.2126C10.6072 18.9454 14.4496 19 14.4874 19C15.1384 19 19 16.0228 19 14.98C18.9854 14.7771 18.9259 14.5801 18.8257 14.403C18.7256 14.226 18.5873 14.0734 18.421 13.9564ZM14.4214 17.7964C13.897 17.7532 10.6726 17.3278 6.6412 13.3672C2.6602 9.3142 2.2456 6.0808 2.2042 5.5798C2.99067 4.34539 3.94048 3.22301 5.0278 2.2432C5.0518 2.2672 5.0836 2.3032 5.1244 2.35C5.9583 3.48834 6.67665 4.70696 7.2688 5.9878C7.07624 6.18152 6.8727 6.36402 6.6592 6.5344C6.32812 6.78667 6.02409 7.0726 5.752 7.3876L5.6062 7.5916L5.6494 7.8382C5.77638 8.38824 5.97085 8.92047 6.2284 9.4228C7.15113 11.3176 8.68226 12.8485 10.5772 13.771C11.0794 14.0289 11.6117 14.2236 12.1618 14.3506L12.4084 14.3938L12.6124 14.248C12.9286 13.9747 13.2157 13.6695 13.4692 13.3372C13.657 13.1128 13.9084 12.8134 14.0032 12.7288C15.2877 13.3204 16.5094 14.0396 17.65 14.8756C17.6998 14.9176 17.7346 14.95 17.758 14.971C16.7783 16.0587 15.656 17.0087 14.4214 17.7952V17.7964Z" fill="#263238"/>
</svg>
