<svg width="16" height="20" viewBox="0 0 16 20" fill="none" xmlns="http://www.w3.org/2000/svg">
<path d="M14.631 5.34002C14.6215 5.32902 14.6119 5.31786 14.6014 5.30746C14.591 5.29691 14.5798 5.28737 14.5688 5.27783C13.9185 4.64322 13.0301 4.25137 12.0519 4.25137C10.0637 4.25137 8.44612 5.86887 8.44612 7.85713C8.44612 8.83563 8.83812 9.72419 9.47303 10.3745C9.48242 10.3854 9.49196 10.3962 9.50225 10.4066C9.51265 10.417 9.5235 10.4264 9.53436 10.4357C10.1847 11.0707 11.0733 11.4627 12.0519 11.4627C14.04 11.4627 15.6575 9.84523 15.6575 7.85713C15.6575 6.87881 15.2656 5.99037 14.631 5.34002ZM12.0519 5.36071C12.5395 5.36071 12.9947 5.50185 13.3797 5.74479L9.93954 9.18475C9.68835 8.78747 9.5552 8.327 9.55561 7.85698C9.55561 6.48061 10.6754 5.36071 12.0519 5.36071H12.0519ZM12.0519 10.3532C11.5641 10.3532 11.1089 10.2121 10.7239 9.96931L14.1641 6.52917C14.4069 6.91411 14.5481 7.36921 14.5481 7.85698C14.5481 9.23346 13.4282 10.3532 12.0519 10.3532ZM6.36886 6.36825C6.36901 6.3681 6.36916 6.3681 6.36916 6.36798L6.36946 6.36768L8.00353 4.73358C9.08501 3.6521 9.08501 1.89244 8.00353 0.811111C6.9222 -0.27037 5.16254 -0.27037 4.08106 0.811111L0.812434 4.07989C0.288538 4.60375 0 5.30029 0 6.0411C0 6.78192 0.288575 7.4785 0.812434 8.00235C1.35316 8.54296 2.06333 8.81332 2.77365 8.81332C3.48382 8.81332 4.19418 8.54293 4.7349 8.00235L6.36886 6.36825ZM4.86563 1.59549C5.19011 1.27116 5.61614 1.10889 6.04231 1.10889C6.46849 1.10889 6.89463 1.27113 7.21915 1.59549C7.86799 2.24452 7.86799 3.30016 7.21915 3.94916L5.97685 5.19126L3.62349 2.83778L4.86563 1.59549ZM1.59681 7.21779C1.28259 6.90356 1.1095 6.48561 1.1095 6.0411C1.1095 5.5966 1.28263 5.17868 1.59685 4.86442L2.83896 3.6222L5.19247 5.97572L3.95033 7.21782C3.30149 7.8667 2.2457 7.8667 1.59685 7.21782L1.59681 7.21779ZM10.3679 13.1734C9.51704 12.3225 8.51379 11.714 7.54291 11.4601C6.46729 11.1789 5.54309 11.3561 4.94014 11.959C4.33704 12.5621 4.16 13.4863 4.44122 14.5618C4.69517 15.5326 5.30349 16.5359 6.15449 17.3868C7.34822 18.5806 8.75655 19.2285 9.92486 19.2283C10.5791 19.2283 11.1582 19.0253 11.5823 18.6011C12.1852 17.9982 12.3625 17.0739 12.0811 15.9986C11.8273 15.0276 11.2188 14.0243 10.3679 13.1734ZM10.7979 17.8168C10.4894 18.1251 9.92899 18.2017 9.26031 18.0267C8.4771 17.8219 7.65276 17.3161 6.9391 16.6022C6.22524 15.8885 5.71941 15.0642 5.51462 14.281C5.33961 13.6123 5.41619 13.0519 5.72456 12.7436C5.9242 12.5439 6.22949 12.4414 6.60136 12.4414C6.80397 12.4414 7.02637 12.4717 7.26211 12.5335C8.04536 12.7383 8.86966 13.2441 9.58337 13.958C10.2972 14.6717 10.803 15.496 11.0078 16.2792C11.1828 16.948 11.1062 17.5082 10.7979 17.8168Z" fill="#263238"/>
<path d="M8.36857 14.2449L7.22561 15.3878C7.00911 15.6045 7.00911 15.9557 7.22561 16.1723C7.27708 16.2239 7.33822 16.2649 7.40553 16.2927C7.47285 16.3206 7.54501 16.335 7.61788 16.3349C7.75976 16.3349 7.9018 16.2807 8.01018 16.1724L9.15311 15.0294C9.36965 14.8127 9.36965 14.4616 9.15311 14.2449C8.93641 14.0283 8.58527 14.0283 8.36857 14.2449Z" fill="#263238"/>
</svg>
