<svg width="16" height="18" viewBox="0 0 16 18" fill="none" xmlns="http://www.w3.org/2000/svg">
<path d="M14.6606 0.757232C13.871 -0.0323419 12.6726 -0.186432 11.7207 0.348681C11.3158 0.107158 10.7827 0.160455 10.4345 0.508642C10.1096 0.833627 10.0411 1.31702 10.2285 1.70905L5.95989 5.97769C5.40028 6.53731 5.13509 7.35142 5.27751 8.15161L1.98238 11.4467C1.49972 11.9294 1.39819 13.3793 1.38272 13.6651C1.37144 13.874 1.54413 14.0464 1.75274 14.0351C2.03849 14.0197 3.48844 13.9181 3.9711 13.4355L7.26626 10.1403C8.05313 10.2803 8.87013 10.028 9.44015 9.45802L13.709 5.18917C14.101 5.37588 14.5851 5.3074 14.9092 4.98333C15.2574 4.63511 15.3106 4.10207 15.0692 3.69717C15.6044 2.74535 15.4503 1.54691 14.6606 0.757232ZM14.1634 1.25445C14.6698 1.7608 14.8104 2.50221 14.5576 3.14012L12.2778 0.86031C12.9158 0.607607 13.6571 0.748127 14.1634 1.25445ZM10.6831 2.24881L13.169 4.7347L11.2833 6.62045H6.32798C6.45345 6.46337 6.23425 6.70426 10.6831 2.24881ZM8.94297 8.96077C8.50063 9.40317 7.84975 9.57751 7.24461 9.41586C7.12332 9.38352 6.99401 9.41819 6.90528 9.50692L3.47392 12.9382C3.31547 13.0967 2.71188 13.2331 2.11893 13.2991C2.18601 12.7036 2.32554 12.0979 2.47956 11.9439L5.91088 8.51252C5.99965 8.42375 6.03435 8.29438 6.0019 8.17313C5.92653 7.89124 5.92502 7.59962 5.98869 7.32358H10.5801L8.94297 8.96077ZM14.412 4.48611C14.2749 4.62322 14.0519 4.62319 13.9148 4.48611L10.9317 1.503C10.71 1.28127 10.8693 0.903025 11.1803 0.903025C11.2703 0.903025 11.3603 0.937303 11.4288 1.00582L14.4119 3.98893C14.5491 4.12601 14.5491 4.34904 14.412 4.48611ZM1.67065 14.8021C1.53885 14.8021 1.41809 14.8758 1.3579 14.9931C1.18385 15.3321 0.615967 16.4723 0.615967 16.9115C0.615967 17.493 1.0891 17.9661 1.67065 17.9661C2.25221 17.9661 2.72534 17.493 2.72534 16.9115C2.72534 16.4723 2.15746 15.3321 1.9834 14.9931C1.92318 14.8758 1.80245 14.8021 1.67065 14.8021ZM1.67065 17.263C1.4768 17.263 1.31909 17.1053 1.31909 16.9117C1.32138 16.7863 1.47459 16.3934 1.67069 15.9618C1.86672 16.3932 2.01986 16.786 2.02222 16.9117C2.02208 17.1054 1.86444 17.263 1.67065 17.263Z" fill="#263238" stroke="#263238" stroke-width="0.3"/>
</svg>
