<svg width="12" height="12" viewBox="0 0 12 12" fill="none" xmlns="http://www.w3.org/2000/svg">
<g clip-path="url(#clip0_220_122)">
<path d="M9.04688 5.39062C9.30576 5.39062 9.51562 5.18076 9.51562 4.92188C9.51562 4.66299 9.30576 4.45312 9.04688 4.45312C8.78799 4.45312 8.57812 4.66299 8.57812 4.92188C8.57812 5.18076 8.78799 5.39062 9.04688 5.39062Z" fill="#5B5B5B"/>
<path d="M10.125 0.9375H9.51562V0.46875C9.51562 0.209859 9.30577 0 9.04688 0C8.78798 0 8.57812 0.209859 8.57812 0.46875V0.9375H6.44531V0.46875C6.44531 0.209859 6.23545 0 5.97656 0C5.71767 0 5.50781 0.209859 5.50781 0.46875V0.9375H3.39844V0.46875C3.39844 0.209859 3.18858 0 2.92969 0C2.6708 0 2.46094 0.209859 2.46094 0.46875V0.9375H1.875C0.841125 0.9375 0 1.77863 0 2.8125V10.125C0 11.1589 0.841125 12 1.875 12H5.46094C5.71983 12 5.92969 11.7901 5.92969 11.5312C5.92969 11.2724 5.71983 11.0625 5.46094 11.0625H1.875C1.35806 11.0625 0.9375 10.6419 0.9375 10.125V2.8125C0.9375 2.29556 1.35806 1.875 1.875 1.875H2.46094V2.34375C2.46094 2.60264 2.6708 2.8125 2.92969 2.8125C3.18858 2.8125 3.39844 2.60264 3.39844 2.34375V1.875H5.50781V2.34375C5.50781 2.60264 5.71767 2.8125 5.97656 2.8125C6.23545 2.8125 6.44531 2.60264 6.44531 2.34375V1.875H8.57812V2.34375C8.57812 2.60264 8.78798 2.8125 9.04688 2.8125C9.30577 2.8125 9.51562 2.60264 9.51562 2.34375V1.875H10.125C10.6419 1.875 11.0625 2.29556 11.0625 2.8125V5.48438C11.0625 5.74327 11.2724 5.95312 11.5312 5.95312C11.7901 5.95312 12 5.74327 12 5.48438V2.8125C12 1.77863 11.1589 0.9375 10.125 0.9375Z" fill="#5B5B5B"/>
<path d="M9.16406 6.32812C7.60031 6.32812 6.32812 7.60031 6.32812 9.16406C6.32812 10.7278 7.60031 12 9.16406 12C10.7278 12 12 10.7278 12 9.16406C12 7.60031 10.7278 6.32812 9.16406 6.32812ZM9.16406 11.0625C8.11727 11.0625 7.26562 10.2109 7.26562 9.16406C7.26562 8.11725 8.11727 7.26562 9.16406 7.26562C10.2109 7.26562 11.0625 8.11725 11.0625 9.16406C11.0625 10.2109 10.2109 11.0625 9.16406 11.0625Z" fill="#5B5B5B"/>
<path d="M9.84375 8.69531H9.63281V8.20312C9.63281 7.94423 9.42295 7.73438 9.16406 7.73438C8.90517 7.73438 8.69531 7.94423 8.69531 8.20312V9.16406C8.69531 9.42295 8.90517 9.63281 9.16406 9.63281H9.84375C10.1026 9.63281 10.3125 9.42295 10.3125 9.16406C10.3125 8.90517 10.1026 8.69531 9.84375 8.69531Z" fill="#5B5B5B"/>
<path d="M7.00781 5.39062C7.2667 5.39062 7.47656 5.18076 7.47656 4.92188C7.47656 4.66299 7.2667 4.45312 7.00781 4.45312C6.74893 4.45312 6.53906 4.66299 6.53906 4.92188C6.53906 5.18076 6.74893 5.39062 7.00781 5.39062Z" fill="#5B5B5B"/>
<path d="M4.96875 7.42969C5.22763 7.42969 5.4375 7.21982 5.4375 6.96094C5.4375 6.70205 5.22763 6.49219 4.96875 6.49219C4.70987 6.49219 4.5 6.70205 4.5 6.96094C4.5 7.21982 4.70987 7.42969 4.96875 7.42969Z" fill="#5B5B5B"/>
<path d="M2.92969 5.39062C3.18857 5.39062 3.39844 5.18076 3.39844 4.92188C3.39844 4.66299 3.18857 4.45312 2.92969 4.45312C2.6708 4.45312 2.46094 4.66299 2.46094 4.92188C2.46094 5.18076 2.6708 5.39062 2.92969 5.39062Z" fill="#5B5B5B"/>
<path d="M2.92969 7.42969C3.18857 7.42969 3.39844 7.21982 3.39844 6.96094C3.39844 6.70205 3.18857 6.49219 2.92969 6.49219C2.6708 6.49219 2.46094 6.70205 2.46094 6.96094C2.46094 7.21982 2.6708 7.42969 2.92969 7.42969Z" fill="#5B5B5B"/>
<path d="M2.92969 9.46875C3.18857 9.46875 3.39844 9.25888 3.39844 9C3.39844 8.74112 3.18857 8.53125 2.92969 8.53125C2.6708 8.53125 2.46094 8.74112 2.46094 9C2.46094 9.25888 2.6708 9.46875 2.92969 9.46875Z" fill="#5B5B5B"/>
<path d="M4.96875 9.46875C5.22763 9.46875 5.4375 9.25888 5.4375 9C5.4375 8.74112 5.22763 8.53125 4.96875 8.53125C4.70987 8.53125 4.5 8.74112 4.5 9C4.5 9.25888 4.70987 9.46875 4.96875 9.46875Z" fill="#5B5B5B"/>
<path d="M4.96875 5.39062C5.22763 5.39062 5.4375 5.18076 5.4375 4.92188C5.4375 4.66299 5.22763 4.45312 4.96875 4.45312C4.70987 4.45312 4.5 4.66299 4.5 4.92188C4.5 5.18076 4.70987 5.39062 4.96875 5.39062Z" fill="#5B5B5B"/>
</g>
<defs>
<clipPath id="clip0_220_122">
<rect width="12" height="12" fill="white"/>
</clipPath>
</defs>
</svg>
