<svg width="22" height="22" viewBox="0 0 22 22" fill="none" xmlns="http://www.w3.org/2000/svg">
<path d="M17.875 2.66544H4.12498C3.23181 2.66635 2.37548 3.02156 1.74391 3.65312C1.11235 4.28469 0.757136 5.14102 0.756226 6.03419V15.9651C0.756226 17.8227 2.26735 19.3339 4.12498 19.3339H17.875C19.7326 19.3339 21.2437 17.8227 21.2437 15.9651V6.03419C21.2437 4.17656 19.7326 2.66544 17.875 2.66544ZM20.0062 15.9658C20.0062 17.1407 19.0499 18.0971 17.875 18.0971H4.12498C3.55996 18.0963 3.01829 17.8716 2.61876 17.472C2.21923 17.0725 1.99445 16.5308 1.99373 15.9658V6.03419C1.99373 4.85925 2.95004 3.90294 4.12498 3.90294H17.875C19.0499 3.90294 20.0062 4.85925 20.0062 6.03419V15.9658Z" fill="black"/>
<path d="M9.72532 11.1664C10.2814 10.6091 10.5934 9.85396 10.5929 9.06676C10.5922 8.27612 10.2779 7.51807 9.71887 6.95894C9.15987 6.39982 8.40189 6.08529 7.61126 6.08438C6.82075 6.08547 6.06295 6.40008 5.5041 6.95919C4.94525 7.51829 4.63099 8.27624 4.63026 9.06676C4.62979 9.85396 4.94185 10.6091 5.49789 11.1664C4.42882 11.7026 3.68701 12.7978 3.68701 14.0731V14.4513C3.68701 15.0294 4.09745 15.5279 4.66326 15.6365C6.61122 16.0086 8.61199 16.0086 10.5599 15.6365C10.835 15.583 11.0828 15.4355 11.261 15.2192C11.4391 15.003 11.5364 14.7314 11.5362 14.4513V14.0731C11.5369 12.7978 10.7944 11.7026 9.72532 11.1664ZM7.61195 7.32188C8.07437 7.32243 8.51769 7.50636 8.84467 7.83334C9.17165 8.16032 9.35559 8.60365 9.35614 9.06607C9.35541 9.52837 9.17139 9.97152 8.84443 10.2983C8.51747 10.6252 8.07425 10.809 7.61195 10.8096C7.14965 10.809 6.70643 10.6252 6.37947 10.2983C6.05251 9.97152 5.86849 9.52837 5.86776 9.06607C5.86831 8.60365 6.05224 8.16032 6.37923 7.83334C6.70621 7.50636 7.14953 7.32243 7.61195 7.32188ZM10.2994 14.4258C8.52289 14.7613 6.64532 14.729 4.92451 14.4506V14.0724C4.92506 13.5355 5.13864 13.0207 5.51838 12.6411C5.89811 12.2615 6.41295 12.0481 6.94989 12.0478H8.27401C8.81094 12.0481 9.32579 12.2615 9.70552 12.6411C10.0853 13.0207 10.2988 13.5355 10.2994 14.0724V14.4258Z" fill="black"/>
<path d="M17.6942 8.94919H13.521C13.3569 8.94919 13.1996 9.01438 13.0835 9.13042C12.9675 9.24645 12.9023 9.40384 12.9023 9.56794C12.9023 9.73204 12.9675 9.88942 13.0835 10.0055C13.1996 10.1215 13.3569 10.1867 13.521 10.1867H17.6942C17.8583 10.1867 18.0157 10.1215 18.1317 10.0055C18.2477 9.88942 18.3129 9.73204 18.3129 9.56794C18.3129 9.40384 18.2477 9.24645 18.1317 9.13042C18.0157 9.01438 17.8583 8.94919 17.6942 8.94919ZM15.5719 11.8133H13.5204C13.3563 11.8133 13.1989 11.8785 13.0828 11.9945C12.9668 12.1106 12.9016 12.268 12.9016 12.4321C12.9016 12.5962 12.9668 12.7535 13.0828 12.8696C13.1989 12.9856 13.3563 13.0508 13.5204 13.0508H15.5719C15.736 13.0508 15.8933 12.9856 16.0094 12.8696C16.1254 12.7535 16.1906 12.5962 16.1906 12.4321C16.1906 12.268 16.1254 12.1106 16.0094 11.9945C15.8933 11.8785 15.736 11.8133 15.5719 11.8133Z" fill="black"/>
</svg>
