<svg width="11" height="11" viewBox="0 0 11 11" fill="none" xmlns="http://www.w3.org/2000/svg">
<path d="M10 5.5C10 7.97496 7.97496 10 5.5 10C3.02504 10 1 7.97496 1 5.5C1 3.02504 3.02504 1 5.5 1C7.97496 1 10 3.02504 10 5.5Z" stroke="#5B5B5B" stroke-miterlimit="10" stroke-linecap="round" stroke-linejoin="round"/>
<path d="M6.06681 1L6.37007 1.93102C6.49179 2.2972 6.2259 2.67742 5.84809 2.67742H5.51545C5.21093 2.67742 4.96408 2.93015 4.96408 3.24194V3.43222C4.96408 3.64455 4.86351 3.85604 4.68015 3.95232C4.23578 4.18566 4.02935 4.71498 4.25269 5.17232L4.41272 5.5L3.16062 4.64536C2.9293 4.48747 2.84255 4.17348 2.97639 3.92399C3.16042 3.58087 2.97659 3.1566 2.60977 3.0627L1.8999 2.88573" fill="#575757"/>
<path d="M6.06681 1L6.37007 1.93102C6.49179 2.2972 6.2259 2.67742 5.84809 2.67742H5.51545C5.21093 2.67742 4.96408 2.93015 4.96408 3.24194V3.43222C4.96408 3.64455 4.86351 3.85604 4.68015 3.95232C4.23578 4.18566 4.02935 4.71498 4.25269 5.17232L4.41272 5.5L3.16062 4.64536C2.9293 4.48747 2.84255 4.17348 2.97639 3.92398C3.16042 3.58087 2.97659 3.1566 2.60977 3.0627L1.8999 2.88573" stroke="#5B5B5B" stroke-miterlimit="10" stroke-linecap="round" stroke-linejoin="round"/>
<path d="M5.9501 6.06017C6.03123 6.22849 6.15594 6.37005 6.31026 6.46899C6.46459 6.56793 6.64242 6.62033 6.82384 6.62033H7.3001V7.1805C7.3001 7.49244 7.17719 7.77461 6.97887 7.97774C6.41659 8.55365 5.92997 9.22236 5.6801 10L5.48536 9.59597C5.2583 9.12493 5.1401 8.58685 5.1401 8.06022C5.1401 7.95891 5.12086 7.85859 5.08349 7.76499C5.04611 7.67139 4.99132 7.58635 4.92226 7.51471L4.6001 7.1805L4.76104 7.01355C4.9874 6.77873 5.04353 6.41998 4.90036 6.12294L4.6001 5.5H5.07636C5.25778 5.5 5.43561 5.5524 5.58993 5.65134C5.74425 5.75028 5.86897 5.89184 5.9501 6.06017Z" fill="#575757" stroke="#5B5B5B" stroke-miterlimit="10" stroke-linecap="round" stroke-linejoin="round"/>
</svg>
