<svg width="18" height="18" viewBox="0 0 18 18" fill="none" xmlns="http://www.w3.org/2000/svg">
<path d="M13.7818 17.3077C14.3649 17.307 14.9238 17.075 15.336 16.6626C15.7483 16.2503 15.9801 15.6913 15.9806 15.1082V2.89108C15.9799 2.30815 15.748 1.74931 15.3358 1.33712C14.9236 0.92493 14.3648 0.693039 13.7818 0.692307H6.88992C6.30284 0.692307 5.75038 0.920768 5.335 1.33615L2.66269 4.00846C2.45832 4.21219 2.29628 4.45435 2.1859 4.72097C2.07552 4.9876 2.01898 5.27343 2.01954 5.562V15.1089C2.02027 15.6918 2.25216 16.2507 2.66435 16.6629C3.07654 17.0751 3.63538 17.307 4.2183 17.3077H13.7818ZM3.40415 15.1082V5.562C3.40415 5.34531 3.48861 5.13969 3.6423 4.98738L6.31461 2.31508C6.38997 2.23947 6.47954 2.17951 6.57815 2.13864C6.67676 2.09777 6.78248 2.0768 6.88923 2.07692H13.7811C14.2305 2.07692 14.5953 2.44177 14.5953 2.89108V15.1082C14.5953 15.5575 14.2305 15.9231 13.7811 15.9231H4.2183C4.00237 15.9227 3.7954 15.8367 3.64277 15.684C3.49015 15.5312 3.40433 15.3242 3.40415 15.1082Z" fill="#263238"/>
<path d="M6.08537 14.5385H11.9146C12.0982 14.5385 12.2743 14.4655 12.4041 14.3357C12.534 14.2059 12.6069 14.0298 12.6069 13.8462C12.6069 13.6625 12.534 13.4865 12.4041 13.3566C12.2743 13.2268 12.0982 13.1539 11.9146 13.1539H6.08537C5.90176 13.1539 5.72567 13.2268 5.59584 13.3566C5.46601 13.4865 5.39307 13.6625 5.39307 13.8462C5.39307 14.0298 5.46601 14.2059 5.59584 14.3357C5.72567 14.4655 5.90176 14.5385 6.08537 14.5385ZM9.48737 4.63916C9.79545 4.34562 9.72899 3.90462 9.48737 3.66301C9.35629 3.53669 9.18134 3.46611 8.9993 3.46611C8.81726 3.46611 8.6423 3.53669 8.51122 3.66301C8.28068 3.89354 8.18722 4.33247 8.51122 4.63916C8.57445 4.70478 8.65026 4.75698 8.73412 4.79263C8.81798 4.82829 8.90817 4.84666 8.9993 4.84666C9.09042 4.84666 9.18061 4.82829 9.26447 4.79263C9.34834 4.75698 9.42415 4.70478 9.48737 4.63916ZM8.30768 6.37478V8.26547C8.30768 8.44908 8.38062 8.62517 8.51045 8.755C8.64029 8.88484 8.81638 8.95778 8.99999 8.95778C9.1836 8.95778 9.35969 8.88484 9.48952 8.755C9.61936 8.62517 9.6923 8.44908 9.6923 8.26547V6.37478C9.6923 6.19116 9.61936 6.01507 9.48952 5.88524C9.35969 5.75541 9.1836 5.68247 8.99999 5.68247C8.81638 5.68247 8.64029 5.75541 8.51045 5.88524C8.38062 6.01507 8.30768 6.19116 8.30768 6.37478ZM6.08537 11.7706H11.9146C12.0982 11.7706 12.2743 11.6977 12.4041 11.5678C12.534 11.438 12.6069 11.2619 12.6069 11.0783C12.6069 10.8947 12.534 10.7186 12.4041 10.5888C12.2743 10.4589 12.0982 10.386 11.9146 10.386H6.08537C5.90176 10.386 5.72567 10.4589 5.59584 10.5888C5.46601 10.7186 5.39307 10.8947 5.39307 11.0783C5.39307 11.2619 5.46601 11.438 5.59584 11.5678C5.72567 11.6977 5.90176 11.7706 6.08537 11.7706Z" fill="#263238"/>
</svg>
