<svg width="20" height="21" viewBox="0 0 20 21" fill="none" xmlns="http://www.w3.org/2000/svg">
<g clip-path="url(#clip0_797_211)">
<path d="M20.0833 13.0833H17.5833C17.4728 13.0833 17.3669 13.1272 17.2887 13.2054L15.937 14.5571L13.3133 11.5591C13.2376 11.4721 13.1291 11.4205 13.0138 11.4167C12.8997 11.4189 12.7901 11.4622 12.7054 11.5387L11.1609 13.0833H9.25C9.0199 13.0833 8.83333 13.2699 8.83333 13.5C8.83333 13.7301 9.0199 13.9167 9.25 13.9167H11.3333C11.4439 13.9167 11.5498 13.8728 11.6279 13.7946L12.9797 12.4429L15.6034 15.4409C15.6791 15.5279 15.7876 15.5795 15.9028 15.5833H15.9167C16.0272 15.5833 16.1331 15.5394 16.2113 15.4613L17.7559 13.9167H20.0833C20.3134 13.9167 20.5 13.7301 20.5 13.5C20.5 13.2699 20.3134 13.0833 20.0833 13.0833ZM18.4167 16C18.1866 16 18 16.1866 18 16.4167V16.8333C17.9988 17.7533 17.2533 18.4988 16.3333 18.5H8C7.08 18.4988 6.3345 17.7533 6.33333 16.8333V5.16666C6.3345 4.24666 7.08 3.50117 8 3.5H13V6.55582C13.0014 7.62897 13.871 8.49862 14.9442 8.5H18V10.5833C18 10.8134 18.1866 11 18.4167 11C18.6468 11 18.8333 10.8134 18.8333 10.5833V8.08333C18.8333 7.97281 18.7894 7.86686 18.7113 7.78873L13.7113 2.78873C13.6331 2.71056 13.5272 2.66666 13.4167 2.66666H8C6.61989 2.66819 5.50153 3.78656 5.5 5.16666V16.8333C5.50153 18.2134 6.61989 19.3318 8 19.3333H16.3333C17.7134 19.3318 18.8318 18.2134 18.8333 16.8333V16.4167C18.8333 16.1866 18.6468 16 18.4167 16ZM13.8333 4.08914L17.4109 7.66666H14.9442C14.3309 7.66616 13.8338 7.16913 13.8333 6.55582V4.08914Z" fill="#263238" stroke="#263238" stroke-width="0.3"/>
</g>
<defs>
<clipPath id="clip0_797_211">
<rect width="20" height="20" fill="white" transform="translate(0 0.5)"/>
</clipPath>
</defs>
</svg>
