<svg width="20" height="20" viewBox="0 0 20 20" fill="none" xmlns="http://www.w3.org/2000/svg">
<path fill-rule="evenodd" clip-rule="evenodd" d="M9.58329 16.8858H2.45829C2.41409 16.8858 2.3717 16.8683 2.34044 16.837C2.30919 16.8058 2.29163 16.7634 2.29163 16.7192V15.5108C2.29163 14.8183 2.78579 14.2083 3.54746 13.69C4.90746 12.7617 7.10829 12.1767 9.58329 12.1767C9.74905 12.1767 9.90802 12.1108 10.0252 11.9936C10.1424 11.8764 10.2083 11.7174 10.2083 11.5517C10.2083 11.3859 10.1424 11.2269 10.0252 11.1097C9.90802 10.9925 9.74905 10.9267 9.58329 10.9267C6.81496 10.9267 4.36413 11.6192 2.84246 12.6567C1.68163 13.4483 1.04163 14.4542 1.04163 15.51V16.7192C1.04163 17.0949 1.19088 17.4552 1.45656 17.7209C1.72223 17.9866 2.08257 18.1358 2.45829 18.1358H9.58329C9.74905 18.1358 9.90802 18.07 10.0252 17.9528C10.1424 17.8356 10.2083 17.6766 10.2083 17.5108C10.2083 17.3451 10.1424 17.1861 10.0252 17.0689C9.90802 16.9517 9.74905 16.8858 9.58329 16.8858ZM9.58329 1.04166C7.05329 1.04166 4.99996 3.095 4.99996 5.625C4.99996 8.155 7.05329 10.2083 9.58329 10.2083C12.1133 10.2083 14.1666 8.155 14.1666 5.625C14.1666 3.095 12.1133 1.04166 9.58329 1.04166ZM9.58329 2.29166C11.4233 2.29166 12.9166 3.785 12.9166 5.625C12.9166 7.465 11.4233 8.95833 9.58329 8.95833C7.74329 8.95833 6.24996 7.465 6.24996 5.625C6.24996 3.785 7.74329 2.29166 9.58329 2.29166ZM13.9583 14.5833V16.6667C13.9583 16.8324 14.0241 16.9914 14.1414 17.1086C14.2586 17.2258 14.4175 17.2917 14.5833 17.2917C14.7491 17.2917 14.908 17.2258 15.0252 17.1086C15.1424 16.9914 15.2083 16.8324 15.2083 16.6667V14.5833C15.2083 14.4176 15.1424 14.2586 15.0252 14.1414C14.908 14.0242 14.7491 13.9583 14.5833 13.9583C14.4175 13.9583 14.2586 14.0242 14.1414 14.1414C14.0241 14.2586 13.9583 14.4176 13.9583 14.5833Z" fill="black"/>
<path d="M14.5833 13.5417C15.0436 13.5417 15.4167 13.1686 15.4167 12.7083C15.4167 12.2481 15.0436 11.875 14.5833 11.875C14.1231 11.875 13.75 12.2481 13.75 12.7083C13.75 13.1686 14.1231 13.5417 14.5833 13.5417Z" fill="black"/>
<path fill-rule="evenodd" clip-rule="evenodd" d="M14.5833 10.2083C12.1683 10.2083 10.2083 12.1683 10.2083 14.5833C10.2083 16.9983 12.1683 18.9583 14.5833 18.9583C16.9983 18.9583 18.9583 16.9983 18.9583 14.5833C18.9583 12.1683 16.9983 10.2083 14.5833 10.2083ZM14.5833 11.4583C16.3083 11.4583 17.7083 12.8583 17.7083 14.5833C17.7083 16.3083 16.3083 17.7083 14.5833 17.7083C12.8583 17.7083 11.4583 16.3083 11.4583 14.5833C11.4583 12.8583 12.8583 11.4583 14.5833 11.4583Z" fill="black"/>
</svg>
