<svg width="18" height="20" viewBox="0 0 18 20" fill="none" xmlns="http://www.w3.org/2000/svg">
<path d="M10.3291 17.9139C9.86757 18.4339 9.35303 18.7241 8.81051 18.7241C6.82037 18.7241 5.20703 14.8182 5.20703 9.99998C5.20703 5.18176 6.82037 1.27586 8.81051 1.27586C10.8006 1.27586 12.4139 5.18176 12.4139 9.99998C12.4139 12.5905 11.9476 14.9174 11.207 16.5152" stroke="#263238" stroke-miterlimit="10" stroke-linecap="round" stroke-linejoin="round"/>
<path d="M4.06909 4.68966C5.8602 4.81149 8.21063 5.57964 10.5584 6.9184C14.7637 9.31633 17.368 12.6369 16.3753 14.3353C16.0136 14.9539 15.2245 15.2719 14.1642 15.3103" stroke="#263238" stroke-miterlimit="10" stroke-linecap="round" stroke-linejoin="round"/>
<path d="M12.7932 15.3103C11.0601 15.084 8.90992 14.3274 6.76186 13.0973C2.50163 10.6576 -0.136645 7.27914 0.86911 5.55125C1.11564 5.12776 1.55822 4.8427 2.14864 4.68966" stroke="#263238" stroke-miterlimit="10" stroke-linecap="round" stroke-linejoin="round"/>
<path d="M15.9314 8.10744C14.966 9.70296 12.9965 11.5146 10.4505 12.9889C6.16996 15.4675 1.88065 16.0538 0.870121 14.2984C-0.140407 12.5429 2.51045 9.1105 6.79105 6.63183C11.0716 4.15319 15.3609 3.56691 16.3715 5.32232C16.561 5.65149 16.6217 6.03959 16.5671 6.4693" stroke="#263238" stroke-miterlimit="10" stroke-linecap="round" stroke-linejoin="round"/>
<path d="M16.9657 7.34483C16.9657 7.76379 16.6261 8.10345 16.2071 8.10345C15.7881 8.10345 15.4485 7.76379 15.4485 7.34483C15.4485 6.92584 15.7881 6.58621 16.2071 6.58621C16.6261 6.58621 16.9657 6.92584 16.9657 7.34483Z" stroke="#263238" stroke-miterlimit="10" stroke-linecap="round" stroke-linejoin="round"/>
<path d="M11.276 17.2069C11.276 17.6259 10.9364 17.9655 10.5174 17.9655C10.0984 17.9655 9.75879 17.6259 9.75879 17.2069C9.75879 16.7879 10.0984 16.4483 10.5174 16.4483C10.9364 16.4483 11.276 16.7879 11.276 17.2069Z" stroke="#263238" stroke-miterlimit="10" stroke-linecap="round" stroke-linejoin="round"/>
<path d="M4.06916 4.50002C4.06916 5.0237 3.64462 5.44827 3.12088 5.44827C2.59719 5.44827 2.17261 5.0237 2.17261 4.50002C2.17261 3.97629 2.59719 3.55172 3.12088 3.55172C3.64462 3.55172 4.06916 3.97629 4.06916 4.50002Z" stroke="#263238" stroke-miterlimit="10" stroke-linecap="round" stroke-linejoin="round"/>
<path d="M9.78591 10C9.78591 10.5786 9.31688 11.0476 8.73829 11.0476C8.15968 11.0476 7.69067 10.5786 7.69067 10C7.69067 9.42142 8.15968 8.95238 8.73829 8.95238C9.31688 8.95238 9.78591 9.42142 9.78591 10Z" stroke="#263238" stroke-miterlimit="10" stroke-linecap="round" stroke-linejoin="round"/>
</svg>
