<svg width="19" height="19" viewBox="0 0 19 19" fill="none" xmlns="http://www.w3.org/2000/svg">
<path d="M9.5 17.8972C9.26438 17.897 9.03273 17.8365 8.82708 17.7215L6.15917 16.2395C4.83276 15.502 3.72752 14.4235 2.95781 13.1156C2.18811 11.8076 1.78191 10.3178 1.78125 8.80016V4.68666C1.78121 4.34436 1.90811 4.01421 2.1374 3.76006C2.36669 3.50591 2.68209 3.34582 3.02258 3.31074C4.08407 3.19823 5.12877 2.96203 6.13542 2.60695C7.05837 2.2807 7.94374 1.85659 8.77642 1.34187C8.99423 1.20857 9.24463 1.13803 9.5 1.13803C9.75537 1.13803 10.0058 1.20857 10.2236 1.34187C11.0563 1.85644 11.9417 2.28054 12.8646 2.60695C13.8712 2.96203 14.9159 3.19823 15.9774 3.31074C16.3179 3.34582 16.6333 3.50591 16.8626 3.76006C17.0919 4.01421 17.2188 4.34436 17.2188 4.68666V8.80016C17.2181 10.3178 16.8119 11.8076 16.0422 13.1156C15.2725 14.4235 14.1672 15.502 12.8408 16.2395L10.1729 17.7222C9.96722 17.837 9.73556 17.8973 9.5 17.8972ZM9.5 2.32512C9.46517 2.32481 9.43092 2.33412 9.40104 2.35204C8.49615 2.91132 7.5341 3.37231 6.53125 3.72716C5.43737 4.11324 4.30204 4.36991 3.14846 4.49191C3.09946 4.49607 3.0538 4.51848 3.02053 4.55469C2.98725 4.59089 2.96877 4.63827 2.96875 4.68745V8.80095C2.96917 10.1068 3.3186 11.3889 3.98086 12.5143C4.64312 13.6398 5.59415 14.5678 6.7355 15.2024L9.40342 16.6844C9.43267 16.7008 9.46566 16.7094 9.49921 16.7094C9.53276 16.7094 9.56575 16.7008 9.595 16.6844L12.2645 15.2024C13.4059 14.5678 14.3569 13.6398 15.0191 12.5143C15.6814 11.3889 16.0308 10.1068 16.0312 8.80095V4.68666C16.0312 4.63748 16.0128 4.5901 15.9795 4.55389C15.9462 4.51768 15.9005 4.49528 15.8515 4.49112C14.698 4.36911 13.5626 4.11245 12.4688 3.72637C11.466 3.37202 10.5039 2.91156 9.59896 2.35283C9.56923 2.33448 9.53493 2.32488 9.5 2.32512Z" fill="black"/>
<path d="M9.10412 11.2812C8.95866 11.2814 8.81828 11.2278 8.70987 11.1308L6.92862 9.54748C6.81817 9.44107 6.75318 9.29605 6.74727 9.14279C6.74135 8.98954 6.79497 8.83994 6.89689 8.72533C6.99881 8.61072 7.14112 8.54 7.29402 8.52797C7.44691 8.51595 7.59853 8.56355 7.71712 8.66081L9.06612 9.8594L11.6398 7.11469C11.6928 7.05649 11.7569 7.00941 11.8282 6.97618C11.8996 6.94296 11.9768 6.92425 12.0554 6.92115C12.1341 6.91804 12.2126 6.93061 12.2863 6.95811C12.3601 6.98561 12.4276 7.0275 12.485 7.08135C12.5424 7.13519 12.5886 7.19991 12.6207 7.27174C12.6529 7.34357 12.6705 7.42109 12.6724 7.49977C12.6744 7.57846 12.6606 7.65674 12.6321 7.73007C12.6035 7.80341 12.5606 7.87033 12.5059 7.92694L9.53716 11.0936C9.48173 11.1529 9.41467 11.2002 9.34017 11.2325C9.26566 11.2648 9.18531 11.2814 9.10412 11.2812Z" fill="black"/>
</svg>
