<svg width="20" height="20" viewBox="0 0 20 20" fill="none" xmlns="http://www.w3.org/2000/svg">
<g clip-path="url(#clip0_67_161)">
<path d="M7.76911 13.6805C8.91469 14.4022 10.241 14.7851 11.595 14.7851C15.5591 14.7851 18.7727 11.5715 18.7727 7.60738C18.7727 3.64324 15.5591 0.429688 11.595 0.429688C7.63083 0.429688 4.41724 3.64328 4.41724 7.60742C4.41724 8.65043 4.64454 9.6809 5.08337 10.6271" stroke="black" stroke-miterlimit="22.9256" stroke-linecap="round" stroke-linejoin="round"/>
<path d="M7.07597 14.6206C7.96879 13.7277 7.96877 12.2801 7.07592 11.3873C6.18306 10.4945 4.73549 10.4945 3.84267 11.3874C2.94985 12.2802 2.94987 13.7278 3.84273 14.6206C4.73558 15.5134 6.18315 15.5134 7.07597 14.6206Z" stroke="black" stroke-miterlimit="22.9256" stroke-linecap="round" stroke-linejoin="round"/>
<path fill-rule="evenodd" clip-rule="evenodd" d="M5.4594 19.5703H1.22717C1.22717 17.2329 3.12202 15.3381 5.4594 15.3381C7.79678 15.3381 9.69163 17.2329 9.69163 19.5703H5.4594Z" stroke="black" stroke-miterlimit="22.9256" stroke-linecap="round" stroke-linejoin="round"/>
<path fill-rule="evenodd" clip-rule="evenodd" d="M10.4984 7.75497C10.0056 7.80716 9.56177 7.45001 9.50959 6.95728C9.4574 6.46451 9.81455 6.02271 10.3073 5.97052L11.7643 5.81622C12.2827 5.7613 12.6916 6.1547 12.6916 6.65021V9.8006H12.891C13.3865 9.8006 13.7882 10.2023 13.7882 10.6978C13.7882 11.1933 13.3865 11.5951 12.891 11.5951H10.299C9.80345 11.5951 9.40173 11.1933 9.40173 10.6978C9.40173 10.2023 9.80345 9.8006 10.299 9.8006H10.4983V7.75497H10.4984Z" stroke="black" stroke-miterlimit="22.9256" stroke-linecap="round" stroke-linejoin="round"/>
<path d="M12.4919 4.33221C12.4999 3.72663 12.0155 3.22923 11.4099 3.22124C10.8043 3.21325 10.3069 3.69769 10.2989 4.30327C10.2909 4.90886 10.7753 5.40626 11.3809 5.41425C11.9865 5.42224 12.4839 4.9378 12.4919 4.33221Z" stroke="black" stroke-miterlimit="22.9256" stroke-linecap="round" stroke-linejoin="round"/>
</g>
<defs>
<clipPath id="clip0_67_161">
<rect width="20" height="20" fill="white"/>
</clipPath>
</defs>
</svg>
