<svg width="19" height="19" viewBox="0 0 19 19" fill="none" xmlns="http://www.w3.org/2000/svg">
<mask id="mask0_802_299" style="mask-type:luminance" maskUnits="userSpaceOnUse" x="0" y="0" width="19" height="19">
<path d="M0 7.43866e-05H18.9999V19H0V7.43866e-05Z" fill="white"/>
</mask>
<g mask="url(#mask0_802_299)">
<path d="M8.72068 4.63873C8.72068 6.89315 6.89308 8.72075 4.63866 8.72075C2.38423 8.72075 0.556641 6.89315 0.556641 4.63873C0.556641 2.38431 2.38423 0.556712 4.63866 0.556712C6.89308 0.556712 8.72068 2.38431 8.72068 4.63873Z" stroke="#263238" stroke-miterlimit="10" stroke-linecap="round" stroke-linejoin="round"/>
<path d="M4.63867 5.38091V4.63872C5.25349 4.63872 5.75195 4.14027 5.75195 3.52544C5.75195 2.91062 5.25349 2.41216 4.63867 2.41216C4.02384 2.41216 3.52539 2.91062 3.52539 3.52544" stroke="#263238" stroke-miterlimit="10" stroke-linecap="round" stroke-linejoin="round"/>
<path d="M4.63867 6.92192C4.66994 6.92192 4.69531 6.89655 4.69531 6.86528C4.69531 6.83401 4.66994 6.80864 4.63867 6.80864C4.6074 6.80864 4.58203 6.83401 4.58203 6.86528C4.58203 6.89655 4.6074 6.92192 4.63867 6.92192Z" fill="#263238" stroke="#263238"/>
<path d="M17.8866 2.56158L14.6728 0.706119C14.1403 0.398705 13.4595 0.581135 13.152 1.11358C12.8446 1.64606 13.027 2.32694 13.5595 2.63435L16.7733 4.48985C17.3058 4.79727 17.9866 4.6148 18.294 4.08232C18.6015 3.54988 18.419 2.86899 17.8866 2.56158Z" stroke="#263238" stroke-miterlimit="10" stroke-linecap="round" stroke-linejoin="round"/>
<path d="M15.6101 7.24634L11.7536 5.01978L6.74383 13.6969C6.43638 14.2294 6.61885 14.9103 7.15133 15.2177L9.07956 16.331C9.61204 16.6384 10.2929 16.456 10.6003 15.9235L15.6101 7.24634Z" stroke="#263238" stroke-miterlimit="10" stroke-linecap="round" stroke-linejoin="round"/>
<path d="M16.1304 4.11869L14.2021 3.00542L12.7178 5.57642L14.646 6.6897L16.1304 4.11869Z" stroke="#263238" stroke-miterlimit="10" stroke-linecap="round" stroke-linejoin="round"/>
<path d="M7.30054 12.7329L8.26467 13.2895" stroke="#263238" stroke-miterlimit="10" stroke-linecap="round" stroke-linejoin="round"/>
<path d="M8.41382 10.8046L10.0207 11.7323" stroke="#263238" stroke-miterlimit="10" stroke-linecap="round" stroke-linejoin="round"/>
<path d="M9.5271 8.87626L13.3836 11.1028" stroke="#263238" stroke-miterlimit="10" stroke-linecap="round" stroke-linejoin="round"/>
<path d="M10.6404 6.94808L12.2472 7.87581" stroke="#263238" stroke-miterlimit="10" stroke-linecap="round" stroke-linejoin="round"/>
<path d="M8.11567 15.7743L6.57471 18.4434" stroke="#263238" stroke-miterlimit="10" stroke-linecap="round" stroke-linejoin="round"/>
<path d="M16.5743 7.80298L10.7896 4.46315" stroke="#263238" stroke-miterlimit="10" stroke-linecap="round" stroke-linejoin="round"/>
</g>
</svg>
