<svg width="20" height="19" viewBox="0 0 20 19" fill="none" xmlns="http://www.w3.org/2000/svg">
<path d="M10 13.75H5C3.83968 13.75 2.72688 14.2109 1.90641 15.0314C1.08594 15.8519 0.625 16.9647 0.625 18.125C0.625 18.2908 0.690848 18.4497 0.808058 18.5669C0.925268 18.6842 1.08424 18.75 1.25 18.75C1.41576 18.75 1.57473 18.6842 1.69194 18.5669C1.80915 18.4497 1.875 18.2908 1.875 18.125C1.875 17.2962 2.20424 16.5014 2.79029 15.9153C3.37634 15.3292 4.1712 15 5 15H10C10.8288 15 11.6237 15.3292 12.2097 15.9153C12.7958 16.5014 13.125 17.2962 13.125 18.125C13.125 18.2908 13.1908 18.4497 13.3081 18.5669C13.4253 18.6842 13.5842 18.75 13.75 18.75C13.9158 18.75 14.0747 18.6842 14.1919 18.5669C14.3092 18.4497 14.375 18.2908 14.375 18.125C14.375 16.9647 13.9141 15.8519 13.0936 15.0314C12.2731 14.2109 11.1603 13.75 10 13.75Z" fill="#263238"/>
<path d="M16.2499 7.50001H14.4874C14.6064 7.28608 14.7067 7.06234 14.7874 6.83126C15.3052 6.77132 15.7998 6.5828 16.2261 6.28288C16.6524 5.98296 16.997 5.58117 17.2283 5.11408C17.4597 4.64699 17.5706 4.12944 17.5508 3.60856C17.5311 3.08768 17.3813 2.58002 17.1152 2.13179C16.8492 1.68357 16.4752 1.30902 16.0274 1.04225C15.5796 0.775486 15.0721 0.624973 14.5513 0.60442C14.0304 0.583867 13.5127 0.693927 13.0453 0.924578C12.5778 1.15523 12.1755 1.49914 11.8749 1.92501C11.6684 1.8906 11.4593 1.87387 11.2499 1.87501C10.4741 1.8746 9.71726 2.11483 9.08369 2.56258C8.45013 3.01033 7.97103 3.64356 7.71242 4.37501H7.49992C6.74752 4.37452 6.00771 4.56808 5.35196 4.93699C4.6962 5.3059 4.14667 5.83769 3.75645 6.481C3.36624 7.1243 3.14852 7.85736 3.12433 8.60938C3.10015 9.36139 3.27031 10.1069 3.61839 10.774C3.96646 11.441 4.48069 12.007 5.11138 12.4173C5.74207 12.8276 6.46792 13.0683 7.2188 13.1161C7.96968 13.164 8.72021 13.0174 9.39788 12.6905C10.0756 12.3636 10.6575 11.8675 11.0874 11.25H13.1249C13.788 11.25 14.4238 11.5134 14.8927 11.9822C15.3615 12.4511 15.6249 13.087 15.6249 13.75C15.6249 13.9158 15.6908 14.0747 15.808 14.192C15.9252 14.3092 16.0842 14.375 16.2499 14.375C16.4157 14.375 16.5747 14.3092 16.6919 14.192C16.8091 14.0747 16.8749 13.9158 16.8749 13.75C16.8749 12.7554 16.4798 11.8016 15.7766 11.0984C15.0733 10.3951 14.1195 10 13.1249 10H11.6937C11.7551 9.78057 11.801 9.55711 11.8312 9.33126C12.3586 9.24484 12.8615 9.04666 13.3062 8.75001H16.2499C16.7472 8.75001 17.2241 8.94755 17.5757 9.29918C17.9274 9.65081 18.1249 10.1277 18.1249 10.625C18.1249 10.7908 18.1908 10.9497 18.308 11.067C18.4252 11.1842 18.5842 11.25 18.7499 11.25C18.9157 11.25 19.0747 11.1842 19.1919 11.067C19.3091 10.9497 19.3749 10.7908 19.3749 10.625C19.3749 9.79621 19.0457 9.00135 18.4596 8.4153C17.8736 7.82925 17.0787 7.50001 16.2499 7.50001ZM16.2499 3.75001C16.2488 4.13685 16.1281 4.51388 15.9043 4.82942C15.6805 5.14496 15.3646 5.38356 14.9999 5.51251C14.9789 4.87517 14.7956 4.25373 14.4676 3.70692C14.1395 3.16011 13.6774 2.706 13.1249 2.38751C13.3925 2.14809 13.7231 1.99052 14.0776 1.93353C14.4321 1.87654 14.7955 1.92253 15.1246 2.06602C15.4537 2.20952 15.7347 2.44448 15.9342 2.743C16.1337 3.04152 16.2433 3.39104 16.2499 3.75001ZM11.2499 3.12501C11.8605 3.12976 12.4483 3.35782 12.9023 3.76617C13.3563 4.17451 13.6452 4.7349 13.7144 5.3416C13.7836 5.9483 13.6283 6.55934 13.278 7.05944C12.9276 7.55955 12.4063 7.91412 11.8124 8.05626C11.6877 7.28241 11.3575 6.55627 10.8561 5.95376C10.3547 5.35125 9.70072 4.8945 8.96242 4.63126C9.1558 4.18485 9.47523 3.80456 9.88155 3.53701C10.2879 3.26946 10.7634 3.12628 11.2499 3.12501ZM7.49992 11.875C6.88186 11.875 6.27767 11.6917 5.76376 11.3484C5.24986 11.005 4.84932 10.5169 4.6128 9.94589C4.37627 9.37488 4.31439 8.74654 4.43497 8.14035C4.55555 7.53416 4.85317 6.97734 5.29021 6.5403C5.72725 6.10326 6.28407 5.80563 6.89026 5.68505C7.49646 5.56448 8.12479 5.62636 8.69581 5.86288C9.26683 6.09941 9.75489 6.49995 10.0983 7.01385C10.4416 7.52776 10.6249 8.13194 10.6249 8.75001C10.6249 9.57881 10.2957 10.3737 9.70963 10.9597C9.12358 11.5458 8.32872 11.875 7.49992 11.875Z" fill="#263238"/>
</svg>
