<svg width="10" height="10" viewBox="0 0 10 10" fill="none" xmlns="http://www.w3.org/2000/svg">
<path d="M4.12109 4.6875H5.87891V5.27344H4.12109V4.6875Z" fill="#EDEDED"/>
<path d="M8.11287 5.27343H6.46484V5.56639C6.46484 5.72831 6.33379 5.85936 6.17188 5.85936H3.82812C3.66621 5.85936 3.53516 5.72831 3.53516 5.56639V5.27343H1.88713C1.70266 5.27357 1.52283 5.2156 1.37317 5.10775C1.22351 4.9999 1.11162 4.84765 1.0534 4.67261L0 1.5119V7.91014C0 8.39477 0.394297 8.78905 0.878906 8.78905H9.12109C9.60572 8.78905 10 8.39475 10 7.91014V1.51214L8.94652 4.67261C8.88833 4.84765 8.77646 4.9999 8.62682 5.10776C8.47717 5.21561 8.29735 5.27358 8.11289 5.27343H8.11287Z" fill="#EDEDED"/>
<path d="M6.17194 0H3.82819C3.34356 0 2.94929 0.394297 2.94929 0.878906V1.17188H0.50415L1.60911 4.48723C1.62856 4.54558 1.66589 4.59632 1.7158 4.63227C1.76571 4.66822 1.82567 4.68754 1.88718 4.6875H3.53522V4.39453C3.53522 4.23262 3.66628 4.10156 3.82819 4.10156H6.17194C6.33386 4.10156 6.46491 4.23262 6.46491 4.39453V4.6875H8.11294C8.23911 4.6875 8.35097 4.60709 8.39103 4.48723L9.49606 1.17188H7.05085V0.878906C7.05085 0.394277 6.65657 0 6.17194 0ZM3.53522 1.17188V0.878906C3.53522 0.717246 3.66653 0.585938 3.82819 0.585938H6.17194C6.3336 0.585938 6.46491 0.717246 6.46491 0.878906V1.17188H3.53522Z" fill="#EDEDED"/>
</svg>
