<svg width="79" height="48" viewBox="0 0 79 48" fill="none" xmlns="http://www.w3.org/2000/svg">
<path d="M0.25 0.25H74C76.6234 0.25 78.75 2.37665 78.75 5V43C78.75 45.6233 76.6234 47.75 74 47.75H0.25V0.25Z" fill="#E6E6E6" stroke="#9BA3A6" stroke-width="0.5"/>
<path d="M60.334 27.5393C59.9386 28.137 59.0614 28.137 58.666 27.5393L55.7634 23.1518C55.3236 22.487 55.8003 21.6 56.5974 21.6L62.4026 21.6C63.1997 21.6 63.6764 22.487 63.2366 23.1518L60.334 27.5393Z" fill="#263238"/>
<path d="M28.2586 17.2163H30.2303V16.9176C30.2303 16.7591 30.2893 16.6071 30.3943 16.4951C30.4994 16.383 30.6418 16.3201 30.7904 16.3201C30.939 16.3201 31.0814 16.383 31.1865 16.4951C31.2915 16.6071 31.3505 16.7591 31.3505 16.9176V17.2163H37.2544V16.9176C37.2544 16.7591 37.3134 16.6071 37.4185 16.4951C37.5235 16.383 37.666 16.3201 37.8146 16.3201C37.9631 16.3201 38.1056 16.383 38.2106 16.4951C38.3157 16.6071 38.3747 16.7591 38.3747 16.9176V17.2163H40.3464C40.9714 17.2179 41.5703 17.4834 42.0123 17.9548C42.4542 18.4262 42.7031 19.0651 42.7046 19.7317V30.2116C42.7031 30.8782 42.4542 31.5171 42.0123 31.9885C41.5703 32.4599 40.9714 32.7254 40.3464 32.727H28.2586C27.6336 32.7254 27.0346 32.4599 26.5927 31.9885C26.1508 31.5171 25.9018 30.8782 25.9004 30.2116V19.7317C25.9018 19.0651 26.1508 18.4262 26.5927 17.9548C27.0346 17.4834 27.6336 17.2179 28.2586 17.2163ZM40.3464 18.4113H38.3747V18.71C38.3747 18.8685 38.3157 19.0204 38.2106 19.1325C38.1056 19.2445 37.9631 19.3075 37.8146 19.3075C37.666 19.3075 37.5235 19.2445 37.4185 19.1325C37.3134 19.0204 37.2544 18.8685 37.2544 18.71V18.4113H31.3505V18.71C31.3505 18.8685 31.2915 19.0204 31.1865 19.1325C31.0814 19.2445 30.939 19.3075 30.7904 19.3075C30.6418 19.3075 30.4994 19.2445 30.3943 19.1325C30.2893 19.0204 30.2303 18.8685 30.2303 18.71V18.4113H28.2586C27.9302 18.4113 27.6154 18.5504 27.3832 18.798C27.1511 19.0456 27.0206 19.3815 27.0206 19.7317V21.1477H41.5843V19.7317C41.5843 19.3815 41.4539 19.0456 41.2217 18.798C40.9896 18.5504 40.6747 18.4113 40.3464 18.4113ZM28.2586 31.5559H40.3464C40.5109 31.5559 40.6737 31.521 40.8254 31.4531C40.977 31.3853 41.1145 31.2859 41.2298 31.1607C41.345 31.0356 41.4357 30.8872 41.4966 30.7242C41.5575 30.5612 41.5873 30.387 41.5843 30.2116V22.3427H27.0206V30.2116C27.0177 30.387 27.0475 30.5612 27.1084 30.7242C27.1692 30.8872 27.26 31.0356 27.3752 31.1607C27.4905 31.2859 27.6279 31.3853 27.7796 31.4531C27.9313 31.521 28.0941 31.5559 28.2586 31.5559Z" fill="#263238"/>
</svg>
