<svg width="18" height="18" viewBox="0 0 18 18" fill="none" xmlns="http://www.w3.org/2000/svg">
<path d="M9.01674 5.25V0.345C9.71182 0.607001 10.3432 1.01348 10.8689 1.5375L13.4868 4.152C14.0124 4.67616 14.4199 5.30617 14.6823 6H9.76813C9.35336 6 9.01674 5.66325 9.01674 5.25ZM9.97101 14.61C9.6685 14.9118 9.42852 15.2702 9.26478 15.6646C9.10104 16.059 9.01676 16.4818 9.01674 16.9088V18H10.11C10.9741 18 11.8022 17.6572 12.413 17.0475L17.5278 11.9423C17.8368 11.616 18.0061 11.1824 17.9998 10.7335C17.9935 10.2846 17.8121 9.85588 17.494 9.53844C17.176 9.221 16.7465 9.03988 16.2967 9.03359C15.847 9.0273 15.4126 9.19633 15.0858 9.50475L9.97101 14.61ZM7.51395 16.9088C7.51395 15.6398 8.00912 14.4465 8.90779 13.5495L14.0225 8.44425C14.3104 8.15833 14.6497 7.92909 15.0226 7.7685C15.0196 7.6785 15.0159 7.58925 15.0099 7.49925H9.76813C8.52533 7.49925 7.51395 6.48975 7.51395 5.24925V0.018C7.39297 0.00975 7.272 0 7.14952 0H3.75697C1.68538 0 0 1.68225 0 3.75V14.25C0 16.3177 1.68538 18 3.75697 18H7.51395V16.9088Z" fill="#263238"/>
</svg>
