<svg width="20" height="16" viewBox="0 0 20 16" fill="none" xmlns="http://www.w3.org/2000/svg">
<path d="M18.9099 2.78709C18.681 2.67565 18.425 2.63179 18.1721 2.66065C17.9191 2.6895 17.6796 2.78987 17.4816 2.94999L15.1749 4.79499V4.39989C15.2278 3.94389 15.1768 3.48185 15.0259 3.04832C14.875 2.6148 14.628 2.22101 14.3034 1.89641C13.9788 1.57182 13.585 1.32482 13.1515 1.1739C12.718 1.02298 12.2559 0.972035 11.7999 1.02489H3.69994C3.24394 0.972035 2.7819 1.02298 2.34837 1.1739C1.91484 1.32482 1.52105 1.57182 1.19646 1.89641C0.871865 2.22101 0.624868 2.6148 0.473946 3.04832C0.323024 3.48185 0.272083 3.94389 0.324935 4.39989V11.5999C0.272083 12.0559 0.323024 12.5179 0.473946 12.9514C0.624868 13.385 0.871865 13.7788 1.19646 14.1034C1.52105 14.428 1.91484 14.675 2.34837 14.8259C2.7819 14.9768 3.24394 15.0277 3.69994 14.9749H11.7999C12.2559 15.0277 12.718 14.9768 13.1515 14.8259C13.585 14.675 13.9788 14.428 14.3034 14.1034C14.628 13.7788 14.875 13.385 15.0259 12.9514C15.1768 12.5179 15.2278 12.0559 15.1749 11.5999V11.2048L17.4816 13.0498C17.7196 13.242 18.0163 13.3468 18.3222 13.3468C18.5257 13.3465 18.7265 13.3007 18.9099 13.2127C19.1398 13.1032 19.3339 12.9306 19.4693 12.715C19.6048 12.4993 19.6761 12.2496 19.6749 11.995V4.00479C19.6761 3.75015 19.6048 3.50043 19.4693 3.28481C19.3339 3.06919 19.1398 2.89656 18.9099 2.78709ZM13.8249 11.5999C13.8249 13.0192 13.2192 13.6249 11.7999 13.6249H3.69994C2.28064 13.6249 1.67494 13.0192 1.67494 11.5999V4.39989C1.67494 2.98059 2.28064 2.37489 3.69994 2.37489H11.7999C13.2192 2.37489 13.8249 2.98059 13.8249 4.39989V11.5999ZM18.3249 11.9959L15.1749 9.47589V6.52389L18.3249 4.00389V11.9959Z" fill="#263238" stroke="white" stroke-width="0.2"/>
</svg>
